<svg width="76" height="28" viewBox="0 0 76 23" fill="none" xmlns="http://www.w3.org/2000/svg">
<path d="M0.860795 10V1.27273H6.53693V2.59801H2.44176V4.96733H6.2429V6.29261H2.44176V8.67472H6.57102V10H0.860795ZM10.5107 10.1151C9.99645 10.1151 9.53622 9.98295 9.12997 9.71875C8.72372 9.45455 8.4027 9.07102 8.1669 8.56818C7.93111 8.06534 7.81321 7.45455 7.81321 6.7358C7.81321 6.00852 7.93253 5.39489 8.17116 4.89489C8.41264 4.39205 8.73793 4.01278 9.14702 3.7571C9.55611 3.49858 10.0121 3.36932 10.5149 3.36932C10.8984 3.36932 11.2138 3.43466 11.4609 3.56534C11.7081 3.69318 11.9041 3.84801 12.049 4.02983C12.1939 4.20881 12.3061 4.37784 12.3857 4.53693H12.4496V1.27273H13.9964V10H12.4794V8.96875H12.3857C12.3061 9.12784 12.1911 9.29687 12.0405 9.47585C11.8899 9.65199 11.6911 9.80256 11.4439 9.92756C11.1967 10.0526 10.8857 10.1151 10.5107 10.1151ZM10.9411 8.84943C11.2678 8.84943 11.5462 8.76136 11.7763 8.58523C12.0064 8.40625 12.1811 8.15767 12.3004 7.83949C12.4197 7.52131 12.4794 7.15057 12.4794 6.72727C12.4794 6.30398 12.4197 5.93608 12.3004 5.62358C12.1839 5.31108 12.0107 5.06818 11.7805 4.89489C11.5533 4.72159 11.2734 4.63494 10.9411 4.63494C10.5973 4.63494 10.3104 4.72443 10.0803 4.90341C9.85014 5.08239 9.67685 5.32955 9.56037 5.64489C9.44389 5.96023 9.38565 6.32102 9.38565 6.72727C9.38565 7.13636 9.44389 7.50142 9.56037 7.82244C9.67969 8.14062 9.8544 8.39205 10.0845 8.5767C10.3175 8.75852 10.603 8.84943 10.9411 8.84943ZM19.8121 7.24716V3.45455H21.3548V10H19.859V8.83665H19.7908C19.6431 9.20312 19.4002 9.50284 19.0621 9.7358C18.7269 9.96875 18.3136 10.0852 17.8221 10.0852C17.3931 10.0852 17.0138 9.99006 16.6843 9.79972C16.3576 9.60653 16.1019 9.3267 15.9173 8.96023C15.7326 8.59091 15.6403 8.14489 15.6403 7.62216V3.45455H17.1829V7.38352C17.1829 7.7983 17.2965 8.12784 17.5238 8.37216C17.7511 8.61648 18.0494 8.73864 18.4187 8.73864C18.646 8.73864 18.8661 8.68324 19.0792 8.57244C19.2923 8.46165 19.467 8.29688 19.6033 8.07812C19.7425 7.85653 19.8121 7.57955 19.8121 7.24716ZM25.7962 10.1278C25.1428 10.1278 24.5817 9.98438 24.1129 9.69744C23.647 9.41051 23.2876 9.0142 23.0348 8.50852C22.7848 8 22.6598 7.41477 22.6598 6.75284C22.6598 6.08807 22.7876 5.50142 23.0433 4.9929C23.299 4.48153 23.6598 4.08381 24.1257 3.79972C24.5945 3.51278 25.1484 3.36932 25.7876 3.36932C26.3189 3.36932 26.7891 3.46733 27.1982 3.66335C27.6101 3.85653 27.9382 4.13068 28.1825 4.4858C28.4268 4.83807 28.5661 5.25 28.6001 5.72159H27.1257C27.0661 5.40625 26.924 5.14347 26.6996 4.93324C26.478 4.72017 26.1811 4.61364 25.8089 4.61364C25.4936 4.61364 25.2166 4.69886 24.978 4.86932C24.7393 5.03693 24.5533 5.27841 24.4197 5.59375C24.2891 5.90909 24.2237 6.28693 24.2237 6.72727C24.2237 7.1733 24.2891 7.55682 24.4197 7.87784C24.5504 8.19602 24.7337 8.44176 24.9695 8.61506C25.2081 8.78551 25.4879 8.87074 25.8089 8.87074C26.0362 8.87074 26.2393 8.82812 26.4183 8.7429C26.6001 8.65483 26.7521 8.52841 26.8743 8.36364C26.9964 8.19886 27.0803 7.99858 27.1257 7.76278H28.6001C28.5632 8.22585 28.4268 8.63636 28.1911 8.99432C27.9553 9.34943 27.6342 9.62784 27.228 9.82955C26.8217 10.0284 26.3445 10.1278 25.7962 10.1278ZM31.7504 10.1321C31.3356 10.1321 30.962 10.0582 30.6296 9.91051C30.3001 9.75994 30.0387 9.53835 29.8455 9.24574C29.6552 8.95312 29.56 8.59233 29.56 8.16335C29.56 7.79403 29.6282 7.48864 29.7646 7.24716C29.9009 7.00568 30.087 6.8125 30.3228 6.66761C30.5586 6.52273 30.8242 6.41335 31.1197 6.33949C31.418 6.26278 31.7262 6.20739 32.0444 6.1733C32.4279 6.13352 32.739 6.09801 32.9776 6.06676C33.2163 6.03267 33.3896 5.98153 33.4975 5.91335C33.6083 5.84233 33.6637 5.73295 33.6637 5.58523V5.55966C33.6637 5.23864 33.5685 4.99006 33.3782 4.81392C33.1879 4.63778 32.9137 4.54972 32.5558 4.54972C32.1779 4.54972 31.8782 4.6321 31.6566 4.79688C31.4379 4.96165 31.2901 5.15625 31.2134 5.38068L29.7731 5.17614C29.8867 4.77841 30.0742 4.44602 30.3356 4.17898C30.5969 3.90909 30.9165 3.70739 31.2944 3.57386C31.6722 3.4375 32.0898 3.36932 32.5472 3.36932C32.8626 3.36932 33.1765 3.40625 33.489 3.48011C33.8015 3.55398 34.087 3.67614 34.3455 3.84659C34.604 4.0142 34.8114 4.2429 34.9677 4.53267C35.1268 4.82244 35.2063 5.18466 35.2063 5.61932V10H33.7234V9.10085H33.6722C33.5785 9.28267 33.4464 9.45312 33.2759 9.61222C33.1083 9.76847 32.8967 9.89489 32.641 9.99148C32.3881 10.0852 32.0913 10.1321 31.7504 10.1321ZM32.1509 8.99858C32.4606 8.99858 32.729 8.9375 32.9563 8.81534C33.1836 8.69034 33.3583 8.52557 33.4805 8.32102C33.6055 8.11648 33.668 7.89347 33.668 7.65199V6.88068C33.6197 6.92045 33.5373 6.95739 33.4208 6.99148C33.3072 7.02557 33.1793 7.0554 33.0373 7.08097C32.8952 7.10653 32.7546 7.12926 32.6154 7.14915C32.4762 7.16903 32.3555 7.18608 32.2532 7.20028C32.0231 7.23153 31.8171 7.28267 31.6353 7.35369C31.4535 7.42472 31.31 7.52415 31.2049 7.65199C31.0998 7.77699 31.0472 7.93892 31.0472 8.13778C31.0472 8.42188 31.1509 8.63636 31.3583 8.78125C31.5657 8.92614 31.8299 8.99858 32.1509 8.99858ZM40.0259 3.45455V4.64773H36.2631V3.45455H40.0259ZM37.1921 1.88636H38.7347V8.03125C38.7347 8.23864 38.766 8.39773 38.8285 8.50852C38.8938 8.61648 38.979 8.69034 39.0842 8.73011C39.1893 8.76989 39.3058 8.78977 39.4336 8.78977C39.5302 8.78977 39.6183 8.78267 39.6978 8.76847C39.7802 8.75426 39.8427 8.74148 39.8853 8.73011L40.1452 9.93608C40.0629 9.96449 39.945 9.99574 39.7915 10.0298C39.641 10.0639 39.4563 10.0838 39.2376 10.0895C38.8512 10.1009 38.5032 10.0426 38.1935 9.91477C37.8839 9.78409 37.6381 9.58239 37.4563 9.30966C37.2773 9.03693 37.1893 8.69602 37.1921 8.28693V1.88636ZM41.3161 10V3.45455H42.8587V10H41.3161ZM42.0916 2.52557C41.8473 2.52557 41.6371 2.4446 41.4609 2.28267C41.2848 2.1179 41.1967 1.92045 41.1967 1.69034C41.1967 1.45739 41.2848 1.25994 41.4609 1.09801C41.6371 0.933238 41.8473 0.850852 42.0916 0.850852C42.3388 0.850852 42.549 0.933238 42.7223 1.09801C42.8984 1.25994 42.9865 1.45739 42.9865 1.69034C42.9865 1.92045 42.8984 2.1179 42.7223 2.28267C42.549 2.4446 42.3388 2.52557 42.0916 2.52557ZM47.3001 10.1278C46.6609 10.1278 46.1069 9.98722 45.6381 9.70597C45.1694 9.42472 44.8058 9.03125 44.5472 8.52557C44.2915 8.01989 44.1637 7.42898 44.1637 6.75284C44.1637 6.0767 44.2915 5.48437 44.5472 4.97585C44.8058 4.46733 45.1694 4.07244 45.6381 3.79119C46.1069 3.50994 46.6609 3.36932 47.3001 3.36932C47.9393 3.36932 48.4933 3.50994 48.962 3.79119C49.4308 4.07244 49.793 4.46733 50.0487 4.97585C50.3072 5.48437 50.4364 6.0767 50.4364 6.75284C50.4364 7.42898 50.3072 8.01989 50.0487 8.52557C49.793 9.03125 49.4308 9.42472 48.962 9.70597C48.4933 9.98722 47.9393 10.1278 47.3001 10.1278ZM47.3086 8.89205C47.6552 8.89205 47.945 8.79687 48.1779 8.60653C48.4109 8.41335 48.5842 8.15483 48.6978 7.83097C48.8143 7.5071 48.8725 7.14631 48.8725 6.74858C48.8725 6.34801 48.8143 5.9858 48.6978 5.66193C48.5842 5.33523 48.4109 5.07528 48.1779 4.8821C47.945 4.68892 47.6552 4.59233 47.3086 4.59233C46.9535 4.59233 46.658 4.68892 46.4222 4.8821C46.1893 5.07528 46.0146 5.33523 45.8981 5.66193C45.7844 5.9858 45.7276 6.34801 45.7276 6.74858C45.7276 7.14631 45.7844 7.5071 45.8981 7.83097C46.0146 8.15483 46.1893 8.41335 46.4222 8.60653C46.658 8.79687 46.9535 8.89205 47.3086 8.89205ZM53.2884 6.16477V10H51.7457V3.45455H53.2202V4.56676H53.2969C53.4474 4.20028 53.6875 3.90909 54.017 3.69318C54.3494 3.47727 54.7599 3.36932 55.2486 3.36932C55.7003 3.36932 56.0938 3.46591 56.429 3.65909C56.767 3.85227 57.0284 4.1321 57.2131 4.49858C57.4006 4.86506 57.4929 5.30966 57.4901 5.83239V10H55.9474V6.07102C55.9474 5.63352 55.8338 5.29119 55.6065 5.04403C55.3821 4.79687 55.071 4.6733 54.6733 4.6733C54.4034 4.6733 54.1634 4.73295 53.9531 4.85227C53.7457 4.96875 53.5824 5.13778 53.4631 5.35938C53.3466 5.58097 53.2884 5.84943 53.2884 6.16477ZM66.8459 3.67188C66.8061 3.29972 66.6385 3.00994 66.343 2.80256C66.0504 2.59517 65.6697 2.49148 65.201 2.49148C64.8714 2.49148 64.5888 2.54119 64.353 2.64062C64.1172 2.74006 63.9368 2.875 63.8118 3.04545C63.6868 3.21591 63.6229 3.41051 63.62 3.62926C63.62 3.81108 63.6612 3.96875 63.7436 4.10227C63.8288 4.2358 63.9439 4.34943 64.0888 4.44318C64.2337 4.53409 64.3942 4.6108 64.5703 4.6733C64.7464 4.7358 64.924 4.78835 65.103 4.83097L65.9212 5.03551C66.2507 5.11222 66.5675 5.21591 66.8714 5.34659C67.1783 5.47727 67.4524 5.64205 67.6939 5.84091C67.9382 6.03977 68.1314 6.27983 68.2734 6.56108C68.4155 6.84233 68.4865 7.17187 68.4865 7.54972C68.4865 8.06108 68.3558 8.51136 68.0945 8.90057C67.8331 9.28693 67.4553 9.58949 66.9609 9.80824C66.4695 10.0241 65.8743 10.1321 65.1754 10.1321C64.4964 10.1321 63.907 10.027 63.407 9.81676C62.9098 9.60653 62.5206 9.29972 62.2393 8.89631C61.9609 8.4929 61.8104 8.00142 61.7876 7.42188H63.343C63.3658 7.72585 63.4595 7.97869 63.6243 8.1804C63.7891 8.3821 64.0036 8.53267 64.2678 8.6321C64.5348 8.73153 64.8331 8.78125 65.1626 8.78125C65.5064 8.78125 65.8075 8.73011 66.0661 8.62784C66.3274 8.52273 66.532 8.37784 66.6797 8.19318C66.8274 8.00568 66.9027 7.78693 66.9055 7.53693C66.9027 7.30966 66.8359 7.12216 66.7053 6.97443C66.5746 6.82386 66.3913 6.69886 66.1555 6.59943C65.9226 6.49716 65.6499 6.40625 65.3374 6.3267L64.3445 6.07102C63.6257 5.88636 63.0575 5.60653 62.6399 5.23153C62.2251 4.85369 62.0178 4.35227 62.0178 3.72727C62.0178 3.21307 62.157 2.76278 62.4354 2.37642C62.7166 1.99006 63.0987 1.69034 63.5817 1.47727C64.0646 1.26136 64.6115 1.15341 65.2223 1.15341C65.8416 1.15341 66.3842 1.26136 66.8501 1.47727C67.3189 1.69034 67.6868 1.98722 67.9538 2.3679C68.2209 2.74574 68.3587 3.1804 68.3672 3.67188H66.8459ZM70.7866 12.4545C70.5763 12.4545 70.3817 12.4375 70.2028 12.4034C70.0266 12.3722 69.886 12.3352 69.7809 12.2926L70.1388 11.0909C70.3633 11.1563 70.5636 11.1875 70.7397 11.1847C70.9158 11.1818 71.0707 11.1264 71.2042 11.0185C71.3406 10.9134 71.4556 10.7372 71.5494 10.4901L71.6815 10.1364L69.3079 3.45455H70.9442L72.4528 8.39773H72.521L74.0337 3.45455H75.6744L73.0536 10.7926C72.9315 11.1392 72.7695 11.4361 72.5678 11.6832C72.3661 11.9332 72.119 12.1236 71.8263 12.2543C71.5366 12.3878 71.19 12.4545 70.7866 12.4545ZM81.9151 5.18466L80.5089 5.33807C80.4691 5.19602 80.3995 5.0625 80.3001 4.9375C80.2035 4.8125 80.0728 4.71165 79.908 4.63494C79.7433 4.55824 79.5415 4.51989 79.3029 4.51989C78.9819 4.51989 78.712 4.58949 78.4933 4.72869C78.2773 4.8679 78.1708 5.0483 78.1737 5.26989C78.1708 5.46023 78.2404 5.61506 78.3825 5.73438C78.5273 5.85369 78.766 5.9517 79.0984 6.02841L80.2148 6.26705C80.8342 6.40057 81.2944 6.61222 81.5955 6.90199C81.8995 7.19176 82.0529 7.57102 82.0558 8.03977C82.0529 8.4517 81.9322 8.81534 81.6935 9.13068C81.4577 9.44318 81.1296 9.6875 80.7092 9.86364C80.2887 10.0398 79.8058 10.1278 79.2603 10.1278C78.4592 10.1278 77.8143 9.96023 77.3256 9.625C76.837 9.28693 76.5458 8.81676 76.4521 8.21449L77.9563 8.0696C78.0245 8.36506 78.1694 8.58807 78.391 8.73864C78.6126 8.8892 78.9009 8.96449 79.256 8.96449C79.6225 8.96449 79.9165 8.8892 80.1381 8.73864C80.3626 8.58807 80.4748 8.40199 80.4748 8.1804C80.4748 7.9929 80.4023 7.83807 80.2575 7.71591C80.1154 7.59375 79.8938 7.5 79.5927 7.43466L78.4762 7.20028C77.8484 7.0696 77.3839 6.84943 77.0827 6.53977C76.7816 6.22727 76.6325 5.83239 76.6353 5.35511C76.6325 4.9517 76.7418 4.60227 76.9634 4.30682C77.1879 4.00852 77.4989 3.77841 77.8967 3.61648C78.2972 3.4517 78.7589 3.36932 79.2816 3.36932C80.0487 3.36932 80.6523 3.53267 81.0927 3.85938C81.5359 4.18608 81.81 4.62784 81.9151 5.18466ZM86.5962 3.45455V4.64773H82.8335V3.45455H86.5962ZM83.7624 1.88636H85.305V8.03125C85.305 8.23864 85.3363 8.39773 85.3988 8.50852C85.4641 8.61648 85.5494 8.69034 85.6545 8.73011C85.7596 8.76989 85.8761 8.78977 86.0039 8.78977C86.1005 8.78977 86.1886 8.78267 86.2681 8.76847C86.3505 8.75426 86.413 8.74148 86.4556 8.73011L86.7156 9.93608C86.6332 9.96449 86.5153 9.99574 86.3619 10.0298C86.2113 10.0639 86.0266 10.0838 85.8079 10.0895C85.4215 10.1009 85.0735 10.0426 84.7638 9.91477C84.4542 9.78409 84.2085 9.58239 84.0266 9.30966C83.8477 9.03693 83.7596 8.69602 83.7624 8.28693V1.88636ZM90.7138 10.1278C90.0575 10.1278 89.4908 9.99148 89.0135 9.71875C88.5391 9.44318 88.174 9.05398 87.9183 8.55114C87.6626 8.04545 87.5348 7.45028 87.5348 6.76562C87.5348 6.09233 87.6626 5.50142 87.9183 4.9929C88.1768 4.48153 88.5376 4.08381 89.0007 3.79972C89.4638 3.51278 90.0078 3.36932 90.6328 3.36932C91.0362 3.36932 91.4169 3.43466 91.7749 3.56534C92.1357 3.69318 92.4538 3.89205 92.7294 4.16193C93.0078 4.43182 93.2266 4.77557 93.3857 5.19318C93.5447 5.60795 93.6243 6.10227 93.6243 6.67614V7.14915H88.2592V6.10938H92.1456C92.1428 5.81392 92.0788 5.55114 91.9538 5.32102C91.8288 5.08807 91.6541 4.90483 91.4297 4.77131C91.2081 4.63778 90.9496 4.57102 90.6541 4.57102C90.3388 4.57102 90.0618 4.64773 89.8232 4.80114C89.5845 4.9517 89.3984 5.15057 89.2649 5.39773C89.1342 5.64205 89.0675 5.91051 89.0646 6.20312V7.1108C89.0646 7.49148 89.1342 7.81818 89.2734 8.09091C89.4126 8.3608 89.6072 8.56818 89.8572 8.71307C90.1072 8.85511 90.3999 8.92614 90.7351 8.92614C90.9595 8.92614 91.1626 8.89489 91.3445 8.83239C91.5263 8.76705 91.6839 8.67188 91.8175 8.54688C91.951 8.42188 92.0518 8.26705 92.12 8.08239L93.5604 8.24432C93.4695 8.625 93.2962 8.95739 93.0405 9.24148C92.7876 9.52273 92.4638 9.74148 92.0689 9.89773C91.674 10.0511 91.2223 10.1278 90.7138 10.1278ZM94.9293 10V3.45455H96.4038V4.56676H96.4805C96.6168 4.19176 96.8427 3.89915 97.158 3.68892C97.4734 3.47585 97.8498 3.36932 98.2873 3.36932C98.7305 3.36932 99.104 3.47727 99.408 3.69318C99.7148 3.90625 99.9308 4.19744 100.056 4.56676H100.124C100.269 4.20312 100.513 3.91335 100.857 3.69744C101.203 3.47869 101.614 3.36932 102.088 3.36932C102.691 3.36932 103.182 3.55966 103.563 3.94034C103.944 4.32102 104.134 4.87642 104.134 5.60653V10H102.587V5.84517C102.587 5.43892 102.479 5.14205 102.263 4.95455C102.047 4.7642 101.783 4.66903 101.471 4.66903C101.098 4.66903 100.807 4.78551 100.597 5.01847C100.39 5.24858 100.286 5.5483 100.286 5.91761V10H98.7731V5.78125C98.7731 5.44318 98.6708 5.1733 98.4663 4.97159C98.2646 4.76989 98.0004 4.66903 97.6737 4.66903C97.4521 4.66903 97.2504 4.72585 97.0685 4.83949C96.8867 4.95028 96.7418 5.10795 96.6339 5.3125C96.5259 5.5142 96.4719 5.75 96.4719 6.01989V10H94.9293Z" fill="#086CB4"/>
</svg>
