<svg width="96" height="45" viewBox="0 0 96 45" fill="none" xmlns="http://www.w3.org/2000/svg">
<path d="M1.43466 16V1.45455H10.8949V3.66335H4.0696V7.61222H10.4048V9.82102H4.0696V13.7912H10.9517V16H1.43466ZM17.5178 16.1918C16.6607 16.1918 15.8937 15.9716 15.2166 15.5312C14.5395 15.0909 14.0045 14.4517 13.6115 13.6136C13.2185 12.7756 13.022 11.7576 13.022 10.5597C13.022 9.34754 13.2209 8.32481 13.6186 7.49148C14.0211 6.65341 14.5632 6.02131 15.245 5.59517C15.9268 5.1643 16.6868 4.94886 17.5249 4.94886C18.1641 4.94886 18.6896 5.05777 19.1016 5.27557C19.5135 5.48864 19.8402 5.74669 20.0817 6.04972C20.3232 6.34801 20.5102 6.62973 20.6428 6.89489H20.7493V1.45455H23.3274V16H20.799V14.2812H20.6428C20.5102 14.5464 20.3184 14.8281 20.0675 15.1264C19.8165 15.42 19.4851 15.6709 19.0732 15.8793C18.6612 16.0876 18.1428 16.1918 17.5178 16.1918ZM18.2351 14.0824C18.7796 14.0824 19.2436 13.9356 19.6271 13.642C20.0107 13.3437 20.3018 12.9295 20.5007 12.3991C20.6996 11.8688 20.799 11.2509 20.799 10.5455C20.799 9.83996 20.6996 9.2268 20.5007 8.70597C20.3066 8.18513 20.0178 7.7803 19.6342 7.49148C19.2554 7.20265 18.7891 7.05824 18.2351 7.05824C17.6622 7.05824 17.1839 7.20739 16.8004 7.50568C16.4169 7.80398 16.1281 8.21591 15.9339 8.74148C15.7398 9.26705 15.6428 9.86837 15.6428 10.5455C15.6428 11.2273 15.7398 11.8357 15.9339 12.3707C16.1328 12.901 16.424 13.3201 16.8075 13.6278C17.1958 13.9309 17.6716 14.0824 18.2351 14.0824ZM33.0202 11.4119V5.09091H35.5913V16H33.0984V14.0611H32.9847C32.7385 14.6719 32.3337 15.1714 31.7702 15.5597C31.2115 15.9479 30.5226 16.142 29.7035 16.142C28.9885 16.142 28.3564 15.9834 27.8072 15.6662C27.2627 15.3442 26.8365 14.8778 26.5288 14.267C26.221 13.6515 26.0671 12.9081 26.0671 12.0369V5.09091H28.6381V11.6392C28.6381 12.3305 28.8275 12.8797 29.2063 13.2869C29.5851 13.6941 30.0823 13.8977 30.6978 13.8977C31.0766 13.8977 31.4435 13.8054 31.7987 13.6207C32.1538 13.4361 32.445 13.1615 32.6722 12.7969C32.9042 12.4276 33.0202 11.9659 33.0202 11.4119ZM42.9936 16.2131C41.9046 16.2131 40.9695 15.974 40.1882 15.4957C39.4117 15.0175 38.8127 14.357 38.3913 13.5142C37.9747 12.6667 37.7663 11.6913 37.7663 10.5881C37.7663 9.48011 37.9794 8.50237 38.4055 7.65483C38.8317 6.80256 39.433 6.13968 40.2095 5.66619C40.9908 5.18797 41.9141 4.94886 42.9794 4.94886C43.8648 4.94886 44.6484 5.11222 45.3303 5.43892C46.0168 5.76089 46.5637 6.2178 46.9709 6.80966C47.3781 7.39678 47.6101 8.08333 47.6669 8.86932H45.2095C45.1101 8.34375 44.8733 7.90578 44.4993 7.5554C44.13 7.20028 43.6352 7.02273 43.0149 7.02273C42.4893 7.02273 42.0277 7.16477 41.63 7.44886C41.2322 7.72822 40.9221 8.13068 40.6996 8.65625C40.4818 9.18182 40.3729 9.81155 40.3729 10.5455C40.3729 11.2888 40.4818 11.928 40.6996 12.4631C40.9174 12.9934 41.2228 13.4029 41.6158 13.6918C42.0135 13.9759 42.4799 14.1179 43.0149 14.1179C43.3937 14.1179 43.7322 14.0469 44.0305 13.9048C44.3336 13.758 44.5869 13.5473 44.7905 13.2727C44.9941 12.9981 45.1338 12.6643 45.2095 12.2713H47.6669C47.6054 13.0431 47.3781 13.7273 46.9851 14.3239C46.5921 14.9157 46.0571 15.3797 45.38 15.7159C44.7029 16.0473 43.9074 16.2131 42.9936 16.2131ZM52.9173 16.2202C52.226 16.2202 51.6033 16.0971 51.0494 15.8509C50.5001 15.5999 50.0645 15.2306 49.7425 14.7429C49.4253 14.2552 49.2667 13.6539 49.2667 12.9389C49.2667 12.3234 49.3803 11.8144 49.6076 11.4119C49.8349 11.0095 50.145 10.6875 50.538 10.446C50.931 10.2045 51.3737 10.0223 51.8661 9.89915C52.3633 9.77131 52.877 9.67898 53.4073 9.62216C54.0465 9.55587 54.565 9.49669 54.9627 9.4446C55.3604 9.38778 55.6493 9.30256 55.8292 9.18892C56.0138 9.07055 56.1062 8.88826 56.1062 8.64205V8.59943C56.1062 8.06439 55.9476 7.65009 55.6303 7.35653C55.3131 7.06297 54.8562 6.91619 54.2596 6.91619C53.6299 6.91619 53.1303 7.0535 52.761 7.32812C52.3964 7.60275 52.1502 7.92708 52.0224 8.30114L49.6218 7.96023C49.8112 7.29735 50.1237 6.74337 50.5593 6.2983C50.9949 5.84848 51.5276 5.51231 52.1573 5.28977C52.7871 5.0625 53.4831 4.94886 54.2454 4.94886C54.771 4.94886 55.2942 5.01042 55.815 5.13352C56.3358 5.25663 56.8117 5.46023 57.2425 5.74432C57.6734 6.02367 58.0191 6.40483 58.2795 6.88778C58.5446 7.37074 58.6772 7.97443 58.6772 8.69886V16H56.2056V14.5014H56.1204C55.9641 14.8045 55.744 15.0885 55.4599 15.3537C55.1805 15.6141 54.8278 15.8248 54.4016 15.9858C53.9802 16.142 53.4854 16.2202 52.9173 16.2202ZM53.5849 14.331C54.101 14.331 54.5484 14.2292 54.9272 14.0256C55.306 13.8172 55.5972 13.5426 55.8008 13.2017C56.0091 12.8608 56.1133 12.4891 56.1133 12.0866V10.8011C56.0328 10.8674 55.8955 10.929 55.7013 10.9858C55.512 11.0426 55.2989 11.0923 55.0621 11.1349C54.8254 11.1776 54.591 11.2154 54.359 11.2486C54.127 11.2817 53.9258 11.3101 53.7553 11.3338C53.3718 11.3859 53.0285 11.4711 52.7255 11.5895C52.4225 11.7079 52.1834 11.8736 52.0082 12.0866C51.833 12.295 51.7454 12.5649 51.7454 12.8963C51.7454 13.3698 51.9182 13.7273 52.2638 13.9688C52.6095 14.2102 53.0498 14.331 53.5849 14.331ZM66.7099 5.09091V7.07955H60.4386V5.09091H66.7099ZM61.9869 2.47727H64.5579V12.7188C64.5579 13.0644 64.61 13.3295 64.7141 13.5142C64.823 13.6941 64.9651 13.8172 65.1403 13.8835C65.3155 13.9498 65.5096 13.983 65.7227 13.983C65.8836 13.983 66.0304 13.9711 66.163 13.9474C66.3003 13.9238 66.4045 13.9025 66.4755 13.8835L66.9087 15.8935C66.7714 15.9408 66.5749 15.9929 66.3192 16.0497C66.0683 16.1065 65.7605 16.1397 65.396 16.1491C64.752 16.1681 64.172 16.071 63.6559 15.858C63.1398 15.6402 62.7302 15.304 62.4272 14.8494C62.1289 14.3949 61.9821 13.8267 61.9869 13.1449V2.47727ZM68.8601 16V5.09091H71.4311V16H68.8601ZM70.1527 3.54261C69.7455 3.54261 69.3951 3.40767 69.1016 3.13778C68.808 2.86316 68.6612 2.53409 68.6612 2.15057C68.6612 1.76231 68.808 1.43324 69.1016 1.16335C69.3951 0.88873 69.7455 0.75142 70.1527 0.75142C70.5646 0.75142 70.915 0.88873 71.2038 1.16335C71.4974 1.43324 71.6442 1.76231 71.6442 2.15057C71.6442 2.53409 71.4974 2.86316 71.2038 3.13778C70.915 3.40767 70.5646 3.54261 70.1527 3.54261ZM78.8335 16.2131C77.7681 16.2131 76.8448 15.9787 76.0636 15.5099C75.2823 15.0412 74.6763 14.3854 74.2454 13.5426C73.8192 12.6998 73.6062 11.715 73.6062 10.5881C73.6062 9.46117 73.8192 8.47396 74.2454 7.62642C74.6763 6.77888 75.2823 6.12074 76.0636 5.65199C76.8448 5.18324 77.7681 4.94886 78.8335 4.94886C79.8988 4.94886 80.8221 5.18324 81.6033 5.65199C82.3846 6.12074 82.9883 6.77888 83.4144 7.62642C83.8453 8.47396 84.0607 9.46117 84.0607 10.5881C84.0607 11.715 83.8453 12.6998 83.4144 13.5426C82.9883 14.3854 82.3846 15.0412 81.6033 15.5099C80.8221 15.9787 79.8988 16.2131 78.8335 16.2131ZM78.8477 14.1534C79.4253 14.1534 79.9083 13.9948 80.2965 13.6776C80.6848 13.3556 80.9736 12.9247 81.163 12.3849C81.3571 11.8452 81.4542 11.2438 81.4542 10.581C81.4542 9.91335 81.3571 9.30966 81.163 8.76989C80.9736 8.22538 80.6848 7.79214 80.2965 7.47017C79.9083 7.1482 79.4253 6.98722 78.8477 6.98722C78.2558 6.98722 77.7634 7.1482 77.3704 7.47017C76.9821 7.79214 76.6909 8.22538 76.4968 8.76989C76.3074 9.30966 76.2127 9.91335 76.2127 10.581C76.2127 11.2438 76.3074 11.8452 76.4968 12.3849C76.6909 12.9247 76.9821 13.3556 77.3704 13.6776C77.7634 13.9948 78.2558 14.1534 78.8477 14.1534ZM88.8139 9.60795V16H86.2429V5.09091H88.7003V6.9446H88.8281C89.0791 6.33381 89.4792 5.84848 90.0284 5.48864C90.5824 5.12879 91.2666 4.94886 92.081 4.94886C92.8338 4.94886 93.4896 5.10985 94.0483 5.43182C94.6117 5.75379 95.0473 6.22017 95.3551 6.83097C95.6676 7.44176 95.8215 8.18276 95.8168 9.05398V16H93.2457V9.4517C93.2457 8.72254 93.0563 8.15199 92.6776 7.74006C92.3035 7.32812 91.785 7.12216 91.1222 7.12216C90.6723 7.12216 90.2723 7.22159 89.9219 7.42045C89.5762 7.61458 89.304 7.89631 89.1051 8.26562C88.911 8.63494 88.8139 9.08239 88.8139 9.60795ZM9.33949 29.4531C9.2732 28.8329 8.99384 28.3499 8.50142 28.0043C8.01373 27.6586 7.37926 27.4858 6.59801 27.4858C6.04877 27.4858 5.57765 27.5687 5.18466 27.7344C4.79167 27.9001 4.491 28.125 4.28267 28.4091C4.07434 28.6932 3.9678 29.0175 3.96307 29.3821C3.96307 29.6851 4.03172 29.9479 4.16903 30.1705C4.31108 30.393 4.50284 30.5824 4.74432 30.7386C4.9858 30.8902 5.25331 31.018 5.54688 31.1222C5.84044 31.2263 6.13636 31.3139 6.43466 31.3849L7.7983 31.7259C8.34754 31.8537 8.87547 32.0265 9.3821 32.2443C9.89347 32.4621 10.3504 32.7367 10.7528 33.0682C11.16 33.3996 11.482 33.7997 11.7188 34.2685C11.9555 34.7372 12.0739 35.2865 12.0739 35.9162C12.0739 36.7685 11.8561 37.5189 11.4205 38.1676C10.9848 38.8116 10.3551 39.3158 9.53125 39.6804C8.71212 40.0402 7.72017 40.2202 6.5554 40.2202C5.42377 40.2202 4.44129 40.045 3.60795 39.6946C2.77936 39.3442 2.13068 38.8329 1.66193 38.1605C1.19792 37.4882 0.94697 36.669 0.909091 35.7031H3.50142C3.5393 36.2098 3.69555 36.6312 3.97017 36.9673C4.24479 37.3035 4.60227 37.5545 5.04261 37.7202C5.48769 37.8859 5.98485 37.9688 6.53409 37.9688C7.10701 37.9688 7.6089 37.8835 8.03977 37.7131C8.47538 37.5379 8.81629 37.2964 9.0625 36.9886C9.30871 36.6761 9.43419 36.3116 9.43892 35.8949C9.43419 35.5161 9.32292 35.2036 9.10511 34.9574C8.88731 34.7064 8.58191 34.4981 8.18892 34.3324C7.80066 34.1619 7.34612 34.0104 6.82528 33.8778L5.17045 33.4517C3.97254 33.1439 3.02557 32.6776 2.32955 32.0526C1.63826 31.4228 1.29261 30.5871 1.29261 29.5455C1.29261 28.6884 1.52462 27.938 1.98864 27.294C2.45739 26.6501 3.09422 26.1506 3.89915 25.7955C4.70407 25.4356 5.61553 25.2557 6.63352 25.2557C7.66572 25.2557 8.57008 25.4356 9.34659 25.7955C10.1278 26.1506 10.741 26.6454 11.1861 27.2798C11.6312 27.9096 11.8608 28.634 11.875 29.4531H9.33949ZM15.9073 44.0909C15.5569 44.0909 15.2326 44.0625 14.9343 44.0057C14.6407 43.9536 14.4064 43.892 14.2312 43.821L14.8278 41.8182C15.2018 41.9271 15.5356 41.9792 15.8292 41.9744C16.1228 41.9697 16.3808 41.8774 16.6033 41.6974C16.8306 41.5223 17.0224 41.2287 17.1786 40.8168L17.3988 40.2273L13.4428 29.0909H16.1701L18.6843 37.3295H18.7979L21.3192 29.0909H24.0536L19.6857 41.321C19.4821 41.8987 19.2122 42.3935 18.8761 42.8054C18.5399 43.2221 18.128 43.5393 17.6403 43.7571C17.1573 43.9796 16.5797 44.0909 15.9073 44.0909ZM34.4549 31.9744L32.1112 32.2301C32.0449 31.9934 31.9289 31.7708 31.7631 31.5625C31.6022 31.3542 31.3844 31.1861 31.1097 31.0582C30.8351 30.9304 30.4989 30.8665 30.1012 30.8665C29.5662 30.8665 29.1164 30.9825 28.7518 31.2145C28.3919 31.4465 28.2144 31.7472 28.2191 32.1165C28.2144 32.4337 28.3304 32.6918 28.5671 32.8906C28.8086 33.0895 29.2063 33.2528 29.7603 33.3807L31.6211 33.7784C32.6533 34.0009 33.4203 34.3537 33.9222 34.8366C34.4289 35.3196 34.6845 35.9517 34.6893 36.733C34.6845 37.4195 34.4833 38.0256 34.0856 38.5511C33.6926 39.072 33.1457 39.4792 32.445 39.7727C31.7442 40.0663 30.9393 40.2131 30.0302 40.2131C28.695 40.2131 27.6201 39.9337 26.8058 39.375C25.9914 38.8116 25.506 38.0279 25.3498 37.0241L27.8569 36.7827C27.9705 37.2751 28.212 37.6468 28.5813 37.8977C28.9506 38.1487 29.4312 38.2741 30.0231 38.2741C30.6339 38.2741 31.1239 38.1487 31.4933 37.8977C31.8673 37.6468 32.0543 37.3366 32.0543 36.9673C32.0543 36.6548 31.9336 36.3968 31.6921 36.1932C31.4554 35.9896 31.0861 35.8333 30.5842 35.7244L28.7234 35.3338C27.677 35.116 26.9028 34.7491 26.4009 34.233C25.899 33.7121 25.6504 33.054 25.6552 32.2585C25.6504 31.5862 25.8327 31.0038 26.2021 30.5114C26.5761 30.0142 27.0946 29.6307 27.7575 29.3608C28.4251 29.0862 29.1945 28.9489 30.0657 28.9489C31.3441 28.9489 32.3503 29.2211 33.0842 29.7656C33.8228 30.3101 34.2797 31.0464 34.4549 31.9744ZM42.2567 29.0909V31.0795H35.9854V29.0909H42.2567ZM37.5337 26.4773H40.1048V36.7188C40.1048 37.0644 40.1568 37.3295 40.261 37.5142C40.3699 37.6941 40.512 37.8172 40.6871 37.8835C40.8623 37.9498 41.0565 37.983 41.2695 37.983C41.4305 37.983 41.5773 37.9711 41.7099 37.9474C41.8472 37.9238 41.9513 37.9025 42.0224 37.8835L42.4556 39.8935C42.3183 39.9408 42.1218 39.9929 41.8661 40.0497C41.6152 40.1065 41.3074 40.1397 40.9428 40.1491C40.2989 40.1681 39.7189 40.071 39.2028 39.858C38.6867 39.6402 38.2771 39.304 37.9741 38.8494C37.6758 38.3949 37.529 37.8267 37.5337 37.1449V26.4773ZM49.1193 40.2131C48.0256 40.2131 47.081 39.9858 46.2855 39.5312C45.4948 39.072 44.8864 38.4233 44.4602 37.5852C44.0341 36.7424 43.821 35.7505 43.821 34.6094C43.821 33.4872 44.0341 32.5024 44.4602 31.6548C44.8911 30.8026 45.4924 30.1397 46.2642 29.6662C47.036 29.188 47.9427 28.9489 48.9844 28.9489C49.6567 28.9489 50.2912 29.0578 50.8878 29.2756C51.4891 29.4886 52.0194 29.8201 52.4787 30.2699C52.9427 30.7197 53.3073 31.2926 53.5724 31.9886C53.8376 32.6799 53.9702 33.5038 53.9702 34.4602V35.2486H45.0284V33.5156H51.5057C51.5009 33.0232 51.3944 32.5852 51.1861 32.2017C50.9777 31.8134 50.6866 31.508 50.3125 31.2855C49.9432 31.063 49.5123 30.9517 49.0199 30.9517C48.4943 30.9517 48.0327 31.0795 47.6349 31.3352C47.2372 31.5862 46.9271 31.9176 46.7045 32.3295C46.4867 32.7367 46.3755 33.1842 46.3707 33.6719V35.1847C46.3707 35.8191 46.4867 36.3636 46.7188 36.8182C46.9508 37.268 47.2751 37.6136 47.6918 37.8551C48.1084 38.0919 48.5961 38.2102 49.1548 38.2102C49.5289 38.2102 49.8674 38.1581 50.1705 38.054C50.4735 37.9451 50.7363 37.7865 50.9588 37.5781C51.1813 37.3698 51.3494 37.1117 51.4631 36.804L53.8636 37.0739C53.7121 37.7083 53.4233 38.2623 52.9972 38.7358C52.5758 39.2045 52.036 39.5691 51.3778 39.8295C50.7197 40.0852 49.9669 40.2131 49.1193 40.2131ZM56.1452 40V29.0909H58.6026V30.9446H58.7305C58.9577 30.3196 59.3342 29.8319 59.8597 29.4815C60.3853 29.1264 61.0127 28.9489 61.7418 28.9489C62.4805 28.9489 63.1031 29.1288 63.6097 29.4886C64.1211 29.8437 64.4809 30.3291 64.6893 30.9446H64.8029C65.0444 30.3385 65.4516 29.8556 66.0245 29.4957C66.6022 29.1312 67.2863 28.9489 68.0771 28.9489C69.0808 28.9489 69.9 29.2661 70.5344 29.9006C71.1689 30.535 71.4862 31.4607 71.4862 32.6776V40H68.908V33.0753C68.908 32.3982 68.7281 31.9034 68.3683 31.5909C68.0084 31.2737 67.5681 31.1151 67.0472 31.1151C66.427 31.1151 65.9416 31.3092 65.5913 31.6974C65.2456 32.081 65.0728 32.5805 65.0728 33.196V40H62.5515V32.9688C62.5515 32.4053 62.381 31.9555 62.0401 31.6193C61.704 31.2831 61.2636 31.1151 60.7191 31.1151C60.3498 31.1151 60.0136 31.2098 59.7106 31.3991C59.4076 31.5838 59.1661 31.8466 58.9862 32.1875C58.8062 32.5237 58.7163 32.9167 58.7163 33.3665V40H56.1452Z" fill="#086CB4"/>
</svg>
