<svg width="199" height="23" viewBox="0 0 199 23" fill="none" xmlns="http://www.w3.org/2000/svg">
<path d="M0.510742 18V2H12.042V5.5H4.85449V8.25H11.4482V11.75H4.85449V14.5H12.0107V18H0.510742ZM18.6025 18.1563C17.7484 18.1563 16.9619 17.9323 16.2432 17.4844C15.5296 17.0365 14.9567 16.3568 14.5244 15.4453C14.0973 14.5339 13.8838 13.3854 13.8838 12C13.8838 10.5521 14.1077 9.375 14.5557 8.46875C15.0088 7.5625 15.5921 6.89844 16.3057 6.47656C17.0244 6.05469 17.7796 5.84375 18.5713 5.84375C19.165 5.84375 19.6859 5.94792 20.1338 6.15625C20.5817 6.35937 20.9567 6.63281 21.2588 6.97656C21.5609 7.3151 21.79 7.6875 21.9463 8.09375H22.0088V2H26.3213V18H22.04V16.0312H21.9463C21.7796 16.4375 21.54 16.8021 21.2275 17.125C20.9202 17.4427 20.5452 17.6953 20.1025 17.8828C19.665 18.0651 19.165 18.1563 18.6025 18.1563ZM20.1963 14.8438C20.5921 14.8438 20.9307 14.7292 21.2119 14.5C21.4984 14.2656 21.7171 13.9375 21.8682 13.5156C22.0244 13.0885 22.1025 12.5833 22.1025 12C22.1025 11.4062 22.0244 10.8984 21.8682 10.4766C21.7171 10.0495 21.4984 9.72396 21.2119 9.5C20.9307 9.27083 20.5921 9.15625 20.1963 9.15625C19.8005 9.15625 19.4619 9.27083 19.1807 9.5C18.9046 9.72396 18.6911 10.0495 18.54 10.4766C18.3942 10.8984 18.3213 11.4062 18.3213 12C18.3213 12.5937 18.3942 13.1042 18.54 13.5312C18.6911 13.9531 18.9046 14.2786 19.1807 14.5078C19.4619 14.7318 19.8005 14.8438 20.1963 14.8438ZM36.2197 12.75V6H40.5322V18H36.4385V15.7187H36.3135C36.0531 16.4844 35.5973 17.0833 34.9463 17.5156C34.2952 17.9427 33.5218 18.1563 32.626 18.1563C31.7874 18.1563 31.0531 17.9635 30.4229 17.5781C29.7979 17.1927 29.3109 16.6615 28.9619 15.9844C28.6182 15.3073 28.4437 14.5312 28.4385 13.6562V6H32.751V12.75C32.7562 13.3437 32.9072 13.8099 33.2041 14.1484C33.5062 14.487 33.9281 14.6562 34.4697 14.6562C34.8291 14.6562 35.139 14.5807 35.3994 14.4297C35.665 14.2734 35.8682 14.0547 36.0088 13.7734C36.1546 13.487 36.2249 13.1458 36.2197 12.75ZM48.5068 18.2187C47.2048 18.2187 46.0902 17.9609 45.1631 17.4453C44.236 16.9245 43.5251 16.2005 43.0303 15.2734C42.5355 14.3411 42.2881 13.2604 42.2881 12.0313C42.2881 10.8021 42.5355 9.72396 43.0303 8.79687C43.5251 7.86458 44.236 7.14062 45.1631 6.625C46.0902 6.10417 47.2048 5.84375 48.5068 5.84375C49.6839 5.84375 50.7021 6.05729 51.5615 6.48438C52.4261 6.90625 53.0954 7.50521 53.5693 8.28125C54.0433 9.05208 54.2829 9.95833 54.2881 11H50.2881C50.2308 10.3698 50.0485 9.89062 49.7412 9.5625C49.4391 9.22917 49.0485 9.0625 48.5693 9.0625C48.1943 9.0625 47.8662 9.17187 47.585 9.39062C47.3037 9.60417 47.085 9.92969 46.9287 10.3672C46.7725 10.7995 46.6943 11.3437 46.6943 12C46.6943 12.6562 46.7725 13.2031 46.9287 13.6406C47.085 14.0729 47.3037 14.3984 47.585 14.6172C47.8662 14.8307 48.1943 14.9375 48.5693 14.9375C48.887 14.9375 49.1683 14.8646 49.4131 14.7187C49.6579 14.5677 49.8558 14.349 50.0068 14.0625C50.1631 13.7708 50.2568 13.4167 50.2881 13H54.2881C54.2725 14.0573 54.0303 14.9792 53.5615 15.7656C53.0928 16.5469 52.4287 17.151 51.5693 17.5781C50.7152 18.0052 49.6943 18.2187 48.5068 18.2187ZM59.4111 18.1875C58.6455 18.1875 57.9684 18.0625 57.3799 17.8125C56.7965 17.5573 56.3382 17.1719 56.0049 16.6562C55.6715 16.1406 55.5049 15.4844 55.5049 14.6875C55.5049 14.0312 55.6169 13.4714 55.8408 13.0078C56.0648 12.5391 56.3773 12.1562 56.7783 11.8594C57.1794 11.5625 57.6455 11.3359 58.1768 11.1797C58.7132 11.0234 59.2913 10.9219 59.9111 10.875C60.583 10.8229 61.1221 10.7604 61.5283 10.6875C61.9398 10.6094 62.2367 10.5026 62.4189 10.3672C62.6012 10.2266 62.6924 10.0417 62.6924 9.8125V9.78125C62.6924 9.46875 62.5726 9.22917 62.333 9.0625C62.0934 8.89583 61.7861 8.8125 61.4111 8.8125C60.9997 8.8125 60.6637 8.90365 60.4033 9.08594C60.1481 9.26302 59.9945 9.53646 59.9424 9.90625H55.9736C56.0257 9.17708 56.2575 8.50521 56.6689 7.89062C57.0856 7.27083 57.6924 6.77604 58.4893 6.40625C59.2861 6.03125 60.2809 5.84375 61.4736 5.84375C62.333 5.84375 63.1038 5.94531 63.7861 6.14844C64.4684 6.34635 65.0492 6.625 65.5283 6.98437C66.0075 7.33854 66.3721 7.75521 66.6221 8.23437C66.8773 8.70833 67.0049 9.22396 67.0049 9.78125V18H62.9736V16.3125H62.8799C62.6403 16.7604 62.3486 17.1224 62.0049 17.3984C61.6663 17.6745 61.2783 17.875 60.8408 18C60.4085 18.125 59.932 18.1875 59.4111 18.1875ZM60.8174 15.4687C61.1455 15.4687 61.4528 15.401 61.7393 15.2656C62.0309 15.1302 62.2679 14.9349 62.4502 14.6797C62.6325 14.4245 62.7236 14.1146 62.7236 13.75V12.75C62.609 12.7969 62.4867 12.8411 62.3564 12.8828C62.2314 12.9245 62.096 12.9635 61.9502 13C61.8096 13.0365 61.6585 13.0703 61.4971 13.1016C61.3408 13.1328 61.1768 13.1615 61.0049 13.1875C60.6715 13.2396 60.3981 13.3255 60.1846 13.4453C59.9762 13.5599 59.82 13.7031 59.7158 13.875C59.6169 14.0417 59.5674 14.2292 59.5674 14.4375C59.5674 14.7708 59.6846 15.026 59.9189 15.2031C60.1533 15.3802 60.4528 15.4687 60.8174 15.4687ZM76.2217 6V9.125H68.3154V6H76.2217ZM69.8467 3.125H74.1592V14.1406C74.1592 14.3073 74.1878 14.4479 74.2451 14.5625C74.3024 14.6719 74.391 14.7552 74.5107 14.8125C74.6305 14.8646 74.7842 14.8906 74.9717 14.8906C75.1019 14.8906 75.2529 14.875 75.4248 14.8438C75.6019 14.8125 75.7321 14.7865 75.8154 14.7656L76.4404 17.7969C76.2477 17.8542 75.9717 17.9245 75.6123 18.0078C75.2581 18.0911 74.8363 18.1458 74.3467 18.1719C73.3571 18.224 72.5264 18.1224 71.8545 17.8672C71.1826 17.6068 70.6774 17.1979 70.3389 16.6406C70.0003 16.0833 69.8363 15.3854 69.8467 14.5469V3.125ZM77.9814 18V6H82.2939V18H77.9814ZM80.1377 4.75C79.5544 4.75 79.0544 4.55729 78.6377 4.17188C78.221 3.78646 78.0127 3.32292 78.0127 2.78125C78.0127 2.23958 78.221 1.77604 78.6377 1.39062C79.0544 1.00521 79.5544 0.8125 80.1377 0.8125C80.7262 0.8125 81.2262 1.00521 81.6377 1.39062C82.0544 1.77604 82.2627 2.23958 82.2627 2.78125C82.2627 3.32292 82.0544 3.78646 81.6377 4.17188C81.2262 4.55729 80.7262 4.75 80.1377 4.75ZM90.2725 18.2187C88.9704 18.2187 87.8558 17.9609 86.9287 17.4453C86.0016 16.9245 85.2907 16.2005 84.7959 15.2734C84.3011 14.3411 84.0537 13.2604 84.0537 12.0313C84.0537 10.8021 84.3011 9.72396 84.7959 8.79687C85.2907 7.86458 86.0016 7.14062 86.9287 6.625C87.8558 6.10417 88.9704 5.84375 90.2725 5.84375C91.5745 5.84375 92.6891 6.10417 93.6162 6.625C94.5433 7.14062 95.2542 7.86458 95.749 8.79687C96.2438 9.72396 96.4912 10.8021 96.4912 12.0313C96.4912 13.2604 96.2438 14.3411 95.749 15.2734C95.2542 16.2005 94.5433 16.9245 93.6162 17.4453C92.6891 17.9609 91.5745 18.2187 90.2725 18.2187ZM90.3037 15.0312C90.6683 15.0312 90.9834 14.9089 91.249 14.6641C91.5146 14.4193 91.7204 14.0703 91.8662 13.6172C92.012 13.1641 92.085 12.625 92.085 12C92.085 11.3698 92.012 10.8307 91.8662 10.3828C91.7204 9.92969 91.5146 9.58073 91.249 9.33594C90.9834 9.09115 90.6683 8.96875 90.3037 8.96875C89.9183 8.96875 89.5876 9.09115 89.3115 9.33594C89.0355 9.58073 88.8245 9.92969 88.6787 10.3828C88.5329 10.8307 88.46 11.3698 88.46 12C88.46 12.625 88.5329 13.1641 88.6787 13.6172C88.8245 14.0703 89.0355 14.4193 89.3115 14.6641C89.5876 14.9089 89.9183 15.0312 90.3037 15.0312ZM102.554 11.25V18H98.2412V6H102.335V8.28125H102.46C102.72 7.52083 103.179 6.92448 103.835 6.49219C104.496 6.0599 105.267 5.84375 106.147 5.84375C106.996 5.84375 107.733 6.03906 108.358 6.42969C108.989 6.8151 109.476 7.34635 109.819 8.02344C110.168 8.70052 110.34 9.47396 110.335 10.3437V18H106.022V11.25C106.028 10.6562 105.877 10.1901 105.569 9.85156C105.267 9.51302 104.845 9.34375 104.304 9.34375C103.95 9.34375 103.64 9.42188 103.374 9.57812C103.114 9.72917 102.913 9.94792 102.772 10.2344C102.632 10.5156 102.559 10.8542 102.554 11.25ZM125.409 7C125.368 6.47917 125.172 6.07292 124.823 5.78125C124.479 5.48958 123.956 5.34375 123.253 5.34375C122.805 5.34375 122.438 5.39844 122.151 5.50781C121.87 5.61198 121.662 5.75521 121.526 5.9375C121.391 6.11979 121.321 6.32812 121.315 6.5625C121.305 6.75521 121.339 6.92969 121.417 7.08594C121.5 7.23698 121.631 7.375 121.808 7.5C121.985 7.61979 122.211 7.72917 122.487 7.82812C122.763 7.92708 123.091 8.01562 123.472 8.09375L124.784 8.375C125.67 8.5625 126.427 8.8099 127.058 9.11719C127.688 9.42448 128.203 9.78646 128.604 10.2031C129.006 10.6146 129.3 11.0781 129.487 11.5937C129.68 12.1094 129.779 12.6719 129.784 13.2812C129.779 14.3333 129.516 15.224 128.995 15.9531C128.474 16.6823 127.729 17.237 126.761 17.6172C125.797 17.9974 124.638 18.1875 123.284 18.1875C121.894 18.1875 120.68 17.9818 119.644 17.5703C118.612 17.1589 117.81 16.526 117.237 15.6719C116.67 14.8125 116.383 13.7135 116.378 12.375H120.503C120.529 12.8646 120.651 13.276 120.87 13.6094C121.089 13.9427 121.396 14.1953 121.792 14.3672C122.193 14.5391 122.67 14.625 123.222 14.625C123.685 14.625 124.073 14.5677 124.386 14.4531C124.698 14.3385 124.935 14.1797 125.097 13.9766C125.258 13.7734 125.341 13.5417 125.347 13.2812C125.341 13.0365 125.261 12.8229 125.104 12.6406C124.953 12.4531 124.703 12.2865 124.354 12.1406C124.006 11.9896 123.534 11.849 122.94 11.7187L121.347 11.375C119.93 11.0677 118.813 10.5547 117.995 9.83594C117.183 9.11198 116.779 8.125 116.784 6.875C116.779 5.85937 117.05 4.97135 117.597 4.21094C118.149 3.44531 118.912 2.84896 119.886 2.42187C120.865 1.99479 121.987 1.78125 123.253 1.78125C124.545 1.78125 125.662 1.9974 126.604 2.42969C127.547 2.86198 128.274 3.47135 128.784 4.25781C129.3 5.03906 129.56 5.95312 129.565 7H125.409ZM134.124 22.5C133.629 22.5 133.158 22.4609 132.71 22.3828C132.262 22.3099 131.869 22.2083 131.53 22.0781L132.468 19.0156C132.822 19.1406 133.145 19.2214 133.437 19.2578C133.733 19.2943 133.986 19.2734 134.194 19.1953C134.408 19.1172 134.562 18.9688 134.655 18.75L134.749 18.5313L130.53 6H135.03L136.968 14.3125H137.093L139.062 6H143.593L139.218 19C138.999 19.6615 138.681 20.2552 138.265 20.7812C137.853 21.3125 137.312 21.7318 136.64 22.0391C135.968 22.3464 135.129 22.5 134.124 22.5ZM155.788 9.90625H151.819C151.799 9.66146 151.713 9.45052 151.562 9.27344C151.41 9.09635 151.215 8.96094 150.976 8.86719C150.741 8.76823 150.481 8.71875 150.194 8.71875C149.825 8.71875 149.507 8.78646 149.241 8.92187C148.976 9.05729 148.845 9.25 148.851 9.5C148.845 9.67708 148.921 9.84115 149.077 9.99219C149.239 10.1432 149.549 10.2604 150.007 10.3437L152.444 10.7812C153.674 11.0052 154.588 11.3828 155.187 11.9141C155.791 12.4401 156.095 13.1458 156.101 14.0312C156.095 14.8854 155.84 15.6276 155.335 16.2578C154.835 16.8828 154.15 17.3672 153.28 17.7109C152.416 18.0495 151.429 18.2187 150.319 18.2187C148.486 18.2187 147.051 17.8437 146.015 17.0937C144.983 16.3437 144.408 15.3542 144.288 14.125H148.569C148.627 14.5052 148.814 14.7995 149.132 15.0078C149.455 15.2109 149.861 15.3125 150.351 15.3125C150.746 15.3125 151.072 15.2448 151.327 15.1094C151.588 14.974 151.72 14.7813 151.726 14.5313C151.72 14.3021 151.606 14.1198 151.382 13.9844C151.163 13.849 150.819 13.7396 150.351 13.6562L148.226 13.2812C147.002 13.0677 146.085 12.6615 145.476 12.0625C144.866 11.4635 144.564 10.6927 144.569 9.75C144.564 8.91667 144.783 8.21094 145.226 7.63281C145.674 7.04948 146.312 6.60677 147.14 6.30469C147.973 5.9974 148.96 5.84375 150.101 5.84375C151.835 5.84375 153.202 6.20313 154.202 6.92188C155.207 7.64062 155.736 8.63542 155.788 9.90625ZM164.909 6V9.125H157.003V6H164.909ZM158.534 3.125H162.847V14.1406C162.847 14.3073 162.875 14.4479 162.933 14.5625C162.99 14.6719 163.078 14.7552 163.198 14.8125C163.318 14.8646 163.472 14.8906 163.659 14.8906C163.789 14.8906 163.94 14.875 164.112 14.8438C164.289 14.8125 164.42 14.7865 164.503 14.7656L165.128 17.7969C164.935 17.8542 164.659 17.9245 164.3 18.0078C163.946 18.0911 163.524 18.1458 163.034 18.1719C162.045 18.224 161.214 18.1224 160.542 17.8672C159.87 17.6068 159.365 17.1979 159.026 16.6406C158.688 16.0833 158.524 15.3854 158.534 14.5469V3.125ZM172.29 18.2187C171.009 18.2187 169.905 17.974 168.978 17.4844C168.056 16.9896 167.345 16.2812 166.845 15.3594C166.35 14.4323 166.103 13.3229 166.103 12.0313C166.103 10.7917 166.353 9.70833 166.853 8.78125C167.353 7.85417 168.058 7.13281 168.97 6.61719C169.881 6.10156 170.957 5.84375 172.196 5.84375C173.103 5.84375 173.923 5.98438 174.657 6.26562C175.392 6.54687 176.019 6.95573 176.54 7.49219C177.061 8.02344 177.462 8.66927 177.743 9.42969C178.024 10.1901 178.165 11.0469 178.165 12V13H167.446V10.625H174.196C174.191 10.2812 174.103 9.97917 173.931 9.71875C173.764 9.45312 173.537 9.2474 173.251 9.10156C172.97 8.95052 172.649 8.875 172.29 8.875C171.941 8.875 171.621 8.95052 171.329 9.10156C171.037 9.2474 170.803 9.45052 170.626 9.71094C170.454 9.97135 170.363 10.276 170.353 10.625V13.1875C170.353 13.5729 170.433 13.9167 170.595 14.2188C170.756 14.5208 170.988 14.7578 171.29 14.9297C171.592 15.1016 171.957 15.1875 172.384 15.1875C172.681 15.1875 172.951 15.1458 173.196 15.0625C173.446 14.9792 173.66 14.8594 173.837 14.7031C174.014 14.5417 174.144 14.349 174.228 14.125H178.165C178.03 14.9583 177.709 15.6823 177.204 16.2969C176.699 16.9063 176.03 17.3802 175.196 17.7187C174.368 18.0521 173.399 18.2187 172.29 18.2187ZM179.925 18V6H184.019V8.28125H184.144C184.394 7.53125 184.821 6.9375 185.425 6.5C186.029 6.0625 186.748 5.84375 187.581 5.84375C188.425 5.84375 189.151 6.06771 189.761 6.51562C190.37 6.95833 190.737 7.54687 190.862 8.28125H190.987C191.19 7.54687 191.623 6.95833 192.284 6.51562C192.946 6.06771 193.722 5.84375 194.612 5.84375C195.763 5.84375 196.696 6.21354 197.409 6.95312C198.128 7.69271 198.487 8.67708 198.487 9.90625V18H194.175V11C194.175 10.474 194.042 10.0625 193.776 9.76562C193.511 9.46354 193.154 9.3125 192.706 9.3125C192.263 9.3125 191.912 9.46354 191.651 9.76562C191.396 10.0625 191.269 10.474 191.269 11V18H187.144V11C187.144 10.474 187.011 10.0625 186.745 9.76562C186.479 9.46354 186.123 9.3125 185.675 9.3125C185.378 9.3125 185.123 9.38021 184.909 9.51563C184.696 9.65104 184.529 9.84635 184.409 10.1016C184.295 10.3516 184.237 10.651 184.237 11V18H179.925Z" fill="#086CB4"/>
</svg>
