<svg width="41" height="18" viewBox="0 0 41 18" fill="none" xmlns="http://www.w3.org/2000/svg">
<path d="M0.03125 17V1H4.375V13.5H10.8438V17H0.03125ZM26.9141 7H22.5078C22.4766 6.63542 22.3932 6.30469 22.2578 6.00781C22.1276 5.71094 21.9453 5.45573 21.7109 5.24219C21.4818 5.02344 21.2031 4.85677 20.875 4.74219C20.5469 4.6224 20.1745 4.5625 19.7578 4.5625C19.0286 4.5625 18.4115 4.73958 17.9062 5.09375C17.4063 5.44792 17.026 5.95573 16.7656 6.61719C16.5104 7.27865 16.3828 8.07292 16.3828 9C16.3828 9.97917 16.513 10.7995 16.7734 11.4609C17.0391 12.1172 17.4219 12.612 17.9219 12.9453C18.4219 13.2734 19.0234 13.4375 19.7266 13.4375C20.1276 13.4375 20.487 13.388 20.8047 13.2891C21.1224 13.1849 21.3984 13.0365 21.6328 12.8438C21.8672 12.651 22.0573 12.4193 22.2031 12.1484C22.3542 11.8724 22.4557 11.5625 22.5078 11.2187L26.9141 11.25C26.862 11.9271 26.6719 12.6172 26.3438 13.3203C26.0156 14.0182 25.5495 14.6641 24.9453 15.2578C24.3464 15.8464 23.6042 16.3203 22.7188 16.6797C21.8333 17.0391 20.8047 17.2187 19.6328 17.2187C18.1641 17.2187 16.8464 16.9036 15.6797 16.2734C14.5182 15.6432 13.599 14.7161 12.9219 13.4922C12.25 12.2682 11.9141 10.7708 11.9141 9C11.9141 7.21875 12.2578 5.71875 12.9453 4.5C13.6328 3.27604 14.5599 2.35156 15.7266 1.72656C16.8932 1.09635 18.1953 0.781249 19.6328 0.781249C20.6432 0.781249 21.5729 0.91927 22.4219 1.19531C23.2708 1.47135 24.0156 1.875 24.6563 2.40625C25.2969 2.93229 25.8125 3.58073 26.2031 4.35156C26.5938 5.1224 26.8307 6.00521 26.9141 7ZM28.8848 17V1H40.416V4.5H33.2285V7.25H39.8223V10.75H33.2285V13.5H40.3848V17H28.8848Z" fill="#086CB4"/>
</svg>
