<svg width="155" height="22" viewBox="0 0 155 22" fill="none" xmlns="http://www.w3.org/2000/svg">
<path d="M0.03125 17V1H4.375V13.5H10.8438V17H0.03125ZM26.9141 7H22.5078C22.4766 6.63542 22.3932 6.30469 22.2578 6.00781C22.1276 5.71094 21.9453 5.45573 21.7109 5.24219C21.4818 5.02344 21.2031 4.85677 20.875 4.74219C20.5469 4.6224 20.1745 4.5625 19.7578 4.5625C19.0286 4.5625 18.4115 4.73958 17.9062 5.09375C17.4063 5.44792 17.026 5.95573 16.7656 6.61719C16.5104 7.27865 16.3828 8.07292 16.3828 9C16.3828 9.97917 16.513 10.7995 16.7734 11.4609C17.0391 12.1172 17.4219 12.612 17.9219 12.9453C18.4219 13.2734 19.0234 13.4375 19.7266 13.4375C20.1276 13.4375 20.487 13.388 20.8047 13.2891C21.1224 13.1849 21.3984 13.0365 21.6328 12.8438C21.8672 12.651 22.0573 12.4193 22.2031 12.1484C22.3542 11.8724 22.4557 11.5625 22.5078 11.2187L26.9141 11.25C26.862 11.9271 26.6719 12.6172 26.3438 13.3203C26.0156 14.0182 25.5495 14.6641 24.9453 15.2578C24.3464 15.8464 23.6042 16.3203 22.7188 16.6797C21.8333 17.0391 20.8047 17.2187 19.6328 17.2187C18.1641 17.2187 16.8464 16.9036 15.6797 16.2734C14.5182 15.6432 13.599 14.7161 12.9219 13.4922C12.25 12.2682 11.9141 10.7708 11.9141 9C11.9141 7.21875 12.2578 5.71875 12.9453 4.5C13.6328 3.27604 14.5599 2.35156 15.7266 1.72656C16.8932 1.09635 18.1953 0.781249 19.6328 0.781249C20.6432 0.781249 21.5729 0.91927 22.4219 1.19531C23.2708 1.47135 24.0156 1.875 24.6563 2.40625C25.2969 2.93229 25.8125 3.58073 26.2031 4.35156C26.5938 5.1224 26.8307 6.00521 26.9141 7ZM33.2676 17V1H44.7988V4.5H37.6113V7.25H44.2051V10.75H37.6113V13.5H44.7676V17H33.2676ZM52.7969 17.2187C51.4948 17.2187 50.3802 16.9609 49.4531 16.4453C48.526 15.9245 47.8151 15.2005 47.3203 14.2734C46.8255 13.3411 46.5781 12.2604 46.5781 11.0313C46.5781 9.80208 46.8255 8.72396 47.3203 7.79687C47.8151 6.86458 48.526 6.14062 49.4531 5.625C50.3802 5.10417 51.4948 4.84375 52.7969 4.84375C53.974 4.84375 54.9922 5.05729 55.8516 5.48438C56.7161 5.90625 57.3854 6.50521 57.8594 7.28125C58.3333 8.05208 58.5729 8.95833 58.5781 10H54.5781C54.5208 9.36979 54.3385 8.89062 54.0313 8.5625C53.7292 8.22917 53.3385 8.0625 52.8594 8.0625C52.4844 8.0625 52.1563 8.17187 51.875 8.39062C51.5938 8.60417 51.375 8.92969 51.2188 9.36719C51.0625 9.79948 50.9844 10.3437 50.9844 11C50.9844 11.6562 51.0625 12.2031 51.2188 12.6406C51.375 13.0729 51.5938 13.3984 51.875 13.6172C52.1563 13.8307 52.4844 13.9375 52.8594 13.9375C53.1771 13.9375 53.4583 13.8646 53.7031 13.7187C53.9479 13.5677 54.1458 13.349 54.2969 13.0625C54.4531 12.7708 54.5469 12.4167 54.5781 12H58.5781C58.5625 13.0573 58.3203 13.9792 57.8516 14.7656C57.3828 15.5469 56.7188 16.151 55.8594 16.5781C55.0052 17.0052 53.9844 17.2187 52.7969 17.2187ZM66.1387 17.2187C64.8366 17.2187 63.722 16.9609 62.7949 16.4453C61.8678 15.9245 61.1569 15.2005 60.6621 14.2734C60.1673 13.3411 59.9199 12.2604 59.9199 11.0313C59.9199 9.80208 60.1673 8.72396 60.6621 7.79687C61.1569 6.86458 61.8678 6.14062 62.7949 5.625C63.722 5.10417 64.8366 4.84375 66.1387 4.84375C67.4408 4.84375 68.5553 5.10417 69.4824 5.625C70.4095 6.14062 71.1204 6.86458 71.6152 7.79687C72.11 8.72396 72.3574 9.80208 72.3574 11.0313C72.3574 12.2604 72.11 13.3411 71.6152 14.2734C71.1204 15.2005 70.4095 15.9245 69.4824 16.4453C68.5553 16.9609 67.4408 17.2187 66.1387 17.2187ZM66.1699 14.0312C66.5345 14.0312 66.8496 13.9089 67.1152 13.6641C67.3809 13.4193 67.5866 13.0703 67.7324 12.6172C67.8783 12.1641 67.9512 11.625 67.9512 11C67.9512 10.3698 67.8783 9.83073 67.7324 9.38281C67.5866 8.92969 67.3809 8.58073 67.1152 8.33594C66.8496 8.09115 66.5345 7.96875 66.1699 7.96875C65.7845 7.96875 65.4538 8.09115 65.1777 8.33594C64.9017 8.58073 64.6908 8.92969 64.5449 9.38281C64.3991 9.83073 64.3262 10.3698 64.3262 11C64.3262 11.625 64.3991 12.1641 64.5449 12.6172C64.6908 13.0703 64.9017 13.4193 65.1777 13.6641C65.4538 13.9089 65.7845 14.0312 66.1699 14.0312ZM85.0762 8.90625H81.1074C81.0866 8.66146 81.0007 8.45052 80.8496 8.27344C80.6986 8.09635 80.5033 7.96094 80.2637 7.86719C80.0293 7.76823 79.7689 7.71875 79.4824 7.71875C79.1126 7.71875 78.7949 7.78646 78.5293 7.92187C78.2637 8.05729 78.1335 8.25 78.1387 8.5C78.1335 8.67708 78.209 8.84115 78.3652 8.99219C78.5267 9.14323 78.8366 9.26042 79.2949 9.34375L81.7324 9.78125C82.9616 10.0052 83.8757 10.3828 84.4746 10.9141C85.0788 11.4401 85.3835 12.1458 85.3887 13.0312C85.3835 13.8854 85.1283 14.6276 84.623 15.2578C84.123 15.8828 83.4382 16.3672 82.5684 16.7109C81.7038 17.0495 80.7168 17.2187 79.6074 17.2187C77.7741 17.2187 76.3392 16.8437 75.3027 16.0937C74.2715 15.3437 73.696 14.3542 73.5762 13.125H77.8574C77.9147 13.5052 78.1022 13.7995 78.4199 14.0078C78.7428 14.2109 79.1491 14.3125 79.6387 14.3125C80.0345 14.3125 80.36 14.2448 80.6152 14.1094C80.8757 13.974 81.0085 13.7813 81.0137 13.5313C81.0085 13.3021 80.8939 13.1198 80.6699 12.9844C80.4512 12.849 80.1074 12.7396 79.6387 12.6562L77.5137 12.2812C76.2897 12.0677 75.373 11.6615 74.7637 11.0625C74.1543 10.4635 73.8522 9.69271 73.8574 8.75C73.8522 7.91667 74.071 7.21094 74.5137 6.63281C74.9616 6.04948 75.5996 5.60677 76.4277 5.30469C77.2611 4.9974 78.248 4.84375 79.3887 4.84375C81.123 4.84375 82.4902 5.20313 83.4902 5.92188C84.4954 6.64062 85.0241 7.63542 85.0762 8.90625ZM89.666 21.5C89.1712 21.5 88.6999 21.4609 88.252 21.3828C87.804 21.3099 87.4108 21.2083 87.0723 21.0781L88.0098 18.0156C88.3639 18.1406 88.6868 18.2214 88.9785 18.2578C89.2754 18.2943 89.528 18.2734 89.7363 18.1953C89.9499 18.1172 90.1035 17.9688 90.1973 17.75L90.291 17.5313L86.0723 5H90.5723L92.5098 13.3125H92.6348L94.6035 5H99.1348L94.7598 18C94.541 18.6615 94.2233 19.2552 93.8066 19.7812C93.3952 20.3125 92.8535 20.7318 92.1816 21.0391C91.5098 21.3464 90.6712 21.5 89.666 21.5ZM111.33 8.90625H107.361C107.34 8.66146 107.255 8.45052 107.104 8.27344C106.952 8.09635 106.757 7.96094 106.518 7.86719C106.283 7.76823 106.023 7.71875 105.736 7.71875C105.367 7.71875 105.049 7.78646 104.783 7.92187C104.518 8.05729 104.387 8.25 104.393 8.5C104.387 8.67708 104.463 8.84115 104.619 8.99219C104.781 9.14323 105.09 9.26042 105.549 9.34375L107.986 9.78125C109.215 10.0052 110.13 10.3828 110.729 10.9141C111.333 11.4401 111.637 12.1458 111.643 13.0312C111.637 13.8854 111.382 14.6276 110.877 15.2578C110.377 15.8828 109.692 16.3672 108.822 16.7109C107.958 17.0495 106.971 17.2187 105.861 17.2187C104.028 17.2187 102.593 16.8437 101.557 16.0937C100.525 15.3437 99.9499 14.3542 99.8301 13.125H104.111C104.169 13.5052 104.356 13.7995 104.674 14.0078C104.997 14.2109 105.403 14.3125 105.893 14.3125C106.288 14.3125 106.614 14.2448 106.869 14.1094C107.13 13.974 107.262 13.7813 107.268 13.5313C107.262 13.3021 107.148 13.1198 106.924 12.9844C106.705 12.849 106.361 12.7396 105.893 12.6562L103.768 12.2812C102.544 12.0677 101.627 11.6615 101.018 11.0625C100.408 10.4635 100.106 9.69271 100.111 8.75C100.106 7.91667 100.325 7.21094 100.768 6.63281C101.215 6.04948 101.854 5.60677 102.682 5.30469C103.515 4.9974 104.502 4.84375 105.643 4.84375C107.377 4.84375 108.744 5.20313 109.744 5.92188C110.749 6.64062 111.278 7.63542 111.33 8.90625ZM120.451 5V8.125H112.545V5H120.451ZM114.076 2.125H118.389V13.1406C118.389 13.3073 118.417 13.4479 118.475 13.5625C118.532 13.6719 118.62 13.7552 118.74 13.8125C118.86 13.8646 119.014 13.8906 119.201 13.8906C119.331 13.8906 119.482 13.875 119.654 13.8438C119.831 13.8125 119.962 13.7865 120.045 13.7656L120.67 16.7969C120.477 16.8542 120.201 16.9245 119.842 17.0078C119.488 17.0911 119.066 17.1458 118.576 17.1719C117.587 17.224 116.756 17.1224 116.084 16.8672C115.412 16.6068 114.907 16.1979 114.568 15.6406C114.23 15.0833 114.066 14.3854 114.076 13.5469V2.125ZM127.832 17.2187C126.551 17.2187 125.447 16.974 124.52 16.4844C123.598 15.9896 122.887 15.2812 122.387 14.3594C121.892 13.4323 121.645 12.3229 121.645 11.0313C121.645 9.79167 121.895 8.70833 122.395 7.78125C122.895 6.85417 123.6 6.13281 124.512 5.61719C125.423 5.10156 126.499 4.84375 127.738 4.84375C128.645 4.84375 129.465 4.98438 130.199 5.26562C130.934 5.54687 131.561 5.95573 132.082 6.49219C132.603 7.02344 133.004 7.66927 133.285 8.42969C133.566 9.1901 133.707 10.0469 133.707 11V12H122.988V9.625H129.738C129.733 9.28125 129.645 8.97917 129.473 8.71875C129.306 8.45312 129.079 8.2474 128.793 8.10156C128.512 7.95052 128.191 7.875 127.832 7.875C127.483 7.875 127.163 7.95052 126.871 8.10156C126.579 8.2474 126.345 8.45052 126.168 8.71094C125.996 8.97135 125.905 9.27604 125.895 9.625V12.1875C125.895 12.5729 125.975 12.9167 126.137 13.2188C126.298 13.5208 126.53 13.7578 126.832 13.9297C127.134 14.1016 127.499 14.1875 127.926 14.1875C128.223 14.1875 128.493 14.1458 128.738 14.0625C128.988 13.9792 129.202 13.8594 129.379 13.7031C129.556 13.5417 129.686 13.349 129.77 13.125H133.707C133.572 13.9583 133.251 14.6823 132.746 15.2969C132.241 15.9063 131.572 16.3802 130.738 16.7187C129.91 17.0521 128.941 17.2187 127.832 17.2187ZM135.467 17V5H139.561V7.28125H139.686C139.936 6.53125 140.363 5.9375 140.967 5.5C141.571 5.0625 142.29 4.84375 143.123 4.84375C143.967 4.84375 144.693 5.06771 145.303 5.51562C145.912 5.95833 146.279 6.54687 146.404 7.28125H146.529C146.732 6.54687 147.165 5.95833 147.826 5.51562C148.488 5.06771 149.264 4.84375 150.154 4.84375C151.305 4.84375 152.238 5.21354 152.951 5.95312C153.67 6.69271 154.029 7.67708 154.029 8.90625V17H149.717V10C149.717 9.47396 149.584 9.0625 149.318 8.76562C149.053 8.46354 148.696 8.3125 148.248 8.3125C147.805 8.3125 147.454 8.46354 147.193 8.76562C146.938 9.0625 146.811 9.47396 146.811 10V17H142.686V10C142.686 9.47396 142.553 9.0625 142.287 8.76562C142.021 8.46354 141.665 8.3125 141.217 8.3125C140.92 8.3125 140.665 8.38021 140.451 8.51563C140.238 8.65104 140.071 8.84635 139.951 9.10156C139.837 9.35156 139.779 9.65104 139.779 10V17H135.467Z" fill="#086CB4"/>
</svg>
