<svg width="88" height="17" viewBox="0 0 88 17" fill="none" xmlns="http://www.w3.org/2000/svg">
<path d="M0.03125 16V-4.76837e-07H4.375V12.5H10.8438V16H0.03125ZM18.4121 16.2187C17.1309 16.2187 16.0267 15.974 15.0996 15.4844C14.1777 14.9896 13.4668 14.2812 12.9668 13.3594C12.472 12.4323 12.2246 11.3229 12.2246 10.0313C12.2246 8.79167 12.4746 7.70833 12.9746 6.78125C13.4746 5.85417 14.1803 5.13281 15.0918 4.61719C16.0033 4.10156 17.0788 3.84375 18.3184 3.84375C19.2246 3.84375 20.0449 3.98438 20.7793 4.26562C21.5137 4.54687 22.1413 4.95573 22.6621 5.49219C23.1829 6.02344 23.584 6.66927 23.8652 7.42969C24.1465 8.1901 24.2871 9.04687 24.2871 10V11H13.5684V8.625H20.3184C20.3132 8.28125 20.2246 7.97917 20.0527 7.71875C19.8861 7.45312 19.6595 7.2474 19.373 7.10156C19.0918 6.95052 18.7715 6.875 18.4121 6.875C18.0632 6.875 17.7428 6.95052 17.4512 7.10156C17.1595 7.2474 16.9251 7.45052 16.748 7.71094C16.5762 7.97135 16.485 8.27604 16.4746 8.625V11.1875C16.4746 11.5729 16.5553 11.9167 16.7168 12.2188C16.8783 12.5208 17.11 12.7578 17.4121 12.9297C17.7142 13.1016 18.0788 13.1875 18.5059 13.1875C18.8027 13.1875 19.0736 13.1458 19.3184 13.0625C19.5684 12.9792 19.7819 12.8594 19.959 12.7031C20.1361 12.5417 20.2663 12.349 20.3496 12.125H24.2871C24.1517 12.9583 23.8314 13.6823 23.3262 14.2969C22.821 14.9063 22.1517 15.3802 21.3184 15.7187C20.4902 16.0521 19.5215 16.2187 18.4121 16.2187ZM29.3906 16.1875C28.625 16.1875 27.9479 16.0625 27.3594 15.8125C26.776 15.5573 26.3177 15.1719 25.9844 14.6562C25.651 14.1406 25.4844 13.4844 25.4844 12.6875C25.4844 12.0312 25.5964 11.4714 25.8203 11.0078C26.0443 10.5391 26.3568 10.1562 26.7578 9.85938C27.1589 9.5625 27.625 9.33594 28.1563 9.17969C28.6927 9.02344 29.2708 8.92187 29.8906 8.875C30.5625 8.82292 31.1016 8.76042 31.5078 8.6875C31.9193 8.60937 32.2161 8.5026 32.3984 8.36719C32.5807 8.22656 32.6719 8.04167 32.6719 7.8125V7.78125C32.6719 7.46875 32.5521 7.22917 32.3125 7.0625C32.0729 6.89583 31.7656 6.8125 31.3906 6.8125C30.9792 6.8125 30.6432 6.90365 30.3828 7.08594C30.1276 7.26302 29.974 7.53646 29.9219 7.90625H25.9531C26.0052 7.17708 26.237 6.50521 26.6484 5.89062C27.0651 5.27083 27.6719 4.77604 28.4688 4.40625C29.2656 4.03125 30.2604 3.84375 31.4531 3.84375C32.3125 3.84375 33.0833 3.94531 33.7656 4.14844C34.4479 4.34635 35.0286 4.625 35.5078 4.98437C35.987 5.33854 36.3516 5.75521 36.6016 6.23437C36.8568 6.70833 36.9844 7.22396 36.9844 7.78125V16H32.9531V14.3125H32.8594C32.6198 14.7604 32.3281 15.1224 31.9844 15.3984C31.6458 15.6745 31.2578 15.875 30.8203 16C30.388 16.125 29.9115 16.1875 29.3906 16.1875ZM30.7969 13.4687C31.125 13.4687 31.4323 13.401 31.7187 13.2656C32.0104 13.1302 32.2474 12.9349 32.4297 12.6797C32.612 12.4245 32.7031 12.1146 32.7031 11.75V10.75C32.5885 10.7969 32.4661 10.8411 32.3359 10.8828C32.2109 10.9245 32.0755 10.9635 31.9297 11C31.7891 11.0365 31.638 11.0703 31.4766 11.1016C31.3203 11.1328 31.1563 11.1615 30.9844 11.1875C30.651 11.2396 30.3776 11.3255 30.1641 11.4453C29.9557 11.5599 29.7995 11.7031 29.6953 11.875C29.5964 12.0417 29.5469 12.2292 29.5469 12.4375C29.5469 12.7708 29.6641 13.026 29.8984 13.2031C30.1328 13.3802 30.4323 13.4687 30.7969 13.4687ZM39.0449 16V4H43.2324V6.28125H43.3574C43.5762 5.4375 43.9225 4.82031 44.3965 4.42969C44.8757 4.03906 45.4355 3.84375 46.0762 3.84375C46.2637 3.84375 46.4486 3.85938 46.6309 3.89063C46.8184 3.91667 46.998 3.95573 47.1699 4.00781V7.6875C46.9564 7.61458 46.6934 7.5599 46.3809 7.52344C46.0684 7.48698 45.8001 7.46875 45.5762 7.46875C45.1543 7.46875 44.7741 7.5651 44.4355 7.75781C44.1022 7.94531 43.8392 8.21094 43.6465 8.55469C43.4538 8.89323 43.3574 9.29167 43.3574 9.75V16H39.0449ZM52.8965 9.25V16H48.584V4H52.6777V6.28125H52.8027C53.0632 5.52083 53.5215 4.92448 54.1777 4.49219C54.8392 4.0599 55.61 3.84375 56.4902 3.84375C57.3392 3.84375 58.0762 4.03906 58.7012 4.42969C59.3314 4.8151 59.8184 5.34635 60.1621 6.02344C60.5111 6.70052 60.6829 7.47396 60.6777 8.34375V16H56.3652V9.25C56.3704 8.65625 56.2194 8.1901 55.9121 7.85156C55.61 7.51302 55.1882 7.34375 54.6465 7.34375C54.2923 7.34375 53.9824 7.42188 53.7168 7.57812C53.4564 7.72917 53.2559 7.94792 53.1152 8.23437C52.9746 8.51562 52.9017 8.85417 52.8965 9.25ZM68.5879 16.2187C67.2858 16.2187 66.1712 15.9609 65.2441 15.4453C64.3171 14.9245 63.6061 14.2005 63.1113 13.2734C62.6165 12.3411 62.3691 11.2604 62.3691 10.0313C62.3691 8.80208 62.6165 7.72396 63.1113 6.79687C63.6061 5.86458 64.3171 5.14062 65.2441 4.625C66.1712 4.10417 67.2858 3.84375 68.5879 3.84375C69.765 3.84375 70.7832 4.05729 71.6426 4.48438C72.5072 4.90625 73.1764 5.50521 73.6504 6.28125C74.1243 7.05208 74.3639 7.95833 74.3691 9H70.3691C70.3118 8.36979 70.1296 7.89062 69.8223 7.5625C69.5202 7.22917 69.1296 7.0625 68.6504 7.0625C68.2754 7.0625 67.9473 7.17187 67.666 7.39062C67.3848 7.60417 67.166 7.92969 67.0098 8.36719C66.8535 8.79948 66.7754 9.34375 66.7754 10C66.7754 10.6562 66.8535 11.2031 67.0098 11.6406C67.166 12.0729 67.3848 12.3984 67.666 12.6172C67.9473 12.8307 68.2754 12.9375 68.6504 12.9375C68.9681 12.9375 69.2493 12.8646 69.4941 12.7187C69.7389 12.5677 69.9368 12.349 70.0879 12.0625C70.2441 11.7708 70.3379 11.4167 70.3691 11H74.3691C74.3535 12.0573 74.1113 12.9792 73.6426 13.7656C73.1738 14.5469 72.5098 15.151 71.6504 15.5781C70.7962 16.0052 69.7754 16.2187 68.5879 16.2187ZM74.0156 3.5V-4.76837e-07H87.9219V3.5H83.1094V16H78.8281V3.5H74.0156Z" fill="#086CB4"/>
</svg>
