<svg width="95" height="95" viewBox="0 0 95 95" fill="none" xmlns="http://www.w3.org/2000/svg">
    <circle cx="47.5" cy="47.5" r="46" fill="#F0F9FB" stroke="#8CD3E1" stroke-width="3"/>
    <path d="M44.6953 63.3906C51.082 63.3906 55.6719 59.9141 55.6328 55.0703C55.6719 51.5352 53.3867 49.0156 49.2266 48.5078V48.2734C52.3906 47.707 54.5977 45.4609 54.5781 42.2969C54.5977 37.8242 50.6719 34.3281 44.7734 34.3281C38.9727 34.3281 34.5977 37.707 34.5 42.5703H40.125C40.2227 40.4023 42.2734 38.9961 44.7734 39.0156C47.2734 38.9961 48.9336 40.4805 48.9141 42.6484C48.9336 44.875 46.9805 46.3984 44.1875 46.3984H41.5703V50.7344H44.1875C47.5078 50.7539 49.5586 52.375 49.5391 54.6797C49.5586 56.9648 47.5469 58.5273 44.7344 58.5469C42 58.5273 39.9492 57.1406 39.8516 55.0312H33.9141C34.0312 59.9727 38.4844 63.3906 44.6953 63.3906Z" fill="#1995AE"/>
</svg>
