<svg width="95" height="95" viewBox="0 0 95 95" fill="none" xmlns="http://www.w3.org/2000/svg">
    <circle cx="47.5" cy="47.5" r="46" fill="#F0F9FB" stroke="#8CD3E1" stroke-width="3"/>
    <path d="M44.6172 63.3906C50.9844 63.3906 55.3203 59.3086 55.3203 53.5859C55.3203 48.1562 51.4531 44.2695 46.2578 44.2891C43.7773 44.2695 41.6289 45.2852 40.5938 46.6719H40.3594L41.1406 39.5234H53.7188V34.7188H36.2969L34.7734 51.0078H40.0859C40.9258 49.4258 42.4102 48.625 44.5391 48.625C47.5078 48.6445 49.6367 50.7344 49.6172 53.7422C49.6367 56.6914 47.5469 58.7617 44.6172 58.7422C42.1562 58.7617 40.1445 57.2383 40.0078 55.0312H34.3047C34.4023 59.9141 38.7188 63.3906 44.6172 63.3906Z" fill="#1995AE"/>
</svg>
