<svg width="16" height="18" viewBox="0 0 24 28" fill="none" xmlns="http://www.w3.org/2000/svg">
<path d="M13.55 2C13.55 1.14396 12.856 0.45 12 0.45C11.144 0.45 10.45 1.14396 10.45 2H13.55ZM10.904 21.096C11.5093 21.7013 12.4907 21.7013 13.096 21.096L22.9602 11.2319C23.5655 10.6266 23.5655 9.64516 22.9602 9.03985C22.3548 8.43453 21.3734 8.43453 20.7681 9.03985L12 17.808L3.23188 9.03985C2.62656 8.43453 1.64516 8.43453 1.03985 9.03985C0.434532 9.64516 0.434532 10.6266 1.03985 11.2319L10.904 21.096ZM10.45 2L10.45 20H13.55L13.55 2H10.45Z" fill="white"/>
<rect y="25" width="24" height="3" rx="1.5" fill="white"/>
<rect y="22" width="3" height="6" rx="1.5" fill="white"/>
<rect x="21" y="22" width="3" height="6" rx="1.5" fill="white"/>
</svg>
