<svg width="650" height="504" viewBox="0 0 650 504" fill="none" xmlns="http://www.w3.org/2000/svg">
<circle cx="257.089" cy="233.089" r="162.089" fill="url(#paint0_linear_2591_2164)" fill-opacity="0.5"/>
<circle cx="417.089" cy="233.089" r="162.089" fill="url(#paint1_linear_2591_2164)" fill-opacity="0.5"/>
<circle cx="337.089" cy="341.089" r="162.089" fill="url(#paint2_linear_2591_2164)" fill-opacity="0.5"/>
<g filter="url(#filter0_d_2591_2164)">
<circle cx="337.258" cy="135.586" r="12.2583" fill="#D7000F"/>
<circle cx="461.02" cy="357.332" r="12.2583" fill="#D7000F"/>
<circle cx="214.258" cy="359.586" r="12.2583" fill="#D7000F"/>
</g>
<path d="M217.179 356.09L136.84 394.946" stroke="#D7000F" stroke-width="1.38773"/>
<path d="M549.352 402.571L461 354" stroke="#D7000F" stroke-width="1.38773"/>
<line x1="337.694" y1="48" x2="337.694" y2="125.25" stroke="#D7000F" stroke-width="1.38773"/>
<rect x="286.5" y="0.5" width="106" height="47" rx="19.5" fill="white" stroke="#D7000F"/>
<rect x="0.5" y="373.5" width="137" height="47" rx="19.5" fill="white" stroke="#D7000F"/>
<rect x="535.5" y="377.5" width="114" height="47" rx="19.5" fill="white" stroke="#D7000F"/>
<path d="M309.685 18.0912V16.1436H308.166V18.0912H303.746V19.3343H314.091V18.0912H309.685ZM317.282 21.047V16.2265H315.749V27.0691H317.282V22.3315H319.892V21.047H317.282ZM313.097 23.3812C313.083 21.4751 311.412 20.2597 308.925 20.2459C306.412 20.2597 304.727 21.4751 304.74 23.3812C304.727 25.2735 306.412 26.5028 308.925 26.5028C311.412 26.5028 313.083 25.2735 313.097 23.3812ZM306.204 23.3812C306.191 22.2072 307.282 21.4475 308.925 21.4337C310.541 21.4475 311.633 22.2072 311.646 23.3812C311.633 24.5414 310.541 25.2873 308.925 25.2873C307.282 25.2873 306.191 24.5414 306.204 23.3812ZM315.749 29.2928V33.5884H317.282V28.0359H305.914V29.2928H315.749ZM328.511 19.203C329.609 21.1367 332.254 22.511 334.94 22.9116L335.507 21.6961C332.454 21.2956 329.291 19.3757 329.291 17.2348V16.4199H327.717V17.2348C327.717 19.4448 324.581 21.268 321.487 21.6961L322.067 22.9116C324.747 22.511 327.406 21.1575 328.511 19.203ZM320.59 25.4254H336.418V24.1409H320.59V25.4254ZM324.125 28.6713V26.6409H322.606V33.3536H334.346V26.6409H332.8V28.6713H324.125ZM324.125 32.1105V29.8867H332.8V32.1105H324.125ZM355.423 23.2983H352.909V16.6133H351.459V32.6768H352.909V24.5967H355.423V33.5884H356.915V16.2265H355.423V23.2983ZM344.498 18.3398H342.964V29.0856H344.056C345.962 29.0856 347.951 28.9613 350.368 28.5193L350.188 27.1657C348.068 27.587 346.21 27.7113 344.498 27.7182V18.3398ZM370.872 22.3522C372.239 21.8204 373.013 20.9365 373.013 19.7762C373.013 17.732 370.665 16.558 366.88 16.558C363.082 16.558 360.734 17.732 360.734 19.7762C360.734 20.9434 361.514 21.8273 362.902 22.366V24.8177H358.979V26.0746H374.808V24.8177H370.872V22.3522ZM362.322 19.7762C362.308 18.5193 364.048 17.7597 366.88 17.7597C369.698 17.7597 371.452 18.5193 371.452 19.7762C371.452 21.047 369.698 21.779 366.88 21.779C364.048 21.779 362.308 21.047 362.322 19.7762ZM364.435 22.7735C365.16 22.9047 365.982 22.9669 366.88 22.9669C367.792 22.9669 368.62 22.8978 369.352 22.7666V24.8177H364.435V22.7735ZM366.88 27.4144C363.123 27.4006 360.885 28.4917 360.885 30.4669C360.885 32.4558 363.123 33.547 366.88 33.547C370.609 33.547 372.847 32.4558 372.861 30.4669C372.847 28.4917 370.609 27.4006 366.88 27.4144ZM366.88 32.3453C364.104 32.3591 362.432 31.6547 362.446 30.4669C362.432 29.2928 364.104 28.6022 366.88 28.5884C369.642 28.6022 371.314 29.2928 371.327 30.4669C371.314 31.6547 369.642 32.3591 366.88 32.3453Z" fill="#4B4B4B"/>
<path d="M34.0967 399.945V389.227H32.5635V392.348H29.6215V393.605H32.5635V395.456H29.6215V396.713H32.5635V399.945H34.0967ZM30.0221 397.141C29.2693 397.238 28.482 397.307 27.674 397.369V391.809H29.442V390.539H20.2293V391.809H21.9834V397.583C21.1892 397.597 20.4365 397.597 19.7459 397.597L19.9392 398.895C22.7569 398.895 26.7072 398.84 30.0912 398.315L30.0221 397.141ZM26.1961 391.809V397.459C25.2845 397.507 24.366 397.541 23.4751 397.562V391.809H26.1961ZM28.337 400.304C24.7044 400.304 22.5083 401.436 22.5221 403.425C22.5083 405.401 24.7044 406.547 28.337 406.547C31.9696 406.547 34.1519 405.401 34.1519 403.425C34.1519 401.436 31.9696 400.304 28.337 400.304ZM28.337 405.331C25.6575 405.331 24.0276 404.627 24.0414 403.425C24.0276 402.224 25.6575 401.506 28.337 401.506C31.0028 401.506 32.6326 402.224 32.6326 403.425C32.6326 404.627 31.0028 405.331 28.337 405.331ZM50.0288 396.285V389.227H48.4957V406.575H50.0288V397.583H52.8465V396.285H50.0288ZM37.515 391.091V392.376H43.9791C43.6338 396.499 41.189 399.841 36.7001 402.072L37.5564 403.273C43.2194 400.483 45.526 396.008 45.5399 391.091H37.515ZM62.2379 390.193L57.6799 407.127H59.213L63.7711 390.193H62.2379ZM81.8112 406.588H83.3443V389.227H81.8112V406.588ZM77.3775 392.376H79.3388V391.105H69.4217V392.376H71.383V400.953C70.5335 400.967 69.7186 400.967 68.9659 400.967L69.1454 402.279C72.3636 402.265 76.5487 402.21 80.3333 401.616L80.2504 400.47C79.325 400.58 78.3581 400.663 77.3775 400.732V392.376ZM75.8719 392.376V400.822C74.8636 400.87 73.8554 400.905 72.8747 400.925V392.376H75.8719ZM89.4284 397.569V392.113H99.7322V390.843H87.909V398.84H99.898V397.569H89.4284ZM85.8786 404.213H101.776V402.928H85.8786V404.213ZM116.051 393.757H113.731V389.572H112.294V399.544H113.731V395.028H116.051V399.655H117.501V389.24H116.051V393.757ZM108.883 390.331V393.094H105.015V390.331H103.565V398.425H110.319V390.331H108.883ZM105.015 397.155V394.309H108.883V397.155H105.015ZM115.996 401.975V406.588H117.501V400.704H105.802V401.975H115.996Z" fill="#4B4B4B"/>
<path d="M564.633 397.011C565.744 399.145 568.417 400.644 571.124 401.099L571.746 399.843C568.61 399.401 565.42 397.287 565.42 394.843V393.848H563.831V394.843C563.831 397.329 560.655 399.401 557.519 399.843L558.155 401.099C560.855 400.644 563.528 399.159 564.633 397.011ZM556.704 403.006V404.29H563.831V410.588H565.337V404.29H572.533V403.006H556.704ZM586.449 397.384H582.802C582.471 395.381 580.703 394.028 578.369 394.041C575.73 394.028 573.852 395.685 573.866 398.047C573.852 400.423 575.73 402.066 578.369 402.066C580.724 402.066 582.505 400.699 582.809 398.655H586.449V402.536H587.982V393.227H586.449V397.384ZM578.369 400.768C576.587 400.768 575.33 399.622 575.33 398.047C575.33 396.445 576.587 395.326 578.369 395.34C580.123 395.326 581.38 396.445 581.38 398.047C581.38 399.622 580.123 400.768 578.369 400.768ZM578.327 405.616V403.42H576.794V410.354H587.982V403.42H586.449V405.616H578.327ZM578.327 409.097V406.845H586.449V409.097H578.327ZM604.376 399.304H607.953V405.975H609.487V393.24H607.953V398.047H604.376V399.304ZM600.384 399.38C601.137 401.175 602.65 402.633 604.611 403.337L605.412 402.108C602.871 401.238 601.13 399.055 601.13 396.818V395.92H605.011V394.649H595.661V395.92H599.583V396.818C599.583 399.304 597.732 401.597 595.163 402.494L595.964 403.751C598.029 402.978 599.632 401.383 600.384 399.38ZM599.873 404.829H598.34V410.202H609.97V408.931H599.873V404.829ZM628.167 396.017H625.557V393.24H624.024V403.793H625.557V400.934H628.167V399.649H625.557V397.287H628.167V396.017ZM622.297 401.017C619.583 401.465 617.352 401.562 614.272 401.569V399.055H620.584V394.276H612.711V395.533H619.079V397.84H612.753V402.854H614.106C617.339 402.854 619.659 402.743 622.449 402.287L622.297 401.017ZM624.024 405.961V410.575H625.557V404.704H614.189V405.961H624.024Z" fill="#4B4B4B"/>
<g filter="url(#filter1_d_2591_2164)">
<path d="M145.289 193.938H140.32V191.805H137.719V193.938H132.727V196H145.289V193.938ZM133.805 200.688C133.805 203.008 135.949 204.555 139.008 204.555C142.066 204.555 144.176 203.008 144.188 200.688C144.176 198.367 142.066 196.82 139.008 196.82C135.949 196.82 133.805 198.367 133.805 200.688ZM135.305 208.234H146.812V213.086H149.414V206.148H135.305V208.234ZM136.336 200.688C136.324 199.492 137.402 198.789 139.008 198.789C140.613 198.789 141.703 199.492 141.703 200.688C141.703 201.883 140.613 202.551 139.008 202.539C137.402 202.551 136.324 201.883 136.336 200.688ZM146.812 205.164H149.414V199.656H152.367V197.523H149.414V191.898H146.812V205.164ZM157.864 204.602H155.286V212.828H169.793V204.602H167.192V206.617H157.864V204.602ZM152.965 203.406H172.278V201.273H152.965V203.406ZM153.95 198.109L154.911 200.172C158.438 199.691 161.25 198.121 162.622 195.965C163.981 198.109 166.782 199.691 170.333 200.172L171.247 198.109C166.864 197.594 163.958 195.215 163.958 192.93V192.133H161.286V192.93C161.274 195.285 158.379 197.559 153.95 198.109ZM157.864 210.766V208.609H167.192V210.766H157.864ZM195.224 191.898H192.623V208.445H195.224V201.156H198.083V199H195.224V191.898ZM178.255 204.203L178.537 206.242C182.193 206.207 187.244 206.148 191.732 205.305L191.521 203.477C189.822 203.734 188.005 203.898 186.201 204.004V202.785C188.521 202.469 189.974 201.32 189.974 199.633C189.974 197.559 187.947 196.328 184.865 196.352C181.794 196.328 179.744 197.559 179.755 199.633C179.744 201.332 181.244 202.492 183.599 202.785V204.133C181.677 204.191 179.837 204.203 178.255 204.203ZM178.794 195.648H190.958V193.75H186.201V191.828H183.599V193.75H178.794V195.648ZM181.302 212.664H195.974V210.555H183.904V207.344H181.302V212.664ZM182.263 199.633C182.24 198.637 183.224 198.098 184.865 198.109C186.505 198.098 187.49 198.637 187.49 199.633C187.49 200.547 186.505 201.086 184.865 201.086C183.224 201.086 182.24 200.547 182.263 199.633ZM216.447 191.922H213.846V195.508H209.592C209.709 194.84 209.768 194.137 209.768 193.398H200.041V195.508H206.92C206.521 198.66 203.873 201.18 198.916 202.516L199.971 204.578C204.576 203.289 207.67 200.934 209.006 197.57H213.846V199.844H208.807V201.953H213.846V204.297H216.447V191.922ZM202.244 208.75C202.244 211.352 205.092 212.98 209.439 212.969C213.728 212.98 216.588 211.352 216.588 208.75C216.588 206.148 213.728 204.543 209.439 204.531C205.092 204.543 202.244 206.148 202.244 208.75ZM204.846 208.75C204.846 207.332 206.592 206.57 209.439 206.57C212.24 206.57 213.975 207.332 213.986 208.75C213.975 210.145 212.24 210.906 209.439 210.906C206.592 210.906 204.846 210.145 204.846 208.75Z" fill="#3D3D3D"/>
</g>
<g filter="url(#filter2_d_2591_2164)">
<path d="M311.289 225.938H306.32V223.805H303.719V225.938H298.727V228H311.289V225.938ZM299.805 232.688C299.805 235.008 301.949 236.555 305.008 236.555C308.066 236.555 310.176 235.008 310.188 232.688C310.176 230.367 308.066 228.82 305.008 228.82C301.949 228.82 299.805 230.367 299.805 232.688ZM301.305 240.234H312.812V245.086H315.414V238.148H301.305V240.234ZM302.336 232.688C302.324 231.492 303.402 230.789 305.008 230.789C306.613 230.789 307.703 231.492 307.703 232.688C307.703 233.883 306.613 234.551 305.008 234.539C303.402 234.551 302.324 233.883 302.336 232.688ZM312.812 237.164H315.414V231.656H318.367V229.523H315.414V223.898H312.812V237.164ZM325.575 227.836V225.211H323.067V227.836C323.055 230.18 321.696 232.828 318.778 234.117L320.184 236.109C322.2 235.266 323.583 233.648 324.356 231.762C325.118 233.402 326.43 234.762 328.317 235.477L329.7 233.484C326.922 232.43 325.586 230.121 325.575 227.836ZM322.668 241.148C322.657 243.598 325.469 245.062 329.934 245.062C334.364 245.062 337.188 243.598 337.2 241.148C337.188 238.711 334.364 237.258 329.934 237.258C325.469 237.258 322.657 238.711 322.668 241.148ZM325.27 241.148C325.258 239.906 326.993 239.227 329.934 239.227C332.829 239.227 334.563 239.906 334.575 241.148C334.563 242.402 332.829 243.082 329.934 243.07C326.993 243.082 325.258 242.402 325.27 241.148ZM330.051 236.25H332.489V231.398H334.598V236.906H337.083V223.922H334.598V229.266H332.489V224.32H330.051V236.25ZM358.54 233.625H339.228V235.734H347.571V237.504C343.728 237.75 341.478 239.074 341.478 241.266C341.478 243.703 344.231 245.062 348.86 245.062C353.419 245.062 356.185 243.703 356.196 241.266C356.185 239.074 353.935 237.762 350.149 237.516V235.734H358.54V233.625ZM340.165 230.602L341.056 232.664C344.899 232.266 347.712 230.73 348.86 228.586C350.009 230.73 352.856 232.266 356.712 232.664L357.626 230.602C353.642 230.238 351.122 228.668 350.7 226.922H356.806V224.836H340.985V226.922H347.032C346.599 228.656 344.056 230.238 340.165 230.602ZM344.126 241.266C344.114 240.094 345.778 239.473 348.86 239.461C351.895 239.473 353.571 240.094 353.595 241.266C353.571 242.438 351.895 243.082 348.86 243.07C345.778 243.082 344.114 242.438 344.126 241.266ZM377.138 223.922H374.513V235.898H377.138V223.922ZM359.49 233.414L360.779 235.477C363.322 234.633 365.115 232.887 366.064 230.707C367.025 232.734 368.783 234.293 371.232 235.055L372.498 233.062C369.181 232.008 367.376 229.488 367.388 226.781V224.719H364.693V226.781C364.705 229.57 362.923 232.324 359.49 233.414ZM363.076 244.828H377.138V236.953H363.076V244.828ZM365.654 242.719V239.016H374.583V242.719H365.654ZM306.32 253.258V253.211H310.75V251.148H306.344V248.805H303.719V251.148H299.289V253.211H303.719V253.258C303.719 255.789 301.926 258.156 298.586 259.094L299.828 261.109C302.348 260.383 304.117 258.836 305.043 256.832C306.004 258.648 307.727 260.066 310.164 260.734L311.359 258.719C308.031 257.793 306.309 255.566 306.32 253.258ZM301.727 269.828H315.414V262.258H301.727V269.828ZM304.305 267.719V264.32H312.836V267.719H304.305ZM312.812 261.367H315.414V256.164H318.367V254.008H315.414V248.898H312.812V261.367ZM324.754 250.445C321.567 250.445 319.305 253.352 319.317 257.922C319.305 262.527 321.567 265.422 324.754 265.422C326.793 265.422 328.458 264.203 329.383 262.094H334.153V270.109H336.731V248.898H334.153V253.375H329.196C328.247 251.512 326.665 250.445 324.754 250.445ZM321.825 257.922C321.813 254.688 323.008 252.789 324.754 252.789C326.512 252.789 327.696 254.688 327.708 257.922C327.696 261.18 326.512 263.066 324.754 263.078C323.008 263.066 321.813 261.18 321.825 257.922ZM329.934 255.508H334.153V259.984H329.993C330.11 259.34 330.168 258.648 330.168 257.922C330.168 257.055 330.086 256.246 329.934 255.508ZM350.267 250.656V249.578H347.524V250.656C347.524 253.34 344.548 256.023 340.071 256.609L341.103 258.719C344.665 258.18 347.513 256.41 348.895 254.02C350.278 256.41 353.138 258.18 356.735 258.719L357.767 256.609C353.243 256.023 350.255 253.316 350.267 250.656ZM339.228 262.703H347.548V270.086H350.126V262.703H358.54V260.547H339.228V262.703ZM365.373 249.836C362.126 249.824 359.771 251.91 359.771 254.805C359.771 257.734 362.126 259.82 365.373 259.82C368.138 259.82 370.318 258.215 370.822 255.836H374.63V260.266H377.232V248.898H374.63V253.727H370.798C370.271 251.406 368.115 249.824 365.373 249.836ZM362.255 254.805C362.255 253.105 363.544 252.004 365.373 252.016C367.154 252.004 368.431 253.105 368.443 254.805C368.431 256.504 367.154 257.629 365.373 257.617C363.544 257.629 362.255 256.504 362.255 254.805ZM363.263 269.828H377.232V261.25H374.63V263.5H365.841V261.25H363.263V269.828ZM365.841 267.719V265.516H374.63V267.719H365.841Z" fill="#3D3D3D"/>
</g>
<path d="M461.203 195.273V193.023H458.602V195.039C458.59 198.062 456.879 200.887 453.469 202.07L454.875 204.109C457.312 203.254 459.023 201.484 459.938 199.234C460.863 201.203 462.504 202.75 464.789 203.523L466.195 201.484C462.926 200.453 461.203 197.934 461.203 195.273ZM456.352 209.031C456.352 211.598 459.105 213.062 463.523 213.062C467.906 213.062 470.613 211.598 470.625 209.031C470.613 206.523 467.906 205.035 463.523 205.047C459.105 205.035 456.352 206.523 456.352 209.031ZM458.953 209.031C458.953 207.789 460.617 207.086 463.523 207.086C466.418 207.086 468.047 207.789 468.047 209.031C468.047 210.344 466.418 211 463.523 211C460.617 211 458.953 210.344 458.953 209.031ZM467.812 204.578H470.414V199.211H473.367V197.055H470.414V191.898H467.812V204.578ZM492.34 194.734H484.887V192.18H482.309V194.734H474.833V196.844H492.34V194.734ZM473.965 210.812H493.325V208.703H484.887V206.102C488.497 205.809 490.735 204.332 490.723 202C490.735 199.445 487.958 197.922 483.598 197.922C479.18 197.922 476.438 199.445 476.45 202C476.438 204.344 478.653 205.82 482.309 206.102V208.703H473.965V210.812ZM479.122 202C479.11 200.664 480.715 199.973 483.598 199.961C486.422 199.973 488.051 200.664 488.051 202C488.051 203.359 486.422 204.051 483.598 204.062C480.715 204.051 479.11 203.359 479.122 202ZM501.821 195.578V195.32H506.228V193.234H494.72V195.32H499.196V195.578C499.196 198.355 497.403 201.098 493.993 202.234L495.376 204.25C497.849 203.406 499.606 201.684 500.544 199.516C501.47 201.496 503.145 203.078 505.524 203.875L506.837 201.859C503.497 200.758 501.821 198.191 501.821 195.578ZM496.829 207.742H508.337V213.086H510.938V205.656H496.829V207.742ZM508.337 204.672H510.938V199.375H513.892V197.195H510.938V191.898H508.337V204.672ZM533.802 202.094H529.232V199.41C530.837 198.742 531.751 197.676 531.763 196.281C531.751 193.738 528.787 192.25 524.123 192.25C519.447 192.25 516.482 193.738 516.482 196.281C516.482 197.664 517.384 198.73 518.99 199.41V202.094H514.49V204.18H533.802V202.094ZM516.74 209.242C516.74 211.703 519.494 213.039 524.123 213.039C528.681 213.039 531.447 211.703 531.458 209.242C531.447 206.805 528.681 205.445 524.123 205.469C519.494 205.445 516.74 206.805 516.74 209.242ZM519.201 196.281C519.177 194.98 520.994 194.254 524.123 194.266C527.24 194.254 529.068 194.98 529.068 196.281C529.068 197.57 527.24 198.262 524.123 198.25C520.994 198.262 519.177 197.57 519.201 196.281ZM519.388 209.242C519.376 208.059 521.04 207.449 524.123 207.438C527.158 207.449 528.833 208.059 528.857 209.242C528.833 210.438 527.158 211.082 524.123 211.07C521.04 211.082 519.376 210.438 519.388 209.242ZM521.615 202.094V200.078C522.376 200.184 523.22 200.242 524.123 200.242C525.025 200.242 525.869 200.184 526.63 200.078V202.094H521.615Z" fill="#3D3D3D"/>
<path d="M315.044 434.837C315.997 436.652 317.729 438.069 320.157 438.74L321.367 436.727C318.028 435.798 316.312 433.561 316.312 431.257V431.224H320.738V429.152H316.345V426.815H313.718V429.152H309.285V431.224H313.718V431.257C313.718 433.785 311.928 436.155 308.588 437.099L309.84 439.122C312.351 438.392 314.116 436.843 315.044 434.837ZM325.42 432.011V426.906H322.801V439.354H325.42V434.157H328.378V432.011H325.42ZM325.42 447.823V440.265H311.738V447.823H325.42ZM322.843 442.329V445.718H314.307V442.329H322.843ZM344.141 431.381H339.201C338.257 429.517 336.666 428.448 334.751 428.439C331.569 428.448 329.306 431.348 329.323 435.923C329.306 440.53 331.569 443.431 334.751 443.423C336.798 443.431 338.472 442.204 339.392 440.091H344.141V448.122H346.726V426.906H344.141V431.381ZM334.751 441.069C333.011 441.069 331.809 439.18 331.817 435.923C331.809 432.691 333.011 430.793 334.751 430.793C336.508 430.793 337.693 432.691 337.701 435.923C337.693 439.18 336.508 441.069 334.751 441.069ZM340.005 437.986C340.113 437.348 340.171 436.652 340.171 435.923C340.171 435.052 340.088 434.24 339.931 433.503H344.141V437.986H340.005ZM360.16 438.599H366.425V436.528H354.185V430.561H366.259V428.472H351.574V438.599H357.574V443.439H349.229V445.577H368.596V443.439H360.16V438.599Z" fill="#3D3D3D"/>
<defs>
<filter id="filter0_d_2591_2164" x="181.184" y="102.512" width="312.909" height="290.148" filterUnits="userSpaceOnUse" color-interpolation-filters="sRGB">
<feFlood flood-opacity="0" result="BackgroundImageFix"/>
<feColorMatrix in="SourceAlpha" type="matrix" values="0 0 0 0 0 0 0 0 0 0 0 0 0 0 0 0 0 0 127 0" result="hardAlpha"/>
<feOffset/>
<feGaussianBlur stdDeviation="10.408"/>
<feComposite in2="hardAlpha" operator="out"/>
<feColorMatrix type="matrix" values="0 0 0 0 0.3625 0 0 0 0 0.137951 0 0 0 0 0.137951 0 0 0 0.25 0"/>
<feBlend mode="normal" in2="BackgroundImageFix" result="effect1_dropShadow_2591_2164"/>
<feBlend mode="normal" in="SourceGraphic" in2="effect1_dropShadow_2591_2164" result="shape"/>
</filter>
<filter id="filter1_d_2591_2164" x="122.727" y="181.805" width="103.859" height="41.2812" filterUnits="userSpaceOnUse" color-interpolation-filters="sRGB">
<feFlood flood-opacity="0" result="BackgroundImageFix"/>
<feColorMatrix in="SourceAlpha" type="matrix" values="0 0 0 0 0 0 0 0 0 0 0 0 0 0 0 0 0 0 127 0" result="hardAlpha"/>
<feOffset/>
<feGaussianBlur stdDeviation="5"/>
<feComposite in2="hardAlpha" operator="out"/>
<feColorMatrix type="matrix" values="0 0 0 0 1 0 0 0 0 1 0 0 0 0 1 0 0 0 1 0"/>
<feBlend mode="normal" in2="BackgroundImageFix" result="effect1_dropShadow_2591_2164"/>
<feBlend mode="normal" in="SourceGraphic" in2="effect1_dropShadow_2591_2164" result="shape"/>
</filter>
<filter id="filter2_d_2591_2164" x="288.586" y="213.805" width="98.6445" height="66.3047" filterUnits="userSpaceOnUse" color-interpolation-filters="sRGB">
<feFlood flood-opacity="0" result="BackgroundImageFix"/>
<feColorMatrix in="SourceAlpha" type="matrix" values="0 0 0 0 0 0 0 0 0 0 0 0 0 0 0 0 0 0 127 0" result="hardAlpha"/>
<feOffset/>
<feGaussianBlur stdDeviation="5"/>
<feComposite in2="hardAlpha" operator="out"/>
<feColorMatrix type="matrix" values="0 0 0 0 1 0 0 0 0 1 0 0 0 0 1 0 0 0 1 0"/>
<feBlend mode="normal" in2="BackgroundImageFix" result="effect1_dropShadow_2591_2164"/>
<feBlend mode="normal" in="SourceGraphic" in2="effect1_dropShadow_2591_2164" result="shape"/>
</filter>
<linearGradient id="paint0_linear_2591_2164" x1="241" y1="264" x2="-77" y2="42" gradientUnits="userSpaceOnUse">
<stop stop-color="#FF8989"/>
<stop offset="1" stop-color="#FFE8E8" stop-opacity="0"/>
</linearGradient>
<linearGradient id="paint1_linear_2591_2164" x1="401" y1="264" x2="83" y2="42" gradientUnits="userSpaceOnUse">
<stop stop-color="#FF8989"/>
<stop offset="1" stop-color="#FFE8E8" stop-opacity="0"/>
</linearGradient>
<linearGradient id="paint2_linear_2591_2164" x1="321" y1="372" x2="2.99999" y2="150" gradientUnits="userSpaceOnUse">
<stop stop-color="#FF8989"/>
<stop offset="1" stop-color="#FFE8E8" stop-opacity="0"/>
</linearGradient>
</defs>
</svg>
