<svg width="111" height="100" viewBox="0 0 111 100" fill="none" xmlns="http://www.w3.org/2000/svg">
<circle cx="18.0715" cy="18.0725" r="3.61446" fill="#FF4848"/>
<circle cx="27.7121" cy="18.0725" r="3.61446" fill="#FFC148"/>
<circle cx="37.3488" cy="18.0725" r="3.61446" fill="#31CB65"/>
<path fill-rule="evenodd" clip-rule="evenodd" d="M14 6H93.2289C97.6472 6 101.229 9.58172 101.229 14V49.1212C103.445 50.1544 105.468 51.5319 107.229 53.185V14C107.229 6.26801 100.961 0 93.2289 0H14C6.26801 0 0 6.26802 0 14V64.3133C0 72.0452 6.268 78.3133 14 78.3133H70.2783C69.5291 76.4237 69.0242 74.4107 68.8025 72.3133H14C9.58172 72.3133 6 68.7315 6 64.3133V14C6 9.58172 9.58173 6 14 6Z" fill="black"/>
<circle cx="91.5662" cy="69.8796" r="16.2771" fill="#D8DFFF" stroke="black" stroke-width="6"/>
<path d="M21.6875 53.0121L28.5352 45.3997C30.0716 43.6918 32.9048 44.7786 32.9048 47.0759V47.0759C32.9048 49.2923 35.5706 50.4178 37.159 48.872L46.9964 39.2984C48.6456 37.6935 51.4133 38.862 51.4133 41.1632V41.1632C51.4133 43.3791 54.0062 44.581 55.6971 43.1488L66.3791 34.1014C68.0322 32.7012 70.5432 34.0651 70.2685 36.2141V36.2141C69.9787 38.4807 72.7446 39.808 74.3316 38.164L86.7477 25.3013" stroke="#7D8EDE" stroke-width="6" stroke-linecap="round"/>
<line x1="77.4804" y1="95.8397" x2="83.7908" y2="86.3742" stroke="black" stroke-width="6" stroke-linecap="round"/>
</svg>
