<svg width="104" height="80" viewBox="0 0 104 80" fill="none" xmlns="http://www.w3.org/2000/svg">
<rect x="7" y="7" width="84" height="58" rx="2" fill="#E8BBD6" fill-opacity="0.32" stroke="black" stroke-width="3" stroke-linecap="round" stroke-dasharray="4 8"/>
<path d="M30.7542 34.3691H33.4261C33.0745 31.8643 30.8684 30.0977 27.9944 30.0977C24.637 30.0977 22.053 32.5234 22.053 36.6543C22.053 40.6797 24.4788 43.1758 28.0471 43.1758C31.2552 43.1758 33.5491 41.1367 33.5491 37.7969V36.2148H28.2405V38.2012H31.0003C30.9651 39.8008 29.8841 40.8291 28.0647 40.8379C26.0345 40.8291 24.7425 39.3086 24.7425 36.6191C24.7425 33.9473 26.0784 32.4443 28.0471 32.4355C29.4358 32.4443 30.3938 33.1738 30.7542 34.3691ZM40.5368 30.2734H38.0407L34.8942 32.2773V34.6152L37.8121 32.7871H37.8825V43H40.5368V30.2734ZM43.1299 43H52.2354V40.8203H46.8037V40.75L48.7373 38.8691C51.3564 36.4961 52.0596 35.3096 52.0596 33.8594C52.0596 31.6533 50.249 30.0977 47.5244 30.0977C44.8438 30.0977 42.998 31.6885 43.0068 34.1758H45.5205C45.5117 32.9541 46.2939 32.1982 47.4893 32.207C48.6582 32.1982 49.5107 32.9014 49.5107 34.0352C49.5107 35.0459 48.8691 35.749 47.6826 36.8828L43.1123 41.084L43.1299 43ZM58.4671 43.1758C61.3412 43.1758 63.4066 41.6113 63.389 39.4316C63.4066 37.8408 62.3783 36.707 60.5062 36.4785V36.373C61.93 36.1182 62.9232 35.1074 62.9144 33.6836C62.9232 31.6709 61.1566 30.0977 58.5023 30.0977C55.892 30.0977 53.9232 31.6182 53.8793 33.8066H56.4105C56.4545 32.8311 57.3773 32.1982 58.5023 32.207C59.6273 32.1982 60.3744 32.8662 60.3656 33.8418C60.3744 34.8438 59.4955 35.5293 58.2386 35.5293H57.0609V37.4805H58.2386C59.7328 37.4893 60.6556 38.2188 60.6468 39.2559C60.6556 40.2842 59.7504 40.9873 58.4847 40.9961C57.2543 40.9873 56.3314 40.3633 56.2875 39.4141H53.6156C53.6683 41.6377 55.6722 43.1758 58.4671 43.1758ZM69.8318 43.1758C73.0134 43.1758 74.947 40.8203 74.947 36.6367C74.947 32.4795 73.0046 30.0977 69.8318 30.0977C66.6589 30.0977 64.7165 32.4795 64.7165 36.6367C64.7165 40.8027 66.6413 43.1758 69.8318 43.1758ZM67.4236 36.6367C67.4236 33.7275 68.364 32.2686 69.8318 32.2598C71.2995 32.2686 72.2487 33.7275 72.24 36.6367C72.2487 39.5723 71.3083 40.9961 69.8318 40.9961C68.3552 40.9961 67.406 39.5723 67.4236 36.6367Z" fill="black"/>
<path d="M82.734 76.7056L76.5602 52.2215C76.3467 51.3751 77.2441 50.6807 78.0098 51.0997L100.769 63.5527C101.566 63.9887 101.415 65.1757 100.535 65.3992L90.455 67.957C90.2033 68.0209 89.9863 68.1802 89.8499 68.4013L84.5547 76.9861C84.0906 77.7385 82.9501 77.5628 82.734 76.7056Z" fill="#FEB0DF" stroke="black" stroke-width="4"/>
<circle cx="7" cy="7" r="7" fill="white"/>
<circle cx="7" cy="65" r="7" fill="white"/>
<circle cx="49" cy="7" r="7" fill="white"/>
<circle cx="49" cy="65" r="7" fill="white"/>
<circle cx="91" cy="7" r="7" fill="white"/>
<circle cx="7" cy="7" r="4" fill="black"/>
<circle cx="7" cy="65" r="4" fill="black"/>
<circle cx="49" cy="7" r="4" fill="black"/>
<circle cx="91" cy="7" r="4" fill="black"/>
<circle cx="49" cy="65" r="4" fill="black"/>
</svg>
