<svg width="115" height="85" viewBox="0 0 115 85" fill="none" xmlns="http://www.w3.org/2000/svg">
<path d="M4.7539 27.5856L56.1486 3.40072C56.6879 3.14692 57.3124 3.14692 57.8517 3.40072L109.246 27.5856C110.762 28.2987 110.782 30.4471 109.28 31.1886L57.8855 56.5629C57.3274 56.8384 56.6729 56.8384 56.1148 56.5629L4.72008 31.1886C3.21833 30.4471 3.2385 28.2987 4.7539 27.5856Z" fill="#DCF9FF" stroke="black" stroke-width="6" stroke-linecap="round"/>
<line x1="110" y1="42" x2="110" y2="29" stroke="black" stroke-width="6" stroke-linecap="round"/>
<line x1="110" y1="52" x2="110" y2="43" stroke="black" stroke-width="10" stroke-linecap="round"/>
<path d="M21 39.5V79.5C21 80.6046 21.8954 81.5 23 81.5H91C92.1046 81.5 93 80.6046 93 79.5V39.5" stroke="black" stroke-width="6" stroke-linecap="round"/>
<path d="M42.6977 28.2871H44.7758C44.5024 26.3389 42.7866 24.9648 40.5512 24.9648C37.9399 24.9648 35.9301 26.8516 35.9301 30.0645C35.9301 33.1953 37.8168 35.1367 40.5922 35.1367C43.0873 35.1367 44.8715 33.5508 44.8715 30.9531V29.7227H40.7426V31.2676H42.8891C42.8618 32.5117 42.0209 33.3115 40.6059 33.3184C39.0268 33.3115 38.0219 32.1289 38.0219 30.0371C38.0219 27.959 39.061 26.79 40.5922 26.7832C41.6723 26.79 42.4174 27.3574 42.6977 28.2871ZM50.3064 25.1016H48.365L45.9177 26.6602V28.4785L48.1872 27.0566H48.2419V35H50.3064V25.1016ZM52.3232 35H59.4053V33.3047H55.1807V33.25L56.6846 31.7871C58.7217 29.9414 59.2686 29.0186 59.2686 27.8906C59.2686 26.1748 57.8604 24.9648 55.7412 24.9648C53.6562 24.9648 52.2207 26.2021 52.2275 28.1367H54.1826C54.1758 27.1865 54.7842 26.5986 55.7139 26.6055C56.623 26.5986 57.2861 27.1455 57.2861 28.0273C57.2861 28.8135 56.7871 29.3604 55.8643 30.2422L52.3096 33.5098L52.3232 35ZM64.2522 35.1367C66.4876 35.1367 68.094 33.9199 68.0804 32.2246C68.094 30.9873 67.2942 30.1055 65.8382 29.9277V29.8457C66.9456 29.6475 67.718 28.8613 67.7112 27.7539C67.718 26.1885 66.344 24.9648 64.2796 24.9648C62.2493 24.9648 60.718 26.1475 60.6839 27.8496H62.6526C62.6868 27.0908 63.4046 26.5986 64.2796 26.6055C65.1546 26.5986 65.7356 27.1182 65.7288 27.877C65.7356 28.6562 65.052 29.1895 64.0745 29.1895H63.1585V30.707H64.0745C65.2366 30.7139 65.9544 31.2812 65.9475 32.0879C65.9544 32.8877 65.2503 33.4346 64.2659 33.4414C63.3089 33.4346 62.5911 32.9492 62.5569 32.2109H60.4788C60.5198 33.9404 62.0784 35.1367 64.2522 35.1367ZM73.0914 35.1367C75.566 35.1367 77.0699 33.3047 77.0699 30.0508C77.0699 26.8174 75.5591 24.9648 73.0914 24.9648C70.6236 24.9648 69.1129 26.8174 69.1129 30.0508C69.1129 33.291 70.6099 35.1367 73.0914 35.1367ZM71.2183 30.0508C71.2183 27.7881 71.9498 26.6533 73.0914 26.6465C74.233 26.6533 74.9713 27.7881 74.9644 30.0508C74.9713 32.334 74.2398 33.4414 73.0914 33.4414C71.9429 33.4414 71.2047 32.334 71.2183 30.0508Z" fill="#23A8C0"/>
</svg>
