<svg width="74" height="75" viewBox="0 0 74 75" fill="none" xmlns="http://www.w3.org/2000/svg">
<line x1="2" y1="4" x2="2" y2="52" stroke="black" stroke-width="4" stroke-linecap="round"/>
<line x1="72" y1="4" x2="72" y2="52" stroke="black" stroke-width="4" stroke-linecap="round"/>
<line x1="37" y1="12" x2="37" y2="60" stroke="black" stroke-width="4" stroke-linecap="round"/>
<path d="M2 4.00011C9 2.00011 25.8 0.800112 37 12.0001" stroke="black" stroke-width="4" stroke-linecap="round"/>
<path d="M2 52.0001C9 50.0001 25.8 48.8001 37 60.0001" stroke="black" stroke-width="4" stroke-linecap="round"/>
<path d="M72 4.00011C65 2.00011 48.2 0.800112 37 12.0001" stroke="black" stroke-width="4" stroke-linecap="round"/>
<path d="M72 52.0001C65 50.0001 48.2 48.8001 37 60.0001" stroke="black" stroke-width="4" stroke-linecap="round"/>
<path d="M2 65.0001C9 63.0001 25.8 61.8001 37 73.0001" stroke="black" stroke-width="4" stroke-linecap="round"/>
<path d="M19 23.4218C21.2 22.7772 26.48 22.3905 30 26" stroke="#23A7C0" stroke-width="2" stroke-linecap="round"/>
<path d="M56 32.4218C53.8 31.7772 48.52 31.3905 45 35" stroke="#23A7C0" stroke-width="2" stroke-linecap="round"/>
<path d="M10.8943 32.3554C14.4077 31.0249 22.9789 29.7603 29.1569 35.346" stroke="#23A7C0" stroke-width="2" stroke-linecap="round"/>
<path d="M62.1057 23.3554C58.5923 22.0249 50.0211 20.7603 43.8431 26.346" stroke="#23A7C0" stroke-width="2" stroke-linecap="round"/>
<path d="M72 65.0001C65 63.0001 48.2 61.8001 37 73.0001" stroke="black" stroke-width="4" stroke-linecap="round"/>
<path d="M13.6196 19.1708C13.7393 18.8023 14.2607 18.8023 14.3804 19.1708L15.0328 21.1785C15.0863 21.3433 15.2399 21.4549 15.4132 21.4549H17.5242C17.9117 21.4549 18.0728 21.9508 17.7593 22.1785L16.0515 23.4193C15.9113 23.5212 15.8526 23.7018 15.9062 23.8666L16.5585 25.8743C16.6782 26.2428 16.2565 26.5492 15.943 26.3215L14.2351 25.0807C14.0949 24.9788 13.9051 24.9788 13.7649 25.0807L12.057 26.3215C11.7435 26.5492 11.3218 26.2428 11.4415 25.8743L12.0938 23.8666C12.1474 23.7018 12.0887 23.5212 11.9485 23.4193L10.2407 22.1785C9.92719 21.9508 10.0883 21.4549 10.4758 21.4549H12.5868C12.7601 21.4549 12.9137 21.3433 12.9672 21.1785L13.6196 19.1708Z" fill="#23A7C0"/>
<path d="M61.3804 28.1708C61.2607 27.8023 60.7393 27.8023 60.6196 28.1708L59.9672 30.1785C59.9137 30.3433 59.7601 30.4549 59.5868 30.4549H57.4758C57.0883 30.4549 56.9272 30.9508 57.2407 31.1785L58.9485 32.4193C59.0887 32.5212 59.1474 32.7018 59.0938 32.8666L58.4415 34.8743C58.3218 35.2428 58.7435 35.5492 59.057 35.3215L60.7649 34.0807C60.9051 33.9788 61.0949 33.9788 61.2351 34.0807L62.943 35.3215C63.2565 35.5492 63.6782 35.2428 63.5585 34.8743L62.9062 32.8666C62.8526 32.7018 62.9113 32.5212 63.0515 32.4193L64.7593 31.1785C65.0728 30.9508 64.9117 30.4549 64.5242 30.4549H62.4132C62.2399 30.4549 62.0863 30.3433 62.0328 30.1785L61.3804 28.1708Z" fill="#23A7C0"/>
</svg>
