<svg width="76" height="76" viewBox="0 0 76 76" fill="none" xmlns="http://www.w3.org/2000/svg">
<line x1="38" y1="2" x2="38" y2="74" stroke="black" stroke-width="4" stroke-linecap="round"/>
<path d="M2 14C2 11.7909 3.79086 10 6 10H70C72.2091 10 74 11.7909 74 14V40C74 49.9411 65.9411 58 56 58H20C10.0589 58 2 49.9411 2 40V14Z" fill="white" stroke="black" stroke-width="4"/>
<path d="M11.792 39V30.06H13.652V37.38H17.432V39H11.792ZM18.1145 39V30.06H24.1265V31.68H19.9745V33.708H23.8865V35.328H19.9745V37.38H24.1265V39H18.1145ZM28.1929 39.144C27.6329 39.144 27.1049 39.044 26.6089 38.844C26.1209 38.636 25.6969 38.344 25.3369 37.968C24.9849 37.592 24.7209 37.148 24.5449 36.636L26.0689 35.952C26.2929 36.44 26.6009 36.824 26.9929 37.104C27.3929 37.384 27.8329 37.524 28.3129 37.524C28.5689 37.524 28.7889 37.484 28.9729 37.404C29.1569 37.324 29.3009 37.216 29.4049 37.08C29.5089 36.936 29.5609 36.768 29.5609 36.576C29.5609 36.368 29.4969 36.192 29.3689 36.048C29.2409 35.896 29.0409 35.776 28.7689 35.688L27.0169 35.112C26.3049 34.88 25.7689 34.552 25.4089 34.128C25.0489 33.696 24.8689 33.18 24.8689 32.58C24.8689 32.052 24.9969 31.588 25.2529 31.188C25.5169 30.788 25.8809 30.476 26.3449 30.252C26.8169 30.028 27.3569 29.916 27.9649 29.916C28.5009 29.916 28.9969 30.008 29.4529 30.192C29.9089 30.376 30.3009 30.636 30.6289 30.972C30.9649 31.308 31.2169 31.712 31.3849 32.184L29.8729 32.868C29.7049 32.452 29.4529 32.128 29.1169 31.896C28.7809 31.656 28.3969 31.536 27.9649 31.536C27.7169 31.536 27.4969 31.576 27.3049 31.656C27.1129 31.736 26.9649 31.852 26.8609 32.004C26.7569 32.148 26.7049 32.316 26.7049 32.508C26.7049 32.716 26.7729 32.9 26.9089 33.06C27.0449 33.212 27.2489 33.332 27.5209 33.42L29.2369 33.972C29.9569 34.204 30.4929 34.528 30.8449 34.944C31.2049 35.36 31.3849 35.868 31.3849 36.468C31.3849 36.988 31.2489 37.452 30.9769 37.86C30.7049 38.26 30.3289 38.576 29.8489 38.808C29.3769 39.032 28.8249 39.144 28.1929 39.144ZM35.7224 39.144C35.1624 39.144 34.6344 39.044 34.1384 38.844C33.6504 38.636 33.2264 38.344 32.8664 37.968C32.5144 37.592 32.2504 37.148 32.0744 36.636L33.5984 35.952C33.8224 36.44 34.1304 36.824 34.5224 37.104C34.9224 37.384 35.3624 37.524 35.8424 37.524C36.0984 37.524 36.3184 37.484 36.5024 37.404C36.6864 37.324 36.8304 37.216 36.9344 37.08C37.0384 36.936 37.0904 36.768 37.0904 36.576C37.0904 36.368 37.0264 36.192 36.8984 36.048C36.7704 35.896 36.5704 35.776 36.2984 35.688L34.5464 35.112C33.8344 34.88 33.2984 34.552 32.9384 34.128C32.5784 33.696 32.3984 33.18 32.3984 32.58C32.3984 32.052 32.5264 31.588 32.7824 31.188C33.0464 30.788 33.4104 30.476 33.8744 30.252C34.3464 30.028 34.8864 29.916 35.4944 29.916C36.0304 29.916 36.5264 30.008 36.9824 30.192C37.4384 30.376 37.8304 30.636 38.1584 30.972C38.4944 31.308 38.7464 31.712 38.9144 32.184L37.4024 32.868C37.2344 32.452 36.9824 32.128 36.6464 31.896C36.3104 31.656 35.9264 31.536 35.4944 31.536C35.2464 31.536 35.0264 31.576 34.8344 31.656C34.6424 31.736 34.4944 31.852 34.3904 32.004C34.2864 32.148 34.2344 32.316 34.2344 32.508C34.2344 32.716 34.3024 32.9 34.4384 33.06C34.5744 33.212 34.7784 33.332 35.0504 33.42L36.7664 33.972C37.4864 34.204 38.0224 34.528 38.3744 34.944C38.7344 35.36 38.9144 35.868 38.9144 36.468C38.9144 36.988 38.7784 37.452 38.5064 37.86C38.2344 38.26 37.8584 38.576 37.3784 38.808C36.9064 39.032 36.3544 39.144 35.7224 39.144ZM44.476 39.144C43.804 39.144 43.18 39.028 42.604 38.796C42.028 38.564 41.524 38.24 41.092 37.824C40.668 37.4 40.336 36.908 40.096 36.348C39.856 35.788 39.736 35.18 39.736 34.524C39.736 33.868 39.852 33.26 40.084 32.7C40.324 32.14 40.656 31.652 41.08 31.236C41.512 30.82 42.016 30.496 42.592 30.264C43.168 30.032 43.796 29.916 44.476 29.916C45.156 29.916 45.784 30.032 46.36 30.264C46.936 30.496 47.436 30.82 47.86 31.236C48.292 31.652 48.624 32.14 48.856 32.7C49.096 33.26 49.216 33.868 49.216 34.524C49.216 35.18 49.096 35.788 48.856 36.348C48.616 36.908 48.28 37.4 47.848 37.824C47.424 38.24 46.924 38.564 46.348 38.796C45.772 39.028 45.148 39.144 44.476 39.144ZM44.476 37.464C44.884 37.464 45.26 37.392 45.604 37.248C45.956 37.104 46.264 36.904 46.528 36.648C46.792 36.384 46.996 36.072 47.14 35.712C47.284 35.352 47.356 34.956 47.356 34.524C47.356 34.092 47.284 33.7 47.14 33.348C46.996 32.988 46.792 32.676 46.528 32.412C46.264 32.148 45.956 31.948 45.604 31.812C45.26 31.668 44.884 31.596 44.476 31.596C44.068 31.596 43.688 31.668 43.336 31.812C42.992 31.948 42.688 32.148 42.424 32.412C42.16 32.676 41.956 32.988 41.812 33.348C41.668 33.7 41.596 34.092 41.596 34.524C41.596 34.956 41.668 35.352 41.812 35.712C41.956 36.072 42.16 36.384 42.424 36.648C42.688 36.904 42.992 37.104 43.336 37.248C43.688 37.392 44.068 37.464 44.476 37.464ZM50.2951 39V30.06H51.7231L56.5231 36.384L55.7551 36.564V30.06H57.6151V39H56.1751L51.4591 32.628L52.1551 32.448V39H50.2951ZM62.1256 39V31.632H60.3856V30.06H63.9856V39H62.1256Z" fill="#7D8EDE"/>
<line x1="40.8284" y1="58" x2="56" y2="73.1716" stroke="black" stroke-width="4" stroke-linecap="round"/>
<line x1="2" y1="-2" x2="23.4558" y2="-2" transform="matrix(-0.707107 0.707107 0.707107 0.707107 38 58)" stroke="black" stroke-width="4" stroke-linecap="round"/>
</svg>
