<svg width="1040" height="548" viewBox="0 0 1040 548" fill="none" xmlns="http://www.w3.org/2000/svg">
    <line y1="280.5" x2="1040" y2="280.5" stroke="#0075FF" stroke-dasharray="2 2"/>
    <line x1="171.129" y1="207.198" x2="171.129" y2="271.735" stroke="#0075FF" stroke-width="1.13223" stroke-dasharray="2.26 2.26"/>
    <g filter="url(#filter0_d_0_1)">
        <circle cx="170.562" cy="281.926" r="16.9835" fill="white"/>
        <circle cx="170.562" cy="281.926" r="15.8512" stroke="#0075FF" stroke-width="2.26446"/>
    </g>
    <circle cx="169.996" cy="106.996" r="106.996" fill="#E1EFFF"/>
    <path d="M166.287 94.9715C169.371 94.9715 171.203 92.5444 171.21 88.3345C171.21 84.1559 169.352 81.7413 166.287 81.7413C163.215 81.7413 161.364 84.1496 161.364 88.3345C161.357 92.5319 163.197 94.9652 166.287 94.9715ZM166.287 93.0198C164.679 93.0198 163.684 91.4122 163.684 88.3345C163.691 85.2756 164.685 83.6617 166.287 83.6617C167.882 83.6617 168.876 85.2756 168.883 88.3345C168.883 91.4122 167.888 93.0198 166.287 93.0198ZM175.762 81.9164L172.584 83.9682V86.0763L175.58 84.1621H175.655V94.7275H177.97V81.9164H175.762ZM120.542 111.91V123.711H123.252V111.91H120.542ZM111.27 112.874C107.873 112.865 105.335 114.981 105.344 118.034C105.335 121.028 107.873 123.152 111.27 123.144C114.659 123.152 117.188 121.028 117.188 118.034C117.188 114.981 114.659 112.865 111.27 112.874ZM111.27 115.136C113.154 115.127 114.53 116.271 114.53 118.034C114.53 119.798 113.154 120.916 111.27 120.916C109.352 120.916 107.976 119.798 107.984 118.034C107.976 116.271 109.352 115.127 111.27 115.136ZM108.724 124.726V133.62H123.252V124.726H120.559V126.971H111.382V124.726H108.724ZM111.382 129.087H120.559V131.426H111.382V129.087ZM133.874 114.009V111.807H131.182V114.009H125.995V116.151H139.043V114.009H133.874ZM143.327 117.751V111.91H140.609V125.672H143.327V119.961H146.397V117.751H143.327ZM137.891 121.028C137.882 118.619 135.697 117.011 132.532 117.002C129.341 117.011 127.122 118.619 127.13 121.028C127.122 123.436 129.341 125.044 132.532 125.044C135.697 125.044 137.882 123.436 137.891 121.028ZM129.754 121.028C129.737 119.78 130.855 119.058 132.532 119.049C134.192 119.058 135.31 119.78 135.327 121.028C135.31 122.266 134.192 122.963 132.532 122.954C130.855 122.963 129.737 122.266 129.754 121.028ZM140.609 128.872V133.878H143.327V126.696H128.67V128.872H140.609ZM162.576 133.929H165.302V111.91H162.576V133.929ZM155.316 113.674H152.581V117.192C152.564 121.423 150.422 125.629 146.775 127.212L148.427 129.465C151.093 128.218 152.985 125.681 153.983 122.584C155.007 125.457 156.865 127.788 159.385 128.958L160.993 126.79C157.424 125.259 155.299 121.217 155.316 117.192V113.674ZM175.873 113.957V111.721H173.198V113.957H168.08V116.125H180.982V113.957H175.873ZM183.752 118.43H180.612V120.658H183.752V125.208H186.452V111.91H183.752V118.43ZM179.761 120.924C179.744 118.619 177.593 116.985 174.54 116.985C171.495 116.985 169.319 118.619 169.319 120.924C169.319 123.298 171.495 124.872 174.54 124.872C177.593 124.872 179.744 123.298 179.761 120.924ZM171.916 120.924C171.899 119.755 172.949 119.032 174.54 119.032C176.105 119.032 177.155 119.755 177.155 120.924C177.155 122.137 176.105 122.851 174.54 122.86C172.949 122.851 171.899 122.137 171.916 120.924ZM186.452 133.62V126.214H171.822V133.62H186.452ZM183.803 128.347V131.435H174.523V128.347H183.803ZM210.848 133.878H213.446V111.91H210.848V133.878ZM203.563 116.933C202.754 114.792 201.309 113.57 199.451 113.579C196.57 113.57 194.695 116.572 194.703 121.406C194.695 126.266 196.57 129.285 199.451 129.285C201.309 129.285 202.754 128.055 203.563 125.896H206.436V132.828H208.999V112.289H206.436V116.933H203.563ZM199.451 126.696C197.998 126.704 197.155 124.847 197.163 121.406C197.155 117.983 197.998 116.116 199.451 116.125C200.896 116.116 201.799 117.983 201.799 121.406C201.799 124.847 200.896 126.704 199.451 126.696ZM204.113 123.677C204.216 122.972 204.277 122.215 204.277 121.406C204.277 120.589 204.216 119.823 204.113 119.118H206.436V123.677H204.113ZM235.834 114.972H232.858V111.91H230.14V124.898H232.858V121.948H235.834V119.694H232.858V117.166H235.834V114.972ZM227.611 118.447C227.594 115.351 225.074 113.149 221.685 113.158C218.288 113.149 215.733 115.351 215.75 118.447C215.733 121.578 218.288 123.763 221.685 123.763C225.074 123.763 227.594 121.578 227.611 118.447ZM218.408 118.447C218.391 116.607 219.793 115.471 221.685 115.463C223.56 115.471 224.962 116.607 224.971 118.447C224.962 120.322 223.56 121.475 221.685 121.466C219.793 121.475 218.391 120.322 218.408 118.447ZM230.14 128.029V133.878H232.858V125.827H218.202V128.029H230.14Z" fill="#616161"/>
    <g filter="url(#filter1_d_0_1)">
        <circle cx="344.554" cy="281.925" r="16.9835" fill="white"/>
        <circle cx="344.554" cy="281.925" r="15.8512" stroke="#0075FF" stroke-width="2.26446"/>
    </g>
    <line x1="345.121" y1="298.908" x2="345.121" y2="363.445" stroke="#0075FF" stroke-width="1.13223" stroke-dasharray="2.26 2.26"/>
    <circle cx="343.988" cy="441.004" r="106.996" fill="#9BC9FF"/>
    <path d="M339.885 428.978C342.969 428.978 344.802 426.551 344.808 422.341C344.808 418.163 342.95 415.748 339.885 415.748C336.813 415.748 334.962 418.156 334.962 422.341C334.956 426.539 336.795 428.972 339.885 428.978ZM339.885 427.027C338.277 427.027 337.283 425.419 337.283 422.341C337.289 419.282 338.283 417.669 339.885 417.669C341.48 417.669 342.475 419.282 342.481 422.341C342.481 425.419 341.486 427.027 339.885 427.027ZM355.265 428.734V426.808H349.579V426.714L351.849 424.456C354.37 422.079 355.065 420.909 355.071 419.458C355.065 417.312 353.301 415.748 350.692 415.748C348.121 415.748 346.301 417.324 346.313 419.752H348.503C348.497 418.45 349.347 417.625 350.661 417.625C351.918 417.625 352.863 418.375 352.869 419.576C352.863 420.646 352.187 421.409 350.892 422.704L346.37 427.064L346.376 428.734H355.265ZM319.177 445.917V457.718H321.886V445.917H319.177ZM309.905 446.881C306.507 446.872 303.97 448.988 303.978 452.041C303.97 455.034 306.507 457.159 309.905 457.15C313.294 457.159 315.822 455.034 315.822 452.041C315.822 448.988 313.294 446.872 309.905 446.881ZM309.905 449.143C311.788 449.134 313.165 450.278 313.165 452.041C313.165 453.805 311.788 454.923 309.905 454.923C307.987 454.923 306.61 453.805 306.619 452.041C306.61 450.278 307.987 449.134 309.905 449.143ZM307.359 458.733V467.627H321.886V458.733H319.194V460.978H310.016V458.733H307.359ZM310.016 463.094H319.194V465.433H310.016V463.094ZM332.508 448.016V445.814H329.816V448.016H324.63V450.158H337.678V448.016H332.508ZM341.961 451.757V445.917H339.243V459.679H341.961V453.968H345.032V451.757H341.961ZM336.525 455.034C336.517 452.626 334.332 451.018 331.167 451.009C327.976 451.018 325.756 452.626 325.765 455.034C325.756 457.443 327.976 459.051 331.167 459.051C334.332 459.051 336.517 457.443 336.525 455.034ZM328.388 455.034C328.371 453.787 329.489 453.065 331.167 453.056C332.827 453.065 333.945 453.787 333.962 455.034C333.945 456.273 332.827 456.97 331.167 456.961C329.489 456.97 328.371 456.273 328.388 455.034ZM339.243 462.879V467.885H341.961V460.703H327.305V462.879H339.243ZM361.21 467.936H363.937V445.917H361.21V467.936ZM353.951 447.68H351.216V451.198C351.199 455.43 349.057 459.636 345.41 461.219L347.061 463.472C349.728 462.225 351.62 459.688 352.618 456.591C353.641 459.464 355.499 461.795 358.019 462.965L359.628 460.797C356.058 459.266 353.934 455.224 353.951 451.198V447.68ZM374.508 447.964V445.728H371.833V447.964H366.715V450.132H379.617V447.964H374.508ZM382.386 452.437H379.247V454.665H382.386V459.215H385.087V445.917H382.386V452.437ZM378.395 454.931C378.378 452.626 376.228 450.992 373.174 450.992C370.13 450.992 367.953 452.626 367.953 454.931C367.953 457.305 370.13 458.879 373.174 458.879C376.228 458.879 378.378 457.305 378.395 454.931ZM370.551 454.931C370.534 453.761 371.583 453.039 373.174 453.039C374.74 453.039 375.789 453.761 375.789 454.931C375.789 456.144 374.74 456.858 373.174 456.867C371.583 456.858 370.534 456.144 370.551 454.931ZM385.087 467.627V460.221H370.456V467.627H385.087ZM382.438 462.354V465.442H373.157V462.354H382.438Z" fill="white"/>
    <g filter="url(#filter2_d_0_1)">
        <circle cx="692.538" cy="281.925" r="16.9835" fill="white"/>
        <circle cx="692.538" cy="281.925" r="15.8512" stroke="#0075FF" stroke-width="2.26446"/>
    </g>
    <line x1="693.105" y1="298.908" x2="693.105" y2="363.445" stroke="#0075FF" stroke-width="1.13223" stroke-dasharray="2.26 2.26"/>
    <circle cx="691.972" cy="441.004" r="106.996" fill="#0075FF"/>
    <path d="M685.73 428.978C688.814 428.978 690.647 426.551 690.653 422.341C690.653 418.163 688.795 415.748 685.73 415.748C682.659 415.748 680.807 418.156 680.807 422.341C680.801 426.539 682.64 428.972 685.73 428.978ZM685.73 427.027C684.122 427.027 683.128 425.419 683.128 422.341C683.134 419.282 684.129 417.669 685.73 417.669C687.325 417.669 688.32 419.282 688.326 422.341C688.326 425.419 687.331 427.027 685.73 427.027ZM700.391 424.456V415.923H697.513L691.977 424.512V426.351H698.195V428.734H700.391V426.351H702.073V424.456H700.391ZM698.089 418.538H698.22V424.456H694.342V424.356L698.089 418.538ZM675.999 452.205V448.799H688.479V446.605H673.315V454.381H688.6V452.205H675.999ZM670.847 458.312H690.913V456.101H670.847V458.312ZM680.833 459.834C676.059 459.834 673.178 461.279 673.178 463.842C673.178 466.422 676.059 467.876 680.833 467.867C685.589 467.876 688.445 466.422 688.454 463.842C688.445 461.279 685.589 459.834 680.833 459.834ZM680.833 465.786C677.642 465.786 675.913 465.132 675.93 463.842C675.913 462.595 677.642 461.915 680.833 461.907C683.989 461.915 685.736 462.595 685.753 463.842C685.736 465.132 683.989 465.786 680.833 465.786ZM703.239 455.972H709.896V453.873H697.08V452.119H709.466V446.39H694.345V448.506H706.765V450.149H694.397V455.972H700.564V457.804H691.851V459.989H711.952V457.804H703.239V455.972ZM706.868 463.524V467.756H709.586V461.374H694.096V463.524H706.868Z" fill="white"/>
    <line x1="519.113" y1="211.727" x2="519.113" y2="276.264" stroke="#0075FF" stroke-width="1.13223" stroke-dasharray="2.26 2.26"/>
    <circle cx="517.98" cy="111.524" r="106.996" fill="#3C96FF"/>
    <path d="M512.084 99.4998C515.168 99.4998 517.001 97.0727 517.007 92.8628C517.007 88.6842 515.15 86.2696 512.084 86.2696C509.013 86.2696 507.161 88.6779 507.161 92.8628C507.155 97.0602 508.994 99.4936 512.084 99.4998ZM512.084 97.5481C510.477 97.5481 509.482 95.9405 509.482 92.8628C509.488 89.8039 510.483 88.19 512.084 88.19C513.679 88.19 514.674 89.8039 514.68 92.8628C514.68 95.9405 513.686 97.5481 512.084 97.5481ZM523.223 99.431C525.994 99.431 528.015 97.8609 528.002 95.7028C528.015 94.0889 526.989 92.9316 525.175 92.6877V92.5876C526.582 92.2936 527.533 91.2614 527.521 89.8164C527.533 87.8585 525.85 86.2696 523.261 86.2696C520.746 86.2696 518.794 87.7459 518.744 89.8915H520.953C520.996 88.8218 522.035 88.1462 523.248 88.1462C524.487 88.1462 525.3 88.8719 525.3 89.9478C525.3 91.0675 524.349 91.8244 522.986 91.8244H521.847V93.601H522.986C524.656 93.601 525.65 94.4267 525.644 95.5839C525.65 96.7162 524.631 97.4918 523.217 97.4918C521.885 97.4918 520.859 96.8162 520.802 95.7778H518.475C518.538 97.9422 520.49 99.431 523.223 99.431ZM489.056 121.427V123.586H483.757V125.659H489.056V127.56H491.756V116.439H489.056V119.346H484.609C484.712 118.718 484.764 118.064 484.764 117.376H474.838V119.561H481.762C481.383 122.494 478.803 124.765 473.642 125.84L474.571 128.05C479.431 126.958 482.656 124.782 484.024 121.427H489.056ZM480.007 134.217H491.756V128.42H477.272V130.562H489.038V132.196H477.306V138.2H492.324V136.032H480.007V134.217ZM511.616 125.384V116.439H508.89V138.406H511.616V127.672H514.799V125.384H511.616ZM506.043 128.79C506.645 124.997 506.645 122.236 506.662 120.275V118.709H495.343V120.886H503.97C503.953 122.769 503.901 125.229 503.376 128.575L506.043 128.79ZM501.097 125.005H498.439V131.568C496.925 131.603 495.48 131.611 494.173 131.62L494.44 133.805C498.319 133.83 503.359 133.736 507.901 132.987L507.746 130.975C505.638 131.241 503.342 131.396 501.097 131.491V125.005ZM538.162 116.439H535.444V132.514H538.162V125.117H541.233V122.872H538.162V116.439ZM532.915 123.423C532.898 120.189 530.335 117.901 526.989 117.901C523.643 117.901 521.037 120.189 521.054 123.423C521.037 126.631 523.643 128.953 526.989 128.953C530.335 128.953 532.898 126.631 532.915 123.423ZM523.712 123.423C523.695 121.488 525.148 120.258 526.989 120.258C528.847 120.258 530.266 121.488 530.275 123.423C530.266 125.341 528.847 126.588 526.989 126.588C525.148 126.588 523.695 125.341 523.712 123.423ZM524.073 130.828V137.993H539.022V135.8H526.765V130.828H524.073ZM558.117 125.083H555.682V116.852H553.145V137.314H555.682V127.293H558.117V138.406H560.723V116.439H558.117V125.083ZM545.507 118.95H542.798V132.936H544.26C546.574 132.944 549.094 132.79 552.07 132.265L551.786 129.917C549.472 130.364 547.4 130.527 545.507 130.562V118.95Z" fill="white"/>
    <g filter="url(#filter3_d_0_1)">
        <circle cx="518.546" cy="281.925" r="16.9835" fill="white"/>
        <circle cx="518.546" cy="281.925" r="15.8512" stroke="#0075FF" stroke-width="2.26446"/>
    </g>
    <line x1="867.097" y1="211.728" x2="867.097" y2="276.265" stroke="#0075FF" stroke-width="1.13223" stroke-dasharray="2.26 2.26"/>
    <circle cx="865.965" cy="111.525" r="106.996" fill="#0A53A9"/>
    <path d="M861.217 82.5174C864.301 82.5174 866.134 80.0903 866.14 75.8804C866.14 71.7018 864.282 69.2872 861.217 69.2872C858.146 69.2872 856.294 71.6955 856.294 75.8804C856.288 80.0778 858.127 82.5111 861.217 82.5174ZM861.217 80.5657C859.609 80.5657 858.615 78.9581 858.615 75.8804C858.621 72.8215 859.616 71.2076 861.217 71.2076C862.812 71.2076 863.807 72.8215 863.813 75.8804C863.813 78.9581 862.818 80.5657 861.217 80.5657ZM872.243 82.4486C875.014 82.4486 876.941 80.622 876.941 78.0635C876.941 75.5989 875.177 73.8224 872.8 73.8224C871.743 73.8224 870.811 74.229 870.31 74.792H870.198L870.586 71.389H876.253V69.4623H868.684L867.921 76.7124H870.048C870.454 75.9617 871.18 75.6114 872.174 75.6177C873.651 75.6302 874.708 76.6686 874.708 78.1261C874.708 79.5523 873.682 80.5845 872.243 80.5845C871.036 80.5845 870.054 79.8401 869.973 78.7954H867.733C867.802 80.9223 869.691 82.4486 872.243 82.4486ZM851.156 99.4735V115.541H853.866V99.4735H851.156ZM842.383 107.232C843.364 109.468 845.144 111.223 847.656 112.1L849.041 109.958C845.548 108.789 843.751 105.899 843.768 102.837V100.686H840.973V102.837C840.973 105.985 839.149 109.09 835.58 110.354L837.007 112.487C839.588 111.558 841.403 109.631 842.383 107.232ZM842.048 114.001H839.321V121.011H854.485V118.818H842.048V114.001ZM872.186 99.4563V111.257H874.896V99.4563H872.186ZM862.914 100.42C859.517 100.411 856.979 102.527 856.988 105.58C856.979 108.574 859.517 110.698 862.914 110.689C866.303 110.698 868.832 108.574 868.832 105.58C868.832 102.527 866.303 100.411 862.914 100.42ZM862.914 102.682C864.798 102.673 866.174 103.817 866.174 105.58C866.174 107.344 864.798 108.462 862.914 108.462C860.996 108.462 859.62 107.344 859.628 105.58C859.62 103.817 860.996 102.673 862.914 102.682ZM860.368 112.272V121.166H874.896V112.272H872.203V114.517H863.026V112.272H860.368ZM863.026 116.633H872.203V118.972H863.026V116.633ZM893.852 107.223V112.952H896.424V99.4735H893.852V105.021H891.65V99.8777H889.139V112.263H891.65V107.223H893.852ZM888.76 109.391C885.87 108.298 884.486 105.907 884.494 103.525V100.815H881.862V103.525C881.862 105.967 880.452 108.72 877.424 110.044L878.886 112.134C880.976 111.257 882.404 109.571 883.213 107.602C884.004 109.313 885.363 110.715 887.324 111.464L888.76 109.391ZM889.001 113.313C884.365 113.313 881.458 114.827 881.475 117.364C881.458 119.893 884.365 121.415 889.001 121.407C893.603 121.415 896.527 119.893 896.536 117.364C896.527 114.827 893.603 113.313 889.001 113.313ZM889.001 119.342C885.956 119.359 884.159 118.654 884.167 117.364C884.159 116.065 885.956 115.351 889.001 115.36C892.012 115.351 893.809 116.065 893.827 117.364C893.809 118.654 892.012 119.359 889.001 119.342ZM815.363 149.513C819.388 149.117 822.218 146.924 822.218 143.612C822.218 140.052 818.735 137.695 814.021 137.686C809.333 137.695 805.85 140.052 805.859 143.612C805.85 146.915 808.68 149.117 812.679 149.513V153.547H804.018V155.766H824.119V153.547H815.363V149.513ZM808.508 143.612C808.508 141.325 810.796 139.862 814.021 139.871C817.272 139.862 819.56 141.325 819.56 143.612C819.56 146.004 817.272 147.414 814.021 147.423C810.796 147.414 808.508 146.004 808.508 143.612ZM840.676 158.475H843.368V136.456H840.676V158.475ZM829.047 146.614H836.599V138.366H826.243V140.559H833.847V144.464H826.26V153.263H828.187C832.135 153.263 835.421 153.125 839.162 152.48L838.921 150.27C835.489 150.846 832.505 151.018 829.047 151.035V146.614ZM862.308 136.456V152.859H864.88V136.456H862.308ZM851.255 149.023C853.801 149.031 855.762 147.311 856.218 144.748H857.999V152.188H860.51V136.835H857.999V142.529H856.244C855.831 139.862 853.844 138.108 851.255 138.108C848.322 138.108 846.206 140.327 846.224 143.578C846.206 146.778 848.322 149.031 851.255 149.023ZM848.649 143.578C848.632 141.651 849.724 140.413 851.255 140.413C852.769 140.413 853.887 141.651 853.904 143.578C853.887 145.505 852.769 146.7 851.255 146.692C849.724 146.7 848.632 145.505 848.649 143.578ZM852.855 150.734H850.154V158.011H865.473V155.818H852.855V150.734ZM883.458 158.424H886.064V136.456H883.458V158.424ZM876.216 144.584V146.769H878.934V157.374H881.462V136.886H878.934V144.584H876.216ZM870.41 146.967H875.132V144.885H870.41V141.118H876.044V138.968H867.838V153.435H869.283C872.595 153.426 874.693 153.383 877.213 152.902L876.973 150.717C874.822 151.096 873.016 151.216 870.41 151.242V146.967ZM903.705 136.456V158.475H906.431V136.456H903.705ZM894.588 138.047C891.25 138.056 888.833 141.067 888.842 145.814C888.833 150.597 891.25 153.607 894.588 153.598C897.882 153.607 900.307 150.597 900.307 145.814C900.307 141.067 897.882 138.056 894.588 138.047ZM894.588 140.49C896.428 140.49 897.693 142.46 897.693 145.814C897.693 149.195 896.428 151.156 894.588 151.156C892.713 151.156 891.448 149.195 891.448 145.814C891.448 142.46 892.713 140.49 894.588 140.49ZM927.582 152.807V136.473H924.881V139.458H920.873V141.651H924.881V143.81H920.873V145.986H924.881V152.807H927.582ZM915.824 144.799C916.744 147.07 918.413 148.902 920.769 149.831L922.266 147.724C918.894 146.459 917.157 143.44 917.157 140.344V137.703H914.448V140.344C914.43 143.63 912.615 146.735 909.115 148.008L910.568 150.141C913.106 149.16 914.878 147.234 915.824 144.799ZM915.824 151.199H913.089V158.011H928.063V155.818H915.824V151.199Z" fill="white"/>
    <g filter="url(#filter4_d_0_1)">
        <circle cx="866.53" cy="281.926" r="16.9835" fill="white"/>
        <circle cx="866.53" cy="281.926" r="15.8512" stroke="#0075FF" stroke-width="2.26446"/>
    </g>
    <defs>
        <filter id="filter0_d_0_1" x="144.52" y="255.885" width="52.0845" height="52.0827" filterUnits="userSpaceOnUse" color-interpolation-filters="sRGB">
            <feFlood flood-opacity="0" result="BackgroundImageFix"/>
            <feColorMatrix in="SourceAlpha" type="matrix" values="0 0 0 0 0 0 0 0 0 0 0 0 0 0 0 0 0 0 127 0" result="hardAlpha"/>
            <feMorphology radius="1.13223" operator="dilate" in="SourceAlpha" result="effect1_dropShadow_0_1"/>
            <feOffset/>
            <feGaussianBlur stdDeviation="3.96281"/>
            <feComposite in2="hardAlpha" operator="out"/>
            <feColorMatrix type="matrix" values="0 0 0 0 0 0 0 0 0 0 0 0 0 0 0 0 0 0 0.25 0"/>
            <feBlend mode="normal" in2="BackgroundImageFix" result="effect1_dropShadow_0_1"/>
            <feBlend mode="normal" in="SourceGraphic" in2="effect1_dropShadow_0_1" result="shape"/>
        </filter>
        <filter id="filter1_d_0_1" x="318.512" y="255.884" width="52.0845" height="52.0827" filterUnits="userSpaceOnUse" color-interpolation-filters="sRGB">
            <feFlood flood-opacity="0" result="BackgroundImageFix"/>
            <feColorMatrix in="SourceAlpha" type="matrix" values="0 0 0 0 0 0 0 0 0 0 0 0 0 0 0 0 0 0 127 0" result="hardAlpha"/>
            <feMorphology radius="1.13223" operator="dilate" in="SourceAlpha" result="effect1_dropShadow_0_1"/>
            <feOffset/>
            <feGaussianBlur stdDeviation="3.96281"/>
            <feComposite in2="hardAlpha" operator="out"/>
            <feColorMatrix type="matrix" values="0 0 0 0 0 0 0 0 0 0 0 0 0 0 0 0 0 0 0.25 0"/>
            <feBlend mode="normal" in2="BackgroundImageFix" result="effect1_dropShadow_0_1"/>
            <feBlend mode="normal" in="SourceGraphic" in2="effect1_dropShadow_0_1" result="shape"/>
        </filter>
        <filter id="filter2_d_0_1" x="666.497" y="255.884" width="52.0845" height="52.0827" filterUnits="userSpaceOnUse" color-interpolation-filters="sRGB">
            <feFlood flood-opacity="0" result="BackgroundImageFix"/>
            <feColorMatrix in="SourceAlpha" type="matrix" values="0 0 0 0 0 0 0 0 0 0 0 0 0 0 0 0 0 0 127 0" result="hardAlpha"/>
            <feMorphology radius="1.13223" operator="dilate" in="SourceAlpha" result="effect1_dropShadow_0_1"/>
            <feOffset/>
            <feGaussianBlur stdDeviation="3.96281"/>
            <feComposite in2="hardAlpha" operator="out"/>
            <feColorMatrix type="matrix" values="0 0 0 0 0 0 0 0 0 0 0 0 0 0 0 0 0 0 0.25 0"/>
            <feBlend mode="normal" in2="BackgroundImageFix" result="effect1_dropShadow_0_1"/>
            <feBlend mode="normal" in="SourceGraphic" in2="effect1_dropShadow_0_1" result="shape"/>
        </filter>
        <filter id="filter3_d_0_1" x="492.505" y="255.884" width="52.0845" height="52.0827" filterUnits="userSpaceOnUse" color-interpolation-filters="sRGB">
            <feFlood flood-opacity="0" result="BackgroundImageFix"/>
            <feColorMatrix in="SourceAlpha" type="matrix" values="0 0 0 0 0 0 0 0 0 0 0 0 0 0 0 0 0 0 127 0" result="hardAlpha"/>
            <feMorphology radius="1.13223" operator="dilate" in="SourceAlpha" result="effect1_dropShadow_0_1"/>
            <feOffset/>
            <feGaussianBlur stdDeviation="3.96281"/>
            <feComposite in2="hardAlpha" operator="out"/>
            <feColorMatrix type="matrix" values="0 0 0 0 0 0 0 0 0 0 0 0 0 0 0 0 0 0 0.25 0"/>
            <feBlend mode="normal" in2="BackgroundImageFix" result="effect1_dropShadow_0_1"/>
            <feBlend mode="normal" in="SourceGraphic" in2="effect1_dropShadow_0_1" result="shape"/>
        </filter>
        <filter id="filter4_d_0_1" x="840.489" y="255.885" width="52.0845" height="52.0827" filterUnits="userSpaceOnUse" color-interpolation-filters="sRGB">
            <feFlood flood-opacity="0" result="BackgroundImageFix"/>
            <feColorMatrix in="SourceAlpha" type="matrix" values="0 0 0 0 0 0 0 0 0 0 0 0 0 0 0 0 0 0 127 0" result="hardAlpha"/>
            <feMorphology radius="1.13223" operator="dilate" in="SourceAlpha" result="effect1_dropShadow_0_1"/>
            <feOffset/>
            <feGaussianBlur stdDeviation="3.96281"/>
            <feComposite in2="hardAlpha" operator="out"/>
            <feColorMatrix type="matrix" values="0 0 0 0 0 0 0 0 0 0 0 0 0 0 0 0 0 0 0.25 0"/>
            <feBlend mode="normal" in2="BackgroundImageFix" result="effect1_dropShadow_0_1"/>
            <feBlend mode="normal" in="SourceGraphic" in2="effect1_dropShadow_0_1" result="shape"/>
        </filter>
    </defs>
</svg>
