<svg width="247" height="438" viewBox="0 0 247 438" fill="none" xmlns="http://www.w3.org/2000/svg">
<path d="M48.0049 427.709C27.2323 427.709 10.3366 410.834 10.3366 390.092C10.3367 369.349 27.2372 352.479 48.0049 352.479C60.734 352.479 72.9417 347.43 81.9426 338.442C90.9434 329.455 96 317.265 96 304.555C96 291.845 90.9434 279.655 81.9426 270.667C72.9417 261.68 60.734 256.631 48.0049 256.631C27.2323 256.631 10.3367 239.755 10.3367 219.018C10.3367 198.281 27.2323 181.391 48.0049 181.391C60.734 181.391 72.9417 176.342 81.9426 167.354C90.9434 158.367 96 146.177 96 133.467C96 120.756 90.9434 108.567 81.9426 99.5792C72.9417 90.5917 60.734 85.5426 48.0049 85.5426C27.2323 85.5426 10.3367 68.668 10.3367 47.93C10.3367 27.192 27.2372 10.3125 48.0049 10.3125L48.0049 -2.09793e-06C35.2758 -2.65434e-06 23.0681 5.04913 14.0673 14.0366C5.06647 23.0242 0.00985707 35.2139 0.00985651 47.9241C0.00985596 60.6344 5.06646 72.8241 14.0673 81.8116C23.0681 90.7991 35.2758 95.8482 48.0049 95.8482C68.7785 95.8482 85.6732 112.723 85.6732 133.461C85.6732 154.199 68.7736 171.073 48 171.073C35.2709 171.073 23.0632 176.123 14.0624 185.11C5.06154 194.098 0.00493326 206.287 0.00493271 218.998C0.00493215 231.708 5.06154 243.897 14.0624 252.885C23.0632 261.873 35.2709 266.922 48 266.922C68.7736 266.922 85.6683 283.797 85.6683 304.534C85.6683 325.271 68.7687 342.152 47.9951 342.152C35.266 342.152 23.0583 347.201 14.0574 356.188C5.05661 365.176 3.4559e-06 377.366 2.90031e-06 390.076C2.34473e-06 402.786 5.05661 414.976 14.0574 423.963C23.0583 432.951 35.266 438 47.9951 438L48.0049 427.709Z" fill="#F4F4F4"/>
<ellipse cx="47.5" cy="48" rx="37" ry="37.5" transform="rotate(90 47.5 48)" fill="url(#paint0_linear_2817_2278)"/>
<circle cx="48.5" cy="133.5" r="37.5" transform="rotate(90 48.5 133.5)" fill="url(#paint1_linear_2817_2278)"/>
<circle cx="48.5" cy="304.5" r="37.5" transform="rotate(90 48.5 304.5)" fill="url(#paint2_linear_2817_2278)"/>
<ellipse cx="47.5" cy="219" rx="37" ry="37.5" transform="rotate(90 47.5 219)" fill="url(#paint3_linear_2817_2278)"/>
<ellipse cx="47.5" cy="390" rx="37" ry="37.5" transform="rotate(90 47.5 390)" fill="url(#paint4_linear_2817_2278)"/>
<circle cx="47.5" cy="48.5" r="34.5" transform="rotate(90 47.5 48.5)" fill="url(#paint5_linear_2817_2278)"/>
<circle cx="48.5" cy="133.5" r="34.5" transform="rotate(90 48.5 133.5)" fill="url(#paint6_linear_2817_2278)"/>
<circle cx="48.5" cy="304.5" r="34.5" transform="rotate(90 48.5 304.5)" fill="url(#paint7_linear_2817_2278)"/>
<circle cx="47.5" cy="219.5" r="34.5" transform="rotate(90 47.5 219.5)" fill="url(#paint8_linear_2817_2278)"/>
<circle cx="47.5" cy="390.5" r="34.5" transform="rotate(90 47.5 390.5)" fill="url(#paint9_linear_2817_2278)"/>
<g filter="url(#filter0_d_2817_2278)">
<ellipse cx="47.5" cy="48" rx="26" ry="25.5" transform="rotate(90 47.5 48)" fill="white"/>
</g>
<path d="M50.8926 42.2626C50.2795 41.7898 49.5615 41.4513 48.7911 41.2719C48.0206 41.0924 47.2172 41.0764 46.4393 41.2251C45.4036 41.4212 44.4533 41.9014 43.7091 42.6046C42.9649 43.3079 42.4603 44.2025 42.2593 45.1751C42.1125 45.9043 42.1392 46.6549 42.3374 47.3733C42.5356 48.0917 42.9005 48.7603 43.406 49.3313C43.8751 49.8276 44.144 50.4623 44.166 51.1251V53.0001C44.166 53.4974 44.3767 53.9743 44.7518 54.3259C45.1268 54.6775 45.6355 54.8751 46.166 54.8751H48.8326C49.3631 54.8751 49.8718 54.6775 50.2469 54.3259C50.6219 53.9743 50.8326 53.4974 50.8326 53.0001V51.2438C50.855 50.5121 51.1418 49.8091 51.646 49.2501C52.5294 48.2256 52.9458 46.9156 52.8048 45.6048C52.6637 44.2941 51.9765 43.0885 50.8926 42.2501V42.2626ZM49.4993 53.0001C49.4993 53.1658 49.4291 53.3248 49.304 53.442C49.179 53.5592 49.0095 53.6251 48.8326 53.6251H46.166C45.9892 53.6251 45.8196 53.5592 45.6946 53.442C45.5695 53.3248 45.4993 53.1658 45.4993 53.0001V52.3751H49.4993V53.0001ZM50.6126 48.4751C49.9423 49.2204 49.5512 50.1513 49.4993 51.1251H48.166V49.2501C48.166 49.0843 48.0957 48.9253 47.9707 48.8081C47.8457 48.6909 47.6761 48.6251 47.4993 48.6251C47.3225 48.6251 47.1529 48.6909 47.0279 48.8081C46.9029 48.9253 46.8326 49.0843 46.8326 49.2501V51.1251H45.4993C45.4817 50.1676 45.1039 49.2468 44.4326 48.5251C43.9897 48.0276 43.6919 47.431 43.5682 46.7934C43.4445 46.1559 43.4991 45.4991 43.7267 44.8873C43.9543 44.2754 44.3472 43.7293 44.867 43.3022C45.3868 42.875 46.0158 42.5814 46.6926 42.4501C47.2743 42.3378 47.8754 42.3483 48.4522 42.481C49.029 42.6136 49.5671 42.865 50.0273 43.2169C50.4876 43.5688 50.8585 44.0124 51.1131 44.5154C51.3677 45.0184 51.4996 45.5683 51.4993 46.1251C51.5042 46.9812 51.1907 47.8122 50.6126 48.4751V48.4751Z" fill="#616161"/>
<g filter="url(#filter1_d_2817_2278)">
<ellipse cx="48.5" cy="133.5" rx="25.5" ry="25.5" transform="rotate(90 48.5 133.5)" fill="white"/>
</g>
<path d="M54.2317 127.287C53.7837 127.21 53.3301 127.171 52.8755 127.169C51.3245 127.167 49.8058 127.612 48.5005 128.45C47.1918 127.623 45.6734 127.189 44.1255 127.2C43.6709 127.202 43.2172 127.242 42.7692 127.319C42.6225 127.344 42.4896 127.421 42.3945 127.535C42.2994 127.65 42.2483 127.795 42.2505 127.944V135.444C42.2491 135.536 42.2681 135.627 42.3059 135.71C42.3437 135.794 42.3995 135.868 42.4693 135.928C42.5392 135.988 42.6213 136.031 42.7098 136.055C42.7984 136.08 42.8912 136.084 42.9817 136.069C43.8774 135.914 44.795 135.939 45.6805 136.144C46.5661 136.349 47.4016 136.73 48.138 137.262L48.213 137.306H48.2817C48.351 137.335 48.4254 137.35 48.5005 137.35C48.5756 137.35 48.6499 137.335 48.7192 137.306H48.788L48.863 137.262C49.5942 136.718 50.4274 136.325 51.3131 136.108C52.1988 135.891 53.119 135.855 54.0192 136C54.1097 136.016 54.2026 136.011 54.2911 135.987C54.3797 135.962 54.4618 135.919 54.5316 135.859C54.6014 135.799 54.6572 135.725 54.6951 135.641C54.7329 135.558 54.7518 135.467 54.7505 135.375V127.875C54.744 127.733 54.689 127.597 54.5946 127.49C54.5003 127.383 54.3722 127.312 54.2317 127.287ZM47.8755 135.594C46.7192 134.985 45.4321 134.668 44.1255 134.669C43.9192 134.669 43.713 134.669 43.5005 134.669V128.419C43.7086 128.407 43.9173 128.407 44.1255 128.419C45.4588 128.417 46.7631 128.809 47.8755 129.544V135.594ZM53.5005 134.694C53.288 134.694 53.0817 134.694 52.8755 134.694C51.5689 134.693 50.2818 135.01 49.1255 135.619V129.544C50.2378 128.809 51.5421 128.417 52.8755 128.419C53.0836 128.407 53.2923 128.407 53.5005 128.419V134.694ZM54.2317 137.287C53.7837 137.21 53.3301 137.171 52.8755 137.169C51.3245 137.167 49.8058 137.612 48.5005 138.45C47.1952 137.612 45.6765 137.167 44.1255 137.169C43.6709 137.171 43.2172 137.21 42.7692 137.287C42.6879 137.3 42.6099 137.329 42.5397 137.372C42.4695 137.416 42.4086 137.472 42.3604 137.539C42.3122 137.606 42.2777 137.681 42.2588 137.762C42.2399 137.842 42.2371 137.925 42.2505 138.006C42.2822 138.169 42.377 138.312 42.5141 138.404C42.6512 138.497 42.8193 138.531 42.9817 138.5C43.8774 138.345 44.795 138.371 45.6805 138.576C46.5661 138.781 47.4016 139.161 48.138 139.694C48.2438 139.769 48.3705 139.81 48.5005 139.81C48.6304 139.81 48.7571 139.769 48.863 139.694C49.5993 139.161 50.4349 138.781 51.3204 138.576C52.206 138.371 53.1236 138.345 54.0192 138.5C54.1816 138.531 54.3498 138.497 54.4869 138.404C54.6239 138.312 54.7187 138.169 54.7505 138.006C54.7639 137.925 54.761 137.842 54.7422 137.762C54.7233 137.681 54.6888 137.606 54.6406 137.539C54.5924 137.472 54.5314 137.416 54.4613 137.372C54.3911 137.329 54.3131 137.3 54.2317 137.287V137.287Z" fill="#616161"/>
<g filter="url(#filter2_d_2817_2278)">
<ellipse cx="48.5" cy="304.5" rx="25.5" ry="25.5" transform="rotate(90 48.5 304.5)" fill="white"/>
</g>
<g filter="url(#filter3_d_2817_2278)">
<ellipse cx="47.5" cy="219" rx="26" ry="25.5" transform="rotate(90 47.5 219)" fill="white"/>
</g>
<path d="M53.7529 215.1C53.7301 215.02 53.6907 214.945 53.637 214.88C53.5832 214.815 53.5161 214.76 53.4396 214.719L49.9729 212.844C49.8972 212.802 49.8135 212.775 49.7266 212.764C49.6397 212.753 49.5513 212.758 49.4664 212.779C49.3816 212.799 49.302 212.836 49.2321 212.886C49.1623 212.935 49.1037 212.998 49.0596 213.069L47.4996 215.606L45.9396 213.069C45.8955 212.998 45.8368 212.935 45.767 212.886C45.6972 212.836 45.6176 212.799 45.5327 212.779C45.4479 212.758 45.3595 212.753 45.2725 212.764C45.1856 212.775 45.1019 212.802 45.0262 212.844L41.5596 214.719C41.4831 214.76 41.416 214.815 41.3622 214.88C41.3084 214.945 41.269 215.02 41.2462 215.1C41.2021 215.258 41.2261 215.427 41.3129 215.569L43.9796 219.838C43.6821 220.349 43.5176 220.918 43.4996 221.5C43.498 222.068 43.6339 222.628 43.8971 223.14C44.1602 223.651 44.5437 224.099 45.0187 224.452C45.4937 224.804 46.0478 225.05 46.6392 225.172C47.2305 225.294 47.8437 225.289 48.4325 225.156C49.0214 225.024 49.5704 224.768 50.0384 224.408C50.5063 224.047 50.8808 223.592 51.1338 223.076C51.3868 222.561 51.5115 221.998 51.4987 221.43C51.4858 220.863 51.3357 220.305 51.0596 219.8L53.6596 215.575C53.708 215.506 53.7411 215.428 53.7572 215.346C53.7732 215.265 53.7717 215.181 53.7529 215.1ZM42.8329 215.488L45.1396 214.238L47.2862 217.75C46.3712 217.803 45.5041 218.152 44.8329 218.738L42.8329 215.488ZM47.4996 224C46.7923 224 46.1141 223.737 45.614 223.268C45.1139 222.799 44.8329 222.163 44.8329 221.5C44.8329 220.837 45.1139 220.201 45.614 219.732C46.1141 219.263 46.7923 219 47.4996 219C48.2068 219 48.8851 219.263 49.3852 219.732C49.8853 220.201 50.1662 220.837 50.1662 221.5C50.1662 222.163 49.8853 222.799 49.3852 223.268C48.8851 223.737 48.2068 224 47.4996 224ZM50.1662 218.719C49.8043 218.409 49.3837 218.165 48.9262 218L48.2729 216.856L49.8862 214.238L52.1929 215.488L50.1662 218.719Z" fill="#616161"/>
<g filter="url(#filter4_d_2817_2278)">
<ellipse cx="47.5" cy="390" rx="26" ry="25.5" transform="rotate(90 47.5 390)" fill="white"/>
</g>
<path d="M52.6942 386.956C52.6314 386.882 52.5513 386.822 52.4601 386.781C52.3688 386.739 52.2688 386.718 52.1675 386.719H44.8342V386.406C44.835 386.134 44.9305 385.87 45.1062 385.653C45.2818 385.437 45.5281 385.28 45.8075 385.206C45.987 385.369 46.2248 385.462 46.4742 385.469H47.1408C47.4061 385.469 47.6604 385.37 47.848 385.194C48.0355 385.018 48.1408 384.78 48.1408 384.531C48.1408 384.283 48.0355 384.044 47.848 383.868C47.6604 383.693 47.4061 383.594 47.1408 383.594H46.4742C46.3239 383.594 46.1756 383.626 46.0405 383.688C45.9054 383.75 45.787 383.839 45.6942 383.95C45.0797 384.054 44.5236 384.357 44.1228 384.806C43.7219 385.254 43.5019 385.821 43.5008 386.406V386.719H42.8342C42.7329 386.718 42.6329 386.739 42.5416 386.781C42.4503 386.822 42.3703 386.882 42.3075 386.956C42.2407 387.03 42.1933 387.118 42.169 387.213C42.1447 387.307 42.1442 387.405 42.1675 387.5L42.5808 389.056C42.6795 389.415 42.8892 389.738 43.1834 389.985C43.4777 390.232 43.8433 390.391 44.2342 390.444L44.7542 394.819H44.1675C43.9907 394.819 43.8211 394.885 43.6961 395.002C43.5711 395.119 43.5008 395.278 43.5008 395.444C43.5008 395.61 43.5711 395.768 43.6961 395.886C43.8211 396.003 43.9907 396.069 44.1675 396.069H50.8342C51.011 396.069 51.1806 396.003 51.3056 395.886C51.4306 395.768 51.5008 395.61 51.5008 395.444C51.5008 395.278 51.4306 395.119 51.3056 395.002C51.1806 394.885 51.011 394.819 50.8342 394.819H50.2475L50.7675 390.444C51.1557 390.387 51.5175 390.225 51.808 389.977C52.0985 389.73 52.3047 389.407 52.4008 389.05L52.8342 387.5C52.8575 387.405 52.857 387.307 52.8327 387.213C52.8084 387.118 52.761 387.03 52.6942 386.956V386.956ZM48.9008 394.844H46.1008L45.5808 390.469H49.4208L48.9008 394.844ZM51.1075 388.75C51.071 388.889 50.9849 389.011 50.8636 389.098C50.7423 389.184 50.5931 389.229 50.4408 389.225H44.5408C44.3886 389.229 44.2393 389.184 44.118 389.098C43.9967 389.011 43.9107 388.889 43.8742 388.75L43.6875 387.969H51.3142L51.1075 388.75Z" fill="#616161"/>
<path d="M54.5676 299.95L53.0489 298.431C52.9318 298.315 52.7734 298.25 52.6082 298.25C52.4431 298.25 52.2847 298.315 52.1676 298.431L48.6801 301.919C48.6222 301.977 48.5764 302.046 48.5453 302.123C48.5142 302.199 48.4984 302.28 48.4989 302.363V303.875C48.4989 304.041 48.5647 304.2 48.6819 304.317C48.7991 304.434 48.9581 304.5 49.1239 304.5H50.6364C50.7186 304.5 50.8002 304.485 50.8763 304.454C50.9525 304.423 51.0217 304.377 51.0801 304.319L54.5676 300.831C54.684 300.714 54.7494 300.556 54.7494 300.391C54.7494 300.226 54.684 300.067 54.5676 299.95V299.95ZM50.3739 303.25H49.7489V302.625L52.6114 299.763L53.2364 300.388L50.3739 303.25ZM52.8739 304.5C52.7081 304.5 52.5491 304.566 52.4319 304.683C52.3147 304.8 52.2489 304.959 52.2489 305.125C52.2489 306.285 51.7879 307.398 50.9675 308.219C50.147 309.039 49.0342 309.5 47.8739 309.5H44.3801L44.7801 309.106C44.8387 309.048 44.8852 308.979 44.9169 308.903C44.9487 308.827 44.965 308.745 44.965 308.663C44.965 308.58 44.9487 308.498 44.9169 308.422C44.8852 308.346 44.8387 308.277 44.7801 308.219C44.1682 307.607 43.7515 306.827 43.5826 305.979C43.4138 305.13 43.5004 304.25 43.8316 303.451C44.1628 302.651 44.7236 301.968 45.4431 301.487C46.1626 301.007 47.0085 300.75 47.8739 300.75C48.0396 300.75 48.1986 300.684 48.3158 300.567C48.433 300.45 48.4989 300.291 48.4989 300.125C48.4989 299.959 48.433 299.8 48.3158 299.683C48.1986 299.566 48.0396 299.5 47.8739 299.5V299.5C46.816 299.503 45.7806 299.805 44.8865 300.37C43.9923 300.936 43.2757 301.742 42.8189 302.696C42.3621 303.65 42.1836 304.714 42.3038 305.765C42.4241 306.815 42.8383 307.811 43.4989 308.638L42.4301 309.681C42.3434 309.769 42.2846 309.881 42.2613 310.002C42.2379 310.123 42.251 310.249 42.2989 310.363C42.3458 310.477 42.4254 310.574 42.5277 310.643C42.63 310.712 42.7505 310.749 42.8739 310.75H47.8739C48.6126 310.75 49.344 310.605 50.0265 310.322C50.7089 310.039 51.329 309.625 51.8513 309.102C52.3737 308.58 52.788 307.96 53.0707 307.278C53.3534 306.595 53.4989 305.864 53.4989 305.125C53.4989 304.959 53.433 304.8 53.3158 304.683C53.1986 304.566 53.0396 304.5 52.8739 304.5Z" fill="#616161"/>
<path d="M196.708 42.1465C199.256 42.1465 200.78 40.1763 200.78 36.6973C200.78 33.2402 199.249 31.248 196.708 31.248C194.166 31.248 192.628 33.2402 192.635 36.6973C192.628 40.1689 194.151 42.1465 196.708 42.1465ZM194.554 36.6973C194.562 34.1704 195.382 32.8374 196.708 32.8301C198.033 32.8374 198.854 34.1704 198.861 36.6973C198.861 39.2461 198.033 40.5425 196.708 40.5498C195.375 40.5425 194.554 39.2461 194.554 36.6973ZM206.383 31.3945H204.552L201.93 33.0938V34.8369L204.406 33.2549H204.464V42H206.383V31.3945ZM164.824 53.0615H163.183V60.166H164.824V53.0615ZM154.028 56.7529C154.028 58.562 155.552 59.8364 157.602 59.8291C159.646 59.8364 161.169 58.562 161.162 56.7529C161.169 54.9146 159.646 53.6401 157.602 53.6475C155.552 53.6401 154.028 54.9146 154.028 56.7529ZM155.625 56.7529C155.618 55.6909 156.445 55.0024 157.602 55.0098C158.738 55.0024 159.565 55.6909 159.565 56.7529C159.565 57.8149 158.738 58.4888 157.602 58.4961C156.445 58.4888 155.618 57.8149 155.625 56.7529ZM156.064 66.1426H164.824V60.7812H163.198V62.1436H157.676V60.7812H156.064V66.1426ZM157.676 64.8242V63.418H163.198V64.8242H157.676ZM174.324 54.3359H171.218V53.0029H169.592V54.3359H166.472V55.625H174.324V54.3359ZM167.146 58.5547C167.146 60.0049 168.487 60.9717 170.398 60.9717C172.31 60.9717 173.628 60.0049 173.635 58.5547C173.628 57.1045 172.31 56.1377 170.398 56.1377C168.487 56.1377 167.146 57.1045 167.146 58.5547ZM168.084 63.2715H175.276V66.3037H176.902V61.9678H168.084V63.2715ZM168.728 58.5547C168.721 57.8076 169.395 57.3682 170.398 57.3682C171.402 57.3682 172.083 57.8076 172.083 58.5547C172.083 59.3018 171.402 59.7192 170.398 59.7119C169.395 59.7192 168.721 59.3018 168.728 58.5547ZM175.276 61.3525H176.902V57.9102H178.748V56.5771H176.902V53.0615H175.276V61.3525ZM182.454 55.9912H185.736V65H187.64V55.9912H190.907V54.3945H182.454V55.9912ZM192.101 65H199.029V63.3887H194.005V60.4883H198.634V58.8916H194.005V55.9912H199V54.3945H192.101V65ZM206.303 57.3096H208.134C208.104 55.5151 206.574 54.248 204.325 54.248C202.091 54.248 200.429 55.4932 200.429 57.3682C200.429 58.8916 201.513 59.7705 203.256 60.2246L204.457 60.5322C205.607 60.8252 206.369 61.1768 206.376 62.0117C206.369 62.9199 205.504 63.5278 204.252 63.5352C203.043 63.5278 202.113 62.9858 202.025 61.8799H200.15C200.231 63.9746 201.798 65.1611 204.267 65.1611C206.808 65.1611 208.28 63.8867 208.28 62.0264C208.28 60.1807 206.757 59.3457 205.175 58.9795L204.179 58.7158C203.3 58.5107 202.355 58.1445 202.362 57.251C202.37 56.4526 203.087 55.8667 204.296 55.874C205.438 55.8667 206.207 56.394 206.303 57.3096ZM209.093 55.9912H212.375V65H214.279V55.9912H217.546V54.3945H209.093V55.9912ZM232.883 53.0615H231.316V66.3037H232.883V53.0615ZM221.589 58.7891C221.589 61.7114 222.717 63.5278 224.446 63.5205C225.566 63.5278 226.445 62.7808 226.929 61.4844H228.664V65.6592H230.202V53.2959H228.664V56.0938H226.929C226.438 54.8047 225.566 54.0649 224.446 54.0723C222.717 54.0649 221.589 55.874 221.589 58.7891ZM223.083 58.7891C223.069 56.7236 223.574 55.603 224.446 55.6104C225.325 55.603 225.867 56.7236 225.867 58.7891C225.867 60.8618 225.325 61.9751 224.446 61.9678C223.574 61.9751 223.069 60.8618 223.083 58.7891ZM227.258 57.4121H228.664V60.1514H227.265C227.324 59.7266 227.361 59.2725 227.361 58.7891C227.361 58.2983 227.324 57.8369 227.258 57.4121ZM246.367 54.9072H244.566V53.0615H242.94V60.8838H244.566V59.1113H246.367V57.749H244.566V56.2256H246.367V54.9072ZM234.268 57.002C234.26 58.8916 235.798 60.2026 237.842 60.21C239.878 60.2026 241.401 58.8916 241.416 57.002C241.401 55.1416 239.878 53.8086 237.842 53.8232C235.798 53.8086 234.26 55.1416 234.268 57.002ZM235.747 62.7734H242.94V66.3037H244.566V61.4551H235.747V62.7734ZM235.864 57.002C235.857 55.896 236.699 55.2075 237.842 55.2002C238.97 55.2075 239.812 55.896 239.819 57.002C239.812 58.1299 238.97 58.8257 237.842 58.8184C236.699 58.8257 235.857 58.1299 235.864 57.002Z" fill="#616161"/>
<path d="M195.131 120.146C197.68 120.146 199.203 118.176 199.203 114.697C199.203 111.24 197.672 109.248 195.131 109.248C192.589 109.248 191.051 111.24 191.059 114.697C191.051 118.169 192.575 120.146 195.131 120.146ZM192.978 114.697C192.985 112.17 193.805 110.837 195.131 110.83C196.457 110.837 197.277 112.17 197.284 114.697C197.284 117.246 196.457 118.542 195.131 118.55C193.798 118.542 192.978 117.246 192.978 114.697ZM200.5 120H207.868V118.403H203.151V118.33L205.041 116.455C207.128 114.485 207.7 113.518 207.707 112.324C207.7 110.544 206.242 109.248 204.074 109.248C201.957 109.248 200.449 110.552 200.456 112.559H202.272C202.265 111.482 202.968 110.801 204.059 110.801C205.092 110.801 205.876 111.423 205.876 112.412C205.876 113.306 205.319 113.936 204.25 115.005L200.5 118.623V120ZM178.618 131.062H176.977V138.166H178.618V131.062ZM167.822 134.753C167.822 136.562 169.345 137.836 171.396 137.829C173.44 137.836 174.963 136.562 174.956 134.753C174.963 132.915 173.44 131.64 171.396 131.647C169.345 131.64 167.822 132.915 167.822 134.753ZM169.419 134.753C169.411 133.691 170.239 133.002 171.396 133.01C172.531 133.002 173.359 133.691 173.359 134.753C173.359 135.815 172.531 136.489 171.396 136.496C170.239 136.489 169.411 135.815 169.419 134.753ZM169.858 144.143H178.618V138.781H176.992V140.144H171.469V138.781H169.858V144.143ZM171.469 142.824V141.418H176.992V142.824H171.469ZM188.118 132.336H185.012V131.003H183.386V132.336H180.266V133.625H188.118V132.336ZM180.94 136.555C180.94 138.005 182.28 138.972 184.192 138.972C186.103 138.972 187.422 138.005 187.429 136.555C187.422 135.104 186.103 134.138 184.192 134.138C182.28 134.138 180.94 135.104 180.94 136.555ZM181.877 141.271H189.07V144.304H190.696V139.968H181.877V141.271ZM182.522 136.555C182.515 135.808 183.188 135.368 184.192 135.368C185.195 135.368 185.876 135.808 185.876 136.555C185.876 137.302 185.195 137.719 184.192 137.712C183.188 137.719 182.515 137.302 182.522 136.555ZM189.07 139.353H190.696V135.91H192.541V134.577H190.696V131.062H189.07V139.353ZM196.248 133.991H199.529V143H201.434V133.991H204.7V132.395H196.248V133.991ZM205.894 143H212.823V141.389H207.799V138.488H212.428V136.892H207.799V133.991H212.794V132.395H205.894V143ZM220.096 135.31H221.927C221.898 133.515 220.367 132.248 218.119 132.248C215.885 132.248 214.222 133.493 214.222 135.368C214.222 136.892 215.306 137.771 217.049 138.225L218.251 138.532C219.4 138.825 220.162 139.177 220.17 140.012C220.162 140.92 219.298 141.528 218.046 141.535C216.837 141.528 215.907 140.986 215.819 139.88H213.944C214.025 141.975 215.592 143.161 218.06 143.161C220.602 143.161 222.074 141.887 222.074 140.026C222.074 138.181 220.55 137.346 218.968 136.979L217.972 136.716C217.093 136.511 216.149 136.145 216.156 135.251C216.163 134.453 216.881 133.867 218.089 133.874C219.232 133.867 220.001 134.394 220.096 135.31ZM222.887 133.991H226.168V143H228.073V133.991H231.339V132.395H222.887V133.991Z" fill="#616161"/>
<path d="M194.911 213.146C197.46 213.146 198.983 211.176 198.983 207.697C198.983 204.24 197.453 202.248 194.911 202.248C192.37 202.248 190.832 204.24 190.839 207.697C190.832 211.169 192.355 213.146 194.911 213.146ZM192.758 207.697C192.765 205.17 193.586 203.837 194.911 203.83C196.237 203.837 197.057 205.17 197.065 207.697C197.065 210.246 196.237 211.542 194.911 211.55C193.578 211.542 192.758 210.246 192.758 207.697ZM204.133 213.146C206.425 213.146 208.102 211.85 208.088 210.056C208.102 208.723 207.253 207.763 205.759 207.565V207.478C206.916 207.236 207.707 206.379 207.692 205.192C207.707 203.566 206.315 202.248 204.162 202.248C202.089 202.248 200.471 203.471 200.427 205.251H202.258C202.294 204.357 203.151 203.801 204.147 203.801C205.18 203.801 205.854 204.401 205.847 205.295C205.854 206.218 205.07 206.848 203.942 206.848H202.99V208.312H203.942C205.319 208.32 206.14 209.001 206.14 209.953C206.14 210.898 205.297 211.542 204.133 211.535C203.027 211.542 202.177 210.979 202.126 210.129H200.207C200.251 211.916 201.87 213.146 204.133 213.146ZM176.944 224.062H175.318V231.796H176.944V228.676H178.79V227.328H176.944V224.062ZM166.515 226.596H174.366V225.292H171.261V223.959H169.635V225.292H166.515V226.596ZM167.188 229.379C167.188 230.785 168.507 231.715 170.44 231.708C172.352 231.715 173.67 230.785 173.678 229.379C173.67 227.973 172.352 227.05 170.44 227.05C168.507 227.05 167.188 227.973 167.188 229.379ZM168.39 237.143H176.944V232.323H175.318V233.466H170.001V232.323H168.39V237.143ZM168.771 229.379C168.763 228.683 169.437 228.251 170.44 228.251C171.444 228.251 172.125 228.683 172.125 229.379C172.125 230.097 171.444 230.507 170.44 230.507C169.437 230.507 168.763 230.097 168.771 229.379ZM170.001 235.854V234.726H175.318V235.854H170.001ZM186.21 224.911H180.057V226.244H184.459C184.188 228.185 182.394 229.767 179.34 230.565L179.955 231.869C182.797 231.107 184.782 229.65 185.675 227.592H188.627V229.086H185.448V230.404H188.627V231.942H190.253V224.076H188.627V226.288H186.078C186.166 225.849 186.21 225.395 186.21 224.911ZM181.229 233.788H188.627V237.26H190.253V232.499H181.229V233.788ZM196.574 227.826V226.713H199.342V225.365H192.062V226.713H194.948V227.826C194.941 230.031 193.659 232.506 191.549 233.51L192.502 234.784C194.025 234.052 195.182 232.499 195.783 230.683C196.376 232.338 197.482 233.759 198.976 234.462L199.884 233.173C197.797 232.199 196.567 229.87 196.574 227.826ZM200.573 237.304H202.199V230.58H204.235V229.218H202.199V224.062H200.573V237.304ZM209.817 224.647H208.205V230.419H214.519V224.647H212.907V226.332H209.817V224.647ZM209.538 232.646H216.57V233.656H209.553V237.187H218.606V235.897H211.164V234.843H218.196V231.371H209.538V232.646ZM209.817 229.13V227.562H212.907V229.13H209.817ZM216.57 230.844H218.196V228.061H220.041V226.742H218.196V224.062H216.57V230.844ZM232.515 234.462H229.321V231.737H231.416V230.419H229.526V226.493H231.46V225.189H221.411V226.493H223.315V230.419H221.455V231.737H223.55V234.462H220.415V235.78H232.515V234.462ZM224.941 230.419V226.493H227.915V230.419H224.941ZM225.176 234.462V231.737H227.695V234.462H225.176Z" fill="#616161"/>
<path d="M195.309 306.146C197.858 306.146 199.381 304.176 199.381 300.697C199.381 297.24 197.85 295.248 195.309 295.248C192.767 295.248 191.229 297.24 191.236 300.697C191.229 304.169 192.753 306.146 195.309 306.146ZM193.155 300.697C193.163 298.17 193.983 296.837 195.309 296.83C196.634 296.837 197.455 298.17 197.462 300.697C197.462 303.246 196.634 304.542 195.309 304.55C193.976 304.542 193.155 303.246 193.155 300.697ZM200.487 304.022H205.629V306H207.445V304.022H208.837V302.455H207.445V295.395H205.072L200.487 302.499V304.022ZM202.435 302.455V302.382L205.541 297.562H205.658V302.455H202.435ZM199.711 323.199H187.626V324.532H199.711V323.199ZM189.032 327.857C189.032 329.417 190.768 330.289 193.646 330.289C196.503 330.289 198.224 329.417 198.231 327.857C198.224 326.319 196.503 325.448 193.646 325.455C190.768 325.448 189.032 326.319 189.032 327.857ZM189.105 322.159H198.319V320.855H190.731V318.805H198.246V317.486H189.105V322.159ZM190.687 327.857C190.68 327.11 191.72 326.7 193.646 326.7C195.543 326.7 196.59 327.11 196.605 327.857C196.59 328.641 195.543 329.029 193.646 329.029C191.72 329.029 190.68 328.641 190.687 327.857ZM212.374 324.225H207.13V323.126H211.144V321.852H203.424V320.797H210.88V317.354H201.769V318.629H209.254V319.61H201.813V323.126H205.519V324.225H200.275V325.543H212.374V324.225ZM201.622 327.667H209.313V330.216H210.954V326.378H201.622V327.667Z" fill="#616161"/>
<path d="M195.021 393.146C197.57 393.146 199.093 391.176 199.093 387.697C199.093 384.24 197.563 382.248 195.021 382.248C192.48 382.248 190.942 384.24 190.949 387.697C190.942 391.169 192.465 393.146 195.021 393.146ZM192.868 387.697C192.875 385.17 193.695 383.837 195.021 383.83C196.347 383.837 197.167 385.17 197.174 387.697C197.174 390.246 196.347 391.542 195.021 391.55C193.688 391.542 192.868 390.246 192.868 387.697ZM204.155 393.146C206.447 393.146 208.044 391.63 208.037 389.514C208.044 387.47 206.579 386.005 204.609 385.998C203.737 386.005 202.968 386.342 202.558 386.804H202.455L202.778 383.991H207.48V382.395H201.21L200.566 388.4H202.338C202.668 387.778 203.268 387.485 204.096 387.492C205.319 387.5 206.198 388.356 206.191 389.572C206.198 390.744 205.341 391.601 204.155 391.608C203.151 391.601 202.338 390.986 202.28 390.129H200.419C200.478 391.879 202.038 393.146 204.155 393.146ZM167.818 404.809C164.999 404.816 162.904 406.229 162.911 408.383C162.904 410.368 164.61 411.693 167.013 411.935V414.359H161.798V415.692H173.897V414.359H168.624V411.935C171.056 411.693 172.762 410.368 172.755 408.383C172.762 406.229 170.66 404.816 167.818 404.809ZM164.508 408.383C164.5 406.999 165.885 406.12 167.818 406.127C169.781 406.12 171.158 406.999 171.158 408.383C171.158 409.811 169.781 410.668 167.818 410.668C165.885 410.668 164.5 409.811 164.508 408.383ZM185.492 404.062H183.881V417.318H185.492V404.062ZM175.179 406.537H179.764V408.896H175.194V414.184H176.351C178.732 414.191 180.709 414.103 182.958 413.715L182.811 412.382C180.746 412.726 178.951 412.836 176.864 412.851V410.185H181.42V405.219H175.179V406.537ZM190.246 405.058C188.481 405.065 187.206 406.398 187.213 408.354C187.206 410.28 188.481 411.642 190.246 411.635C191.776 411.642 192.956 410.602 193.234 409.057H194.303V413.539H195.812V404.296H194.303V407.724H193.249C193 406.12 191.798 405.065 190.246 405.058ZM188.678 408.354C188.664 407.196 189.323 406.449 190.246 406.449C191.154 406.449 191.828 407.196 191.842 408.354C191.828 409.511 191.154 410.236 190.246 410.229C189.323 410.236 188.664 409.511 188.678 408.354ZM189.587 417.04H198.815V415.722H191.212V412.66H189.587V417.04ZM196.896 413.935H198.449V404.062H196.896V413.935ZM205.18 405.585H200.229V414.286H201.093C203.093 414.286 204.36 414.264 205.883 413.964L205.737 412.66C204.44 412.88 203.356 412.953 201.782 412.975V410.404H204.623V409.145H201.782V406.874H205.18V405.585ZM205.268 410.272H206.909V416.659H208.432V404.325H206.909V408.954H205.268V410.272ZM209.633 417.304H211.215V404.062H209.633V417.304ZM223.469 404.062H221.828V417.318H223.469V404.062ZM212.878 409.701C212.871 412.58 214.328 414.389 216.335 414.389C218.32 414.389 219.785 412.58 219.792 409.701C219.785 406.845 218.32 405.028 216.335 405.028C214.328 405.028 212.871 406.845 212.878 409.701ZM214.446 409.701C214.446 407.68 215.215 406.493 216.335 406.493C217.448 406.493 218.21 407.68 218.21 409.701C218.21 411.737 217.448 412.917 216.335 412.924C215.215 412.917 214.446 411.737 214.446 409.701ZM229.937 406.405V404.823H228.296V406.405C228.289 408.39 227.197 410.258 225.088 411.02L225.967 412.309C227.49 411.723 228.56 410.558 229.131 409.086C229.68 410.456 230.691 411.562 232.104 412.118L233.013 410.858C230.977 410.089 229.929 408.273 229.937 406.405ZM227.476 417.04H236.499V415.722H229.131V412.938H227.476V417.04ZM232.163 409.804H234.58V413.905H236.206V404.076H234.58V405.878H232.163V407.196H234.58V408.5H232.163V409.804Z" fill="#616161"/>
<path d="M111.013 399.269C110.957 398.432 111.218 397.606 111.744 396.952C113.041 395.347 113.805 393.377 113.805 391.312L113.805 315.988C113.805 313.857 113.031 311.821 111.716 310.145C111.253 309.555 111.001 308.827 111.001 308.077C111.001 307.327 111.253 306.599 111.716 306.009C113.032 304.338 113.805 302.297 113.805 300.166L113.805 225.008C113.805 222.877 113.031 220.84 111.716 219.165C111.253 218.575 111.001 217.847 111.001 217.097C111.001 216.347 111.253 215.619 111.716 215.029C113.032 213.358 113.805 211.317 113.805 209.186L113.805 134.265C113.805 132.134 113.031 130.098 111.716 128.422C111.253 127.832 111.001 127.104 111.001 126.354C111.001 125.604 111.253 124.876 111.716 124.286C113.032 122.615 113.805 120.574 113.805 118.443L113.805 43.0991C113.805 41.0352 113.041 39.0653 111.744 37.4589C111.348 36.9681 111.098 36.3754 111.024 35.7491C110.949 35.1227 111.053 34.488 111.323 33.918C111.592 33.3479 112.018 32.8655 112.55 32.5262C113.081 32.187 113.698 32.0046 114.329 32.0001C114.96 31.9956 115.579 32.1691 116.115 32.5007C116.652 32.8323 117.084 33.3085 117.362 33.8747C117.64 34.4408 117.753 35.074 117.687 35.7013C117.622 36.3287 117.381 36.9248 116.992 37.4213C115.675 39.0977 114.903 41.1344 114.903 43.2704L114.903 118.445C114.903 120.576 115.676 122.613 116.992 124.288C117.454 124.878 117.706 125.606 117.706 126.356C117.706 127.106 117.454 127.834 116.992 128.424C115.675 130.095 114.903 132.136 114.903 134.267L114.903 209.188C114.903 211.319 115.676 213.356 116.992 215.031C117.454 215.621 117.706 216.349 117.706 217.099C117.706 217.849 117.454 218.577 116.992 219.167C115.675 220.838 114.903 222.879 114.903 225.01L114.903 300.168C114.903 302.299 115.676 304.336 116.991 306.011C117.454 306.601 117.706 307.329 117.706 308.079C117.706 308.829 117.454 309.557 116.991 310.147C115.675 311.824 114.903 313.859 114.903 315.99L114.903 391.148C114.903 393.279 115.676 395.316 116.991 396.992C117.315 397.405 117.537 397.889 117.64 398.404C117.742 398.919 117.723 399.451 117.582 399.957C117.441 400.463 117.184 400.928 116.83 401.316C116.476 401.704 116.036 402.004 115.546 402.191C115.055 402.378 114.527 402.447 114.005 402.392C113.483 402.338 112.981 402.161 112.539 401.877C112.098 401.593 111.729 401.209 111.463 400.757C111.197 400.304 111.041 399.795 111.008 399.271L111.013 399.269Z" fill="url(#paint10_linear_2817_2278)"/>
<path d="M115.716 36.3083C115.213 37.0646 114.193 37.2703 113.436 36.7679C112.68 36.2654 112.474 35.245 112.977 34.4887C113.479 33.7325 114.5 33.5267 115.256 34.0292C116.012 34.5316 116.218 35.552 115.716 36.3083Z" fill="white"/>
<path d="M115.52 127.379C114.878 128.021 113.837 128.021 113.195 127.379C112.553 126.737 112.553 125.696 113.195 125.054C113.837 124.412 114.878 124.412 115.52 125.054C116.162 125.696 116.162 126.737 115.52 127.379Z" fill="white"/>
<path d="M114.726 218.797C113.842 219.006 112.956 218.459 112.748 217.575C112.539 216.691 113.087 215.806 113.97 215.597C114.854 215.389 115.739 215.936 115.948 216.82C116.157 217.703 115.609 218.589 114.726 218.797Z" fill="white"/>
<path d="M114.726 309.848C113.842 310.056 112.956 309.509 112.748 308.625C112.539 307.742 113.087 306.856 113.97 306.648C114.854 306.439 115.739 306.986 115.948 307.87C116.157 308.754 115.609 309.639 114.726 309.848Z" fill="white"/>
<path d="M114.724 400.716C113.84 400.925 112.954 400.377 112.746 399.494C112.537 398.61 113.085 397.724 113.968 397.516C114.852 397.307 115.737 397.855 115.946 398.738C116.155 399.622 115.607 400.507 114.724 400.716Z" fill="white"/>
<defs>
<filter id="filter0_d_2817_2278" x="19.2153" y="20.6076" width="59.3541" height="60.3541" filterUnits="userSpaceOnUse" color-interpolation-filters="sRGB">
<feFlood flood-opacity="0" result="BackgroundImageFix"/>
<feColorMatrix in="SourceAlpha" type="matrix" values="0 0 0 0 0 0 0 0 0 0 0 0 0 0 0 0 0 0 127 0" result="hardAlpha"/>
<feOffset dx="1.39236" dy="2.78472"/>
<feGaussianBlur stdDeviation="2.08854"/>
<feComposite in2="hardAlpha" operator="out"/>
<feColorMatrix type="matrix" values="0 0 0 0 0 0 0 0 0 0 0 0 0 0 0 0 0 0 0.2 0"/>
<feBlend mode="normal" in2="BackgroundImageFix" result="effect1_dropShadow_2817_2278"/>
<feBlend mode="normal" in="SourceGraphic" in2="effect1_dropShadow_2817_2278" result="shape"/>
</filter>
<filter id="filter1_d_2817_2278" x="20.2153" y="106.608" width="59.3541" height="59.3541" filterUnits="userSpaceOnUse" color-interpolation-filters="sRGB">
<feFlood flood-opacity="0" result="BackgroundImageFix"/>
<feColorMatrix in="SourceAlpha" type="matrix" values="0 0 0 0 0 0 0 0 0 0 0 0 0 0 0 0 0 0 127 0" result="hardAlpha"/>
<feOffset dx="1.39236" dy="2.78472"/>
<feGaussianBlur stdDeviation="2.08854"/>
<feComposite in2="hardAlpha" operator="out"/>
<feColorMatrix type="matrix" values="0 0 0 0 0 0 0 0 0 0 0 0 0 0 0 0 0 0 0.2 0"/>
<feBlend mode="normal" in2="BackgroundImageFix" result="effect1_dropShadow_2817_2278"/>
<feBlend mode="normal" in="SourceGraphic" in2="effect1_dropShadow_2817_2278" result="shape"/>
</filter>
<filter id="filter2_d_2817_2278" x="20.2153" y="277.608" width="59.3541" height="59.3541" filterUnits="userSpaceOnUse" color-interpolation-filters="sRGB">
<feFlood flood-opacity="0" result="BackgroundImageFix"/>
<feColorMatrix in="SourceAlpha" type="matrix" values="0 0 0 0 0 0 0 0 0 0 0 0 0 0 0 0 0 0 127 0" result="hardAlpha"/>
<feOffset dx="1.39236" dy="2.78472"/>
<feGaussianBlur stdDeviation="2.08854"/>
<feComposite in2="hardAlpha" operator="out"/>
<feColorMatrix type="matrix" values="0 0 0 0 0 0 0 0 0 0 0 0 0 0 0 0 0 0 0.2 0"/>
<feBlend mode="normal" in2="BackgroundImageFix" result="effect1_dropShadow_2817_2278"/>
<feBlend mode="normal" in="SourceGraphic" in2="effect1_dropShadow_2817_2278" result="shape"/>
</filter>
<filter id="filter3_d_2817_2278" x="19.2153" y="191.608" width="59.3541" height="60.3541" filterUnits="userSpaceOnUse" color-interpolation-filters="sRGB">
<feFlood flood-opacity="0" result="BackgroundImageFix"/>
<feColorMatrix in="SourceAlpha" type="matrix" values="0 0 0 0 0 0 0 0 0 0 0 0 0 0 0 0 0 0 127 0" result="hardAlpha"/>
<feOffset dx="1.39236" dy="2.78472"/>
<feGaussianBlur stdDeviation="2.08854"/>
<feComposite in2="hardAlpha" operator="out"/>
<feColorMatrix type="matrix" values="0 0 0 0 0 0 0 0 0 0 0 0 0 0 0 0 0 0 0.2 0"/>
<feBlend mode="normal" in2="BackgroundImageFix" result="effect1_dropShadow_2817_2278"/>
<feBlend mode="normal" in="SourceGraphic" in2="effect1_dropShadow_2817_2278" result="shape"/>
</filter>
<filter id="filter4_d_2817_2278" x="19.2153" y="362.608" width="59.3541" height="60.3541" filterUnits="userSpaceOnUse" color-interpolation-filters="sRGB">
<feFlood flood-opacity="0" result="BackgroundImageFix"/>
<feColorMatrix in="SourceAlpha" type="matrix" values="0 0 0 0 0 0 0 0 0 0 0 0 0 0 0 0 0 0 127 0" result="hardAlpha"/>
<feOffset dx="1.39236" dy="2.78472"/>
<feGaussianBlur stdDeviation="2.08854"/>
<feComposite in2="hardAlpha" operator="out"/>
<feColorMatrix type="matrix" values="0 0 0 0 0 0 0 0 0 0 0 0 0 0 0 0 0 0 0.2 0"/>
<feBlend mode="normal" in2="BackgroundImageFix" result="effect1_dropShadow_2817_2278"/>
<feBlend mode="normal" in="SourceGraphic" in2="effect1_dropShadow_2817_2278" result="shape"/>
</filter>
<linearGradient id="paint0_linear_2817_2278" x1="47.5" y1="10.5" x2="47.5" y2="85.5" gradientUnits="userSpaceOnUse">
<stop stop-color="#D097D4"/>
<stop offset="1" stop-color="#D097D4" stop-opacity="0.22"/>
</linearGradient>
<linearGradient id="paint1_linear_2817_2278" x1="48.5" y1="96" x2="48.5" y2="171" gradientUnits="userSpaceOnUse">
<stop stop-color="#B59BDC"/>
<stop offset="1" stop-color="#B59BDC" stop-opacity="0.22"/>
</linearGradient>
<linearGradient id="paint2_linear_2817_2278" x1="48.5" y1="267" x2="48.5" y2="342" gradientUnits="userSpaceOnUse">
<stop stop-color="#77C8EA"/>
<stop offset="1" stop-color="#77C8EA" stop-opacity="0.22"/>
</linearGradient>
<linearGradient id="paint3_linear_2817_2278" x1="47.5" y1="181.5" x2="47.5" y2="256.5" gradientUnits="userSpaceOnUse">
<stop stop-color="#89A5E7"/>
<stop offset="1" stop-color="#89A5E7" stop-opacity="0.22"/>
</linearGradient>
<linearGradient id="paint4_linear_2817_2278" x1="47.5" y1="352.5" x2="47.5" y2="427.5" gradientUnits="userSpaceOnUse">
<stop stop-color="#6FDAEB"/>
<stop offset="1" stop-color="#6FDAEB" stop-opacity="0.22"/>
</linearGradient>
<linearGradient id="paint5_linear_2817_2278" x1="13" y1="48.2892" x2="82" y2="48.2892" gradientUnits="userSpaceOnUse">
<stop stop-color="#E694CD"/>
<stop offset="1" stop-color="#B59ADB"/>
</linearGradient>
<linearGradient id="paint6_linear_2817_2278" x1="14" y1="133.289" x2="83" y2="133.289" gradientUnits="userSpaceOnUse">
<stop stop-color="#B79ADB"/>
<stop offset="1" stop-color="#87A3E8"/>
</linearGradient>
<linearGradient id="paint7_linear_2817_2278" x1="14" y1="304.289" x2="83" y2="304.289" gradientUnits="userSpaceOnUse">
<stop stop-color="#77C6EA"/>
<stop offset="1" stop-color="#6EDAEB"/>
</linearGradient>
<linearGradient id="paint8_linear_2817_2278" x1="13" y1="219.289" x2="82" y2="219.289" gradientUnits="userSpaceOnUse">
<stop stop-color="#8AA3E7"/>
<stop offset="1" stop-color="#76C8EA"/>
</linearGradient>
<linearGradient id="paint9_linear_2817_2278" x1="13" y1="390.289" x2="82" y2="390.289" gradientUnits="userSpaceOnUse">
<stop stop-color="#6FD9EB"/>
<stop offset="1" stop-color="#6CE1EB"/>
</linearGradient>
<linearGradient id="paint10_linear_2817_2278" x1="114.358" y1="32.0025" x2="114.358" y2="402.41" gradientUnits="userSpaceOnUse">
<stop stop-color="#E395CE"/>
<stop offset="0.5" stop-color="#84AFE8"/>
<stop offset="1" stop-color="#6CE1EB"/>
</linearGradient>
</defs>
</svg>
