<svg width="1040" height="338" viewBox="0 0 1040 338" fill="none" xmlns="http://www.w3.org/2000/svg">
<path d="M116.049 304.174C119.108 304.174 120.936 301.81 120.936 297.635C120.936 293.486 119.099 291.096 116.049 291.096C112.999 291.096 111.154 293.486 111.162 297.635C111.154 301.801 112.982 304.174 116.049 304.174ZM113.465 297.635C113.474 294.603 114.458 293.003 116.049 292.994C117.64 293.003 118.624 294.603 118.633 297.635C118.633 300.693 117.64 302.249 116.049 302.258C114.45 302.249 113.465 300.693 113.465 297.635ZM127.66 291.271H125.463L122.316 293.311V295.402L125.287 293.504H125.357V303.998H127.66V291.271ZM77.7889 316.672H75.8202V325.197H77.7889V316.672ZM64.8339 321.102C64.8339 323.272 66.662 324.802 69.1229 324.793C71.5751 324.802 73.4032 323.272 73.3944 321.102C73.4032 318.896 71.5751 317.366 69.1229 317.375C66.662 317.366 64.8339 318.896 64.8339 321.102ZM66.7499 321.102C66.7411 319.827 67.7343 319.001 69.1229 319.01C70.4852 319.001 71.4784 319.827 71.4784 321.102C71.4784 322.376 70.4852 323.185 69.1229 323.193C67.7343 323.185 66.7411 322.376 66.7499 321.102ZM67.2772 332.369H77.7889V325.936H75.8378V327.57H69.2108V325.936H67.2772V332.369ZM69.2108 330.787V329.1H75.8378V330.787H69.2108ZM89.1887 318.201H85.4621V316.602H83.511V318.201H79.7668V319.748H89.1887V318.201ZM80.5754 323.264C80.5754 325.004 82.1838 326.164 84.4778 326.164C86.7717 326.164 88.3537 325.004 88.3625 323.264C88.3537 321.523 86.7717 320.363 84.4778 320.363C82.1838 320.363 80.5754 321.523 80.5754 323.264ZM81.7004 328.924H90.3313V332.562H92.2825V327.359H81.7004V328.924ZM82.4739 323.264C82.4651 322.367 83.2737 321.84 84.4778 321.84C85.6819 321.84 86.4993 322.367 86.4993 323.264C86.4993 324.16 85.6819 324.661 84.4778 324.652C83.2737 324.661 82.4651 324.16 82.4739 323.264ZM90.3313 326.621H92.2825V322.49H94.4973V320.891H92.2825V316.672H90.3313V326.621ZM98.9453 320.188H102.883V330.998H105.168V320.188H109.088V318.271H98.9453V320.188ZM110.521 330.998H118.835V329.064H112.806V325.584H118.361V323.668H112.806V320.188H118.8V318.271H110.521V330.998ZM127.563 321.77H129.76C129.725 319.616 127.888 318.096 125.19 318.096C122.509 318.096 120.514 319.59 120.514 321.84C120.514 323.668 121.815 324.723 123.907 325.268L125.348 325.637C126.728 325.988 127.642 326.41 127.651 327.412C127.642 328.502 126.605 329.231 125.102 329.24C123.652 329.231 122.536 328.581 122.43 327.254H120.18C120.277 329.768 122.158 331.191 125.12 331.191C128.17 331.191 129.936 329.662 129.936 327.43C129.936 325.215 128.108 324.213 126.21 323.773L125.014 323.457C123.96 323.211 122.826 322.771 122.835 321.699C122.843 320.741 123.705 320.038 125.155 320.047C126.526 320.038 127.449 320.671 127.563 321.77ZM130.912 320.188H134.85V330.998H137.135V320.188H141.055V318.271H130.912V320.188ZM159.46 316.672H157.579V332.562H159.46V316.672ZM145.907 323.545C145.907 327.052 147.261 329.231 149.335 329.223C150.679 329.231 151.734 328.335 152.314 326.779H154.397V331.789H156.243V316.953H154.397V320.311H152.314C151.725 318.764 150.679 317.876 149.335 317.885C147.261 317.876 145.907 320.047 145.907 323.545ZM147.7 323.545C147.682 321.066 148.289 319.722 149.335 319.73C150.389 319.722 151.04 321.066 151.04 323.545C151.04 326.032 150.389 327.368 149.335 327.359C148.289 327.368 147.682 326.032 147.7 323.545ZM152.71 321.893H154.397V325.18H152.719C152.789 324.67 152.833 324.125 152.833 323.545C152.833 322.956 152.789 322.402 152.71 321.893ZM175.641 318.887H173.479V316.672H171.527V326.059H173.479V323.932H175.641V322.297H173.479V320.469H175.641V318.887ZM161.121 321.4C161.112 323.668 162.958 325.241 165.41 325.25C167.854 325.241 169.682 323.668 169.699 321.4C169.682 319.168 167.854 317.568 165.41 317.586C162.958 317.568 161.112 319.168 161.121 321.4ZM162.897 328.326H171.527V332.562H173.479V326.744H162.897V328.326ZM163.037 321.4C163.028 320.073 164.039 319.247 165.41 319.238C166.764 319.247 167.775 320.073 167.783 321.4C167.775 322.754 166.764 323.589 165.41 323.58C164.039 323.589 163.028 322.754 163.037 321.4Z" fill="#616161"/>
<path d="M314.757 304.174C317.816 304.174 319.644 301.81 319.644 297.635C319.644 293.486 317.807 291.096 314.757 291.096C311.707 291.096 309.862 293.486 309.87 297.635C309.862 301.801 311.69 304.174 314.757 304.174ZM312.173 297.635C312.182 294.603 313.166 293.003 314.757 292.994C316.348 293.003 317.332 294.603 317.341 297.635C317.341 300.693 316.348 302.249 314.757 302.258C313.158 302.249 312.173 300.693 312.173 297.635ZM321.2 303.998H330.042V302.082H324.382V301.994L326.649 299.744C329.154 297.38 329.84 296.22 329.848 294.787C329.84 292.651 328.091 291.096 325.489 291.096C322.949 291.096 321.138 292.66 321.147 295.068H323.327C323.318 293.776 324.162 292.959 325.471 292.959C326.711 292.959 327.651 293.706 327.651 294.893C327.651 295.965 326.983 296.721 325.7 298.004L321.2 302.346V303.998ZM294.941 316.672H292.973V325.197H294.941V316.672ZM281.986 321.102C281.986 323.272 283.814 324.802 286.275 324.793C288.727 324.802 290.556 323.272 290.547 321.102C290.556 318.896 288.727 317.366 286.275 317.375C283.814 317.366 281.986 318.896 281.986 321.102ZM283.902 321.102C283.893 319.827 284.887 319.001 286.275 319.01C287.638 319.001 288.631 319.827 288.631 321.102C288.631 322.376 287.638 323.185 286.275 323.193C284.887 323.185 283.893 322.376 283.902 321.102ZM284.43 332.369H294.941V325.936H292.99V327.57H286.363V325.936H284.43V332.369ZM286.363 330.787V329.1H292.99V330.787H286.363ZM306.341 318.201H302.615V316.602H300.663V318.201H296.919V319.748H306.341V318.201ZM297.728 323.264C297.728 325.004 299.336 326.164 301.63 326.164C303.924 326.164 305.506 325.004 305.515 323.264C305.506 321.523 303.924 320.363 301.63 320.363C299.336 320.363 297.728 321.523 297.728 323.264ZM298.853 328.924H307.484V332.562H309.435V327.359H298.853V328.924ZM299.626 323.264C299.617 322.367 300.426 321.84 301.63 321.84C302.834 321.84 303.652 322.367 303.652 323.264C303.652 324.16 302.834 324.661 301.63 324.652C300.426 324.661 299.617 324.16 299.626 323.264ZM307.484 326.621H309.435V322.49H311.65V320.891H309.435V316.672H307.484V326.621ZM316.098 320.188H320.035V330.998H322.32V320.188H326.24V318.271H316.098V320.188ZM327.673 330.998H335.988V329.064H329.958V325.584H335.513V323.668H329.958V320.188H335.953V318.271H327.673V330.998ZM344.716 321.77H346.913C346.878 319.616 345.041 318.096 342.343 318.096C339.662 318.096 337.667 319.59 337.667 321.84C337.667 323.668 338.968 324.723 341.059 325.268L342.501 325.637C343.881 325.988 344.795 326.41 344.803 327.412C344.795 328.502 343.758 329.231 342.255 329.24C340.804 329.231 339.688 328.581 339.583 327.254H337.333C337.429 329.768 339.31 331.191 342.272 331.191C345.322 331.191 347.089 329.662 347.089 327.43C347.089 325.215 345.26 324.213 343.362 323.773L342.167 323.457C341.112 323.211 339.978 322.771 339.987 321.699C339.996 320.741 340.857 320.038 342.307 320.047C343.678 320.038 344.601 320.671 344.716 321.77ZM348.065 320.188H352.002V330.998H354.287V320.188H358.207V318.271H348.065V320.188Z" fill="#616161"/>
<path d="M514.995 304.24C518.059 304.24 519.88 301.829 519.886 297.646C519.886 293.494 518.04 291.095 514.995 291.095C511.943 291.095 510.103 293.488 510.103 297.646C510.097 301.816 511.924 304.234 514.995 304.24ZM514.995 302.301C513.397 302.301 512.409 300.704 512.409 297.646C512.415 294.606 513.404 293.003 514.995 293.003C516.58 293.003 517.568 294.606 517.574 297.646C517.574 300.704 516.586 302.301 514.995 302.301ZM526.062 304.172C528.816 304.172 530.824 302.612 530.811 300.468C530.824 298.864 529.804 297.714 528.002 297.472V297.372C529.4 297.08 530.345 296.055 530.332 294.619C530.345 292.673 528.673 291.095 526.1 291.095C523.601 291.095 521.662 292.562 521.612 294.693H523.806C523.85 293.631 524.882 292.959 526.087 292.959C527.318 292.959 528.126 293.68 528.126 294.749C528.126 295.862 527.181 296.614 525.826 296.614H524.695V298.379H525.826C527.486 298.379 528.474 299.2 528.468 300.35C528.474 301.475 527.461 302.245 526.056 302.245C524.732 302.245 523.713 301.574 523.657 300.542H521.345C521.407 302.693 523.346 304.172 526.062 304.172ZM486.607 318.157V316.553H484.661V318.157H480.913V319.711H490.342V318.157H486.607ZM493.438 320.587V316.678H491.473V325.951H493.438V322.216H495.656V320.587H493.438ZM485.637 325.845C487.924 325.858 489.503 324.745 489.509 323.048C489.503 321.364 487.924 320.258 485.637 320.251C483.306 320.258 481.728 321.364 481.734 323.048C481.728 324.745 483.306 325.858 485.637 325.845ZM483.63 323.048C483.617 322.216 484.425 321.693 485.637 321.706C486.837 321.693 487.645 322.216 487.657 323.048C487.645 323.912 486.837 324.41 485.637 324.41C484.425 324.41 483.617 323.912 483.63 323.048ZM485.103 327.959V326.585H483.163V332.365H493.438V326.585H491.473V327.959H485.103ZM485.103 330.818V329.475H491.473V330.818H485.103ZM507.453 319.35H504.395C504.495 318.822 504.551 318.275 504.551 317.697H497.167V319.288H502.456C502.12 321.619 499.97 323.515 496.303 324.484L497.036 326.038C500.455 325.124 502.841 323.378 503.917 320.904H507.453V322.7H503.643V324.279H507.453V326.131H509.405V316.69H507.453V319.35ZM507.453 328.338V332.515H509.405V326.796H498.571V328.338H507.453ZM523.738 322.856V316.678H521.78V332.552H523.738V324.497H526.187V322.856H523.738ZM516.994 319.847H520.313V318.244H511.574V319.847H515.036V321.184C515.03 323.832 513.488 326.809 510.959 328.002L512.108 329.544C513.93 328.661 515.316 326.796 516.037 324.615C516.751 326.604 518.075 328.313 519.865 329.146L520.959 327.604C518.454 326.436 516.981 323.645 516.994 321.184V319.847ZM542.939 316.678H540.975V324.801H542.939V321.476H545.158V319.885H542.939V316.678ZM536.581 317.374V319.394H532.876V317.374H530.943V324.298H538.532V317.374H536.581ZM532.876 322.75V320.879H536.581V322.75H532.876ZM542.939 329.6V325.441H532.541V326.964H540.987V328.182H532.565V332.421H543.436V330.868H534.492V329.6H542.939ZM556.296 325.883H558.794V324.298H556.526V319.599H558.857V318.02H546.786V319.599H549.086V324.298H546.836V325.883H549.353V329.152H545.599V330.731H560.125V329.152H556.296V325.883ZM554.599 319.599V324.298H551.031V319.599H554.599ZM554.332 325.883V329.152H551.311V325.883H554.332Z" fill="#616161"/>
<path d="M714.87 304.174C717.929 304.174 719.757 301.81 719.757 297.635C719.757 293.486 717.92 291.096 714.87 291.096C711.821 291.096 709.975 293.486 709.984 297.635C709.975 301.801 711.803 304.174 714.87 304.174ZM712.286 297.635C712.295 294.603 713.28 293.003 714.87 292.994C716.461 293.003 717.446 294.603 717.454 297.635C717.454 300.693 716.461 302.249 714.87 302.258C713.271 302.249 712.286 300.693 712.286 297.635ZM721.085 301.625H727.255V303.998H729.434V301.625H731.104V299.744H729.434V291.271H726.587L721.085 299.797V301.625ZM723.423 299.744V299.656L727.149 293.873H727.29V299.744H723.423ZM720.153 324.037H705.651V325.637H720.153V324.037ZM707.338 329.627C707.338 331.499 709.421 332.545 712.875 332.545C716.303 332.545 718.368 331.499 718.377 329.627C718.368 327.781 716.303 326.735 712.875 326.744C709.421 326.735 707.338 327.781 707.338 329.627ZM707.426 322.789H718.483V321.225H709.377V318.764H718.395V317.182H707.426V322.789ZM709.325 329.627C709.316 328.73 710.564 328.238 712.875 328.238C715.152 328.238 716.409 328.73 716.426 329.627C716.409 330.567 715.152 331.033 712.875 331.033C710.564 331.033 709.316 330.567 709.325 329.627ZM735.349 325.268H729.056V323.949H733.873V322.42H724.609V321.154H733.556V317.023H722.623V318.553H731.605V319.73H722.675V323.949H727.123V325.268H720.83V326.85H735.349V325.268ZM722.447 329.398H731.675V332.457H733.644V327.852H722.447V329.398Z" fill="#616161"/>
<path d="M914.625 304.174C917.684 304.174 919.512 301.81 919.512 297.635C919.512 293.486 917.675 291.096 914.625 291.096C911.576 291.096 909.73 293.486 909.739 297.635C909.73 301.801 911.558 304.174 914.625 304.174ZM912.041 297.635C912.05 294.603 913.034 293.003 914.625 292.994C916.216 293.003 917.201 294.603 917.209 297.635C917.209 300.693 916.216 302.249 914.625 302.258C913.026 302.249 912.041 300.693 912.041 297.635ZM925.586 304.174C928.337 304.174 930.253 302.354 930.244 299.814C930.253 297.362 928.495 295.604 926.131 295.596C925.085 295.604 924.162 296.009 923.67 296.562H923.547L923.933 293.188H929.576V291.271H922.052L921.279 298.479H923.406C923.801 297.731 924.522 297.38 925.515 297.389C926.983 297.397 928.038 298.426 928.029 299.885C928.038 301.291 927.009 302.319 925.586 302.328C924.382 302.319 923.406 301.581 923.336 300.553H921.103C921.174 302.653 923.046 304.174 925.586 304.174ZM881.982 317.568C878.598 317.577 876.085 319.273 876.093 321.857C876.085 324.239 878.132 325.83 881.015 326.12V329.029H874.757V330.629H889.277V329.029H882.949V326.12C885.867 325.83 887.915 324.239 887.906 321.857C887.915 319.273 885.392 317.577 881.982 317.568ZM878.009 321.857C878.001 320.196 879.662 319.142 881.982 319.15C884.338 319.142 885.99 320.196 885.99 321.857C885.99 323.571 884.338 324.6 881.982 324.6C879.662 324.6 878.001 323.571 878.009 321.857ZM903.19 316.672H901.257V332.58H903.19V316.672ZM890.815 319.643H896.317V322.473H890.833V328.818H892.222C895.078 328.827 897.451 328.722 900.149 328.256L899.974 326.656C897.495 327.069 895.342 327.201 892.837 327.219V324.02H898.304V318.061H890.815V319.643ZM908.895 317.867C906.777 317.876 905.247 319.476 905.256 321.822C905.247 324.134 906.777 325.769 908.895 325.76C910.732 325.769 912.147 324.521 912.481 322.666H913.764V328.045H915.575V316.953H913.764V321.066H912.498C912.2 319.142 910.758 317.876 908.895 317.867ZM907.014 321.822C906.996 320.434 907.787 319.537 908.895 319.537C909.985 319.537 910.793 320.434 910.811 321.822C910.793 323.211 909.985 324.081 908.895 324.072C907.787 324.081 906.996 323.211 907.014 321.822ZM908.104 332.246H919.178V330.664H910.055V326.99H908.104V332.246ZM916.875 328.52H918.739V316.672H916.875V328.52ZM926.816 318.5H920.875V328.941H921.912C924.311 328.941 925.832 328.915 927.66 328.555L927.484 326.99C925.928 327.254 924.628 327.342 922.738 327.368V324.283H926.148V322.771H922.738V320.047H926.816V318.5ZM926.922 324.125H928.89V331.789H930.718V316.988H928.89V322.543H926.922V324.125ZM932.16 332.562H934.058V316.672H932.16V332.562ZM948.763 316.672H946.794V332.58H948.763V316.672ZM936.054 323.439C936.045 326.894 937.794 329.064 940.202 329.064C942.584 329.064 944.342 326.894 944.351 323.439C944.342 320.012 942.584 317.832 940.202 317.832C937.794 317.832 936.045 320.012 936.054 323.439ZM937.935 323.439C937.935 321.014 938.857 319.59 940.202 319.59C941.538 319.59 942.452 321.014 942.452 323.439C942.452 325.883 941.538 327.298 940.202 327.307C938.857 327.298 937.935 325.883 937.935 323.439ZM956.524 319.484V317.586H954.555V319.484C954.546 321.866 953.237 324.107 950.705 325.021L951.76 326.568C953.588 325.865 954.871 324.468 955.557 322.701C956.216 324.345 957.429 325.672 959.125 326.34L960.215 324.828C957.772 323.905 956.515 321.726 956.524 319.484ZM953.571 332.246H964.399V330.664H955.557V327.324H953.571V332.246ZM959.196 323.562H962.096V328.484H964.047V316.689H962.096V318.852H959.196V320.434H962.096V321.998H959.196V323.562Z" fill="#616161"/>
<path d="M1015.53 113.788C1015.53 163.037 975.462 203.094 926.212 203.094C876.961 203.094 836.906 163.025 836.906 113.788C836.906 83.6098 824.918 54.6673 803.579 33.3278C782.239 11.9884 753.297 0 723.118 0C692.94 0 663.997 11.9884 642.658 33.3278C621.318 54.6673 609.33 83.6098 609.33 113.788C609.33 163.037 569.261 203.094 520.024 203.094C470.788 203.094 430.684 163.037 430.684 113.788C430.684 83.6098 418.696 54.6673 397.356 33.3278C376.017 11.9884 347.074 0 316.896 0C286.717 0 257.775 11.9884 236.435 33.3278C215.096 54.6673 203.108 83.6098 203.108 113.788C203.108 163.037 163.041 203.094 113.802 203.094C64.5632 203.094 24.4855 163.025 24.4855 113.788H0C0 143.967 11.9884 172.909 33.3278 194.249C54.6673 215.588 83.6098 227.577 113.788 227.577C143.967 227.577 172.909 215.588 194.249 194.249C215.588 172.909 227.577 143.967 227.577 113.788C227.577 64.5376 267.643 24.4832 316.882 24.4832C366.121 24.4832 406.187 64.5492 406.187 113.8C406.187 143.979 418.176 172.921 439.515 194.261C460.854 215.6 489.797 227.588 519.976 227.588C550.154 227.588 579.097 215.6 600.436 194.261C621.776 172.921 633.764 143.979 633.764 113.8C633.764 64.5492 673.832 24.4948 723.069 24.4948C772.306 24.4948 812.386 64.5609 812.386 113.812C812.386 143.99 824.374 172.933 845.714 194.272C867.053 215.612 895.996 227.6 926.174 227.6C956.353 227.6 985.295 215.612 1006.63 194.272C1027.97 172.933 1039.96 143.99 1039.96 113.812L1015.53 113.788Z" fill="#F4F4F4"/>
<ellipse cx="114" cy="114.498" rx="89" ry="88.5" fill="url(#paint0_linear_2782_5106)"/>
<ellipse cx="317" cy="112.498" rx="89" ry="88.5" fill="url(#paint1_linear_2782_5106)"/>
<ellipse cx="723" cy="112.498" rx="89" ry="88.5" fill="url(#paint2_linear_2782_5106)"/>
<ellipse cx="520" cy="114.498" rx="89" ry="88.5" fill="url(#paint3_linear_2782_5106)"/>
<ellipse cx="926" cy="114.498" rx="89" ry="88.5" fill="url(#paint4_linear_2782_5106)"/>
<circle cx="114.5" cy="114.498" r="81.5" fill="url(#paint5_linear_2782_5106)"/>
<circle cx="317.5" cy="112.498" r="81.5" fill="url(#paint6_linear_2782_5106)"/>
<circle cx="723.5" cy="112.498" r="81.5" fill="url(#paint7_linear_2782_5106)"/>
<circle cx="520.5" cy="114.498" r="81.5" fill="url(#paint8_linear_2782_5106)"/>
<circle cx="926.5" cy="114.498" r="81.5" fill="url(#paint9_linear_2782_5106)"/>
<g filter="url(#filter0_d_2782_5106)">
<circle cx="114" cy="115" r="61" fill="white"/>
</g>
<path d="M121.635 101.23C120.255 100.095 118.64 99.283 116.906 98.8522C115.173 98.4215 113.365 98.3831 111.615 98.74C109.284 99.2107 107.146 100.363 105.472 102.051C103.797 103.739 102.662 105.886 102.21 108.22C101.88 109.97 101.94 111.771 102.386 113.496C102.832 115.22 103.653 116.824 104.79 118.195C105.845 119.386 106.45 120.909 106.5 122.5V127C106.5 128.193 106.974 129.338 107.818 130.182C108.662 131.026 109.806 131.5 111 131.5H117C118.193 131.5 119.338 131.026 120.182 130.182C121.026 129.338 121.5 128.193 121.5 127V122.785C121.55 121.029 122.195 119.342 123.33 118C125.318 115.541 126.255 112.397 125.937 109.251C125.62 106.106 124.074 103.212 121.635 101.2V101.23ZM118.5 127C118.5 127.398 118.342 127.779 118.061 128.061C117.779 128.342 117.398 128.5 117 128.5H111C110.602 128.5 110.221 128.342 109.939 128.061C109.658 127.779 109.5 127.398 109.5 127V125.5H118.5V127ZM121.005 116.14C119.497 117.929 118.617 120.163 118.5 122.5H115.5V118C115.5 117.602 115.342 117.221 115.061 116.939C114.779 116.658 114.398 116.5 114 116.5C113.602 116.5 113.221 116.658 112.939 116.939C112.658 117.221 112.5 117.602 112.5 118V122.5H109.5C109.46 120.202 108.61 117.992 107.1 116.26C106.103 115.066 105.433 113.634 105.155 112.104C104.877 110.574 104.999 108.998 105.512 107.529C106.024 106.061 106.908 104.75 108.077 103.725C109.247 102.7 110.662 101.995 112.185 101.68C113.494 101.41 114.846 101.436 116.144 101.754C117.442 102.073 118.652 102.676 119.688 103.52C120.724 104.365 121.558 105.429 122.131 106.637C122.704 107.844 123.001 109.164 123 110.5C123.011 112.555 122.306 114.549 121.005 116.14Z" fill="#616161"/>
<g filter="url(#filter1_d_2782_5106)">
<circle cx="317" cy="113" r="61" fill="white"/>
</g>
<path d="M330.755 98.0899C329.68 97.9047 328.591 97.8094 327.5 97.8049C323.778 97.8019 320.133 98.8693 317 100.88C313.86 98.8957 310.215 97.8545 306.5 97.8799C305.409 97.8844 304.321 97.9797 303.245 98.1649C302.893 98.2257 302.574 98.4101 302.346 98.6851C302.118 98.9601 301.995 99.3076 302 99.6649V117.665C301.997 117.885 302.043 118.104 302.133 118.305C302.224 118.505 302.358 118.684 302.526 118.827C302.693 118.97 302.89 119.075 303.103 119.133C303.315 119.192 303.538 119.202 303.755 119.165C305.905 118.793 308.107 118.855 310.232 119.347C312.358 119.839 314.363 120.751 316.13 122.03L316.31 122.135H316.475C316.642 122.204 316.82 122.24 317 122.24C317.181 122.24 317.359 122.204 317.525 122.135H317.69L317.87 122.03C319.625 120.722 321.625 119.78 323.751 119.26C325.876 118.739 328.085 118.651 330.245 119C330.463 119.037 330.685 119.027 330.898 118.968C331.11 118.91 331.308 118.805 331.475 118.662C331.643 118.519 331.777 118.34 331.867 118.14C331.958 117.939 332.004 117.72 332 117.5V99.4999C331.985 99.1582 331.853 98.832 331.626 98.5755C331.4 98.3191 331.093 98.1477 330.755 98.0899ZM315.5 118.025C312.725 116.565 309.636 115.803 306.5 115.805C306.005 115.805 305.51 115.805 305 115.805V100.805C305.5 100.776 306.001 100.776 306.5 100.805C309.7 100.801 312.831 101.74 315.5 103.505V118.025ZM329 115.865C328.49 115.865 327.995 115.865 327.5 115.865C324.365 115.863 321.276 116.625 318.5 118.085V103.505C321.17 101.74 324.3 100.801 327.5 100.805C328 100.776 328.501 100.776 329 100.805V115.865ZM330.755 122.09C329.68 121.905 328.591 121.809 327.5 121.805C323.778 121.802 320.133 122.869 317 124.88C313.868 122.869 310.223 121.802 306.5 121.805C305.409 121.809 304.321 121.905 303.245 122.09C303.05 122.121 302.863 122.19 302.695 122.294C302.526 122.397 302.38 122.533 302.264 122.694C302.148 122.854 302.066 123.035 302.02 123.228C301.975 123.42 301.968 123.62 302 123.815C302.077 124.204 302.304 124.548 302.633 124.77C302.962 124.992 303.366 125.075 303.755 125C305.905 124.628 308.107 124.69 310.232 125.182C312.358 125.674 314.363 126.586 316.13 127.865C316.384 128.046 316.689 128.143 317 128.143C317.312 128.143 317.616 128.046 317.87 127.865C319.638 126.586 321.643 125.674 323.768 125.182C325.894 124.69 328.096 124.628 330.245 125C330.635 125.075 331.039 124.992 331.368 124.77C331.697 124.548 331.924 124.204 332 123.815C332.032 123.62 332.026 123.42 331.98 123.228C331.935 123.035 331.852 122.854 331.737 122.694C331.621 122.533 331.475 122.397 331.306 122.294C331.138 122.19 330.951 122.121 330.755 122.09Z" fill="#616161"/>
<g filter="url(#filter2_d_2782_5106)">
<circle cx="723" cy="113" r="61" fill="white"/>
</g>
<g filter="url(#filter3_d_2782_5106)">
<circle cx="520" cy="115" r="61" fill="white"/>
</g>
<path d="M534.07 105.64C534.018 105.449 533.93 105.269 533.809 105.112C533.688 104.955 533.537 104.823 533.365 104.725L525.565 100.225C525.394 100.125 525.206 100.06 525.01 100.033C524.815 100.006 524.616 100.018 524.425 100.069C524.234 100.119 524.055 100.206 523.898 100.326C523.741 100.445 523.609 100.594 523.51 100.765L520 106.855L516.49 100.765C516.39 100.594 516.258 100.445 516.101 100.326C515.944 100.206 515.765 100.119 515.574 100.069C515.383 100.018 515.184 100.006 514.989 100.033C514.793 100.06 514.605 100.125 514.435 100.225L506.635 104.725C506.462 104.823 506.311 104.955 506.19 105.112C506.069 105.269 505.981 105.449 505.93 105.64C505.83 106.02 505.884 106.424 506.08 106.765L512.08 117.01C511.41 118.236 511.04 119.604 511 121C510.996 122.363 511.302 123.708 511.894 124.935C512.486 126.162 513.349 127.239 514.418 128.084C515.486 128.929 516.733 129.52 518.064 129.813C519.394 130.106 520.774 130.093 522.099 129.775C523.424 129.458 524.659 128.843 525.712 127.979C526.765 127.114 527.607 126.021 528.177 124.783C528.746 123.546 529.026 122.195 528.997 120.833C528.969 119.47 528.631 118.133 528.01 116.92L533.86 106.78C533.968 106.614 534.043 106.427 534.079 106.231C534.115 106.036 534.112 105.835 534.07 105.64ZM509.5 106.57L514.69 103.57L519.52 112C517.461 112.127 515.51 112.965 514 114.37L509.5 106.57ZM520 127C518.408 127 516.882 126.368 515.757 125.243C514.632 124.118 514 122.591 514 121C514 119.409 514.632 117.883 515.757 116.757C516.882 115.632 518.408 115 520 115C521.591 115 523.117 115.632 524.242 116.757C525.367 117.883 526 119.409 526 121C526 122.591 525.367 124.118 524.242 125.243C523.117 126.368 521.591 127 520 127ZM526 114.325C525.185 113.581 524.239 112.996 523.21 112.6L521.74 109.855L525.37 103.57L530.56 106.57L526 114.325Z" fill="#616161"/>
<g filter="url(#filter4_d_2782_5106)">
<circle cx="926" cy="115" r="61" fill="white"/>
</g>
<path d="M937.684 107.695C937.543 107.516 937.363 107.372 937.158 107.273C936.952 107.174 936.727 107.124 936.499 107.125H919.999V106.375C920.001 105.722 920.216 105.087 920.611 104.568C921.007 104.048 921.561 103.671 922.189 103.495C922.593 103.885 923.128 104.109 923.689 104.125H925.189C925.786 104.125 926.358 103.888 926.78 103.466C927.202 103.044 927.439 102.472 927.439 101.875C927.439 101.278 927.202 100.706 926.78 100.284C926.358 99.8621 925.786 99.625 925.189 99.625H923.689C923.351 99.6255 923.018 99.7027 922.714 99.8508C922.41 99.9989 922.143 100.214 921.934 100.48C920.552 100.729 919.301 101.456 918.399 102.533C917.497 103.611 917.002 104.97 916.999 106.375V107.125H915.499C915.272 107.124 915.046 107.174 914.841 107.273C914.636 107.372 914.456 107.516 914.314 107.695C914.164 107.873 914.057 108.084 914.003 108.31C913.948 108.537 913.947 108.773 913.999 109L914.929 112.735C915.152 113.595 915.623 114.371 916.285 114.963C916.947 115.556 917.77 115.939 918.649 116.065L919.819 126.565H918.499C918.102 126.565 917.72 126.723 917.439 127.004C917.157 127.286 916.999 127.667 916.999 128.065C916.999 128.463 917.157 128.844 917.439 129.126C917.72 129.407 918.102 129.565 918.499 129.565H933.499C933.897 129.565 934.279 129.407 934.56 129.126C934.841 128.844 934.999 128.463 934.999 128.065C934.999 127.667 934.841 127.286 934.56 127.004C934.279 126.723 933.897 126.565 933.499 126.565H932.179L933.349 116.065C934.223 115.93 935.037 115.541 935.691 114.946C936.344 114.351 936.808 113.577 937.024 112.72L937.999 109C938.052 108.773 938.051 108.537 937.996 108.31C937.941 108.084 937.835 107.873 937.684 107.695ZM929.149 126.625H922.849L921.679 116.125H930.319L929.149 126.625ZM934.114 112C934.032 112.333 933.839 112.627 933.566 112.835C933.293 113.042 932.957 113.15 932.614 113.14H919.339C918.997 113.15 918.661 113.042 918.388 112.835C918.115 112.627 917.922 112.333 917.839 112L917.419 110.125H934.579L934.114 112Z" fill="#616161"/>
<path d="M737.564 102.08L733.919 98.435C733.638 98.1556 733.258 97.9988 732.862 97.9988C732.465 97.9988 732.085 98.1556 731.804 98.435L723.434 106.805C723.295 106.945 723.185 107.111 723.111 107.294C723.036 107.477 722.998 107.673 722.999 107.87V111.5C722.999 111.898 723.157 112.279 723.439 112.561C723.72 112.842 724.101 113 724.499 113H728.129C728.327 113.001 728.522 112.963 728.705 112.889C728.888 112.814 729.054 112.704 729.194 112.565L737.564 104.195C737.844 103.914 738 103.534 738 103.137C738 102.741 737.844 102.361 737.564 102.08ZM727.499 110H725.999V108.5L732.869 101.63L734.369 103.13L727.499 110ZM733.499 113C733.101 113 732.72 113.158 732.439 113.439C732.157 113.721 731.999 114.102 731.999 114.5C731.999 117.285 730.893 119.955 728.924 121.925C726.955 123.894 724.284 125 721.499 125H713.114L714.074 124.055C714.215 123.916 714.326 123.75 714.403 123.567C714.479 123.384 714.518 123.188 714.518 122.99C714.518 122.792 714.479 122.596 714.403 122.413C714.326 122.23 714.215 122.064 714.074 121.925C712.606 120.457 711.605 118.586 711.2 116.549C710.795 114.512 711.003 112.4 711.798 110.482C712.593 108.563 713.938 106.923 715.665 105.769C717.392 104.616 719.422 104 721.499 104C721.897 104 722.279 103.842 722.56 103.561C722.841 103.279 722.999 102.898 722.999 102.5C722.999 102.102 722.841 101.721 722.56 101.439C722.279 101.158 721.897 101 721.499 101C718.96 101.008 716.475 101.732 714.33 103.089C712.184 104.446 710.464 106.38 709.367 108.67C708.271 110.96 707.842 113.512 708.131 116.035C708.42 118.557 709.414 120.947 710.999 122.93L708.434 125.435C708.226 125.646 708.085 125.914 708.029 126.205C707.973 126.496 708.004 126.797 708.119 127.07C708.232 127.344 708.423 127.578 708.668 127.744C708.914 127.909 709.203 127.998 709.499 128H721.499C723.272 128 725.028 127.651 726.665 126.972C728.303 126.294 729.792 125.3 731.045 124.046C732.299 122.792 733.293 121.304 733.972 119.666C734.65 118.028 734.999 116.273 734.999 114.5C734.999 114.102 734.841 113.721 734.56 113.439C734.279 113.158 733.897 113 733.499 113Z" fill="#616161"/>
<path d="M919.114 253.015C917.28 252.893 915.468 253.465 914.036 254.617C910.517 257.461 906.198 259.135 901.671 259.135H736.547C731.876 259.135 727.414 257.438 723.739 254.556C722.445 253.541 720.849 252.989 719.205 252.989C717.561 252.989 715.965 253.541 714.671 254.556C711.008 257.441 706.534 259.135 701.863 259.135H537.102C532.431 259.135 527.967 257.438 524.294 254.556C523 253.541 521.404 252.989 519.76 252.989C518.116 252.989 516.52 253.541 515.227 254.556C511.563 257.441 507.089 259.135 502.418 259.135H338.178C333.507 259.135 329.042 257.438 325.369 254.556C324.076 253.541 322.479 252.989 320.835 252.989C319.191 252.989 317.595 253.541 316.302 254.556C312.638 257.441 308.164 259.135 303.493 259.135H138.325C133.801 259.135 129.483 257.461 125.961 254.617C124.885 253.749 123.586 253.201 122.213 253.038C120.84 252.874 119.448 253.102 118.199 253.693C116.949 254.285 115.891 255.217 115.148 256.383C114.404 257.549 114.004 258.901 113.994 260.284C113.984 261.666 114.365 263.024 115.092 264.2C115.819 265.376 116.863 266.324 118.104 266.933C119.345 267.543 120.733 267.79 122.108 267.646C123.483 267.503 124.79 266.974 125.879 266.121C129.553 263.236 134.018 261.541 138.701 261.541H303.498C308.169 261.541 312.634 263.238 316.306 266.121C317.6 267.135 319.196 267.687 320.84 267.687C322.484 267.687 324.08 267.135 325.374 266.121C329.037 263.236 333.511 261.541 338.182 261.541H502.423C507.094 261.541 511.559 263.238 515.231 266.121C516.525 267.135 518.121 267.687 519.765 267.687C521.409 267.687 523.005 267.135 524.298 266.121C527.962 263.236 532.436 261.541 537.107 261.541H701.867C706.538 261.541 711.003 263.238 714.676 266.121C715.969 267.135 717.566 267.687 719.21 267.687C720.853 267.687 722.45 267.135 723.743 266.121C727.418 263.236 731.881 261.541 736.552 261.541H901.312C905.983 261.541 910.448 263.238 914.123 266.121C915.029 266.83 916.089 267.317 917.218 267.542C918.347 267.767 919.513 267.723 920.622 267.415C921.731 267.107 922.752 266.542 923.603 265.767C924.453 264.991 925.11 264.027 925.52 262.951C925.929 261.876 926.081 260.719 925.961 259.574C925.842 258.429 925.455 257.328 924.832 256.36C924.209 255.392 923.368 254.584 922.376 254.001C921.383 253.418 920.268 253.076 919.119 253.003L919.114 253.015Z" fill="url(#paint10_linear_2782_5106)"/>
<path d="M123.438 263.325C125.096 262.224 125.547 259.987 124.445 258.329C123.344 256.671 121.107 256.22 119.449 257.321C117.791 258.423 117.34 260.66 118.442 262.318C119.543 263.976 121.78 264.427 123.438 263.325Z" fill="white"/>
<path d="M323.081 262.897C324.488 261.489 324.488 259.207 323.081 257.8C321.673 256.392 319.391 256.392 317.984 257.8C316.577 259.207 316.577 261.489 317.984 262.897C319.391 264.304 321.673 264.304 323.081 262.897Z" fill="white"/>
<path d="M523.488 261.153C523.945 259.216 522.745 257.275 520.808 256.818C518.871 256.361 516.93 257.561 516.472 259.498C516.015 261.435 517.215 263.376 519.152 263.833C521.089 264.29 523.03 263.091 523.488 261.153Z" fill="white"/>
<path d="M723.087 261.152C723.544 259.214 722.345 257.273 720.408 256.816C718.47 256.359 716.529 257.559 716.072 259.496C715.615 261.433 716.815 263.374 718.752 263.831C720.689 264.289 722.63 263.089 723.087 261.152Z" fill="white"/>
<path d="M922.286 261.15C922.744 259.213 921.544 257.272 919.607 256.815C917.67 256.358 915.728 257.557 915.271 259.495C914.814 261.432 916.014 263.373 917.951 263.83C919.888 264.287 921.829 263.088 922.286 261.15Z" fill="white"/>
<defs>
<filter id="filter0_d_2782_5106" x="49" y="52" width="134" height="134" filterUnits="userSpaceOnUse" color-interpolation-filters="sRGB">
<feFlood flood-opacity="0" result="BackgroundImageFix"/>
<feColorMatrix in="SourceAlpha" type="matrix" values="0 0 0 0 0 0 0 0 0 0 0 0 0 0 0 0 0 0 127 0" result="hardAlpha"/>
<feOffset dx="2" dy="4"/>
<feGaussianBlur stdDeviation="3"/>
<feComposite in2="hardAlpha" operator="out"/>
<feColorMatrix type="matrix" values="0 0 0 0 0 0 0 0 0 0 0 0 0 0 0 0 0 0 0.2 0"/>
<feBlend mode="normal" in2="BackgroundImageFix" result="effect1_dropShadow_2782_5106"/>
<feBlend mode="normal" in="SourceGraphic" in2="effect1_dropShadow_2782_5106" result="shape"/>
</filter>
<filter id="filter1_d_2782_5106" x="252" y="50" width="134" height="134" filterUnits="userSpaceOnUse" color-interpolation-filters="sRGB">
<feFlood flood-opacity="0" result="BackgroundImageFix"/>
<feColorMatrix in="SourceAlpha" type="matrix" values="0 0 0 0 0 0 0 0 0 0 0 0 0 0 0 0 0 0 127 0" result="hardAlpha"/>
<feOffset dx="2" dy="4"/>
<feGaussianBlur stdDeviation="3"/>
<feComposite in2="hardAlpha" operator="out"/>
<feColorMatrix type="matrix" values="0 0 0 0 0 0 0 0 0 0 0 0 0 0 0 0 0 0 0.2 0"/>
<feBlend mode="normal" in2="BackgroundImageFix" result="effect1_dropShadow_2782_5106"/>
<feBlend mode="normal" in="SourceGraphic" in2="effect1_dropShadow_2782_5106" result="shape"/>
</filter>
<filter id="filter2_d_2782_5106" x="658" y="50" width="134" height="134" filterUnits="userSpaceOnUse" color-interpolation-filters="sRGB">
<feFlood flood-opacity="0" result="BackgroundImageFix"/>
<feColorMatrix in="SourceAlpha" type="matrix" values="0 0 0 0 0 0 0 0 0 0 0 0 0 0 0 0 0 0 127 0" result="hardAlpha"/>
<feOffset dx="2" dy="4"/>
<feGaussianBlur stdDeviation="3"/>
<feComposite in2="hardAlpha" operator="out"/>
<feColorMatrix type="matrix" values="0 0 0 0 0 0 0 0 0 0 0 0 0 0 0 0 0 0 0.2 0"/>
<feBlend mode="normal" in2="BackgroundImageFix" result="effect1_dropShadow_2782_5106"/>
<feBlend mode="normal" in="SourceGraphic" in2="effect1_dropShadow_2782_5106" result="shape"/>
</filter>
<filter id="filter3_d_2782_5106" x="455" y="52" width="134" height="134" filterUnits="userSpaceOnUse" color-interpolation-filters="sRGB">
<feFlood flood-opacity="0" result="BackgroundImageFix"/>
<feColorMatrix in="SourceAlpha" type="matrix" values="0 0 0 0 0 0 0 0 0 0 0 0 0 0 0 0 0 0 127 0" result="hardAlpha"/>
<feOffset dx="2" dy="4"/>
<feGaussianBlur stdDeviation="3"/>
<feComposite in2="hardAlpha" operator="out"/>
<feColorMatrix type="matrix" values="0 0 0 0 0 0 0 0 0 0 0 0 0 0 0 0 0 0 0.2 0"/>
<feBlend mode="normal" in2="BackgroundImageFix" result="effect1_dropShadow_2782_5106"/>
<feBlend mode="normal" in="SourceGraphic" in2="effect1_dropShadow_2782_5106" result="shape"/>
</filter>
<filter id="filter4_d_2782_5106" x="861" y="52" width="134" height="134" filterUnits="userSpaceOnUse" color-interpolation-filters="sRGB">
<feFlood flood-opacity="0" result="BackgroundImageFix"/>
<feColorMatrix in="SourceAlpha" type="matrix" values="0 0 0 0 0 0 0 0 0 0 0 0 0 0 0 0 0 0 127 0" result="hardAlpha"/>
<feOffset dx="2" dy="4"/>
<feGaussianBlur stdDeviation="3"/>
<feComposite in2="hardAlpha" operator="out"/>
<feColorMatrix type="matrix" values="0 0 0 0 0 0 0 0 0 0 0 0 0 0 0 0 0 0 0.2 0"/>
<feBlend mode="normal" in2="BackgroundImageFix" result="effect1_dropShadow_2782_5106"/>
<feBlend mode="normal" in="SourceGraphic" in2="effect1_dropShadow_2782_5106" result="shape"/>
</filter>
<linearGradient id="paint0_linear_2782_5106" x1="114" y1="25.998" x2="114" y2="202.998" gradientUnits="userSpaceOnUse">
<stop stop-color="#D097D4"/>
<stop offset="1" stop-color="#D097D4" stop-opacity="0.22"/>
</linearGradient>
<linearGradient id="paint1_linear_2782_5106" x1="317" y1="23.998" x2="317" y2="200.998" gradientUnits="userSpaceOnUse">
<stop stop-color="#B59BDC"/>
<stop offset="1" stop-color="#B59BDC" stop-opacity="0.22"/>
</linearGradient>
<linearGradient id="paint2_linear_2782_5106" x1="723" y1="23.998" x2="723" y2="200.998" gradientUnits="userSpaceOnUse">
<stop stop-color="#77C8EA"/>
<stop offset="1" stop-color="#77C8EA" stop-opacity="0.22"/>
</linearGradient>
<linearGradient id="paint3_linear_2782_5106" x1="520" y1="25.998" x2="520" y2="202.998" gradientUnits="userSpaceOnUse">
<stop stop-color="#89A5E7"/>
<stop offset="1" stop-color="#89A5E7" stop-opacity="0.22"/>
</linearGradient>
<linearGradient id="paint4_linear_2782_5106" x1="926" y1="25.998" x2="926" y2="202.998" gradientUnits="userSpaceOnUse">
<stop stop-color="#6FDAEB"/>
<stop offset="1" stop-color="#6FDAEB" stop-opacity="0.22"/>
</linearGradient>
<linearGradient id="paint5_linear_2782_5106" x1="33" y1="114" x2="196" y2="114" gradientUnits="userSpaceOnUse">
<stop stop-color="#E694CD"/>
<stop offset="1" stop-color="#B59ADB"/>
</linearGradient>
<linearGradient id="paint6_linear_2782_5106" x1="236" y1="112" x2="399" y2="112" gradientUnits="userSpaceOnUse">
<stop stop-color="#B79ADB"/>
<stop offset="1" stop-color="#87A3E8"/>
</linearGradient>
<linearGradient id="paint7_linear_2782_5106" x1="642" y1="112" x2="805" y2="112" gradientUnits="userSpaceOnUse">
<stop stop-color="#77C6EA"/>
<stop offset="1" stop-color="#6EDAEB"/>
</linearGradient>
<linearGradient id="paint8_linear_2782_5106" x1="439" y1="114" x2="602" y2="114" gradientUnits="userSpaceOnUse">
<stop stop-color="#8AA3E7"/>
<stop offset="1" stop-color="#76C8EA"/>
</linearGradient>
<linearGradient id="paint9_linear_2782_5106" x1="845" y1="114" x2="1008" y2="114" gradientUnits="userSpaceOnUse">
<stop stop-color="#6FD9EB"/>
<stop offset="1" stop-color="#6CE1EB"/>
</linearGradient>
<linearGradient id="paint10_linear_2782_5106" x1="114" y1="260.348" x2="926" y2="260.348" gradientUnits="userSpaceOnUse">
<stop stop-color="#E395CE"/>
<stop offset="0.5" stop-color="#84AFE8"/>
<stop offset="1" stop-color="#6CE1EB"/>
</linearGradient>
</defs>
</svg>
