<svg width="7" height="371" viewBox="0 0 7 371" fill="none" xmlns="http://www.w3.org/2000/svg">
<path d="M0.0128534 367.269C-0.0426283 366.432 0.218338 365.606 0.743994 364.952C2.04125 363.347 2.80476 361.377 2.80477 359.312L2.80477 283.988C2.80477 281.857 2.0308 279.822 0.715795 278.145C0.252966 277.555 0.00142057 276.827 0.0014206 276.077C0.00142063 275.327 0.252966 274.599 0.715795 274.009C2.03185 272.338 2.80477 270.297 2.80477 268.166L2.80477 193.008C2.80477 190.877 2.03081 188.84 0.715799 187.165C0.25297 186.575 0.00142454 185.847 0.00142458 185.097C0.00142461 184.347 0.25297 183.619 0.715799 183.029C2.03185 181.358 2.80477 179.317 2.80477 177.186L2.80478 102.265C2.80478 100.134 2.03081 98.0975 0.715803 96.4222C0.252974 95.8322 0.00142851 95.104 0.00142854 94.3541C0.00142858 93.6042 0.252974 92.876 0.715803 92.286C2.03186 90.6148 2.80478 88.5739 2.80478 86.4431L2.80478 11.0991C2.80478 9.03518 2.04126 7.06528 0.74401 5.45886C0.347789 4.96806 0.0980566 4.37544 0.0235029 3.74908C-0.0510509 3.12273 0.052599 2.48805 0.322543 1.91795C0.592488 1.34786 1.01777 0.865474 1.54955 0.526221C2.08132 0.186969 2.69802 0.004606 3.32878 8.62483e-05C3.95954 -0.0044335 4.57878 0.169073 5.11536 0.50067C5.65195 0.832268 6.08411 1.30851 6.36219 1.87467C6.64028 2.44084 6.75301 3.07397 6.68744 3.70133C6.62187 4.32869 6.38066 4.92483 5.99151 5.42126C4.67546 7.09766 3.90254 9.13441 3.90254 11.2704L3.90253 86.4452C3.90253 88.576 4.6765 90.6127 5.99151 92.2881C6.45434 92.8781 6.70588 93.6063 6.70588 94.3562C6.70588 95.106 6.45434 95.8343 5.99151 96.4243C4.67545 98.0954 3.90253 100.136 3.90253 102.267L3.90253 177.188C3.90253 179.319 4.67649 181.356 5.9915 183.031C6.45433 183.621 6.70588 184.349 6.70588 185.099C6.70588 185.849 6.45433 186.577 5.9915 187.167C4.67545 188.838 3.90253 190.879 3.90253 193.01L3.90253 268.168C3.90253 270.299 4.67649 272.336 5.9915 274.011C6.45433 274.601 6.70587 275.329 6.70587 276.079C6.70587 276.829 6.45433 277.557 5.9915 278.147C4.67545 279.824 3.90253 281.859 3.90253 283.99L3.90252 359.148C3.90252 361.279 4.67649 363.316 5.9915 364.992C6.31523 365.405 6.53732 365.889 6.63986 366.404C6.7424 366.919 6.72254 367.451 6.58185 367.957C6.44116 368.463 6.18359 368.928 5.8299 369.316C5.47621 369.704 5.0363 370.004 4.54562 370.191C4.05494 370.378 3.52722 370.447 3.00499 370.392C2.48276 370.338 1.98063 370.161 1.53906 369.877C1.0975 369.593 0.728861 369.209 0.462855 368.757C0.196849 368.304 0.040913 367.795 0.0076259 367.271L0.0128534 367.269Z" fill="url(#paint0_linear_2792_10442)"/>
<defs>
<linearGradient id="paint0_linear_2792_10442" x1="3.35836" y1="0.00246105" x2="3.35835" y2="370.41" gradientUnits="userSpaceOnUse">
<stop stop-color="#E395CE"/>
<stop offset="0.5" stop-color="#84AFE8"/>
<stop offset="1" stop-color="#6CE1EB"/>
</linearGradient>
</defs>
</svg>
