<svg width="813" height="16" viewBox="0 0 813 16" fill="none" xmlns="http://www.w3.org/2000/svg">
    <path d="M806.112 1.01454C804.278 0.892914 802.466 1.465 801.034 2.61733C797.515 5.46115 793.196 7.13491 788.669 7.13491H623.545C618.874 7.13491 614.412 5.43824 610.737 2.55551C609.443 1.5409 607.847 0.989469 606.203 0.989469C604.559 0.989469 602.963 1.5409 601.669 2.55551C598.006 5.44053 593.532 7.13491 588.861 7.13491H424.101C419.43 7.13491 414.965 5.43824 411.292 2.55551C409.999 1.5409 408.402 0.989469 406.758 0.989469C405.114 0.989469 403.518 1.5409 402.225 2.55551C398.561 5.44053 394.087 7.13491 389.416 7.13491H225.176C220.505 7.13491 216.04 5.43824 212.367 2.55551C211.074 1.5409 209.477 0.989469 207.833 0.989469C206.19 0.989469 204.593 1.5409 203.3 2.55551C199.636 5.44053 195.162 7.13491 190.491 7.13491H25.3234C20.7989 7.13491 16.4806 5.46115 12.959 2.61733C11.8831 1.74875 10.5839 1.20129 9.21086 1.03785C7.83778 0.874416 6.44644 1.10163 5.19669 1.6934C3.94694 2.28517 2.88946 3.21747 2.14576 4.38322C1.40206 5.54897 1.00228 6.90088 0.992376 8.28362C0.982468 9.66636 1.36283 11.0238 2.08975 12.2001C2.81667 13.3764 3.86067 14.3238 5.10181 14.9334C6.34295 15.543 7.73089 15.7901 9.10618 15.6464C10.4815 15.5027 11.7883 14.9739 12.8766 14.1208C16.5515 11.2358 21.0165 9.5414 25.6989 9.5414H190.496C195.167 9.5414 199.632 11.2381 203.304 14.1208C204.598 15.1354 206.194 15.6868 207.838 15.6868C209.482 15.6868 211.078 15.1354 212.372 14.1208C216.035 11.2358 220.509 9.5414 225.18 9.5414H389.421C394.092 9.5414 398.557 11.2381 402.229 14.1208C403.523 15.1354 405.119 15.6868 406.763 15.6868C408.407 15.6868 410.003 15.1354 411.297 14.1208C414.96 11.2358 419.434 9.5414 424.105 9.5414H588.865C593.536 9.5414 598.001 11.2381 601.674 14.1208C602.967 15.1354 604.564 15.6868 606.208 15.6868C607.851 15.6868 609.448 15.1354 610.741 14.1208C614.416 11.2358 618.879 9.5414 623.55 9.5414H788.31C792.981 9.5414 797.446 11.2381 801.121 14.1208C802.027 14.8305 803.087 15.3174 804.216 15.5421C805.345 15.7669 806.511 15.7234 807.62 15.415C808.729 15.1066 809.75 14.5419 810.601 13.7666C811.451 12.9912 812.108 12.0269 812.518 10.9512C812.927 9.87553 813.079 8.71868 812.959 7.57385C812.84 6.42902 812.453 5.32826 811.83 4.36027C811.208 3.39228 810.366 2.58416 809.374 2.00103C808.381 1.41789 807.266 1.07605 806.117 1.00308L806.112 1.01454Z" fill="url(#paint0_linear_2267_2301)"/>
    <path d="M10.436 11.3252C12.0939 10.2237 12.5449 7.98679 11.4434 6.32892C10.3419 4.67105 8.10503 4.22001 6.44715 5.3215C4.78928 6.42299 4.33824 8.65989 5.43973 10.3178C6.54122 11.9756 8.77812 12.4267 10.436 11.3252Z" fill="white"/>
    <path d="M210.075 10.8964C211.482 9.48898 211.482 7.20706 210.075 5.79962C208.667 4.39217 206.386 4.39217 204.978 5.79962C203.571 7.20706 203.571 9.48898 204.978 10.8964C206.386 12.3039 208.667 12.3039 210.075 10.8964Z" fill="white"/>
    <path d="M410.484 9.15338C410.941 7.21617 409.741 5.27511 407.804 4.81789C405.867 4.36066 403.926 5.56043 403.468 7.49763C403.011 9.43484 404.211 11.3759 406.148 11.8331C408.085 12.2903 410.027 11.0906 410.484 9.15338Z" fill="white"/>
    <path d="M610.085 9.15155C610.543 7.21434 609.343 5.27328 607.406 4.81606C605.468 4.35883 603.527 5.5586 603.07 7.4958C602.613 9.43301 603.813 11.3741 605.75 11.8313C607.687 12.2885 609.628 11.0888 610.085 9.15155Z" fill="white"/>
    <path d="M809.288 9.15033C809.746 7.21312 808.546 5.27206 806.609 4.81483C804.671 4.35761 802.73 5.55737 802.273 7.49458C801.816 9.43178 803.016 11.3728 804.953 11.8301C806.89 12.2873 808.831 11.0875 809.288 9.15033Z" fill="white"/>
    <defs>
        <linearGradient id="paint0_linear_2267_2301" x1="0.997582" y1="8.34847" x2="812.998" y2="8.34847" gradientUnits="userSpaceOnUse">
            <stop stop-color="#E395CE"/>
            <stop offset="0.5" stop-color="#84AFE8"/>
            <stop offset="1" stop-color="#6CE1EB"/>
        </linearGradient>
    </defs>
</svg>

