<svg width="100" height="100" viewBox="0 0 80 30" fill="none" xmlns="http://www.w3.org/2000/svg">
    <path d="M24.4322 4.3026C24.7905 4.3026 25.17 4.26232 25.581 4.19184C25.9921 4.12136 26.2872 4.04079 26.477 3.96024C26.7194 3.85955 26.9618 3.7488 27.2147 3.60784C27.4677 3.46688 27.6785 3.32591 27.8261 3.18495C27.9104 3.1044 28.0263 2.94329 28.1739 2.71171C28.3215 2.48012 28.4269 2.27875 28.4901 2.11765C28.5428 2.01696 28.585 1.84578 28.6271 1.59406C28.6693 1.34234 28.7009 1.14096 28.7115 1H32V20H28.079V7.04134H24V4.31266H24.4322V4.3026Z" fill="#0068B7"/>
    <path d="M35.1679 6.58066C35.2272 6.0867 35.2963 5.6453 35.3951 5.25644C35.4741 4.93064 35.5926 4.60484 35.7506 4.26852C35.9086 3.93221 36.0766 3.62744 36.2543 3.35418C36.3827 3.1545 36.5506 2.92329 36.7679 2.68156C36.9852 2.43984 37.2025 2.22965 37.4296 2.06149C37.6074 1.92487 37.8444 1.77773 38.1506 1.63059C38.4568 1.47294 38.7037 1.36785 38.9111 1.30479C39.1185 1.24173 39.4346 1.16816 39.8593 1.1051C40.284 1.04205 40.6198 1 40.8765 1C41.242 1 41.6667 1.03154 42.1407 1.1051C42.6148 1.16816 43.0099 1.26275 43.316 1.38887C43.6321 1.50448 43.9679 1.67262 44.3234 1.88281C44.6691 2.09301 44.9753 2.32424 45.2321 2.55545C45.5185 2.8287 45.7753 3.12296 46.0123 3.45927C46.2395 3.78507 46.4271 4.12139 46.5457 4.46821C46.6741 4.82554 46.7827 5.22491 46.8716 5.66632C46.9605 6.10773 47 6.51761 47 6.91698C47 7.31635 46.9506 7.77877 46.842 8.32528C46.7333 8.87178 46.6247 9.32371 46.4963 9.66002C46.3876 9.9648 46.2296 10.2696 46.042 10.5639C45.8543 10.8581 45.6469 11.1209 45.4494 11.3416C45.2617 11.5623 45.0543 11.7725 44.837 11.9722C44.6198 12.1718 44.4123 12.3715 44.2049 12.5607C43.9975 12.7289 43.7506 12.9285 43.4741 13.1598C43.1975 13.391 42.9407 13.6012 42.7234 13.7798C42.4963 13.969 42.279 14.1582 42.0617 14.3473C41.8445 14.547 41.6469 14.7362 41.4494 14.9149C41.2617 15.083 41.0839 15.2512 40.9358 15.4088C40.7877 15.5665 40.6395 15.7451 40.4914 15.9343C40.363 16.092 40.2445 16.2391 40.1457 16.3968C40.0469 16.5544 39.9482 16.691 39.8691 16.8276C39.8099 16.9432 39.7407 17.0694 39.6617 17.206C39.5926 17.3426 39.5432 17.4372 39.5334 17.4898H46.9407V21H35C35.0198 20.7583 35.0395 20.4535 35.0593 20.0752C35.079 19.6968 35.1185 19.371 35.1679 19.0977C35.1975 18.856 35.2667 18.5407 35.3556 18.1414C35.4543 17.742 35.5531 17.3847 35.6617 17.0589C35.7901 16.7751 35.9482 16.4283 36.1556 16.0184C36.3531 15.6085 36.5605 15.2512 36.7877 14.9254C37.0148 14.6206 37.2716 14.2843 37.5778 13.9059C37.884 13.5381 38.1901 13.1808 38.5062 12.8655C38.7333 12.6238 39.0197 12.34 39.3852 12.0142C39.7506 11.6884 40.0667 11.4046 40.3136 11.1839C40.5506 10.9842 40.837 10.7425 41.1728 10.4587C41.5086 10.175 41.7753 9.93326 41.9827 9.73358C42.1901 9.53389 42.3876 9.29218 42.5654 9.01892C42.7531 8.74567 42.8815 8.50395 42.9605 8.28325C43.0593 8.06254 43.1284 7.7998 43.1778 7.49502C43.2272 7.19023 43.2469 6.90646 43.2469 6.63321C43.2469 6.44404 43.1975 6.20232 43.0988 5.89753C43 5.59275 42.8321 5.29847 42.595 5.0042C42.3876 4.76248 42.121 4.59432 41.7951 4.47872C41.4691 4.37362 41.1728 4.31057 40.9259 4.31057C40.7185 4.31057 40.5012 4.35261 40.2839 4.43668C40.0568 4.52076 39.8691 4.62585 39.7111 4.74146C39.563 4.84656 39.4346 4.98319 39.3062 5.16186C39.1778 5.34052 39.079 5.51919 39 5.70837C38.9408 5.84499 38.8716 6.02365 38.8222 6.25486C38.763 6.48607 38.7235 6.68577 38.6938 6.85392C38.6741 7.05361 38.6642 7.2638 38.6444 7.46349C38.6247 7.66317 38.6247 7.83132 38.6247 7.96795H35.0889C35.0889 7.54756 35.1185 7.08514 35.1679 6.59118V6.58066Z" fill="#0068B7"/>
    <path d="M55.0993 9.06601C55.2075 9.06601 55.365 9.066 55.5521 9.04537C55.7391 9.02474 55.9065 9.01444 56.0541 8.99381C56.1821 8.96287 56.3298 8.91129 56.4971 8.85972C56.6645 8.79783 56.8121 8.72563 56.9401 8.62249C57.0484 8.53997 57.1665 8.43681 57.2945 8.30272C57.4225 8.16863 57.5209 8.02424 57.58 7.87983C57.6587 7.74574 57.7276 7.54976 57.7867 7.29189C57.8458 7.03403 57.8655 6.77616 57.8655 6.52861C57.8655 6.25011 57.8162 5.95101 57.7079 5.64157C57.5997 5.33213 57.4914 5.09489 57.3634 4.92986C57.2059 4.71325 56.9893 4.53789 56.7039 4.4038C56.4282 4.26971 56.1526 4.20782 55.8868 4.20782C55.7096 4.20782 55.5324 4.22846 55.3552 4.28003C55.1682 4.33161 55.0205 4.3935 54.8925 4.47601C54.735 4.5379 54.5874 4.64104 54.4594 4.77513C54.3314 4.90922 54.233 5.04331 54.1542 5.1774C54.0755 5.31149 54.0066 5.46622 53.9377 5.64157C53.8786 5.81692 53.8294 5.97163 53.79 6.10572C53.7605 6.23981 53.7309 6.42547 53.7112 6.6627C53.6915 6.89994 53.6718 7.06497 53.6718 7.14749H50.2953C50.2953 6.73491 50.3249 6.30169 50.3938 5.85817C50.4528 5.41464 50.5414 5.04331 50.63 4.72355C50.7383 4.4038 50.8958 4.08406 51.0829 3.73336C51.2699 3.39298 51.4963 3.08354 51.7523 2.79473C51.9787 2.52655 52.2445 2.279 52.5595 2.04177C52.8745 1.80453 53.1895 1.62919 53.4848 1.4951C53.7998 1.36101 54.2133 1.24755 54.7252 1.1444C55.2371 1.04126 55.6899 1 56.1033 1C56.3691 1 56.7039 1.04124 57.1075 1.11345C57.5012 1.18565 57.8261 1.26818 58.082 1.35069C58.3675 1.46415 58.653 1.60855 58.9483 1.76327C59.2436 1.91799 59.4897 2.08302 59.6965 2.24806C59.9623 2.46466 60.228 2.73285 60.4741 3.04229C60.7202 3.36204 60.9171 3.66116 61.0549 3.96028C61.1928 4.25941 61.3109 4.65137 61.3995 5.12584C61.4881 5.60031 61.5275 6.02321 61.5275 6.41516C61.5275 6.66271 61.4881 6.99277 61.4192 7.41566C61.3503 7.82825 61.2519 8.14801 61.1436 8.36462C61.0353 8.58123 60.9171 8.77719 60.799 8.96285C60.6809 9.14852 60.5431 9.31356 60.3855 9.45796C60.2576 9.61268 60.1099 9.74676 59.9327 9.88085C59.7555 10.0149 59.598 10.1181 59.4602 10.2006C59.6079 10.2625 59.7457 10.3347 59.8737 10.3966C60.0115 10.4585 60.1493 10.5513 60.2871 10.6751C60.5726 10.8917 60.8384 11.1496 61.0746 11.459C61.3109 11.7684 61.4881 12.0572 61.5964 12.3461C61.7244 12.6245 61.8228 13.0165 61.8917 13.491C61.9606 13.9757 62 14.378 62 14.7184C62 15.1207 61.9606 15.5745 61.8819 16.0799C61.8031 16.5853 61.6948 17.0082 61.5767 17.3383C61.4487 17.6684 61.2814 18.0088 61.0746 18.3388C60.8679 18.6689 60.6317 18.9783 60.356 19.2568C60.1198 19.5044 59.8343 19.7416 59.5094 19.9685C59.1846 20.1955 58.8695 20.3708 58.5644 20.5049C58.2198 20.6493 57.7965 20.7731 57.3043 20.8659C56.8121 20.9587 56.4085 21 56.0935 21C55.7293 21 55.2568 20.9587 54.676 20.8762C54.0952 20.7937 53.5636 20.639 53.0714 20.4224C52.7268 20.2573 52.3823 20.0304 52.0476 19.7519C51.7129 19.4734 51.4569 19.2156 51.26 18.999C51.0533 18.7514 50.8663 18.4523 50.6989 18.1016C50.5316 17.7509 50.4134 17.4312 50.3347 17.132C50.2363 16.771 50.1575 16.3378 50.0984 15.8324C50.0394 15.3373 50 14.8628 50 14.4399H53.5242C53.5242 14.5534 53.5242 14.7184 53.5439 14.9144C53.5636 15.1104 53.5734 15.2754 53.5931 15.4095C53.6226 15.5951 53.6718 15.7705 53.7408 15.9562C53.7998 16.1418 53.8687 16.3069 53.9278 16.4513C54.0066 16.606 54.1148 16.7607 54.233 16.936C54.3609 17.1114 54.4988 17.2558 54.6661 17.3693C54.8433 17.4827 55.05 17.5756 55.306 17.6478C55.5619 17.7096 55.7687 17.7509 55.9262 17.7509C56.1132 17.7509 56.3396 17.7096 56.6054 17.6374C56.8712 17.5652 57.0976 17.4415 57.3043 17.2764C57.452 17.163 57.58 17.0186 57.6981 16.8535C57.8162 16.6885 57.9245 16.4925 58.023 16.2759C58.1017 16.0903 58.1706 15.8633 58.21 15.5848C58.2592 15.3063 58.2789 15.0175 58.2789 14.6978C58.2789 14.4296 58.2395 14.1614 58.1608 13.8726C58.082 13.5941 58.0033 13.3878 57.9245 13.2744C57.8162 13.0887 57.6686 12.934 57.4914 12.7896C57.3142 12.6452 57.1468 12.5317 56.9696 12.4492C56.8417 12.3873 56.6448 12.3151 56.3593 12.2532C56.0837 12.1913 55.8671 12.1501 55.6998 12.1294C55.5423 12.1088 55.3355 12.0985 55.0697 12.0882C54.8039 12.0882 54.5873 12.0779 54.4102 12.0779V9.03506H55.0796L55.0993 9.06601Z" fill="#0068B7"/>
    <path d="M64.1576 8.04487C64.2562 7.13719 64.3843 6.40485 64.5222 5.83755C64.6207 5.45591 64.7685 5.01238 64.9655 4.51728C65.1626 4.02218 65.3695 3.60959 65.5764 3.28984C65.7833 2.97009 66.069 2.65034 66.4335 2.33059C66.798 2.01084 67.1429 1.76328 67.4581 1.59825C67.7241 1.46416 68.0985 1.33007 68.5616 1.19598C69.0345 1.06189 69.5074 1 70 1C70.4926 1 70.9754 1.06189 71.4384 1.19598C71.9113 1.33007 72.2759 1.46416 72.5419 1.59825C72.8571 1.76328 73.202 2.01084 73.5665 2.33059C73.931 2.65034 74.2167 2.9804 74.4236 3.28984C74.6502 3.60959 74.8571 4.01187 75.0443 4.51728C75.2315 5.01238 75.3793 5.45591 75.4778 5.83755C75.6256 6.40485 75.7438 7.13719 75.8424 8.04487C75.9409 8.95256 76 9.93244 76 11.0052C76 12.0779 75.9507 13.0475 75.8424 13.9448C75.734 14.8422 75.6158 15.5848 75.4778 16.1625C75.3793 16.5235 75.2414 16.9567 75.0443 17.4621C74.8571 17.9572 74.6502 18.3801 74.4236 18.7102C74.2167 19.0299 73.931 19.3497 73.5665 19.6694C73.202 19.9892 72.8571 20.2367 72.5419 20.4018C72.2759 20.5358 71.9015 20.6699 71.4384 20.804C70.9655 20.9381 70.4926 21 70 21C69.5074 21 69.0246 20.9381 68.5616 20.804C68.0887 20.6699 67.7241 20.5358 67.4581 20.4018C67.1429 20.2367 66.798 19.9892 66.4335 19.6694C66.069 19.3497 65.7833 19.0299 65.5764 18.7102C65.3695 18.3801 65.1626 17.9572 64.9655 17.4621C64.7685 16.967 64.6207 16.5338 64.5222 16.1625C64.3843 15.5848 64.2562 14.8422 64.1576 13.9448C64.0493 13.0475 64 12.0676 64 11.0052C64 9.94275 64.0493 8.95256 64.1576 8.04487ZM67.7635 12.6349C67.7931 13.2125 67.8227 13.6663 67.8621 13.9964C67.8916 14.2439 67.9508 14.6256 68.0296 15.131C68.1084 15.6364 68.2069 16.0181 68.3153 16.2656C68.3941 16.4822 68.5123 16.7091 68.6601 16.936C68.8079 17.1733 68.9754 17.3486 69.1527 17.4827C69.2611 17.5446 69.399 17.6065 69.5567 17.6684C69.7143 17.7303 69.8621 17.7509 70.0098 17.7509C70.1576 17.7509 70.3054 17.72 70.4631 17.6684C70.6207 17.6065 70.7586 17.5446 70.867 17.4827C71.0443 17.3486 71.202 17.163 71.3596 16.936C71.5074 16.6988 71.6256 16.4822 71.7044 16.2656C71.8128 16.0181 71.9113 15.6364 72 15.131C72.0887 14.6256 72.1379 14.2439 72.1576 13.9964C72.1872 13.6663 72.2167 13.2125 72.2561 12.6349C72.2857 12.0572 72.3054 11.5209 72.3054 11.0052C72.3054 10.4894 72.2857 9.92213 72.2561 9.35483C72.2266 8.78753 72.1971 8.344 72.1576 8.00362C72.1379 7.75607 72.0887 7.37442 72 6.86901C71.9113 6.36359 71.8128 5.98195 71.7044 5.7344C71.6256 5.49716 71.5074 5.27025 71.3596 5.03301C71.2118 4.79577 71.0443 4.63075 70.867 4.50697C70.7586 4.42446 70.6207 4.36257 70.4631 4.31099C70.3054 4.25942 70.1576 4.23878 70.0098 4.23878C69.8621 4.23878 69.7143 4.25942 69.5567 4.31099C69.399 4.36257 69.2611 4.42446 69.1527 4.50697C68.9754 4.62043 68.8177 4.79577 68.6601 5.03301C68.5123 5.27025 68.3941 5.49716 68.3153 5.7344C68.2069 5.98195 68.1084 6.36359 68.0296 6.86901C67.9508 7.37442 67.8916 7.75607 67.8621 8.00362C67.8325 8.33369 67.803 8.78753 67.7635 9.35483C67.734 9.92213 67.7143 10.4688 67.7143 11.0052C67.7143 11.5415 67.734 12.0676 67.7635 12.6349Z" fill="#0068B7"/>
    <path d="M20.553 7.33848H15.7153C14.8907 5.72462 13.0331 4.48632 10.6391 4.48632C7.06291 4.48632 4.40066 7.41968 4.40066 11.5C4.40066 15.5803 7.06291 18.5949 10.6391 18.5949C13.7086 18.5949 15.8444 16.504 16.3013 14.3522H10.2815V10.2109H21V11.5C21 18.1381 16.5199 23 10.5497 23C4.57947 23 0 18.1381 0 11.5C0 4.86187 4.48013 0 10.5497 0C15.7053 0 19.4305 3.22771 20.5629 7.33848H20.553Z" fill="#0068B7"/>
</svg>
