<svg width="71" height="39" viewBox="0 0 71 39" fill="none" xmlns="http://www.w3.org/2000/svg">
<rect x="0.304688" width="29.0604" height="35.2434" fill="#000000"/>
<rect x="-17.8438" y="14.9619" width="36.0399" height="11.8854" transform="rotate(-48.0773 -17.8438 14.9619)" fill="#F4F4F4"/>
<path d="M11.2841 10.8534C11.2843 11.9581 10.3888 12.8537 9.28411 12.8537L-0.000892448 12.8537L11.2824 0.308644L11.2841 10.8534Z" fill="white"/>
<path d="M44.2291 25H54.2311V22.5566H48.026L54.2311 13.9961V12.2734H44.2291V14.7168H50.4518L44.2291 23.2773V25ZM58.7227 12.2734H55.7344V25H58.7227V12.2734ZM60.2962 25H63.2845V21.0098H65.4115C68.3295 21.0098 70.1312 19.2783 70.1224 16.6504C70.1312 14.0576 68.3646 12.2734 65.4994 12.2734H60.2962V25ZM63.2845 18.6367V14.6992H64.8666C66.2816 14.6992 67.0287 15.4639 67.0287 16.6504C67.0287 17.8545 66.2816 18.6455 64.8666 18.6367H63.2845Z" fill="black"/>
<circle cx="28.5" cy="30.5" r="8.5" fill="white"/>
<rect x="31.1211" y="32.8057" width="5.20701" height="6.94268" rx="0.578557" transform="rotate(-180 31.1211 32.8057)" fill="#000000"/>
<path d="M28.8975 36.4811C28.6746 36.6917 28.3259 36.6917 28.1029 36.4811L24.0463 32.6485C23.6658 32.2891 23.9202 31.6494 24.4436 31.6494L32.5569 31.6494C33.0803 31.6494 33.3346 32.2891 32.9542 32.6485L28.8975 36.4811Z" fill="#000000"/>
</svg>
