<svg width="17" height="19" viewBox="0 0 17 19" fill="none" xmlns="http://www.w3.org/2000/svg">
<path fill-rule="evenodd" clip-rule="evenodd" d="M6.03344 1C4.92887 1 4.03344 1.89543 4.03344 3V9.00049H3.00791C1.15614 9.00049 0.298803 11.3001 1.69861 12.5123L6.72646 16.8666C7.478 17.5175 8.59353 17.5174 9.34507 16.8666L14.3729 12.5123C15.7727 11.3001 14.9154 9.00049 13.0636 9.00049H12.0334V3C12.0334 1.89543 11.138 1 10.0334 1H6.03344Z" fill="#D7000F"/>
<path d="M4.03344 9.00049V10.0005H5.03344V9.00049H4.03344ZM1.69861 12.5123L1.04396 13.2683H1.04396L1.69861 12.5123ZM6.72646 16.8666L7.38111 16.1107H7.38111L6.72646 16.8666ZM9.34507 16.8666L9.99973 17.6225L9.34507 16.8666ZM14.3729 12.5123L13.7183 11.7564L14.3729 12.5123ZM13.0636 9.00049L13.0636 8.00049H13.0636V9.00049ZM12.0334 9.00049H11.0334V10.0005H12.0334V9.00049ZM5.03344 3C5.03344 2.44772 5.48116 2 6.03344 2V0C4.37659 0 3.03344 1.34315 3.03344 3H5.03344ZM5.03344 9.00049V3H3.03344V9.00049H5.03344ZM3.00791 10.0005H4.03344V8.00049H3.00791V10.0005ZM2.35326 11.7564C1.65335 11.1503 2.08203 10.0005 3.00791 10.0005V8.00049C0.230251 8.00049 -1.05575 11.4499 1.04396 13.2683L2.35326 11.7564ZM7.38111 16.1107L2.35326 11.7564L1.04396 13.2683L6.0718 17.6225L7.38111 16.1107ZM8.69042 16.1107C8.31465 16.4361 7.75688 16.4361 7.38111 16.1107L6.0718 17.6225C7.19912 18.5988 8.87241 18.5988 9.99973 17.6225L8.69042 16.1107ZM13.7183 11.7564L8.69042 16.1107L9.99973 17.6225L15.0276 13.2683L13.7183 11.7564ZM13.0636 10.0005C13.9895 10.0005 14.4182 11.1503 13.7183 11.7564L15.0276 13.2683C17.1273 11.4499 15.8413 8.00049 13.0636 8.00049L13.0636 10.0005ZM12.0334 10.0005H13.0636V8.00049H12.0334V10.0005ZM11.0334 3V9.00049H13.0334V3H11.0334ZM10.0334 2C10.5857 2 11.0334 2.44772 11.0334 3H13.0334C13.0334 1.34315 11.6903 0 10.0334 0V2ZM6.03344 2H10.0334V0H6.03344V2Z" fill="white"/>
</svg>
