<svg width="66" height="43" viewBox="0 0 66 43" fill="none" xmlns="http://www.w3.org/2000/svg">
<path fill-rule="evenodd" clip-rule="evenodd" d="M16.3441 41.1256C23.236 41.1256 28.9927 36.2651 30.3732 29.7849H41.9316V33.6489C41.9316 33.8649 42.1067 34.0399 42.3226 34.0399H48.7415C48.9574 34.0399 49.1325 33.8649 49.1325 33.6489V29.7849H50.3802C50.5961 29.7849 50.7711 29.6099 50.7711 29.3939V22.6477C50.7711 22.4318 50.5961 22.2567 50.3802 22.2567H29.9599C28.065 16.5519 22.685 12.4375 16.3441 12.4375C8.42206 12.4375 2 18.8596 2 26.7816C2 34.7036 8.42206 41.1256 16.3441 41.1256Z" fill="#33A2F3"/>
<path d="M30.3732 29.7849V28.6744H29.4743L29.287 29.5535L30.3732 29.7849ZM41.9316 29.7849H43.0422V28.6744H41.9316V29.7849ZM49.1325 29.7849V28.6744H48.0219V29.7849H49.1325ZM29.9599 22.2567L28.9059 22.6068L29.1585 23.3673H29.9599V22.2567ZM29.287 29.5535C28.0135 35.5316 22.7011 40.0151 16.3441 40.0151V42.2362C23.7709 42.2362 29.9719 36.9985 31.4594 30.0163L29.287 29.5535ZM41.9316 28.6744H30.3732V30.8955H41.9316V28.6744ZM43.0422 33.6489V29.7849H40.821V33.6489H43.0422ZM42.3226 32.9293C42.72 32.9293 43.0422 33.2515 43.0422 33.6489H40.821C40.821 34.4782 41.4933 35.1505 42.3226 35.1505V32.9293ZM48.7415 32.9293H42.3226V35.1505H48.7415V32.9293ZM48.0219 33.6489C48.0219 33.2515 48.3441 32.9293 48.7415 32.9293V35.1505C49.5707 35.1505 50.243 34.4782 50.243 33.6489H48.0219ZM48.0219 29.7849V33.6489H50.243V29.7849H48.0219ZM50.3802 28.6744H49.1325V30.8955H50.3802V28.6744ZM49.6606 29.3939C49.6606 28.9965 49.9827 28.6744 50.3802 28.6744V30.8955C51.2094 30.8955 51.8817 30.2232 51.8817 29.3939H49.6606ZM49.6606 22.6477V29.3939H51.8817V22.6477H49.6606ZM50.3802 23.3673C49.9827 23.3673 49.6606 23.0451 49.6606 22.6477H51.8817C51.8817 21.8184 51.2094 21.1462 50.3802 21.1462V23.3673ZM29.9599 23.3673H50.3802V21.1462H29.9599V23.3673ZM16.3441 13.5481C22.1924 13.5481 27.1573 17.3425 28.9059 22.6068L31.0138 21.9067C28.9726 15.7614 23.1777 11.3269 16.3441 11.3269V13.5481ZM3.11055 26.7816C3.11055 19.4729 9.0354 13.5481 16.3441 13.5481V11.3269C7.80872 11.3269 0.889447 18.2462 0.889447 26.7816H3.11055ZM16.3441 40.0151C9.0354 40.0151 3.11055 34.0902 3.11055 26.7816H0.889447C0.889447 35.3169 7.80872 42.2362 16.3441 42.2362V40.0151Z" fill="white"/>
<circle cx="16.4038" cy="26.8394" r="6.02023" fill="#33A2F3" stroke="white" stroke-width="2.22111"/>
<line x1="57.7058" y1="2.96881" x2="52.0872" y2="15.5514" stroke="white" stroke-width="2.22111" stroke-linecap="round"/>
<line x1="48.3123" y1="6.73403" x2="46.78" y2="14.1558" stroke="white" stroke-width="2.22111" stroke-linecap="round"/>
<line x1="60.3359" y1="14.2922" x2="56.1463" y2="18.19" stroke="white" stroke-width="2.22111" stroke-linecap="round"/>
<line x1="64.4568" y1="10.8128" x2="63.448" y2="11.6613" stroke="white" stroke-width="2.22111" stroke-linecap="round"/>
</svg>
