<svg width="73" height="53" viewBox="0 0 73 53" fill="none" xmlns="http://www.w3.org/2000/svg">
<path d="M51.2101 19.0748C47.2639 19.8962 44.0747 23.0693 43.2372 27.0316C42.5285 30.3818 43.3983 33.7482 45.6371 36.2609C46.7324 37.485 47.3605 39.1118 47.3605 40.7064V42.446C47.3605 43.6218 48.1176 44.6043 49.1645 44.9426C49.5189 46.972 51.2906 48.6149 53.4651 48.6149C55.6556 48.6149 57.4274 46.972 57.7657 44.9426C58.8126 44.5882 59.5696 43.6218 59.5696 42.446V40.7064C59.5696 39.0957 60.1978 37.5011 61.3414 36.1804C63.0165 34.2797 63.9346 31.8315 63.9346 29.2866C63.9346 22.7149 57.8784 17.6896 51.2101 19.0748Z" stroke="white" stroke-width="2.41604" stroke-linecap="round" stroke-linejoin="round"/>
<path d="M53.4512 23.8125C56.4954 23.8125 58.9759 26.293 58.9759 29.3211" stroke="white" stroke-width="2.41604" stroke-linecap="round" stroke-linejoin="round"/>
<path d="M48.4883 43.6855H58.4262" stroke="white" stroke-width="2.41604" stroke-linecap="round" stroke-linejoin="round"/>
<path d="M47.6797 38.7109H59.3336" stroke="white" stroke-width="2.41604" stroke-linecap="round" stroke-linejoin="round"/>
<path d="M26.0782 28.7359H16.7319C15.2693 28.7359 14.0742 27.5408 14.0742 26.0782V16.7319C14.0742 15.2693 15.2693 14.0742 16.7319 14.0742H26.0782C27.5408 14.0742 28.7359 15.2693 28.7359 16.7319V26.0782C28.7359 27.5408 27.5408 28.7359 26.0782 28.7359Z" stroke="white" stroke-width="2.41604" stroke-linecap="round" stroke-linejoin="round"/>
<path d="M29.5737 34.2291H13.2354C10.667 34.2291 8.58008 32.1422 8.58008 29.5737V13.2354C8.58008 10.667 10.667 8.58008 13.2354 8.58008H29.5737C32.1422 8.58008 34.2291 10.667 34.2291 13.2354V29.5737C34.2291 32.1422 32.1422 34.2291 29.5737 34.2291Z" stroke="white" stroke-width="2.41604" stroke-linecap="round" stroke-linejoin="round"/>
<path d="M37.9028 21.4043H34.2285" stroke="white" stroke-width="2.41604" stroke-linecap="round" stroke-linejoin="round"/>
<path d="M37.9028 30.5684H34.2285" stroke="white" stroke-width="2.41604" stroke-linecap="round" stroke-linejoin="round"/>
<path d="M37.9028 21.4043H34.2285" stroke="white" stroke-width="2.41604" stroke-linecap="round" stroke-linejoin="round"/>
<path d="M37.9028 12.2344H34.2285" stroke="white" stroke-width="2.41604" stroke-linecap="round" stroke-linejoin="round"/>
<path d="M4.90625 21.4043H8.58058" stroke="white" stroke-width="2.41604" stroke-linecap="round" stroke-linejoin="round"/>
<path d="M4.90625 30.5684H8.58058" stroke="white" stroke-width="2.41604" stroke-linecap="round" stroke-linejoin="round"/>
<path d="M4.90625 21.4043H8.58058" stroke="white" stroke-width="2.41604" stroke-linecap="round" stroke-linejoin="round"/>
<path d="M4.90625 12.2344H8.58058" stroke="white" stroke-width="2.41604" stroke-linecap="round" stroke-linejoin="round"/>
<path d="M21.4043 4.9043V8.57863" stroke="white" stroke-width="2.41604" stroke-linecap="round" stroke-linejoin="round"/>
<path d="M30.5684 4.9043V8.57863" stroke="white" stroke-width="2.41604" stroke-linecap="round" stroke-linejoin="round"/>
<path d="M21.4043 4.9043V8.57863" stroke="white" stroke-width="2.41604" stroke-linecap="round" stroke-linejoin="round"/>
<path d="M12.2344 4.9043V8.57863" stroke="white" stroke-width="2.41604" stroke-linecap="round" stroke-linejoin="round"/>
<path d="M21.4043 37.9048V34.2305" stroke="white" stroke-width="2.41604" stroke-linecap="round" stroke-linejoin="round"/>
<path d="M30.5684 37.9048V34.2305" stroke="white" stroke-width="2.41604" stroke-linecap="round" stroke-linejoin="round"/>
<path d="M21.4043 37.9048V34.2305" stroke="white" stroke-width="2.41604" stroke-linecap="round" stroke-linejoin="round"/>
<path d="M12.2344 37.9048V34.2305" stroke="white" stroke-width="2.41604" stroke-linecap="round" stroke-linejoin="round"/>
</svg>
