<svg width="58" height="53" viewBox="0 0 58 53" fill="none" xmlns="http://www.w3.org/2000/svg">
<circle cx="9.45771" cy="9.45771" r="1.8913" fill="white"/>
<circle cx="14.4987" cy="9.45771" r="1.8913" fill="white"/>
<circle cx="19.5436" cy="9.45771" r="1.8913" fill="white"/>
<path fill-rule="evenodd" clip-rule="evenodd" d="M7.32565 3.13957H48.783C51.095 3.13957 52.9691 5.01375 52.9691 7.32565V25.7032C54.1286 26.2439 55.1871 26.9647 56.1087 27.8298V7.32565C56.1087 3.27981 52.8289 0 48.783 0H7.32565C3.27981 0 0 3.27981 0 7.32565V33.6526C0 37.6985 3.27981 40.9783 7.32566 40.9783H36.7736C36.3816 39.9895 36.1173 38.9362 36.0013 37.8387H7.32566C5.01374 37.8387 3.13957 35.9645 3.13957 33.6526V7.32565C3.13957 5.01374 5.01374 3.13957 7.32565 3.13957Z" fill="white"/>
<circle cx="47.9131" cy="36.5655" r="8.51717" fill="#092F56" stroke="white" stroke-width="3.13957"/>
<path d="M11.3477 27.7383L14.9308 23.755C15.7347 22.8613 17.2172 23.43 17.2172 24.6321V24.6321C17.2172 25.7919 18.6121 26.3808 19.4433 25.5719L24.5908 20.5625C25.4538 19.7227 26.902 20.3341 26.902 21.5382V21.5382C26.902 22.6977 28.2588 23.3266 29.1436 22.5772L34.733 17.843C35.598 17.1104 36.9119 17.8241 36.7682 18.9485V18.9485C36.6166 20.1346 38.0638 20.8291 38.8942 19.9688L45.3911 13.2383" stroke="white" stroke-width="3.13957" stroke-linecap="round"/>
<line x1="40.5412" y1="50.1493" x2="43.8431" y2="45.1963" stroke="white" stroke-width="3.13957" stroke-linecap="round"/>
</svg>
