<svg width="65" height="57" viewBox="0 0 65 57" fill="none" xmlns="http://www.w3.org/2000/svg">
<mask id="path-1-outside-1_0_1" maskUnits="userSpaceOnUse" x="24" y="30.1895" width="41" height="27" fill="black">
<rect fill="white" x="24" y="30.1895" width="41" height="27"/>
<path fill-rule="evenodd" clip-rule="evenodd" d="M44.5756 54.7324C34.9524 54.7324 27.1512 49.9098 27.1512 43.9609C27.1512 38.012 34.9524 33.1895 44.5756 33.1895C54.1988 33.1895 62 38.012 62 43.9609C62 46.2627 60.832 48.3959 58.8424 50.1464L59.3536 53.3419C59.4693 54.0647 58.7357 54.6381 58.0066 54.395L53.9502 53.0421C51.2435 54.1121 48.0267 54.7324 44.5756 54.7324Z"/>
</mask>
<path d="M58.8424 50.1464L56.6207 50.5018C56.4987 49.7392 56.7764 48.9673 57.3562 48.4571L58.8424 50.1464ZM59.3536 53.3419L57.1319 53.6973V53.6973L59.3536 53.3419ZM58.0066 54.395L57.2948 56.5294L58.0066 54.395ZM53.9502 53.0421L53.123 50.9497C53.6151 50.7552 54.16 50.7403 54.662 50.9077L53.9502 53.0421ZM29.4012 43.9609C29.4012 45.8676 30.659 47.9458 33.4378 49.6636C36.1816 51.3598 40.1137 52.4824 44.5756 52.4824V56.9824C39.4143 56.9824 34.6341 55.6936 31.0716 53.4913C27.544 51.3106 24.9012 48.0031 24.9012 43.9609H29.4012ZM44.5756 35.4395C40.1137 35.4395 36.1816 36.562 33.4378 38.2582C30.659 39.976 29.4012 42.0542 29.4012 43.9609H24.9012C24.9012 39.9187 27.544 36.6112 31.0716 34.4305C34.6341 32.2282 39.4143 30.9395 44.5756 30.9395V35.4395ZM59.75 43.9609C59.75 42.0542 58.4922 39.976 55.7134 38.2582C52.9696 36.562 49.0375 35.4395 44.5756 35.4395V30.9395C49.7369 30.9395 54.517 32.2282 58.0796 34.4305C61.6072 36.6112 64.25 39.9187 64.25 43.9609H59.75ZM57.3562 48.4571C59.0041 47.0073 59.75 45.4464 59.75 43.9609H64.25C64.25 47.0791 62.66 49.7846 60.3287 51.8357L57.3562 48.4571ZM57.1319 53.6973L56.6207 50.5018L61.0642 49.791L61.5754 52.9865L57.1319 53.6973ZM58.7184 52.2605C58.3376 52.1335 57.9203 52.2164 57.6112 52.458C57.2949 52.7052 57.0471 53.1673 57.1319 53.6973L61.5754 52.9865C61.9942 55.6044 59.4028 57.2324 57.2948 56.5294L58.7184 52.2605ZM54.662 50.9077L58.7184 52.2605L57.2948 56.5294L53.2383 55.1766L54.662 50.9077ZM44.5756 52.4824C47.7645 52.4824 50.6985 51.9081 53.123 50.9497L54.7774 55.1346C51.7885 56.3161 48.2889 56.9824 44.5756 56.9824V52.4824Z" fill="white" mask="url(#path-1-outside-1_0_1)"/>
<mask id="path-3-outside-2_0_1" maskUnits="userSpaceOnUse" x="0" y="0" width="47" height="27" fill="black">
<rect fill="white" width="47" height="27"/>
<path fill-rule="evenodd" clip-rule="evenodd" d="M23.3782 24.5429C34.6327 24.5429 43.7563 19.7204 43.7563 13.7715C43.7563 7.82254 34.6327 3 23.3782 3C12.1236 3 3 7.82254 3 13.7715C3 16.0732 4.36588 18.2064 6.6926 19.9568L6.06359 23.3188C5.94087 23.9748 6.69995 24.4822 7.47384 24.2615L12.4143 22.8526C15.5798 23.9227 19.342 24.5429 23.3782 24.5429Z"/>
</mask>
<path d="M6.6926 19.9568L8.90422 20.3705C9.06149 19.5299 8.72863 18.6729 8.04525 18.1588L6.6926 19.9568ZM6.06359 23.3188L8.27522 23.7326V23.7326L6.06359 23.3188ZM7.47384 24.2615L6.85682 22.0977H6.85681L7.47384 24.2615ZM12.4143 22.8526L13.1348 20.7211C12.7025 20.575 12.2361 20.5638 11.7973 20.6889L12.4143 22.8526ZM41.5063 13.7715C41.5063 15.5 40.1412 17.5991 36.7363 19.3988C33.4329 21.1449 28.7139 22.2929 23.3782 22.2929V26.7929C29.297 26.7929 34.7671 25.5296 38.8392 23.3772C42.8097 21.2785 46.0063 17.9919 46.0063 13.7715H41.5063ZM23.3782 5.25C28.7139 5.25 33.4329 6.39801 36.7363 8.14409C40.1412 9.94384 41.5063 12.0429 41.5063 13.7715H46.0063C46.0063 9.55105 42.8097 6.26443 38.8392 4.16568C34.7671 2.01326 29.297 0.75 23.3782 0.75V5.25ZM5.25 13.7715C5.25 12.0429 6.61519 9.94384 10.0201 8.14409C13.3234 6.39801 18.0424 5.25 23.3782 5.25V0.75C17.4594 0.75 11.9893 2.01326 7.91718 4.16568C3.94662 6.26443 0.75 9.55105 0.75 13.7715H5.25ZM8.04525 18.1588C6.04154 16.6513 5.25 15.1101 5.25 13.7715H0.75C0.75 17.0363 2.69023 19.7614 5.33994 21.7548L8.04525 18.1588ZM8.27522 23.7326L8.90422 20.3705L4.48097 19.543L3.85196 22.9051L8.27522 23.7326ZM6.85681 22.0977C7.0846 22.0328 7.38722 22.0507 7.68284 22.2483C7.99751 22.4586 8.41274 22.9975 8.27522 23.7326L3.85196 22.9051C3.59172 24.2961 4.32513 25.4166 5.18213 25.9895C6.02008 26.5496 7.08919 26.7109 8.09086 26.4252L6.85681 22.0977ZM11.7973 20.6889L6.85682 22.0977L8.09086 26.4252L13.0313 25.0164L11.7973 20.6889ZM23.3782 22.2929C19.5641 22.2929 16.0475 21.7057 13.1348 20.7211L11.6938 24.9842C15.1121 26.1396 19.1198 26.7929 23.3782 26.7929V22.2929Z" fill="white" mask="url(#path-3-outside-2_0_1)"/>
<circle cx="15.5" cy="13.9609" r="1.5" fill="white"/>
<circle cx="36.5" cy="43.9609" r="1.5" fill="white"/>
<circle cx="24.5" cy="13.9609" r="1.5" fill="white"/>
<circle cx="45.5" cy="43.9609" r="1.5" fill="white"/>
<circle cx="33.5" cy="13.9609" r="1.5" fill="white"/>
<circle cx="54.5" cy="43.9609" r="1.5" fill="white"/>
</svg>
