<svg width="74" height="63" viewBox="0 0 74 63" fill="none" xmlns="http://www.w3.org/2000/svg">
<mask id="path-1-outside-1_2646_2382" maskUnits="userSpaceOnUse" x="0" y="10.7988" width="39" height="39" fill="black">
<rect fill="white" y="10.7988" width="39" height="39"/>
<path fill-rule="evenodd" clip-rule="evenodd" d="M17.1523 14.7511C17.1523 14.2252 17.5787 13.7988 18.1046 13.7988H20.6874C21.2134 13.7988 21.6397 14.2252 21.6397 14.7511V16.8209C23.7129 17.1655 25.627 17.9805 27.2688 19.1524L28.733 17.6882C29.1049 17.3163 29.7079 17.3163 30.0798 17.6882L31.9061 19.5146C32.278 19.8864 32.278 20.4894 31.9061 20.8613L30.4421 22.3253C31.614 23.9665 32.4291 25.88 32.7742 27.9525H34.8422C35.3681 27.9525 35.7945 28.3788 35.7945 28.9047V31.4876C35.7945 32.0135 35.3681 32.4399 34.8422 32.4399H32.7742C32.4291 34.512 31.6141 36.4251 30.4425 38.0661L31.9072 39.5308C32.2791 39.9027 32.2791 40.5056 31.9072 40.8775L30.0809 42.7039C29.709 43.0758 29.106 43.0758 28.7341 42.7039L27.2694 41.2391C25.6274 42.4113 23.7131 43.2264 21.6397 43.5711V45.641C21.6397 46.1669 21.2134 46.5933 20.6874 46.5933H18.1046C17.5787 46.5933 17.1523 46.1669 17.1523 45.641V43.5698C15.0813 43.2244 13.1692 42.4095 11.529 41.2384L10.0636 42.7037C9.69176 43.0756 9.0888 43.0756 8.71691 42.7037L6.89057 40.8774C6.51868 40.5055 6.51868 39.9026 6.89057 39.5307L8.35618 38.0651C7.18496 36.4243 6.37028 34.5115 6.02527 32.4399H3.95229C3.42636 32.4399 3 32.0135 3 31.4876V28.9047C3 28.3788 3.42635 27.9525 3.95229 27.9525H6.02522C6.37023 25.8804 7.18509 23.9673 8.35659 22.3263L6.89166 20.8614C6.51977 20.4895 6.51977 19.8866 6.89166 19.5147L8.718 17.6883C9.08989 17.3164 9.69285 17.3164 10.0647 17.6883L11.5296 19.1532C13.1697 17.9822 15.0816 17.1675 17.1523 16.8221V14.7511Z"/>
</mask>
<path fill-rule="evenodd" clip-rule="evenodd" d="M17.1523 14.7511C17.1523 14.2252 17.5787 13.7988 18.1046 13.7988H20.6874C21.2134 13.7988 21.6397 14.2252 21.6397 14.7511V16.8209C23.7129 17.1655 25.627 17.9805 27.2688 19.1524L28.733 17.6882C29.1049 17.3163 29.7079 17.3163 30.0798 17.6882L31.9061 19.5146C32.278 19.8864 32.278 20.4894 31.9061 20.8613L30.4421 22.3253C31.614 23.9665 32.4291 25.88 32.7742 27.9525H34.8422C35.3681 27.9525 35.7945 28.3788 35.7945 28.9047V31.4876C35.7945 32.0135 35.3681 32.4399 34.8422 32.4399H32.7742C32.4291 34.512 31.6141 36.4251 30.4425 38.0661L31.9072 39.5308C32.2791 39.9027 32.2791 40.5056 31.9072 40.8775L30.0809 42.7039C29.709 43.0758 29.106 43.0758 28.7341 42.7039L27.2694 41.2391C25.6274 42.4113 23.7131 43.2264 21.6397 43.5711V45.641C21.6397 46.1669 21.2134 46.5933 20.6874 46.5933H18.1046C17.5787 46.5933 17.1523 46.1669 17.1523 45.641V43.5698C15.0813 43.2244 13.1692 42.4095 11.529 41.2384L10.0636 42.7037C9.69176 43.0756 9.0888 43.0756 8.71691 42.7037L6.89057 40.8774C6.51868 40.5055 6.51868 39.9026 6.89057 39.5307L8.35618 38.0651C7.18496 36.4243 6.37028 34.5115 6.02527 32.4399H3.95229C3.42636 32.4399 3 32.0135 3 31.4876V28.9047C3 28.3788 3.42635 27.9525 3.95229 27.9525H6.02522C6.37023 25.8804 7.18509 23.9673 8.35659 22.3263L6.89166 20.8614C6.51977 20.4895 6.51977 19.8866 6.89166 19.5147L8.718 17.6883C9.08989 17.3164 9.69285 17.3164 10.0647 17.6883L11.5296 19.1532C13.1697 17.9822 15.0816 17.1675 17.1523 16.8221V14.7511Z" fill="#0A4E94"/>
<path d="M21.6397 16.8209H18.6397V19.3634L21.1478 19.7803L21.6397 16.8209ZM27.2688 19.1524L25.5258 21.5942L27.5936 23.0702L29.3901 21.2738L27.2688 19.1524ZM28.733 17.6882L30.8543 19.8095L30.8543 19.8095L28.733 17.6882ZM30.0798 17.6882L32.2011 15.5669L32.2011 15.5669L30.0798 17.6882ZM31.9061 19.5146L29.7848 21.6359L29.7848 21.6359L31.9061 19.5146ZM31.9061 20.8613L29.7848 18.74L29.7848 18.74L31.9061 20.8613ZM30.4421 22.3253L28.3208 20.204L26.524 22.0007L28.0006 24.0686L30.4421 22.3253ZM32.7742 27.9525L29.815 28.4452L30.2324 30.9525H32.7742V27.9525ZM32.7742 32.4399V29.4399H30.2325L29.8149 31.947L32.7742 32.4399ZM30.4425 38.0661L28.0009 36.3229L26.5245 38.3908L28.3212 40.1874L30.4425 38.0661ZM31.9072 39.5308L29.7859 41.6521L29.7859 41.6521L31.9072 39.5308ZM28.7341 42.7039L26.6128 44.8252L26.6128 44.8252L28.7341 42.7039ZM27.2694 41.2391L29.3907 39.1178L27.5941 37.3212L25.5263 38.7975L27.2694 41.2391ZM21.6397 43.5711L21.1478 40.6117L18.6397 41.0286V43.5711H21.6397ZM17.1523 43.5698H20.1523V41.0288L17.6459 40.6107L17.1523 43.5698ZM11.529 41.2384L13.2724 38.7969L11.2044 37.3203L9.4077 39.117L11.529 41.2384ZM10.0636 42.7037L7.94233 40.5824L7.94233 40.5824L10.0636 42.7037ZM8.71691 42.7037L10.8382 40.5824L10.8382 40.5824L8.71691 42.7037ZM6.89057 40.8774L9.01189 38.7561L9.01189 38.7561L6.89057 40.8774ZM6.89057 39.5307L4.76925 37.4093L4.76925 37.4093L6.89057 39.5307ZM8.35618 38.0651L10.4775 40.1864L12.274 38.3899L10.7979 36.3221L8.35618 38.0651ZM6.02527 32.4399L8.98452 31.947L8.56699 29.4399H6.02527V32.4399ZM6.02522 27.9525V30.9525H8.567L8.98448 28.4452L6.02522 27.9525ZM8.35659 22.3263L10.7982 24.0694L12.2745 22.0016L10.4779 20.205L8.35659 22.3263ZM6.89166 20.8614L4.77034 22.9827L4.77034 22.9827L6.89166 20.8614ZM6.89166 19.5147L9.01298 21.636L9.01298 21.636L6.89166 19.5147ZM8.718 17.6883L10.8393 19.8097L10.8393 19.8097L8.718 17.6883ZM10.0647 17.6883L12.1861 15.567V15.567L10.0647 17.6883ZM11.5296 19.1532L9.40828 21.2745L11.2049 23.0712L13.2728 21.5948L11.5296 19.1532ZM17.1523 16.8221L17.6459 19.7812L20.1523 19.3632V16.8221H17.1523ZM18.1046 10.7988C15.9218 10.7988 14.1523 12.5683 14.1523 14.7511H20.1523C20.1523 15.882 19.2355 16.7988 18.1046 16.7988V10.7988ZM20.6874 10.7988H18.1046V16.7988H20.6874V10.7988ZM24.6397 14.7511C24.6397 12.5683 22.8702 10.7988 20.6874 10.7988V16.7988C19.5565 16.7988 18.6397 15.882 18.6397 14.7511H24.6397ZM24.6397 16.8209V14.7511H18.6397V16.8209H24.6397ZM29.0118 16.7107C27.0074 15.28 24.6673 14.283 22.1317 13.8615L21.1478 19.7803C22.7584 20.048 24.2466 20.681 25.5258 21.5942L29.0118 16.7107ZM29.3901 21.2738L30.8543 19.8095L26.6117 15.5669L25.1475 17.0311L29.3901 21.2738ZM30.8543 19.8095C30.0547 20.6092 28.7581 20.6092 27.9584 19.8095L32.2011 15.5669C30.6576 14.0234 28.1552 14.0234 26.6117 15.5669L30.8543 19.8095ZM27.9584 19.8095L29.7848 21.6359L34.0274 17.3932L32.2011 15.5669L27.9584 19.8095ZM29.7848 21.6359C28.9851 20.8362 28.9851 19.5397 29.7848 18.74L34.0274 22.9826C35.5709 21.4391 35.5709 18.9367 34.0274 17.3932L29.7848 21.6359ZM29.7848 18.74L28.3208 20.204L32.5634 24.4466L34.0274 22.9826L29.7848 18.74ZM35.7335 27.4597C35.3114 24.9249 34.3143 22.5856 32.8836 20.582L28.0006 24.0686C28.9138 25.3474 29.5469 26.8351 29.815 28.4452L35.7335 27.4597ZM34.8422 24.9525H32.7742V30.9525H34.8422V24.9525ZM38.7945 28.9047C38.7945 26.722 37.025 24.9525 34.8422 24.9525V30.9525C33.7113 30.9525 32.7945 30.0357 32.7945 28.9047H38.7945ZM38.7945 31.4876V28.9047H32.7945V31.4876H38.7945ZM34.8422 35.4399C37.025 35.4399 38.7945 33.6704 38.7945 31.4876H32.7945C32.7945 30.3567 33.7113 29.4399 34.8422 29.4399V35.4399ZM32.7742 35.4399H34.8422V29.4399H32.7742V35.4399ZM32.8841 39.8093C34.3144 37.806 35.3114 35.467 35.7334 32.9327L29.8149 31.947C29.5468 33.5569 28.9139 35.0443 28.0009 36.3229L32.8841 39.8093ZM34.0285 37.4095L32.5638 35.9448L28.3212 40.1874L29.7859 41.6521L34.0285 37.4095ZM34.0285 42.9988C35.572 41.4554 35.572 38.9529 34.0285 37.4095L29.7859 41.6521C28.9862 40.8524 28.9862 39.5559 29.7859 38.7562L34.0285 42.9988ZM32.2022 44.8252L34.0285 42.9988L29.7859 38.7562L27.9595 40.5825L32.2022 44.8252ZM26.6128 44.8252C28.1563 46.3686 30.6587 46.3687 32.2022 44.8252L27.9595 40.5825C28.7592 39.7829 30.0558 39.7829 30.8554 40.5825L26.6128 44.8252ZM25.148 43.3604L26.6128 44.8252L30.8554 40.5825L29.3907 39.1178L25.148 43.3604ZM22.1317 46.5305C24.6676 46.1089 27.008 45.1118 29.0125 43.6808L25.5263 38.7975C24.2469 39.7108 22.7586 40.3439 21.1478 40.6117L22.1317 46.5305ZM24.6397 45.641V43.5711H18.6397V45.641H24.6397ZM20.6874 49.5933C22.8702 49.5933 24.6397 47.8238 24.6397 45.641H18.6397C18.6397 44.5101 19.5565 43.5933 20.6874 43.5933V49.5933ZM18.1046 49.5933H20.6874V43.5933H18.1046V49.5933ZM14.1523 45.641C14.1523 47.8238 15.9218 49.5933 18.1046 49.5933V43.5933C19.2355 43.5933 20.1523 44.5101 20.1523 45.641H14.1523ZM14.1523 43.5698V45.641H20.1523V43.5698H14.1523ZM9.78569 43.6798C11.788 45.1096 14.1257 46.1064 16.6587 46.529L17.6459 40.6107C16.0369 40.3423 14.5504 39.7095 13.2724 38.7969L9.78569 43.6798ZM9.4077 39.117L7.94233 40.5824L12.185 44.8251L13.6503 43.3597L9.4077 39.117ZM7.94233 40.5824C8.74201 39.7827 10.0385 39.7827 10.8382 40.5824L6.59559 44.8251C8.13905 46.3685 10.6415 46.3685 12.185 44.8251L7.94233 40.5824ZM10.8382 40.5824L9.01189 38.7561L4.76925 42.9987L6.59559 44.8251L10.8382 40.5824ZM9.01189 38.7561C9.81158 39.5558 9.81157 40.8523 9.01189 41.652L4.76925 37.4093C3.22579 38.9528 3.22578 41.4553 4.76925 42.9987L9.01189 38.7561ZM9.01189 41.652L10.4775 40.1864L6.23486 35.9437L4.76925 37.4093L9.01189 41.652ZM3.06603 32.9327C3.488 35.4665 4.48461 37.805 5.91445 39.808L10.7979 36.3221C9.88531 35.0436 9.25256 33.5566 8.98452 31.947L3.06603 32.9327ZM3.95229 35.4399H6.02527V29.4399H3.95229V35.4399ZM0 31.4876C0 33.6704 1.7695 35.4399 3.95229 35.4399V29.4399C5.08321 29.4399 6 30.3567 6 31.4876H0ZM0 28.9047V31.4876H6V28.9047H0ZM3.95229 24.9525C1.7695 24.9525 0 26.722 0 28.9047H6C6 30.0357 5.0832 30.9525 3.95229 30.9525V24.9525ZM6.02522 24.9525H3.95229V30.9525H6.02522V24.9525ZM5.91496 20.5832C4.48477 22.5866 3.48794 24.9255 3.06596 27.4597L8.98448 28.4452C9.25252 26.8354 9.88541 25.3481 10.7982 24.0694L5.91496 20.5832ZM4.77034 22.9827L6.23527 24.4477L10.4779 20.205L9.01298 18.7401L4.77034 22.9827ZM4.77034 17.3934C3.22688 18.9368 3.22688 21.4393 4.77034 22.9827L9.01299 18.7401C9.81266 19.5398 9.81267 20.8363 9.01298 21.636L4.77034 17.3934ZM6.59668 15.567L4.77034 17.3934L9.01298 21.636L10.8393 19.8097L6.59668 15.567ZM12.1861 15.567C10.6426 14.0236 8.14015 14.0236 6.59668 15.567L10.8393 19.8097C10.0396 20.6093 8.7431 20.6093 7.94342 19.8097L12.1861 15.567ZM13.6509 17.0319L12.1861 15.567L7.94342 19.8097L9.40828 21.2745L13.6509 17.0319ZM16.6587 13.863C14.126 14.2855 11.7886 15.2821 9.7864 16.7116L13.2728 21.5948C14.5507 20.6824 16.0371 20.0496 17.6459 19.7812L16.6587 13.863ZM14.1523 14.7511V16.8221H20.1523V14.7511H14.1523Z" fill="white" mask="url(#path-1-outside-1_2646_2382)"/>
<circle cx="19.3977" cy="30.1966" r="5.92116" fill="#0A4E94" stroke="white" stroke-width="3"/>
<path d="M43.3906 22.1959H50.8294L55.3886 14.1973" stroke="white" stroke-width="3" stroke-linecap="round" stroke-linejoin="round"/>
<path d="M43.3906 39.7933H50.8294L55.3886 48.5918" stroke="white" stroke-width="3" stroke-linecap="round" stroke-linejoin="round"/>
<line x1="44.8906" y1="31.4941" x2="56.6881" y2="31.4941" stroke="white" stroke-width="3" stroke-linecap="round"/>
<circle cx="60.9894" cy="5.3996" r="3.8996" fill="white" stroke="white" stroke-width="3"/>
<circle cx="68.1906" cy="30.5949" r="3.8996" fill="white" stroke="white" stroke-width="3"/>
<circle cx="60.589" cy="56.9914" r="3.8996" fill="white" stroke="white" stroke-width="3"/>
</svg>
