<svg width="85" height="46" viewBox="0 0 85 46" fill="none" xmlns="http://www.w3.org/2000/svg">
<circle cx="17.2656" cy="18.5938" r="9.78906" stroke="white" stroke-width="3"/>
<circle cx="47.8125" cy="7.96875" r="6.46875" stroke="white" stroke-width="3"/>
<circle cx="69.0625" cy="7.96875" r="6.46875" stroke="white" stroke-width="3"/>
<mask id="path-4-inside-1_2689_2242" fill="white">
<path fill-rule="evenodd" clip-rule="evenodd" d="M0 45.4922H34.5312C34.5312 35.2231 26.8012 26.8984 17.2656 26.8984C7.73008 26.8984 0 35.2231 0 45.4922Z"/>
</mask>
<path d="M0 45.4922H-3V48.4922H0V45.4922ZM34.5312 45.4922V48.4922H37.5312V45.4922H34.5312ZM0 48.4922H34.5312V42.4922H0V48.4922ZM17.2656 29.8984C24.9388 29.8984 31.5312 36.6668 31.5312 45.4922H37.5312C37.5312 33.7795 28.6635 23.8984 17.2656 23.8984V29.8984ZM3 45.4922C3 36.6668 9.59243 29.8984 17.2656 29.8984V23.8984C5.86774 23.8984 -3 33.7795 -3 45.4922H3Z" fill="white" mask="url(#path-4-inside-1_2689_2242)"/>
<mask id="path-6-inside-2_2689_2242" fill="white">
<path fill-rule="evenodd" clip-rule="evenodd" d="M35.1953 26.2344H60.4297C60.4297 18.8993 54.7808 12.9531 47.8125 12.9531C40.8442 12.9531 35.1953 18.8993 35.1953 26.2344Z"/>
</mask>
<path d="M35.1953 26.2344H32.1953V29.2344H35.1953V26.2344ZM60.4297 26.2344V29.2344H63.4297V26.2344H60.4297ZM35.1953 29.2344H60.4297V23.2344H35.1953V29.2344ZM47.8125 15.9531C52.9808 15.9531 57.4297 20.4093 57.4297 26.2344H63.4297C63.4297 17.3893 56.5808 9.95312 47.8125 9.95312V15.9531ZM38.1953 26.2344C38.1953 20.4093 42.6442 15.9531 47.8125 15.9531V9.95312C39.0442 9.95312 32.1953 17.3893 32.1953 26.2344H38.1953Z" fill="white" mask="url(#path-6-inside-2_2689_2242)"/>
<mask id="path-8-inside-3_2689_2242" fill="white">
<path fill-rule="evenodd" clip-rule="evenodd" d="M56.4453 26.2344H81.6797C81.6797 18.8993 76.0308 12.9531 69.0625 12.9531C62.0942 12.9531 56.4453 18.8993 56.4453 26.2344Z"/>
</mask>
<path d="M56.4453 26.2344H53.4453V29.2344H56.4453V26.2344ZM81.6797 26.2344V29.2344H84.6797V26.2344H81.6797ZM56.4453 29.2344H81.6797V23.2344H56.4453V29.2344ZM69.0625 15.9531C74.2308 15.9531 78.6797 20.4093 78.6797 26.2344H84.6797C84.6797 17.3893 77.8308 9.95312 69.0625 9.95312V15.9531ZM59.4453 26.2344C59.4453 20.4093 63.8942 15.9531 69.0625 15.9531V9.95312C60.2942 9.95312 53.4453 17.3893 53.4453 26.2344H59.4453Z" fill="white" mask="url(#path-8-inside-3_2689_2242)"/>
<line x1="33.375" y1="24.7344" x2="83.5" y2="24.7344" stroke="white" stroke-width="3" stroke-linecap="round"/>
<line x1="38.6875" y1="25.7422" x2="38.6875" y2="43.9922" stroke="white" stroke-width="3" stroke-linecap="round"/>
<line x1="77.2031" y1="25.7422" x2="77.2031" y2="43.9922" stroke="white" stroke-width="3" stroke-linecap="round"/>
</svg>
