<svg width="142" height="142" viewBox="0 0 142 142" fill="none" xmlns="http://www.w3.org/2000/svg">
<path d="M141.125 70.5605H30.8379C30.8379 92.4925 48.6141 110.286 70.563 110.286C89.0177 110.286 104.521 97.6998 108.999 80.653H140.413C140.888 77.3623 141.142 73.9869 141.142 70.5605H141.125Z" fill="#0070BD"/>
<path d="M129.624 76.2953C126.74 106.386 101.399 129.912 70.5451 129.912C37.7745 129.912 11.1949 103.35 11.1949 70.5621C11.1949 37.7745 37.7745 11.2119 70.5621 11.2119C87.7277 11.2119 103.18 18.4886 114.002 30.1415H128.403C115.63 11.9243 94.4955 0 70.5621 0C31.5833 0 0 31.6003 0 70.5621C0 109.524 31.6003 141.124 70.5621 141.124C109.524 141.124 137.952 112.611 140.887 76.3292L129.624 76.2783V76.2953Z" fill="#0070BD"/>
<path d="M41.5029 66.9824C41.5029 85.3184 54.6315 100.177 70.8303 100.177C89.0814 100.177 99.6827 85.1148 99.2078 66.9824H41.5029Z" fill="white"/>
<path d="M48.9834 61.4016L38.9928 51.9876C36.4145 49.4094 36.177 45.2198 38.6365 42.5228C41.2487 39.6393 45.7097 39.5714 48.4236 42.2853L48.9495 42.7942L49.4753 42.2853C52.1214 39.6393 56.3958 39.6393 59.0419 42.2853C61.6879 44.9314 61.6879 49.2059 59.0419 51.8519L48.9664 61.4016H48.9834Z" fill="#0070BD"/>
<path d="M92.2891 61.4016L82.2984 51.9876C79.7202 49.4094 79.4827 45.2198 81.9422 42.5228C84.5544 39.6393 89.0154 39.5714 91.7293 42.2853L92.2551 42.7942L92.7809 42.2853C95.427 39.6393 99.7015 39.6393 102.348 42.2853C104.994 44.9314 104.994 49.2059 102.348 51.8519L92.2721 61.4016H92.2891Z" fill="#0070BD"/>
</svg>
