<svg width="142" height="142" viewBox="0 0 142 142" fill="none" xmlns="http://www.w3.org/2000/svg">
<path d="M141.125 70.5605H30.8379C30.8379 92.4925 48.6141 110.286 70.563 110.286C89.0177 110.286 104.521 97.6998 108.999 80.653H140.413C140.888 77.3623 141.142 73.9869 141.142 70.5605H141.125Z" fill="#0070BD"/>
<path d="M129.641 76.2953C126.757 106.386 101.416 129.912 70.5621 129.912C37.7914 129.912 11.2119 103.35 11.2119 70.5621C11.2119 37.7745 37.7745 11.2119 70.5621 11.2119C87.7277 11.2119 103.18 18.4886 114.002 30.1415H128.403C115.647 11.9243 94.4955 0 70.5621 0C31.5833 0 0 31.6003 0 70.5621C0 109.524 31.6003 141.124 70.5621 141.124C109.524 141.124 137.952 112.611 140.887 76.3292L129.624 76.2783L129.641 76.2953Z" fill="#0070BD"/>
<path d="M52.1735 59.0614C55.2368 59.0614 57.7201 54.1556 57.7201 48.104C57.7201 42.0523 55.2368 37.1465 52.1735 37.1465C49.1103 37.1465 46.627 42.0523 46.627 48.104C46.627 54.1556 49.1103 59.0614 52.1735 59.0614Z" fill="#0070BD"/>
<path d="M97.2912 42.1329C98.1732 41.4714 98.4446 40.0636 97.9018 38.995C97.359 37.9264 96.2056 37.5871 95.3236 38.2486L82.7378 47.7643C81.8557 48.4259 81.5843 49.8337 82.1271 50.9023C82.3646 51.3773 82.7377 51.7165 83.1448 51.8692L96.952 58.179C97.9358 58.5692 98.9874 57.9076 99.3097 56.7033C99.6319 55.499 99.0892 54.2269 98.1054 53.8368L88.1487 49.0365L97.3081 42.116L97.2912 42.1329Z" fill="#0070BD" stroke="#0070BD" stroke-width="2.03544" stroke-miterlimit="10"/>
</svg>
