<svg width="272" height="89" viewBox="0 0 272 89" fill="none" xmlns="http://www.w3.org/2000/svg">
    <g clip-path="url(#clip0_1166_2078)">
        <path d="M70.3811 3.11164C71.1046 4.43818 71.4664 6.27122 71.4664 8.56251C71.4664 10.8538 71.1046 12.7592 70.3811 14.0857C69.6334 15.5088 68.5963 16.2082 67.2456 16.2082C65.8949 16.2082 64.7855 15.5088 64.0378 14.0857C63.3383 12.7592 62.9766 10.902 62.9766 8.56251C62.9766 6.22298 63.3383 4.4623 64.0378 3.11164C64.7855 1.71274 65.8708 1.01329 67.2456 1.01329C68.6204 1.01329 69.6575 1.71274 70.3811 3.11164ZM66.0638 4.77584C65.7985 5.64412 65.6779 6.89831 65.6779 8.53839C65.6779 10.1785 65.7985 11.5291 66.0638 12.3974C66.3291 13.2416 66.715 13.6757 67.2215 13.6757C67.728 13.6757 68.0898 13.2416 68.331 12.3974C68.6204 11.5291 68.7651 10.2267 68.7651 8.53839C68.7651 6.85007 68.6204 5.62 68.331 4.77584C68.0657 3.93168 67.7039 3.52166 67.2215 3.52166C66.7391 3.52166 66.3291 3.93168 66.0638 4.77584ZM73.1065 6.58476V0.434436H74.6984C75.3978 0.434436 75.8078 0.482674 75.9525 0.579149C76.049 0.651506 76.0731 0.820339 76.0008 1.06153C75.9525 1.158 75.9284 1.25448 75.9284 1.32684C75.9284 1.42331 75.9043 1.54391 75.9043 1.64038V19.1507H73.1547V9.11725H71.1288V6.58476H73.1547H73.1065ZM80.0528 0.145009C80.0528 0.145009 80.1492 0.386198 80.0528 0.627387C80.0045 0.772101 79.9563 0.892695 79.9322 0.989171C79.9322 1.13388 79.908 1.2786 79.908 1.42331V19.4401H77.1102V0.0244141H78.8709C79.5221 0.0244141 79.908 0.0726519 80.0528 0.145009Z" fill="#231815"/>
        <path d="M99.326 14.5673V17.0998H80.875V14.5673H99.326ZM91.6562 1.06072C91.8009 1.22955 91.7526 1.51898 91.4873 1.929C91.4873 2.29078 91.6562 2.77316 92.0179 3.35202C92.3797 3.97911 92.8862 4.6062 93.5133 5.20917C94.2369 5.8845 95.0087 6.46336 95.877 6.92162C96.89 7.45223 97.9271 7.81402 99.0124 7.98285C98.723 8.27228 98.4095 8.63406 98.0718 9.11644C97.7582 9.52646 97.4688 9.98472 97.1794 10.443C95.684 10.0571 94.2128 9.33351 92.7898 8.27228C91.3667 7.21104 90.4502 6.14981 89.992 5.06446C89.6302 6.12569 88.7378 7.23516 87.3389 8.36875C85.9882 9.4541 84.6134 10.2259 83.2145 10.6842C82.9251 10.2983 82.6116 9.88824 82.2498 9.47822C81.888 9.0682 81.5262 8.6823 81.1644 8.34463C83.1181 7.93461 84.8064 6.94574 86.2776 5.40212C87.7248 3.88263 88.4483 2.33902 88.4483 0.79541H90.4743C91.1014 0.79541 91.5114 0.867767 91.6562 1.0366V1.06072Z" fill="#231815"/>
        <path d="M109.767 1.51949V9.57521H103.569V13.0483H104.22C105.402 13.0483 106.535 13.0001 107.669 12.9036C109.188 12.8071 110.563 12.6142 111.745 12.3489L112.034 14.2784L112.107 14.7849C110.636 15.0502 109.092 15.2673 107.476 15.3879C106.101 15.5085 104.678 15.5567 103.255 15.5567H100.747V7.06684H106.873V4.02786H100.723V1.51949H109.791H109.767ZM115.942 0.144714C115.942 0.144714 116.062 0.385903 115.942 0.67533C115.869 0.868281 115.821 1.01299 115.797 1.10947C115.749 1.30242 115.749 1.49537 115.749 1.68832V8.48986H118.185V11.1188H115.749V19.4399H112.903V0H114.495C115.29 0 115.773 0.0482378 115.942 0.144714Z" fill="#231815"/>
        <path d="M127.472 3.08752C128.292 4.41406 128.678 6.2471 128.678 8.61075C128.678 10.9744 128.268 12.8074 127.472 14.1099C126.628 15.5088 125.422 16.1841 123.806 16.1841C122.19 16.1841 120.936 15.4846 120.092 14.1099C119.296 12.8074 118.91 10.9744 118.91 8.61075C118.91 6.2471 119.296 4.38994 120.092 3.08752C120.936 1.68862 122.166 0.989171 123.806 0.989171C125.446 0.989171 126.604 1.68862 127.472 3.08752ZM122.239 4.75172C121.925 5.57177 121.756 6.85007 121.756 8.61075C121.756 10.3714 121.925 11.6256 122.239 12.4457C122.576 13.2657 123.083 13.6757 123.806 13.6757C124.53 13.6757 125.012 13.2657 125.35 12.4457C125.688 11.6256 125.856 10.3473 125.856 8.61075C125.856 6.87419 125.688 5.59589 125.35 4.75172C125.012 3.93168 124.506 3.52166 123.806 3.52166C123.107 3.52166 122.576 3.93168 122.239 4.75172ZM135.432 0.12089C135.432 0.12089 135.528 0.313841 135.432 0.55503C135.383 0.699744 135.359 0.820339 135.335 0.892695C135.311 1.06153 135.287 1.20624 135.287 1.37507V19.4401H132.441V0.0244141H134.153C134.853 0.0244141 135.287 0.048533 135.432 0.12089Z" fill="#231815"/>
        <path d="M148.381 1.01329V3.32871H141.073V4.53465H148.139V6.85007H141.073V8.39368H141.917C142.882 8.39368 144.015 8.36956 145.293 8.29721C146.885 8.20073 148.164 8.08014 149.152 7.95954L149.225 8.51428C149.297 8.90018 149.345 9.16549 149.37 9.35844C149.418 9.67198 149.442 9.96141 149.49 10.2267C148.381 10.3956 146.933 10.5161 145.149 10.6126C143.557 10.7091 141.917 10.7573 140.253 10.7573H138.227V1.01329H148.357H148.381ZM152.36 12.9763C153.566 13.6757 154.145 14.5681 154.145 15.6776C154.145 16.7871 153.542 17.7518 152.36 18.4754C151.034 19.2713 149.177 19.6813 146.789 19.6813C144.401 19.6813 142.496 19.2713 141.169 18.4754C139.987 17.7518 139.408 16.8112 139.408 15.6776C139.408 14.544 140.011 13.6757 141.169 12.9763C142.496 12.2045 144.377 11.7944 146.789 11.7944C149.201 11.7944 151.034 12.1804 152.36 12.9763ZM143.388 14.4717C142.689 14.7611 142.351 15.1952 142.351 15.7258C142.351 16.2565 142.689 16.6906 143.388 17.0283C144.16 17.39 145.293 17.583 146.789 17.583C148.284 17.583 149.394 17.39 150.165 17.0283C150.865 16.7147 151.203 16.2806 151.203 15.7258C151.203 15.1711 150.865 14.7852 150.165 14.4717C149.418 14.1581 148.308 13.9893 146.837 13.9893C145.366 13.9893 144.16 14.1581 143.388 14.4717ZM154.121 0.12089C154.121 0.12089 154.242 0.313841 154.121 0.55503C154.073 0.699744 154.049 0.820339 154.024 0.892695C153.976 1.06153 153.976 1.20624 153.976 1.37507V12.1321H151.13V0.0244141H152.843C153.542 0.0244141 153.976 0.048533 154.121 0.12089Z" fill="#231815"/>
        <path d="M170.45 3.08752C171.246 4.41406 171.656 6.2471 171.656 8.61075C171.656 10.9744 171.246 12.8074 170.45 14.1099C169.605 15.5088 168.4 16.1841 166.784 16.1841C165.168 16.1841 163.913 15.4846 163.069 14.1099C162.273 12.8074 161.863 10.9744 161.863 8.61075C161.863 6.2471 162.273 4.38994 163.069 3.08752C163.913 1.68862 165.143 0.989171 166.784 0.989171C168.424 0.989171 169.605 1.68862 170.45 3.08752ZM165.216 4.75172C164.902 5.57177 164.733 6.85007 164.733 8.61075C164.733 10.3714 164.902 11.6256 165.216 12.4457C165.553 13.2657 166.06 13.6757 166.784 13.6757C167.507 13.6757 167.989 13.2657 168.327 12.4457C168.665 11.6256 168.858 10.3473 168.858 8.61075C168.858 6.87419 168.689 5.59589 168.327 4.75172C167.989 3.93168 167.483 3.52166 166.784 3.52166C166.084 3.52166 165.553 3.93168 165.216 4.75172ZM177.902 0.048533C178.168 0.0726519 178.337 0.12089 178.433 0.169128C178.529 0.217365 178.578 0.289722 178.578 0.362079C178.578 0.434436 178.529 0.55503 178.457 0.723863C178.385 0.892695 178.361 1.03741 178.337 1.158C178.288 1.35095 178.264 1.56803 178.264 1.76098V19.4401H175.418V9.64786H172.403V7.11538H175.418V0.0244141H176.793C177.275 0.0244141 177.637 0.0244141 177.902 0.0244141V0.048533Z" fill="#231815"/>
        <path d="M192.22 2.84633V5.01703H180.691V2.84633H192.22ZM190.05 6.44005C190.87 7.0189 191.256 7.71835 191.256 8.58663C191.256 9.45491 190.845 10.2026 190.05 10.7815C189.157 11.4327 187.927 11.7462 186.383 11.7462C184.84 11.7462 183.682 11.4327 182.814 10.7815C182.018 10.1785 181.632 9.45491 181.632 8.58663C181.632 7.71835 182.018 7.0189 182.814 6.44005C183.682 5.81296 184.888 5.49941 186.383 5.49941C187.879 5.49941 189.133 5.81296 190.05 6.44005ZM196.079 13.0486V19.4643H193.233V15.557H181.994V13.0245H196.079V13.0486ZM189.35 0.12089V2.29159H183.586V0.12089H189.35ZM184.96 7.71835C184.647 7.93542 184.502 8.22485 184.502 8.58663C184.502 8.94842 184.647 9.26196 184.96 9.47903C185.298 9.72022 185.781 9.84082 186.383 9.84082C187.059 9.84082 187.565 9.72022 187.927 9.47903C188.265 9.26196 188.434 8.97254 188.434 8.58663C188.434 8.20073 188.265 7.93542 187.927 7.71835C187.565 7.47716 187.035 7.38069 186.383 7.38069C185.781 7.38069 185.298 7.50128 184.96 7.71835ZM195.693 0.048533C195.959 0.0726519 196.128 0.12089 196.224 0.169128C196.32 0.217365 196.345 0.289722 196.345 0.386198C196.345 0.458555 196.32 0.579149 196.248 0.747982C196.176 0.916814 196.152 1.06153 196.103 1.18212C196.055 1.35095 196.055 1.54391 196.055 1.73686V6.29533H198.491V8.94842H196.055V11.7703H193.209V0.0244141H194.536C195.042 0.0244141 195.404 0.0244141 195.669 0.0244141L195.693 0.048533Z" fill="#231815"/>
        <path d="M205.032 8.05602C207.734 7.98366 209.953 7.88718 211.738 7.76659C211.81 8.24897 211.834 8.63487 211.882 8.9243C211.93 9.38256 211.979 9.76846 212.003 10.0579L207.034 10.3232V12.928H204.212V10.3714C203.609 10.3714 203.031 10.3956 202.524 10.4197C201.873 10.4679 201.318 10.5161 200.788 10.5644C200.619 10.5644 200.45 10.5644 200.281 10.6367C200.185 10.6609 200.064 10.7091 199.919 10.7573C199.678 10.8297 199.533 10.8538 199.461 10.8297C199.364 10.7573 199.268 10.5403 199.22 10.1785L198.906 8.20073C201.439 8.15249 203.489 8.10425 205.057 8.05602H205.032ZM209.036 1.42331C209.856 2.12276 210.29 2.96692 210.29 3.9558C210.29 4.94467 209.88 5.7406 209.036 6.44005C208.12 7.18773 206.865 7.57364 205.322 7.57364C203.778 7.57364 202.5 7.18773 201.583 6.44005C200.763 5.7406 200.353 4.92056 200.353 3.9558C200.353 2.99104 200.763 2.12276 201.583 1.42331C202.5 0.675625 203.73 0.289722 205.322 0.289722C206.914 0.289722 208.12 0.675625 209.036 1.42331ZM204.188 13.4587C204.188 13.4587 204.309 13.6998 204.188 13.9652C204.14 14.0857 204.116 14.1822 204.116 14.2546C204.092 14.3752 204.068 14.4958 204.068 14.6164V16.4012H215.572V18.9336H201.222V13.3381H202.886C203.585 13.3381 203.995 13.3863 204.164 13.4828L204.188 13.4587ZM203.754 2.82221C203.392 3.11164 203.199 3.49754 203.199 3.9558C203.199 4.38994 203.392 4.75172 203.754 5.01703C204.164 5.30646 204.695 5.47529 205.394 5.47529C206.045 5.47529 206.552 5.33058 206.914 5.01703C207.276 4.7276 207.444 4.38994 207.444 3.9558C207.444 3.49754 207.276 3.11164 206.914 2.82221C206.528 2.50866 206.021 2.36395 205.394 2.36395C204.695 2.36395 204.164 2.50866 203.754 2.82221ZM215.307 0.048533C215.572 0.0726519 215.741 0.12089 215.838 0.169128C215.934 0.217365 215.982 0.289722 215.982 0.362079C215.982 0.434436 215.934 0.55503 215.862 0.723863C215.789 0.892695 215.741 1.03741 215.717 1.158C215.669 1.35095 215.645 1.56803 215.645 1.76098V14.9299H212.799V13.2175H209.277V10.8297H212.799V0.0244141H214.174C214.656 0.0244141 215.042 0.0244141 215.283 0.0244141L215.307 0.048533Z" fill="#231815"/>
        <path d="M271.232 37.5032C271.232 40.6386 268.699 43.1711 265.564 43.1711C262.428 43.1711 259.896 40.6386 259.896 37.5032C259.896 34.3677 262.428 31.8111 265.564 31.8111C268.699 31.8111 271.232 34.3677 271.232 37.5032V37.5032ZM265.564 31.377C262.187 31.377 259.438 34.1265 259.438 37.5032C259.438 40.8798 262.187 43.6294 265.564 43.6294C268.94 43.6294 271.69 40.8798 271.69 37.5032C271.69 34.1265 268.964 31.377 265.564 31.377Z" fill="#D7000F"/>
        <path d="M262.508 34.415H268.611V34.9698H265.909V41.3613H265.162V34.9698H262.484V34.415H262.508Z" fill="#D7000F"/>
        <path d="M103.004 46.3291H114.436V52.7448H114.557C116.318 47.8004 119.405 45.4126 124.301 45.4126C124.832 45.4126 125.386 45.5332 125.941 45.6055V58.1956C125.073 58.075 124.18 57.8338 123.336 57.8338C118.199 57.8338 115.594 60.2457 115.594 67.0955V78.0455H103.028V46.3291H103.004Z" fill="#D7000F"/>
        <path d="M130.449 78.0455V46.3291H143.039V78.0455H130.449Z" fill="#D7000F"/>
        <path d="M170.704 78.0459C154.183 78.9624 152.181 77.7806 152.181 66.8547V53.5893H147.719V46.3295H152.374V36.4648H164.771V46.3295H170.825V53.5893H164.771V65.094C164.771 67.9883 165.181 69.0254 168.702 69.0254H170.704V78.0459V78.0459Z" fill="#D7000F"/>
        <path d="M177.48 78.0455V46.3291H190.046V78.0455H177.48Z" fill="#D7000F"/>
        <path d="M196.805 46.3294H208.309V51.2979C211.155 47.4871 214.243 45.437 219.018 45.437C227.387 45.437 231.319 50.3332 231.319 59.0642V78.0699H218.729V61.3073C218.729 58.1718 217.885 55.374 214.291 55.374C210.432 55.374 209.395 57.8583 209.395 61.9102V78.0699H196.805V46.3535V46.3294Z" fill="#D7000F"/>
        <path d="M250.587 79.6859C250.587 80.0477 250.828 80.6024 251.383 81.0848C251.938 81.5672 252.83 81.8807 254.108 81.8807C257.726 81.8807 259.173 80.2406 259.173 75.7063V73.1014C257.364 74.9103 254.639 76.5504 250.105 76.5504C241.325 76.5504 236.309 69.6524 236.309 61.5243C236.309 53.3963 240.071 45.437 250.466 45.437C254.277 45.437 257.847 47.4389 260.09 50.5261V46.3535H271.16V71.8955C271.16 81.3983 270.075 88.827 254.47 88.827C243.255 88.827 238.528 84.3408 237.925 79.6859H250.587V79.6859ZM248.899 61.6449C248.899 64.7804 250.466 67.7711 253.867 67.8194C257.726 67.9882 259.197 64.6598 259.197 61.2831C259.197 57.9065 257.871 54.4575 253.867 54.4575C250.056 54.3851 248.899 57.5447 248.899 61.6449Z" fill="#D7000F"/>
        <path d="M35.8555 30.436H49.8203L54.9094 56.991L62.2657 30.436H76.1341L83.5145 56.8945L88.5794 30.436H102.496L92.0043 78.0709H77.5571L69.2119 48.067L60.8909 78.0709H46.4437L35.8555 30.436Z" fill="#D7000F"/>
        <path d="M-0.00713108 63.5031L14.223 62.6107C14.5366 64.9261 15.1637 66.6626 16.1284 67.8686C17.6479 69.8463 19.8427 70.8111 22.7129 70.8111C24.8595 70.8111 26.4996 70.3046 27.6573 69.2916C28.815 68.3027 29.3938 67.1209 29.3938 65.7944C29.3938 64.5402 28.8391 63.4066 27.7538 62.4177C26.6684 61.4288 24.1118 60.5123 20.1081 59.6199C13.5477 58.1245 8.84451 56.1709 6.04672 53.7349C3.2248 51.2748 1.85003 48.1634 1.85003 44.3767C1.85003 41.8925 2.54947 39.553 3.99661 37.334C5.44375 35.1151 7.61445 33.3785 10.5087 32.1002C13.403 30.846 17.3826 30.1948 22.4235 30.1948C28.5979 30.1948 33.3252 31.3525 36.5813 33.6438C39.8132 35.9592 41.7668 39.6012 42.3698 44.6179L28.212 45.438C27.8502 43.2673 27.0543 41.6995 25.8725 40.7107C24.6906 39.7218 23.0506 39.2394 20.9522 39.2394C19.2157 39.2394 17.9132 39.6012 17.0449 40.3489C16.1767 41.0725 15.7425 41.9649 15.7425 43.0502C15.7425 43.822 16.1043 44.5215 16.7796 45.1244C17.4791 45.7515 19.1433 46.3545 21.7723 46.9092C28.3085 48.3081 32.9876 49.7311 35.8336 51.1783C38.6555 52.6254 40.7297 54.4102 42.008 56.5568C43.3105 58.7034 43.9375 61.0912 43.9375 63.7442C43.9375 66.8556 43.0934 69.7257 41.3568 72.3547C39.6444 74.9837 37.2325 76.9614 34.1453 78.3121C31.058 79.6869 27.1749 80.3622 22.4717 80.3622C14.223 80.3622 8.53097 78.7703 5.37139 75.6108C2.18769 72.4512 0.402891 68.3992 -0.03125 63.5272" fill="#231815"/>
        <path d="M-0.00713108 63.5031L14.223 62.6107C14.5366 64.9261 15.1637 66.6626 16.1284 67.8686C17.6479 69.8463 19.8427 70.8111 22.7129 70.8111C24.8595 70.8111 26.4996 70.3046 27.6573 69.2916C28.815 68.3027 29.3938 67.1209 29.3938 65.7944C29.3938 64.5402 28.8391 63.4066 27.7538 62.4177C26.6684 61.4288 24.1118 60.5123 20.1081 59.6199C13.5477 58.1245 8.84451 56.1709 6.04672 53.7349C3.2248 51.2748 1.85003 48.1634 1.85003 44.3767C1.85003 41.8925 2.54947 39.553 3.99661 37.334C5.44375 35.1151 7.61445 33.3785 10.5087 32.1002C13.403 30.846 17.3826 30.1948 22.4235 30.1948C28.5979 30.1948 33.3252 31.3525 36.5813 33.6438C39.8132 35.9592 41.7668 39.6012 42.3698 44.6179L28.212 45.438C27.8502 43.2673 27.0543 41.6995 25.8725 40.7107C24.6906 39.7218 23.0506 39.2394 20.9522 39.2394C19.2157 39.2394 17.9132 39.6012 17.0449 40.3489C16.1767 41.0725 15.7425 41.9649 15.7425 43.0502C15.7425 43.822 16.1043 44.5215 16.7796 45.1244C17.4791 45.7515 19.1433 46.3545 21.7723 46.9092C28.3085 48.3081 32.9876 49.7311 35.8336 51.1783C38.6555 52.6254 40.7297 54.4102 42.008 56.5568C43.3105 58.7034 43.9375 61.0912 43.9375 63.7442C43.9375 66.8556 43.0934 69.7257 41.3568 72.3547C39.6444 74.9837 37.2325 76.9614 34.1453 78.3121C31.058 79.6869 27.1749 80.3622 22.4717 80.3622C14.223 80.3622 8.53097 78.7703 5.37139 75.6108C2.18769 72.4512 0.402891 68.3992 -0.03125 63.5272" fill="#231815"/>
        <path d="M43.6509 70.6431C42.445 71.632 41.5284 72.2591 40.829 72.5726C40.1295 72.8621 39.3819 73.0309 38.61 73.0309C37.1629 73.0309 36.0293 72.5244 35.1852 71.5355C34.341 70.5466 33.9069 69.3889 33.9069 68.0865C33.9069 66.9047 34.2928 65.8193 35.0163 64.8063C35.7399 63.8175 36.8011 62.9009 38.2241 62.0809L38.4894 61.9362L38.61 62.2015C39.3095 63.6004 39.9607 64.8063 40.5396 65.7229C41.1184 66.6876 42.1796 68.183 43.6991 70.2331L43.8439 70.4502L43.6268 70.619L43.6509 70.6431ZM39.8401 52.4092C40.419 51.6374 41.2631 51.2515 42.3726 51.2515C43.2168 51.2515 43.9403 51.565 44.4951 52.168C45.0739 52.771 45.3633 53.5428 45.3633 54.4352C45.3633 55.5688 44.9774 56.6059 44.2298 57.5224C43.4821 58.4389 42.3485 59.2349 40.8772 59.9343L40.6119 60.0549L40.4913 59.7896C39.9125 58.4148 39.5024 57.3777 39.3336 56.6541C39.1165 55.9306 39.0201 55.2552 39.0201 54.6764C39.0201 53.9287 39.3095 53.181 39.8642 52.4333M55.3727 70.0643C55.1315 70.7878 54.7215 71.3426 54.215 71.7285C53.612 72.1867 52.8643 72.4279 51.996 72.4279C51.1278 72.4279 50.2595 72.1626 49.4153 71.6802C48.5953 71.1737 47.6064 70.3055 46.5693 69.0995L46.4005 68.9066L46.5452 68.7136C47.8476 67.1459 49.0294 65.4575 50.0665 63.6486C51.1278 61.7674 51.8996 60.682 52.4302 60.2961C52.9126 59.9343 53.612 59.7172 54.5527 59.5966V59.5002H47.8235V59.6449C48.2576 59.7414 48.5953 59.9343 48.8365 60.2479C49.2465 60.7302 49.4394 61.2609 49.4394 61.8397C49.4394 63.5522 48.3541 65.6746 46.1834 68.1348L45.9422 68.4001L45.7492 68.1106C44.1815 65.9158 42.6138 63.5039 41.0943 60.8991L40.9255 60.6338L41.1908 60.4891C43.3132 59.4278 44.8086 58.4148 45.6287 57.5224C46.4246 56.6541 46.8346 55.6411 46.8346 54.5076C46.8346 53.374 46.4246 52.4816 45.6287 51.7098C44.8086 50.9621 43.7474 50.5762 42.445 50.5762C41.0461 50.5762 39.816 50.9621 38.7306 51.7339C37.3317 52.7228 36.6564 54.1217 36.6564 56.027C36.6564 56.7024 36.7529 57.426 36.9458 58.1736C37.1388 58.9213 37.5247 59.8861 38.0553 61.092L38.1518 61.3332L37.9106 61.4538C35.1852 62.9009 33.3039 64.324 32.315 65.6746C31.3502 67.0012 30.8438 68.3518 30.8438 69.6784C30.8438 71.0049 31.3744 72.1385 32.4356 73.1032C33.4968 74.068 34.9681 74.5504 36.777 74.5504C38.0553 74.5504 39.2613 74.3092 40.3707 73.8268C41.4802 73.3444 42.7585 72.4762 44.1574 71.222L44.3745 71.029L44.5674 71.2461C45.701 72.452 46.7622 73.3203 47.6788 73.8268C48.6194 74.3092 49.56 74.5504 50.4524 74.5504C51.6343 74.5504 52.6955 74.1886 53.5879 73.4409C54.4321 72.7415 55.1074 71.632 55.5174 70.1607C55.4451 70.1125 55.4209 70.1125 55.3486 70.0401" fill="white"/>
        <path d="M142.581 37.3101C142.581 40.6144 139.904 43.3157 136.575 43.3157C133.247 43.3157 130.594 40.6385 130.594 37.3101C130.594 33.9817 133.271 31.3286 136.575 31.3286C139.88 31.3286 142.581 34.0058 142.581 37.3101Z" fill="#D7000F"/>
        <path d="M189.862 37.3101C189.862 40.6144 187.185 43.3157 183.857 43.3157C180.528 43.3157 177.875 40.6385 177.875 37.3101C177.875 33.9817 180.552 31.3286 183.857 31.3286C187.161 31.3286 189.862 34.0058 189.862 37.3101Z" fill="#D7000F"/>
    </g>
    <defs>
        <clipPath id="clip0_1166_2078">
            <rect width="271.676" height="88.83" fill="white"/>
        </clipPath>
    </defs>
</svg>
