<svg width="186" height="36" viewBox="0 0 186 36" fill="none" xmlns="http://www.w3.org/2000/svg">
<path d="M40.1387 6.4257C40.7274 6.4257 41.3508 6.35953 42.0261 6.24374C42.7014 6.12795 43.1863 5.9956 43.498 5.86326C43.8963 5.69785 44.2945 5.5159 44.7101 5.28432C45.1257 5.05273 45.472 4.82115 45.7144 4.58956C45.853 4.45723 46.0434 4.19256 46.2859 3.8121C46.5283 3.43164 46.7015 3.10081 46.8054 2.83614C46.8919 2.67072 46.9612 2.3895 47.0304 1.97596C47.0997 1.56241 47.1517 1.23158 47.169 1H52.5716V34.2143H46.13V10.9251H39.4287V6.44224H40.1387V6.4257Z" fill="#0068B7"/>
<path d="M58.7749 10.1682C58.8722 9.35674 58.9858 8.63158 59.1481 7.99274C59.2779 7.45749 59.4726 6.92224 59.7322 6.36973C59.9918 5.81722 60.2677 5.31651 60.5597 4.86759C60.7707 4.53954 61.0465 4.15969 61.4034 3.76257C61.7604 3.36545 62.1174 3.02014 62.4906 2.74388C62.7827 2.51942 63.172 2.27769 63.675 2.03597C64.178 1.77698 64.5837 1.60432 64.9245 1.50073C65.2652 1.39713 65.7844 1.27627 66.4821 1.17267C67.1798 1.06907 67.7315 1 68.1534 1C68.7537 1 69.4514 1.05181 70.2303 1.17267C71.0091 1.27627 71.6581 1.43167 72.1611 1.63886C72.6803 1.82879 73.232 2.10502 73.8161 2.45034C74.384 2.79566 74.8871 3.17553 75.3089 3.55539C75.7795 4.0043 76.2014 4.48773 76.5908 5.04024C76.964 5.57548 77.2722 6.12801 77.4669 6.69779C77.6779 7.28483 77.8564 7.94094 78.0024 8.66611C78.1484 9.39128 78.2133 10.0647 78.2133 10.7208C78.2133 11.3769 78.1322 12.1366 77.9537 13.0344C77.7752 13.9322 77.5967 14.6747 77.3858 15.2272C77.2073 15.7279 76.9477 16.2286 76.6394 16.7121C76.3312 17.1955 75.9904 17.6272 75.6659 17.9897C75.3576 18.3523 75.0169 18.6977 74.6599 19.0257C74.3029 19.3538 73.9622 19.6818 73.6214 19.9926C73.2807 20.2689 72.8751 20.5969 72.4207 20.9768C71.9664 21.3566 71.5445 21.7019 71.1876 21.9955C70.8144 22.3063 70.4574 22.617 70.1005 22.9278C69.7435 23.2559 69.419 23.5667 69.0945 23.8602C68.7862 24.1364 68.4941 24.4127 68.2507 24.6717C68.0073 24.9307 67.764 25.2242 67.5206 25.535C67.3096 25.794 67.1149 26.0357 66.9527 26.2947C66.7904 26.5537 66.6282 26.7781 66.4984 27.0026C66.401 27.1925 66.2874 27.3997 66.1576 27.6242C66.044 27.8486 65.9629 28.004 65.9467 28.0904H78.116V33.8572H58.499C58.5315 33.4601 58.564 32.9594 58.5964 32.3378C58.6289 31.7162 58.6938 31.181 58.7749 30.7321C58.8236 30.3349 58.9371 29.8169 59.0832 29.1608C59.2454 28.5047 59.4077 27.9177 59.5862 27.3824C59.7971 26.9163 60.0567 26.3465 60.3975 25.6731C60.722 24.9998 61.0627 24.4127 61.4359 23.8775C61.8091 23.3767 62.231 22.8242 62.734 22.2026C63.237 21.5983 63.74 21.0113 64.2592 20.4933C64.6324 20.0962 65.1029 19.63 65.7033 19.0948C66.3036 18.5595 66.8228 18.0933 67.2285 17.7308C67.6179 17.4027 68.0884 17.0056 68.6401 16.5394C69.1918 16.0732 69.6299 15.6761 69.9706 15.348C70.3114 15.02 70.6359 14.6229 70.9279 14.174C71.2362 13.7251 71.4472 13.3279 71.577 12.9654C71.7393 12.6028 71.8529 12.1711 71.934 11.6704C72.0151 11.1697 72.0475 10.7035 72.0475 10.2546C72.0475 9.94379 71.9664 9.54668 71.8042 9.04596C71.6419 8.54525 71.366 8.06179 70.9766 7.57834C70.6359 7.18122 70.1978 6.90497 69.6623 6.71504C69.1269 6.54238 68.6401 6.43881 68.2345 6.43881C67.8937 6.43881 67.5368 6.50786 67.1798 6.64599C66.8066 6.78412 66.4983 6.95677 66.2387 7.14669C65.9953 7.31935 65.7844 7.54383 65.5735 7.83735C65.3625 8.13087 65.2003 8.4244 65.0705 8.73519C64.9731 8.95965 64.8596 9.25315 64.7784 9.633C64.6811 10.0129 64.6162 10.3409 64.5675 10.6172C64.535 10.9452 64.5188 11.2906 64.4863 11.6186C64.4539 11.9467 64.4539 12.2229 64.4539 12.4474H58.6451C58.6451 11.7567 58.6938 10.997 58.7749 10.1855V10.1682Z" fill="#0068B7"/>
<path d="M91.519 14.2513C91.6969 14.2513 91.9556 14.2513 92.2629 14.2174C92.5702 14.1835 92.8451 14.1666 93.0877 14.1327C93.2979 14.0819 93.5405 13.9971 93.8155 13.9124C94.0904 13.8107 94.333 13.6921 94.5432 13.5227C94.7211 13.3871 94.9152 13.2176 95.1255 12.9973C95.3357 12.7771 95.4974 12.5398 95.5944 12.3026C95.7238 12.0823 95.837 11.7603 95.9341 11.3367C96.0311 10.9131 96.0634 10.4894 96.0634 10.0827C96.0634 9.6252 95.9826 9.13381 95.8047 8.62545C95.6268 8.11708 95.4489 7.72733 95.2386 7.45621C94.9799 7.10035 94.6241 6.81226 94.1551 6.59197C93.7023 6.37168 93.2494 6.27001 92.8127 6.27001C92.5216 6.27001 92.2306 6.30391 91.9395 6.38864C91.6322 6.47336 91.3896 6.57504 91.1794 6.7106C90.9206 6.81228 90.678 6.98172 90.4678 7.20201C90.2575 7.4223 90.0958 7.64259 89.9664 7.86288C89.837 8.08317 89.7238 8.33737 89.6106 8.62545C89.5136 8.91352 89.4327 9.16769 89.368 9.38799C89.3195 9.60828 89.271 9.91328 89.2386 10.303C89.2063 10.6928 89.1739 10.9639 89.1739 11.0995H83.6268C83.6268 10.4216 83.6753 9.70994 83.7885 8.98129C83.8855 8.25263 84.0311 7.64259 84.1766 7.11728C84.3545 6.59197 84.6133 6.06667 84.9206 5.49053C85.2279 4.93133 85.5998 4.42296 86.0203 3.94849C86.3923 3.50791 86.8289 3.10122 87.3465 2.71148C87.864 2.32173 88.3815 2.03366 88.8667 1.81337C89.3842 1.59308 90.0634 1.40669 90.9044 1.23724C91.7454 1.06778 92.4893 1 93.1685 1C93.6052 1 94.1551 1.06776 94.8182 1.18637C95.4651 1.30499 95.9987 1.44058 96.4192 1.57614C96.8882 1.76254 97.3573 1.99976 97.8424 2.25395C98.3276 2.50813 98.7319 2.77926 99.0716 3.05038C99.5082 3.40624 99.9448 3.84683 100.349 4.35519C100.753 4.8805 101.077 5.37191 101.303 5.86333C101.53 6.35475 101.724 6.99868 101.869 7.77817C102.015 8.55766 102.08 9.25243 102.08 9.89635C102.08 10.303 102.015 10.8453 101.902 11.54C101.789 12.2179 101.627 12.7432 101.449 13.099C101.271 13.4549 101.077 13.7768 100.883 14.0819C100.689 14.3869 100.462 14.658 100.204 14.8953C99.9934 15.1494 99.7508 15.3697 99.4597 15.59C99.1686 15.8103 98.9098 15.9798 98.6834 16.1153C98.926 16.217 99.1524 16.3356 99.3626 16.4373C99.5891 16.5389 99.8155 16.6915 100.042 16.8948C100.511 17.2507 100.948 17.6743 101.336 18.1827C101.724 18.691 102.015 19.1655 102.193 19.64C102.403 20.0975 102.565 20.7414 102.678 21.5209C102.791 22.3173 102.856 22.9782 102.856 23.5374C102.856 24.1983 102.791 24.9439 102.662 25.7742C102.532 26.6045 102.355 27.2993 102.161 27.8416C101.95 28.3838 101.675 28.943 101.336 29.4853C100.996 30.0275 100.608 30.5359 100.155 30.9934C99.7669 31.4001 99.298 31.7899 98.7643 32.1627C98.2306 32.5355 97.713 32.8235 97.2117 33.0438C96.6456 33.281 95.9502 33.4844 95.1416 33.6369C94.333 33.7894 93.6699 33.8572 93.1524 33.8572C92.554 33.8572 91.7777 33.7894 90.8236 33.6538C89.8694 33.5183 88.996 33.2641 88.1874 32.9082C87.6214 32.6371 87.0553 32.2643 86.5055 31.8068C85.9556 31.3493 85.5351 30.9256 85.2117 30.5698C84.8721 30.1631 84.5648 29.6717 84.2898 29.0955C84.0149 28.5194 83.8208 27.9941 83.6915 27.5027C83.5297 26.9096 83.4004 26.1978 83.3033 25.3675C83.2063 24.5541 83.1416 23.7747 83.1416 23.0799H88.9313C88.9313 23.2663 88.9314 23.5374 88.9637 23.8594C88.9961 24.1813 89.0122 24.4525 89.0446 24.6727C89.0931 24.9778 89.1739 25.2659 89.2871 25.5709C89.3842 25.8759 89.4974 26.147 89.5944 26.3843C89.7238 26.6384 89.9017 26.8926 90.0958 27.1807C90.306 27.4688 90.5324 27.706 90.8074 27.8924C91.0985 28.0788 91.4381 28.2313 91.8586 28.3499C92.2791 28.4516 92.6187 28.5194 92.8774 28.5194C93.1847 28.5194 93.5567 28.4516 93.9934 28.333C94.43 28.2144 94.802 28.011 95.1416 27.7399C95.3842 27.5535 95.5945 27.3163 95.7885 27.0451C95.9826 26.774 96.1605 26.452 96.3222 26.0962C96.4516 25.7912 96.5648 25.4184 96.6295 24.9608C96.7103 24.5033 96.7427 24.0288 96.7427 23.5035C96.7427 23.063 96.678 22.6224 96.5486 22.1479C96.4193 21.6904 96.2898 21.3515 96.1605 21.1651C95.9826 20.86 95.74 20.6059 95.4489 20.3686C95.1578 20.1314 94.8828 19.945 94.5917 19.8094C94.3815 19.7077 94.058 19.5891 93.589 19.4874C93.1362 19.3858 92.7804 19.318 92.5055 19.2841C92.2467 19.2502 91.9071 19.2333 91.4704 19.2163C91.0338 19.2163 90.678 19.1994 90.3869 19.1994V14.2005H91.4866L91.519 14.2513Z" fill="#0068B7"/>
<path d="M107.402 12.5737C107.563 11.0825 107.774 9.87941 108 8.94741C108.162 8.32043 108.405 7.59178 108.729 6.7784C109.053 5.96502 109.392 5.2872 109.732 4.76189C110.072 4.23658 110.542 3.71128 111.14 3.18598C111.739 2.66067 112.306 2.25397 112.824 1.98284C113.261 1.76255 113.876 1.54226 114.637 1.32197C115.414 1.10168 116.19 1 117 1C117.809 1 118.602 1.10168 119.363 1.32197C120.14 1.54226 120.739 1.76255 121.176 1.98284C121.694 2.25397 122.26 2.66067 122.859 3.18598C123.458 3.71128 123.927 4.25353 124.267 4.76189C124.639 5.2872 124.979 5.94807 125.287 6.7784C125.594 7.59178 125.837 8.32043 125.999 8.94741C126.242 9.87941 126.436 11.0825 126.598 12.5737C126.76 14.0649 126.857 15.6747 126.857 17.4371C126.857 19.1994 126.776 20.7923 126.598 22.2665C126.42 23.7408 126.226 24.9608 125.999 25.9098C125.837 26.5029 125.611 27.2146 125.287 28.0449C124.979 28.8583 124.639 29.5531 124.267 30.0953C123.927 30.6206 123.458 31.1459 122.859 31.6712C122.26 32.1966 121.694 32.6032 121.176 32.8744C120.739 33.0947 120.124 33.3149 119.363 33.5352C118.586 33.7555 117.809 33.8572 117 33.8572C116.19 33.8572 115.397 33.7555 114.637 33.5352C113.86 33.3149 113.261 33.0947 112.824 32.8744C112.306 32.6032 111.739 32.1966 111.14 31.6712C110.542 31.1459 110.072 30.6206 109.732 30.0953C109.392 29.5531 109.053 28.8583 108.729 28.0449C108.405 27.2315 108.162 26.5198 108 25.9098C107.774 24.9608 107.563 23.7408 107.402 22.2665C107.224 20.7923 107.143 19.1824 107.143 17.4371C107.143 15.6917 107.224 14.0649 107.402 12.5737ZM113.326 20.1144C113.374 21.0634 113.423 21.809 113.487 22.3513C113.536 22.7579 113.633 23.3849 113.763 24.2152C113.892 25.0456 114.054 25.6726 114.232 26.0792C114.361 26.4351 114.556 26.8079 114.798 27.1807C115.041 27.5704 115.316 27.8585 115.608 28.0788C115.786 28.1805 116.012 28.2822 116.271 28.3838C116.53 28.4855 116.773 28.5194 117.016 28.5194C117.259 28.5194 117.502 28.4686 117.76 28.3838C118.019 28.2822 118.246 28.1805 118.424 28.0788C118.715 27.8585 118.974 27.5535 119.233 27.1807C119.476 26.7909 119.67 26.4351 119.8 26.0792C119.978 25.6726 120.14 25.0456 120.285 24.2152C120.431 23.3849 120.512 22.7579 120.544 22.3513C120.593 21.809 120.642 21.0634 120.706 20.1144C120.755 19.1655 120.787 18.2843 120.787 17.4371C120.787 16.5898 120.755 15.6578 120.706 14.7258C120.658 13.7938 120.609 13.0652 120.544 12.506C120.512 12.0993 120.431 11.4723 120.285 10.642C120.14 9.81163 119.978 9.18464 119.8 8.77795C119.67 8.3882 119.476 8.01542 119.233 7.62567C118.991 7.23593 118.715 6.96481 118.424 6.76146C118.246 6.6259 118.019 6.52422 117.76 6.4395C117.502 6.35477 117.259 6.32087 117.016 6.32087C116.773 6.32087 116.53 6.35477 116.271 6.4395C116.012 6.52422 115.786 6.6259 115.608 6.76146C115.316 6.94786 115.057 7.23593 114.798 7.62567C114.556 8.01542 114.361 8.3882 114.232 8.77795C114.054 9.18464 113.892 9.81163 113.763 10.642C113.633 11.4723 113.536 12.0993 113.487 12.506C113.439 13.0482 113.39 13.7938 113.326 14.7258C113.277 15.6578 113.245 16.5559 113.245 17.4371C113.245 18.3182 113.277 19.1824 113.326 20.1144Z" fill="#0068B7"/>
<path d="M140 33.2143V2H158.071V7.26103H146.013V14.6332H157.254V19.8942H146.013V33.1808H140V33.2143Z" fill="#0068B7"/>
<path d="M179.234 12.8959C179.234 12.5909 179.201 12.235 179.15 11.7945C179.1 11.3539 178.999 10.9641 178.865 10.6083C178.764 10.3033 178.613 9.96435 178.445 9.59155C178.277 9.2018 178.076 8.89679 177.858 8.64261C177.64 8.37148 177.371 8.11729 177.069 7.897C176.75 7.67671 176.414 7.47337 176.028 7.28697C175.676 7.1514 175.289 7.04973 174.853 6.9989C174.417 6.94806 174.047 6.91417 173.712 6.91417C173.258 6.91417 172.788 7.01585 172.318 7.2192C171.848 7.42254 171.412 7.69367 171.042 8.01563C170.606 8.37149 170.237 8.81206 169.918 9.35431C169.599 9.87962 169.347 10.4049 169.129 10.8964C168.961 11.303 168.81 11.8114 168.659 12.4214C168.508 13.0145 168.373 13.5907 168.273 14.1499C168.189 14.5566 168.121 15.2174 168.071 16.0986C168.021 16.9798 167.987 17.7593 167.987 18.4201C167.987 19.081 168.004 19.7419 168.054 20.4875C168.088 21.2331 168.155 21.8939 168.239 22.4701C168.34 23.1479 168.474 23.7918 168.608 24.368C168.743 24.9611 168.894 25.4525 169.062 25.8592C169.28 26.4014 169.548 26.9267 169.851 27.4012C170.169 27.8757 170.488 28.2993 170.841 28.6552C171.244 29.011 171.731 29.2991 172.285 29.5363C172.839 29.7736 173.376 29.8922 173.896 29.8922C174.383 29.8922 174.87 29.8414 175.34 29.7227C175.81 29.6211 176.246 29.4685 176.666 29.2652C177.153 29.011 177.572 28.6721 177.908 28.2485C178.244 27.8079 178.512 27.3673 178.697 26.8928C178.865 26.537 178.999 26.0964 179.1 25.5541C179.201 25.0288 179.268 24.4696 179.268 23.8935H185.932C185.932 24.7069 185.848 25.5542 185.664 26.4184C185.479 27.2826 185.244 28.0451 184.959 28.6891C184.64 29.4516 184.254 30.1294 183.8 30.7225C183.347 31.3156 182.86 31.8409 182.323 32.2984C181.887 32.6543 181.366 33.0101 180.745 33.3491C180.124 33.688 179.469 33.976 178.798 34.1963C178.093 34.4166 177.321 34.5861 176.464 34.6877C175.608 34.7894 174.803 34.8572 174.047 34.8572C173.208 34.8572 172.301 34.7555 171.311 34.5691C170.321 34.3827 169.431 34.0947 168.659 33.7049C167.87 33.2982 167.097 32.7729 166.325 32.129C165.553 31.4851 164.932 30.8072 164.445 30.0955C164.009 29.4686 163.606 28.723 163.22 27.8757C162.834 27.0284 162.515 26.1472 162.246 25.2152C161.944 24.1477 161.726 23.0293 161.575 21.877C161.424 20.7078 161.356 19.5555 161.356 18.4201C161.356 17.2848 161.44 16.1325 161.608 14.9294C161.776 13.7262 161.994 12.574 162.296 11.4895C162.515 10.693 162.834 9.84575 163.253 8.94764C163.673 8.04953 164.093 7.28698 164.496 6.69389C164.982 5.98218 165.637 5.2874 166.443 4.60959C167.249 3.93177 168.088 3.38954 168.961 3.01674C169.548 2.74561 170.287 2.50835 171.177 2.30501C172.05 2.10166 172.889 2 173.678 2C174.383 2 175.172 2.03388 176.028 2.1186C176.901 2.20333 177.673 2.3389 178.345 2.5253C179.218 2.77949 179.973 3.06757 180.644 3.40647C181.299 3.74538 181.853 4.11818 182.289 4.49098C182.827 4.93156 183.33 5.47382 183.817 6.13469C184.287 6.79556 184.656 7.42254 184.942 8.01563C185.261 8.69345 185.529 9.48989 185.714 10.371C185.899 11.2522 185.999 12.1164 185.999 12.9298H179.335L179.234 12.8959Z" fill="#0068B7"/>
<path d="M32.2976 11.4863H24.6954C23.3997 8.96027 20.4806 7.02206 16.7185 7.02206C11.0989 7.02206 6.91532 11.6134 6.91532 18C6.91532 24.3866 11.0989 29.105 16.7185 29.105C21.5421 29.105 24.8983 25.8323 25.6164 22.4643H16.1566V15.9823H33V18C33 28.3901 25.9598 36 16.5781 36C7.19631 36 0 28.3901 0 18C0 7.60989 7.04021 0 16.5781 0C24.6798 0 30.5336 5.05207 32.3132 11.4863H32.2976Z" fill="#0068B7"/>
</svg>
