<svg width="320" height="361" viewBox="0 0 320 361" fill="none" xmlns="http://www.w3.org/2000/svg">
    <rect x="26.52" y="29.0645" width="293.48" height="61.6733" rx="1.77222" fill="#FDFDFD"/>
    <path d="M80.75 29.0645V90.7378" stroke="#E7E7E7" stroke-width="0.354445" stroke-dasharray="1.42 1.42"/>
    <path d="M142.423 29.0645V90.7378" stroke="#E7E7E7" stroke-width="0.354445" stroke-dasharray="1.42 1.42"/>
    <path d="M204.097 29.0645V90.7378" stroke="#E7E7E7" stroke-width="0.354445" stroke-dasharray="1.42 1.42"/>
    <path d="M265.77 29.0645V90.7378" stroke="#E7E7E7" stroke-width="0.354445" stroke-dasharray="1.42 1.42"/>
    <rect x="26.52" y="94.2812" width="293.48" height="90.7378" rx="1.77222" fill="#FDFDFD"/>
    <path d="M80.75 94.2812V185.019" stroke="#E7E7E7" stroke-width="0.354445" stroke-dasharray="1.42 1.42"/>
    <path d="M142.423 94.2812V185.019" stroke="#E7E7E7" stroke-width="0.354445" stroke-dasharray="1.42 1.42"/>
    <path d="M204.097 94.2812V185.019" stroke="#E7E7E7" stroke-width="0.354445" stroke-dasharray="1.42 1.42"/>
    <path d="M265.77 94.2812V185.019" stroke="#E7E7E7" stroke-width="0.354445" stroke-dasharray="1.42 1.42"/>
    <rect x="26.52" y="252" width="293.48" height="44.66" rx="1.77222" fill="#FDFDFD"/>
    <path d="M80.75 252V296.66" stroke="#E7E7E7" stroke-width="0.354445" stroke-dasharray="1.42 1.42"/>
    <path d="M142.423 252V296.66" stroke="#E7E7E7" stroke-width="0.354445" stroke-dasharray="1.42 1.42"/>
    <path d="M204.097 252V296.66" stroke="#E7E7E7" stroke-width="0.354445" stroke-dasharray="1.42 1.42"/>
    <path d="M265.77 252V296.66" stroke="#E7E7E7" stroke-width="0.354445" stroke-dasharray="1.42 1.42"/>
    <rect x="26.52" width="293.48" height="25.52" rx="3.54445" fill="#EEEEEE"/>
    <rect x="1" y="29" width="23.0389" height="61.6733" rx="3.54445" fill="#7D8EDE"/>
    <path d="M38.7471 14.9229L38.8447 11.4023L39.8066 11.3828L39.7285 14.874L40.2168 14.8545L40.207 15.7041L39.709 15.7236L39.6357 18.6143L38.6543 18.624L38.7275 15.7725L35.0654 15.9336L34.8066 15.2842L36.4961 11.5244L37.4482 11.6953L35.9688 15.0449L38.7471 14.9229ZM44.6007 11.0734V11.4534C44.6007 12.6434 43.0507 13.6834 41.4607 13.9134L41.7807 14.5734C43.6007 14.2634 45.3207 13.0734 45.3207 11.4534V11.0734H44.6007ZM44.8107 11.0734V11.4534C44.8107 13.0734 46.5207 14.2634 48.3507 14.5734L48.6607 13.9134C47.0807 13.6834 45.5207 12.6434 45.5207 11.4534V11.0734H44.8107ZM44.6307 15.7734V19.2234H45.4507V15.7734H44.6307ZM40.9807 15.3334V16.0134H49.1507V15.3334H40.9807ZM41.7407 10.7434V11.4134H48.3607V10.7434H41.7407ZM57.9879 12.6734V13.3534H60.2679V12.6734H57.9879ZM59.7979 10.1934V16.8134H60.6279V10.1934H59.7979ZM54.8579 18.3434V19.0234H60.8779V18.3434H54.8579ZM54.8579 16.2334V18.6934H55.6879V16.2334H54.8579ZM55.4979 11.3134V12.0434C55.4979 13.3234 54.5679 14.5234 53.2179 15.0034L53.6479 15.6634C55.1579 15.1034 56.1779 13.6834 56.1779 12.0434V11.3134H55.4979ZM55.6579 11.3134V12.0334C55.6579 13.5634 56.6279 14.9234 58.0979 15.4534L58.5179 14.8034C57.2079 14.3434 56.3279 13.2034 56.3279 12.0334V11.3134H55.6579ZM53.4779 10.9234V11.5934H58.3079V10.9234H53.4779Z" fill="#787878"/>
    <path d="M7.16 59.26V60.84H7.99V59.26H7.16ZM3.49 58.97V59.64H11.66V58.97H3.49ZM7.57 60.59C5.63 60.59 4.47 61.16 4.47 62.18C4.47 63.19 5.63 63.76 7.57 63.76C9.51 63.76 10.67 63.19 10.67 62.18C10.67 61.16 9.51 60.59 7.57 60.59ZM7.57 61.23C8.99 61.23 9.83 61.57 9.83 62.18C9.83 62.78 8.99 63.12 7.57 63.12C6.16 63.12 5.31 62.78 5.31 62.18C5.31 61.57 6.16 61.23 7.57 61.23ZM7.04 55.48V55.75C7.04 56.78 5.57 57.59 3.95 57.76L4.25 58.42C6.12 58.19 7.78 57.21 7.78 55.75V55.48H7.04ZM7.39 55.48V55.75C7.39 57.21 9.04 58.19 10.91 58.42L11.21 57.76C9.59 57.59 8.12 56.78 8.12 55.75V55.48H7.39ZM4.24 55.15V55.82H10.93V55.15H4.24ZM12.4992 59.04V59.73H20.6692V59.04H12.4992ZM13.5292 57.51V58.18H19.7192V57.51H13.5292ZM13.5292 55.1V57.83H14.3492V55.78H19.6492V55.1H13.5292ZM16.5692 60.51C14.6392 60.51 13.4692 61.1 13.4692 62.14C13.4692 63.18 14.6392 63.76 16.5692 63.76C18.4992 63.76 19.6692 63.18 19.6692 62.14C19.6692 61.1 18.4992 60.51 16.5692 60.51ZM16.5692 61.15C17.9892 61.15 18.8292 61.51 18.8292 62.14C18.8292 62.76 17.9892 63.11 16.5692 63.11C15.1592 63.11 14.3092 62.76 14.3092 62.14C14.3092 61.51 15.1592 61.15 16.5692 61.15Z" fill="white"/>
    <rect x="1" y="94" width="23.0389" height="90.7378" rx="3.54445" fill="#57B2C3"/>
    <path d="M10.16 139.26V140.84H10.99V139.26H10.16ZM6.49 138.97V139.64H14.66V138.97H6.49ZM10.57 140.59C8.63 140.59 7.47 141.16 7.47 142.18C7.47 143.19 8.63 143.76 10.57 143.76C12.51 143.76 13.67 143.19 13.67 142.18C13.67 141.16 12.51 140.59 10.57 140.59ZM10.57 141.23C11.99 141.23 12.83 141.57 12.83 142.18C12.83 142.78 11.99 143.12 10.57 143.12C9.16 143.12 8.31 142.78 8.31 142.18C8.31 141.57 9.16 141.23 10.57 141.23ZM10.04 135.48V135.75C10.04 136.78 8.57 137.59 6.95 137.76L7.25 138.42C9.12 138.19 10.78 137.21 10.78 135.75V135.48H10.04ZM10.39 135.48V135.75C10.39 137.21 12.04 138.19 13.91 138.42L14.21 137.76C12.59 137.59 11.12 136.78 11.12 135.75V135.48H10.39ZM7.24 135.15V135.82H13.93V135.15H7.24ZM15.1506 137.102L16.9377 135.808L18.0412 135.939L17.9582 143.098L16.8791 143.142L17.0695 136.721L15.6975 137.81L15.1506 137.102Z" fill="white"/>
    <rect x="1" y="252" width="23" height="61" rx="3.54445" fill="#E8BBD6"/>
    <path d="M3.5 284.95V285.64H11.69V284.95H3.5ZM7.17 282.91V285.32H8V282.91H7.17ZM7.17 279.63V279.83C7.17 281.23 5.71 282.28 3.94 282.56L4.26 283.22C6.22 282.88 7.9 281.68 7.9 279.83V279.63H7.17ZM7.28 279.63V279.83C7.28 281.68 8.95 282.88 10.91 283.22L11.23 282.56C9.46 282.28 8 281.23 8 279.83V279.63H7.28ZM4.25 279.16V279.85H10.91V279.16H4.25ZM7.17 277.93V279.41H8V277.93H7.17ZM12.4992 282.04V282.73H20.6692V282.04H12.4992ZM13.5292 280.51V281.18H19.7192V280.51H13.5292ZM13.5292 278.1V280.83H14.3492V278.78H19.6492V278.1H13.5292ZM16.5692 283.51C14.6392 283.51 13.4692 284.1 13.4692 285.14C13.4692 286.18 14.6392 286.76 16.5692 286.76C18.4992 286.76 19.6692 286.18 19.6692 285.14C19.6692 284.1 18.4992 283.51 16.5692 283.51ZM16.5692 284.15C17.9892 284.15 18.8292 284.51 18.8292 285.14C18.8292 285.76 17.9892 286.11 16.5692 286.11C15.1592 286.11 14.3092 285.76 14.3092 285.14C14.3092 284.51 15.1592 284.15 16.5692 284.15Z" fill="#545454"/>
    <path d="M97.9033 16.583C97.9033 16.7295 97.8887 16.8809 97.8594 17.0371C97.7943 17.3659 97.6364 17.6654 97.3857 17.9355C97.2555 18.0723 97.0928 18.1911 96.8975 18.292C96.6989 18.3962 96.4645 18.4759 96.1943 18.5312C95.9242 18.5898 95.61 18.6175 95.252 18.6143C94.8776 18.5915 94.5228 18.5052 94.1875 18.3555C94.0443 18.2936 93.901 18.2155 93.7578 18.1211C93.6146 18.0234 93.4762 17.9062 93.3428 17.7695C93.2126 17.6328 93.0921 17.4717 92.9814 17.2861C92.8708 17.1006 92.7812 16.8857 92.7129 16.6416L93.7188 16.373C93.7741 16.6237 93.8864 16.8499 94.0557 17.0518C94.2282 17.2503 94.4251 17.4098 94.6465 17.5303C94.8678 17.6507 95.0794 17.7191 95.2812 17.7354C95.4505 17.7451 95.6296 17.737 95.8184 17.7109C96.0072 17.6849 96.1813 17.6296 96.3408 17.5449C96.5003 17.4603 96.6338 17.3431 96.7412 17.1934C96.8519 17.0404 96.9121 16.8434 96.9219 16.6025C96.9284 16.4072 96.9072 16.2412 96.8584 16.1045C96.7575 15.8311 96.5866 15.6309 96.3457 15.5039C96.235 15.4388 96.1227 15.39 96.0088 15.3574C95.8981 15.3216 95.7907 15.2988 95.6865 15.2891C95.5824 15.2793 95.4977 15.2777 95.4326 15.2842C95.3936 15.2842 95.3512 15.2842 95.3057 15.2842C95.2633 15.2842 95.2178 15.2858 95.1689 15.2891C94.9834 15.2956 94.7637 15.3102 94.5098 15.333L94.5195 14.4639C94.6465 14.4736 94.7604 14.4818 94.8613 14.4883C94.9655 14.4915 95.055 14.4948 95.1299 14.498C95.1722 14.5013 95.2129 14.5029 95.252 14.5029C95.291 14.5029 95.3268 14.5029 95.3594 14.5029C95.5514 14.5127 95.7223 14.498 95.8721 14.459C96.0251 14.4199 96.1585 14.3646 96.2725 14.293C96.3864 14.2214 96.4857 14.1383 96.5703 14.0439C96.6875 13.9137 96.777 13.7754 96.8389 13.6289C96.9007 13.4792 96.9316 13.3408 96.9316 13.2139C96.9316 13.1032 96.9121 12.9811 96.873 12.8477C96.834 12.7142 96.7624 12.5889 96.6582 12.4717C96.554 12.3545 96.4092 12.2568 96.2236 12.1787C96.0381 12.1006 95.7972 12.0615 95.501 12.0615C95.2308 12.0778 94.9899 12.1331 94.7783 12.2275C94.57 12.3219 94.391 12.4619 94.2412 12.6475C94.0915 12.8298 94.0085 13.0755 93.9922 13.3848L93.0889 13.2725C93.1637 12.9795 93.2533 12.7321 93.3574 12.5303C93.5625 12.1201 93.8148 11.8206 94.1143 11.6318C94.251 11.5407 94.3991 11.4674 94.5586 11.4121C94.7116 11.3568 94.863 11.3177 95.0127 11.2949C95.1657 11.2721 95.3154 11.2575 95.4619 11.251C95.5433 11.2477 95.6279 11.2493 95.7158 11.2559C95.8037 11.2591 95.8932 11.264 95.9844 11.2705C96.1667 11.2868 96.3473 11.321 96.5264 11.373C96.7054 11.4219 96.8763 11.4935 97.0391 11.5879C97.1986 11.679 97.3434 11.7979 97.4736 11.9443C97.5973 12.0908 97.695 12.2666 97.7666 12.4717C97.8415 12.6735 97.8789 12.9111 97.8789 13.1846C97.8626 13.4385 97.8138 13.6745 97.7324 13.8926C97.651 14.1042 97.5257 14.3011 97.3564 14.4834C97.1872 14.6657 96.9658 14.8057 96.6924 14.9033C97.0798 15.0335 97.3776 15.2581 97.5859 15.5771C97.7975 15.8929 97.9033 16.2282 97.9033 16.583ZM102.395 11.0734V11.4534C102.395 12.6434 100.845 13.6834 99.2546 13.9134L99.5746 14.5734C101.395 14.2634 103.115 13.0734 103.115 11.4534V11.0734H102.395ZM102.605 11.0734V11.4534C102.605 13.0734 104.315 14.2634 106.145 14.5734L106.455 13.9134C104.875 13.6834 103.315 12.6434 103.315 11.4534V11.0734H102.605ZM102.425 15.7734V19.2234H103.245V15.7734H102.425ZM98.7746 15.3334V16.0134H106.945V15.3334H98.7746ZM99.5346 10.7434V11.4134H106.155V10.7434H99.5346ZM115.782 12.6734V13.3534H118.062V12.6734H115.782ZM117.592 10.1934V16.8134H118.422V10.1934H117.592ZM112.652 18.3434V19.0234H118.672V18.3434H112.652ZM112.652 16.2334V18.6934H113.482V16.2334H112.652ZM113.292 11.3134V12.0434C113.292 13.3234 112.362 14.5234 111.012 15.0034L111.442 15.6634C112.952 15.1034 113.972 13.6834 113.972 12.0434V11.3134H113.292ZM113.452 11.3134V12.0334C113.452 13.5634 114.422 14.9234 115.892 15.4534L116.312 14.8034C115.002 14.3434 114.122 13.2034 114.122 12.0334V11.3134H113.452ZM111.272 10.9234V11.5934H116.102V10.9234H111.272Z" fill="#787878"/>
    <path d="M159.542 13.7852C159.51 14.0358 159.448 14.2686 159.357 14.4834C159.266 14.6982 159.129 14.9049 158.947 15.1035C158.764 15.3021 158.528 15.4974 158.239 15.6895C157.952 15.8815 157.597 16.0768 157.174 16.2754C156.976 16.3828 156.785 16.5049 156.603 16.6416C156.45 16.7555 156.292 16.9036 156.129 17.0859C155.97 17.265 155.851 17.457 155.773 17.6621L159.215 17.5352L159.264 18.5312L154.596 18.624C154.586 18.3766 154.604 18.1455 154.65 17.9307C154.699 17.7126 154.765 17.5107 154.85 17.3252C154.935 17.1396 155.034 16.9704 155.148 16.8174C155.262 16.6611 155.377 16.5212 155.495 16.3975C155.781 16.1012 156.102 15.8538 156.457 15.6553C156.863 15.4469 157.205 15.2598 157.482 15.0938C157.759 14.9245 157.98 14.7552 158.146 14.5859C158.309 14.4199 158.419 14.2425 158.478 14.0537C158.54 13.8617 158.559 13.6387 158.537 13.3848C158.517 13.1602 158.462 12.9648 158.371 12.7988C158.279 12.6296 158.162 12.4912 158.019 12.3838C157.726 12.1657 157.361 12.0762 156.925 12.1152C156.727 12.1315 156.544 12.1917 156.378 12.2959C156.212 12.3968 156.066 12.5303 155.939 12.6963C155.675 13.0381 155.511 13.471 155.446 13.9951L154.484 13.8633C154.503 13.5475 154.554 13.2708 154.635 13.0332C154.717 12.7923 154.818 12.5824 154.938 12.4033C155.058 12.2243 155.192 12.0729 155.338 11.9492C155.485 11.8255 155.633 11.723 155.783 11.6416C156.134 11.4528 156.528 11.3405 156.964 11.3047C157.342 11.2949 157.667 11.3307 157.941 11.4121C158.218 11.4935 158.454 11.6058 158.649 11.749C158.847 11.889 159.009 12.0501 159.132 12.2324C159.256 12.418 159.352 12.6019 159.42 12.7842C159.486 12.973 159.526 13.1553 159.542 13.3311C159.559 13.5068 159.559 13.6582 159.542 13.7852ZM163.912 11.0734V11.4534C163.912 12.6434 162.362 13.6834 160.772 13.9134L161.092 14.5734C162.912 14.2634 164.632 13.0734 164.632 11.4534V11.0734H163.912ZM164.122 11.0734V11.4534C164.122 13.0734 165.832 14.2634 167.662 14.5734L167.972 13.9134C166.392 13.6834 164.832 12.6434 164.832 11.4534V11.0734H164.122ZM163.942 15.7734V19.2234H164.762V15.7734H163.942ZM160.292 15.3334V16.0134H168.462V15.3334H160.292ZM161.052 10.7434V11.4134H167.672V10.7434H161.052ZM177.299 12.6734V13.3534H179.579V12.6734H177.299ZM179.109 10.1934V16.8134H179.939V10.1934H179.109ZM174.169 18.3434V19.0234H180.189V18.3434H174.169ZM174.169 16.2334V18.6934H174.999V16.2334H174.169ZM174.809 11.3134V12.0434C174.809 13.3234 173.879 14.5234 172.529 15.0034L172.959 15.6634C174.469 15.1034 175.489 13.6834 175.489 12.0434V11.3134H174.809ZM174.969 11.3134V12.0334C174.969 13.5634 175.939 14.9234 177.409 15.4534L177.829 14.8034C176.519 14.3434 175.639 13.2034 175.639 12.0334V11.3134H174.969ZM172.789 10.9234V11.5934H177.619V10.9234H172.789Z" fill="#787878"/>
    <path d="M215.87 12.5449L217.657 11.251L218.76 11.3828L218.677 18.541L217.598 18.585L217.789 12.1641L216.417 13.2529L215.87 12.5449ZM223.564 11.0734V11.4534C223.564 12.6434 222.014 13.6834 220.424 13.9134L220.744 14.5734C222.564 14.2634 224.284 13.0734 224.284 11.4534V11.0734H223.564ZM223.774 11.0734V11.4534C223.774 13.0734 225.484 14.2634 227.314 14.5734L227.624 13.9134C226.044 13.6834 224.484 12.6434 224.484 11.4534V11.0734H223.774ZM223.594 15.7734V19.2234H224.414V15.7734H223.594ZM219.944 15.3334V16.0134H228.114V15.3334H219.944ZM220.704 10.7434V11.4134H227.324V10.7434H220.704ZM236.951 12.6734V13.3534H239.231V12.6734H236.951ZM238.761 10.1934V16.8134H239.591V10.1934H238.761ZM233.821 18.3434V19.0234H239.841V18.3434H233.821ZM233.821 16.2334V18.6934H234.651V16.2334H233.821ZM234.461 11.3134V12.0434C234.461 13.3234 233.531 14.5234 232.181 15.0034L232.611 15.6634C234.121 15.1034 235.141 13.6834 235.141 12.0434V11.3134H234.461ZM234.621 11.3134V12.0334C234.621 13.5634 235.591 14.9234 237.061 15.4534L237.481 14.8034C236.171 14.3434 235.291 13.2034 235.291 12.0334V11.3134H234.621ZM232.441 10.9234V11.5934H237.271V10.9234H232.441Z" fill="#787878"/>
    <path d="M267.865 10.9634V12.5834C267.865 14.2934 266.775 16.0234 265.435 16.6634L265.945 17.3434C267.425 16.5934 268.545 14.6634 268.545 12.5834V10.9634H267.865ZM268.005 10.9634V12.5834C268.005 14.5934 269.135 16.4534 270.605 17.1734L271.105 16.5134C269.765 15.8934 268.685 14.2334 268.685 12.5834V10.9634H268.005ZM272.045 10.1734V19.2334H272.875V10.1734H272.045ZM281.085 10.1834V15.6534H281.915V10.1834H281.085ZM279.585 12.9234V13.6134H281.455V12.9234H279.585ZM276.055 16.1334V19.1034H281.915V16.1334H276.055ZM281.105 16.8034V18.4334H276.865V16.8034H281.105ZM274.495 11.1234V11.7934H279.725V11.1234H274.495ZM277.105 12.2534C275.885 12.2534 275.015 12.9134 275.015 13.8734C275.015 14.8334 275.885 15.4734 277.105 15.4734C278.325 15.4734 279.195 14.8334 279.195 13.8734C279.195 12.9134 278.325 12.2534 277.105 12.2534ZM277.105 12.8934C277.865 12.8934 278.405 13.2834 278.405 13.8734C278.405 14.4534 277.865 14.8434 277.105 14.8434C276.345 14.8434 275.805 14.4534 275.805 13.8734C275.805 13.2834 276.345 12.8934 277.105 12.8934ZM276.695 10.0934V11.6034H277.525V10.0934H276.695ZM290.064 10.1834V19.2234H290.894V10.1834H290.064ZM287.414 11.1534V11.2934C287.414 13.6934 286.204 15.6134 283.594 16.8734L284.034 17.5434C287.054 16.0634 288.234 13.7734 288.234 11.1534H287.414ZM284.004 11.1534V11.8334H287.774V11.1534H284.004ZM298.663 10.1834V16.7934H299.493V10.1834H298.663ZM299.233 12.9234V13.6134H300.833V12.9234H299.233ZM296.193 10.8834V11.2434C296.193 12.9834 294.763 14.3834 292.483 15.0834L292.843 15.7634C295.433 14.9334 297.073 13.2234 297.073 10.8834H296.193ZM292.853 10.8834V11.5634H296.613V10.8834H292.853ZM293.853 18.3434V19.0234H299.893V18.3434H293.853ZM293.853 16.1234V18.6134H294.683V16.1234H293.853ZM303.862 10.9634V12.5834C303.862 14.2934 302.772 16.0234 301.432 16.6634L301.942 17.3434C303.422 16.5934 304.542 14.6634 304.542 12.5834V10.9634H303.862ZM304.002 10.9634V12.5834C304.002 14.5934 305.132 16.4534 306.602 17.1734L307.102 16.5134C305.762 15.8934 304.682 14.2334 304.682 12.5834V10.9634H304.002ZM308.042 10.1734V19.2334H308.872V10.1734H308.042ZM312.701 11.1134V11.8434C312.701 13.1334 311.801 14.2934 310.431 14.7734L310.871 15.4234C312.381 14.8834 313.381 13.5034 313.381 11.8434V11.1134H312.701ZM312.851 11.1134V11.8334C312.851 13.3934 313.811 14.7234 315.301 15.2434L315.731 14.5934C314.401 14.1434 313.531 13.0334 313.531 11.8334V11.1134H312.851ZM310.691 10.8134V11.4934H315.521V10.8134H310.691ZM316.661 10.1834V15.6234H317.491V10.1834H316.661ZM317.261 12.5634V13.2534H318.831V12.5634H317.261ZM311.621 16.1034V16.7934H316.661V19.2234H317.491V16.1034H311.621Z" fill="#787878"/>
    <path d="M44.6727 53.8555H39.4578V59.082H44.6727V53.8555ZM40.6883 63.5703H48.0945V62.2227H42.3758V60.043H40.6883V63.5703ZM41.1219 57.7695V55.1914H43.0086V57.7695H41.1219ZM46.0555 60.8281H47.743V57.418H49.1375V56.0352H47.743V53H46.0555V60.8281ZM58.4131 52.9883H56.7373V55.4023H55.1788V56.7734H56.7373V59.1875H58.4131V52.9883ZM49.2139 57.9102L50.0811 59.2344C51.3291 58.8477 52.1553 58.0332 52.6241 57.0195C53.0928 57.9395 53.8838 58.6777 55.0616 59.0586L55.8819 57.7344C54.2354 57.1836 53.5498 55.9824 53.4737 54.8398H55.5186V53.4922H49.6827V54.8398H51.7393C51.6514 56.0879 50.9424 57.3711 49.2139 57.9102ZM51.1241 63.6289H58.4131V59.5977H51.1241V63.6289ZM52.8233 62.2812V60.9219H56.7725V62.2812H52.8233ZM65.5677 53.5742H59.6848V54.9219H61.7884C61.718 56.1582 60.9973 57.4531 59.2395 58.0039L60.1302 59.3047C61.3665 58.9121 62.1927 58.1152 62.6731 57.1133C63.1419 58.0273 63.9388 58.7539 65.1106 59.1289L65.9661 57.8281C64.2552 57.2832 63.5755 56.082 63.511 54.9219H65.5677V53.5742ZM60.7044 61.2383H66.3177V63.7461H68.0052V59.9023H60.7044V61.2383ZM66.3177 59.4805H68.0052V56.9258H69.3997V55.5312H68.0052V52.9883H66.3177V59.4805ZM74.7495 53.4805H69.9683V54.7344H73.062V55.3203H69.98V58.4258H70.8003C72.5816 58.4258 73.771 58.4199 75.1831 58.2383L75.0659 56.9609C73.9175 57.1016 72.9331 57.1191 71.6441 57.125V56.5156H74.7495V53.4805ZM71.3745 60.207H76.9995V60.7109H71.3863V63.6875H78.9683V62.4102H73.062V61.8945H78.6753V58.9648H71.3745V60.207ZM75.3355 57.4531H76.9995V58.5898H78.6753V52.9883H76.9995V54.0898H75.3355V55.4023H76.9995V56.1055H75.3355V57.4531ZM82.1267 61.7305H80.2752L79.7127 65.1172H81.0838L82.1267 61.7305ZM94.2561 52.9883H92.6506V57.0781H91.8069V53.1523H90.2366V63.2305H91.8069V58.4258H92.6506V63.7461H94.2561V52.9883ZM85.3616 61.168H86.1116C87.2014 61.1797 88.4319 61.1094 89.8498 60.8633L89.6858 59.4102C88.7366 59.5977 87.8518 59.6738 87.0491 59.7031V54.1484H85.3616V61.168ZM104.129 53H102.442V60.8398H104.129V53ZM95.0005 58.0742L95.8794 59.3984C97.1274 58.9941 97.9595 58.1621 98.4399 57.1191C98.9087 58.0859 99.7173 58.8359 100.918 59.2227L101.774 57.8984C99.9516 57.3359 99.3013 55.9707 99.313 54.6172V53.5859H97.5552V54.6172C97.5552 56 96.8696 57.4707 95.0005 58.0742ZM96.8403 63.5703H104.399V62.2227H98.5513V60.0664H96.8403V63.5703ZM115.057 57.9102H110.967V57.1484H113.979V55.8008H108.085V54.7344H113.874V53.3984H106.421V57.1484H109.268V57.9102H105.225V59.2578H115.057V57.9102ZM106.385 63.6289H113.991V62.3047H108.061V61.2031H113.897V59.8555H106.385V63.6289ZM125.188 61.168H121.087V59.2812H124.134V53.6562H122.446V55.2383H118.052V53.6562H116.364V59.2812H119.423V61.168H115.356V62.5391H125.188V61.168ZM118.052 57.9453V56.5625H122.446V57.9453H118.052ZM134.57 52.9883H132.859V63.7461H134.57V52.9883ZM125.488 60.6172L126.366 61.9531C130.28 60.1191 131.329 57.418 131.335 54.1016H126.097V55.4141H129.613C129.372 57.7344 128.224 59.3281 125.488 60.6172Z" fill="#787878"/>
    <path d="M80.75 8.50781V16.66" stroke="#CFCFCF" stroke-width="0.354445"/>
    <path d="M142.423 8.50781V16.66" stroke="#CFCFCF" stroke-width="0.354445"/>
    <path d="M204.097 8.50781V16.66" stroke="#CFCFCF" stroke-width="0.354445"/>
    <path d="M36.4447 43.2422H136.398L137.461 44.3055L136.398 45.3689H36.4447L35.3813 44.3055L36.4447 43.2422Z" fill="#7D8EDE"/>
    <path d="M36.4443 43.2422L136.398 43.2422" stroke="#4662E9" stroke-width="0.354445"/>
    <path d="M36.4443 45.3691L136.398 45.3691" stroke="#4662E9" stroke-width="0.354445"/>
    <path d="M38.5713 41.1152L35.3813 44.3052L38.5713 47.4952" stroke="#4662E9" stroke-width="0.354445" stroke-linecap="round"/>
    <path d="M134.271 41.1152L137.461 44.3052L134.271 47.4952" stroke="#4662E9" stroke-width="0.354445" stroke-linecap="round"/>
    <path d="M265.77 8.50781V16.66" stroke="#CFCFCF" stroke-width="0.354445"/>
    <path d="M120.12 79.9277H118.444V85.3301H120.12V79.9277ZM111.003 84.0879L111.835 85.4004C113.106 85.043 113.956 84.2695 114.442 83.2852C114.923 84.1875 115.743 84.8848 116.956 85.2246L117.776 83.9238C115.966 83.4316 115.304 82.207 115.315 80.9707V80.1504H113.558V80.9707C113.558 82.2246 112.866 83.5547 111.003 84.0879ZM112.843 87.0762H118.444V87.5566H112.878V90.627H120.39V89.3027H114.518V88.7871H120.132V85.7754H112.843V87.0762ZM130.333 79.9395H128.657V82.6582H127.04V84.0176H128.657V87.7793H130.333V79.9395ZM121.134 85.2715L122.001 86.6309C123.249 86.2324 124.075 85.418 124.55 84.3926C125.013 85.3184 125.804 86.0566 126.982 86.4316L127.802 85.0957C126.056 84.5391 125.388 83.2148 125.388 82.002V81.9668H127.439V80.6191H121.603V81.9668H123.665V81.9902C123.659 83.3203 122.968 84.7148 121.134 85.2715ZM123.126 90.5098H130.579V89.1621H124.814V87.0996H123.126V90.5098ZM141.191 88.0957H137.089V86.0215H140.136V80.6895H132.367V86.0215H135.425V88.0957H131.359V89.4668H141.191V88.0957ZM134.031 84.709V82.0371H138.46V84.709H134.031ZM144.959 80.6309C143.265 80.625 141.947 81.7441 141.947 83.3027C141.947 84.8672 143.265 85.9805 144.959 85.9746C146.67 85.9805 147.959 84.8672 147.97 83.3027C147.959 81.7441 146.67 80.625 144.959 80.6309ZM141.537 87.2051L141.724 88.5645C143.588 88.5645 146.107 88.541 148.463 88.084L148.334 86.8652C146.06 87.1816 143.429 87.2109 141.537 87.2051ZM143.623 83.3027C143.623 82.5176 144.203 82.084 144.959 82.084C145.732 82.084 146.318 82.5176 146.33 83.3027C146.318 84.1055 145.726 84.5273 144.959 84.5215C144.209 84.5273 143.623 84.1055 143.623 83.3027ZM148.908 90.709H150.584V79.9277H148.908V90.709ZM160.551 80.8066H152.629V82.1426H158.863C158.846 83.3789 158.816 84.8672 158.406 86.8418L160.117 87.0176C160.551 84.6914 160.551 83.168 160.551 81.8145V80.8066ZM151.621 89.4316H161.43V88.0723H156.707V84.416H155.031V88.0723H151.621V89.4316ZM165.818 82.2129V80.7246H164.131V82.2129C164.125 84.2285 163.393 86.2793 161.494 87.1348L162.525 88.5059C163.733 87.9199 164.524 86.8594 164.981 85.5469C165.414 86.7656 166.147 87.75 167.272 88.2949L168.279 86.959C166.492 86.0977 165.813 84.1582 165.818 82.2129ZM168.596 90.6855H170.283V85.4238H171.807V84.0059H170.283V79.9277H168.596V90.6855Z" fill="#787878"/>
    <path d="M92.4466 105.979H192.4L193.463 107.042L192.4 108.105H92.4466L91.3833 107.042L92.4466 105.979Z" fill="#57B2C3"/>
    <path d="M92.4463 105.979L192.4 105.979" stroke="#0091AC" stroke-width="0.354445"/>
    <path d="M92.4463 108.105L192.4 108.105" stroke="#0091AC" stroke-width="0.354445"/>
    <path d="M94.5733 103.852L91.3833 107.042L94.5733 110.232" stroke="#0091AC" stroke-width="0.354445" stroke-linecap="round"/>
    <path d="M190.274 103.852L193.464 107.042L190.274 110.232" stroke="#0091AC" stroke-width="0.354445" stroke-linecap="round"/>
    <path d="M120.12 115.727H118.444V121.129H120.12V115.727ZM111.003 119.887L111.835 121.199C113.106 120.842 113.956 120.068 114.442 119.084C114.923 119.986 115.743 120.684 116.956 121.023L117.776 119.723C115.966 119.23 115.304 118.006 115.315 116.77V115.949H113.558V116.77C113.558 118.023 112.866 119.354 111.003 119.887ZM112.843 122.875H118.444V123.355H112.878V126.426H120.39V125.102H114.518V124.586H120.132V121.574H112.843V122.875ZM130.333 115.738H128.657V118.457H127.04V119.816H128.657V123.578H130.333V115.738ZM121.134 121.07L122.001 122.43C123.249 122.031 124.075 121.217 124.55 120.191C125.013 121.117 125.804 121.855 126.982 122.23L127.802 120.895C126.056 120.338 125.388 119.014 125.388 117.801V117.766H127.439V116.418H121.603V117.766H123.665V117.789C123.659 119.119 122.968 120.514 121.134 121.07ZM123.126 126.309H130.579V124.961H124.814V122.898H123.126V126.309ZM141.191 123.895H137.089V121.82H140.136V116.488H132.367V121.82H135.425V123.895H131.359V125.266H141.191V123.895ZM134.031 120.508V117.836H138.46V120.508H134.031ZM144.959 116.43C143.265 116.424 141.947 117.543 141.947 119.102C141.947 120.666 143.265 121.779 144.959 121.773C146.67 121.779 147.959 120.666 147.97 119.102C147.959 117.543 146.67 116.424 144.959 116.43ZM141.537 123.004L141.724 124.363C143.588 124.363 146.107 124.34 148.463 123.883L148.334 122.664C146.06 122.98 143.429 123.01 141.537 123.004ZM143.623 119.102C143.623 118.316 144.203 117.883 144.959 117.883C145.732 117.883 146.318 118.316 146.33 119.102C146.318 119.904 145.726 120.326 144.959 120.32C144.209 120.326 143.623 119.904 143.623 119.102ZM148.908 126.508H150.584V115.727H148.908V126.508ZM160.551 116.605H152.629V117.941H158.863C158.846 119.178 158.816 120.666 158.406 122.641L160.117 122.816C160.551 120.49 160.551 118.967 160.551 117.613V116.605ZM151.621 125.23H161.43V123.871H156.707V120.215H155.031V123.871H151.621V125.23ZM165.818 118.012V116.523H164.131V118.012C164.125 120.027 163.393 122.078 161.494 122.934L162.525 124.305C163.733 123.719 164.524 122.658 164.981 121.346C165.414 122.564 166.147 123.549 167.272 124.094L168.279 122.758C166.492 121.896 165.813 119.957 165.818 118.012ZM168.596 126.484H170.283V121.223H171.807V119.805H170.283V115.727H168.596V126.484Z" fill="#787878"/>
    <path d="M92.4466 70.1797H192.4L193.463 71.243L192.4 72.3064H92.4466L91.3833 71.243L92.4466 70.1797Z" fill="#7D8EDE"/>
    <path d="M92.4463 70.1797L192.4 70.1797" stroke="#4662E9" stroke-width="0.354445"/>
    <path d="M92.4463 72.3066L192.4 72.3066" stroke="#4662E9" stroke-width="0.354445"/>
    <path d="M94.5733 68.0527L91.3833 71.2427L94.5733 74.4327" stroke="#4662E9" stroke-width="0.354445" stroke-linecap="round"/>
    <path d="M190.274 68.0527L193.464 71.2427L190.274 74.4327" stroke="#4662E9" stroke-width="0.354445" stroke-linecap="round"/>
    <path d="M92.4466 260.508H192.4L193.463 261.571L192.4 262.634H92.4466L91.3833 261.571L92.4466 260.508Z" fill="#E8BBD6"/>
    <path d="M92.4463 260.508L192.4 260.508" stroke="#EA75BB" stroke-width="0.354445"/>
    <path d="M92.4463 262.633L192.4 262.633" stroke="#EA75BB" stroke-width="0.354445"/>
    <path d="M94.5733 258.381L91.3833 261.571L94.5733 264.761" stroke="#EA75BB" stroke-width="0.354445" stroke-linecap="round"/>
    <path d="M190.274 258.381L193.464 261.571L190.274 264.761" stroke="#EA75BB" stroke-width="0.354445" stroke-linecap="round"/>
    <path d="M44.5236 268.127H42.9064V272.182H42.1095V268.268H40.5158V278.404H42.1095V273.553H42.9064V278.885H44.5236V268.127ZM35.4415 276.236H39.7658V269.205H35.4415V276.236ZM37.0236 274.924V270.518H38.1954V274.924H37.0236ZM56.9342 268.139H55.235V273.084H53.3717V274.068H55.235V274.338H56.9342V268.139ZM47.7584 271.842L47.9342 272.979C48.6783 272.99 49.4811 272.99 50.3131 272.973V274.35H51.9889V272.914C52.903 272.861 53.8346 272.785 54.7545 272.662L54.6725 271.631C52.3815 271.83 49.8385 271.842 47.7584 271.842ZM48.4615 269.885C48.4557 270.881 49.5572 271.496 51.192 271.49C52.8033 271.496 53.9108 270.881 53.9225 269.885C53.9108 268.924 52.8033 268.273 51.192 268.268C49.5572 268.273 48.4557 268.924 48.4615 269.885ZM49.2701 275.756H55.2467V276.166H49.3053V278.826H57.1451V277.654H50.9694V277.232H56.9342V274.631H49.2701V275.756ZM50.0553 269.885C50.0436 269.551 50.4772 269.357 51.192 269.357C51.9069 269.357 52.3405 269.551 52.3405 269.885C52.3405 270.225 51.9069 270.395 51.192 270.4C50.4772 270.395 50.0436 270.225 50.0553 269.885ZM66.4442 268.127H64.7567V273.471H66.4442V271.514H67.8387V270.131H66.4442V268.127ZM58.159 273.119H63.3739V268.596H58.159V273.119ZM59.2255 275.158H64.7567V275.697H59.2372V278.768H66.7255V277.455H60.9012V276.904H66.4442V273.869H59.2255V275.158ZM59.8231 271.795V269.932H61.7098V271.795H59.8231ZM40.5158 286.139H38.8165V291.084H36.9533V292.068H38.8165V292.338H40.5158V286.139ZM31.34 289.842L31.5158 290.979C32.2599 290.99 33.0626 290.99 33.8947 290.973V292.35H35.5704V290.914C36.4845 290.861 37.4162 290.785 38.3361 290.662L38.254 289.631C35.963 289.83 33.4201 289.842 31.34 289.842ZM32.0431 287.885C32.0372 288.881 33.1388 289.496 34.7736 289.49C36.3849 289.496 37.4923 288.881 37.504 287.885C37.4923 286.924 36.3849 286.273 34.7736 286.268C33.1388 286.273 32.0372 286.924 32.0431 287.885ZM32.8517 293.756H38.8283V294.166H32.8869V296.826H40.7267V295.654H34.5509V295.232H40.5158V292.631H32.8517V293.756ZM33.6369 287.885C33.6251 287.551 34.0587 287.357 34.7736 287.357C35.4884 287.357 35.922 287.551 35.922 287.885C35.922 288.225 35.4884 288.395 34.7736 288.4C34.0587 288.395 33.6251 288.225 33.6369 287.885ZM45.3969 287.135H41.7289V288.471H43.7445V290.064H41.7406V294.506H42.4555C43.6508 294.5 44.6762 294.459 45.9008 294.236L45.7719 292.877C44.9047 293.018 44.1371 293.082 43.3578 293.111V291.377H45.3969V287.135ZM45.8539 292.736H46.9437V296.369H48.5375V286.291H46.9437V288.729H45.8539V290.064H46.9437V291.389H45.8539V292.736ZM49.1937 296.885H50.7875V286.127H49.1937V296.885ZM60.5201 287.006H52.5983V288.342H58.8326C58.8151 289.578 58.7858 291.066 58.3756 293.041L60.0865 293.217C60.5201 290.891 60.5201 289.367 60.5201 288.014V287.006ZM51.5905 295.631H61.399V294.271H56.6764V290.615H55.0006V294.271H51.5905V295.631ZM65.788 288.412V286.924H64.1005V288.412C64.0946 290.428 63.3622 292.479 61.4637 293.334L62.495 294.705C63.702 294.119 64.493 293.059 64.9501 291.746C65.3837 292.965 66.1161 293.949 67.2411 294.494L68.2489 293.158C66.4618 292.297 65.7821 290.357 65.788 288.412ZM68.5653 296.885H70.2528V291.623H71.7762V290.205H70.2528V286.127H68.5653V296.885Z" fill="#787878"/>
    <path d="M26.52 260.508H79.6867L80.75 261.571L79.6867 262.634H26.52V261.571V260.508Z" fill="#E8BBD6"/>
    <path d="M26.52 260.508L79.6867 260.508" stroke="#EA75BB" stroke-width="0.354445"/>
    <path d="M26.52 262.633L79.6867 262.633" stroke="#EA75BB" stroke-width="0.354445"/>
    <path d="M77.56 258.381L80.75 261.571L77.56 264.761" stroke="#EA75BB" stroke-width="0.354445" stroke-linecap="round"/>
    <path d="M120.188 268.127H118.513V273.529H120.188V268.127ZM111.071 272.287L111.903 273.6C113.175 273.242 114.024 272.469 114.511 271.484C114.991 272.387 115.811 273.084 117.024 273.424L117.845 272.123C116.034 271.631 115.372 270.406 115.384 269.17V268.35H113.626V269.17C113.626 270.424 112.934 271.754 111.071 272.287ZM112.911 275.275H118.513V275.756H112.946V278.826H120.458V277.502H114.587V276.986H120.2V273.975H112.911V275.275ZM130.402 268.139H128.726V270.857H127.109V272.217H128.726V275.979H130.402V268.139ZM121.202 273.471L122.069 274.83C123.318 274.432 124.144 273.617 124.618 272.592C125.081 273.518 125.872 274.256 127.05 274.631L127.87 273.295C126.124 272.738 125.456 271.414 125.456 270.201V270.166H127.507V268.818H121.671V270.166H123.734V270.189C123.728 271.52 123.036 272.914 121.202 273.471ZM123.194 278.709H130.648V277.361H124.882V275.299H123.194V278.709ZM141.259 276.295H137.158V274.221H140.204V268.889H132.435V274.221H135.494V276.295H131.427V277.666H141.259V276.295ZM134.099 272.908V270.236H138.529V272.908H134.099ZM145.027 268.83C143.334 268.824 142.015 269.943 142.015 271.502C142.015 273.066 143.334 274.18 145.027 274.174C146.738 274.18 148.027 273.066 148.039 271.502C148.027 269.943 146.738 268.824 145.027 268.83ZM141.605 275.404L141.793 276.764C143.656 276.764 146.175 276.74 148.531 276.283L148.402 275.064C146.129 275.381 143.498 275.41 141.605 275.404ZM143.691 271.502C143.691 270.717 144.271 270.283 145.027 270.283C145.8 270.283 146.386 270.717 146.398 271.502C146.386 272.305 145.795 272.727 145.027 272.721C144.277 272.727 143.691 272.305 143.691 271.502ZM148.976 278.908H150.652V268.127H148.976V278.908ZM160.619 269.006H152.697V270.342H158.932C158.914 271.578 158.885 273.066 158.474 275.041L160.185 275.217C160.619 272.891 160.619 271.367 160.619 270.014V269.006ZM151.689 277.631H161.498V276.271H156.775V272.615H155.099V276.271H151.689V277.631ZM165.887 270.412V268.924H164.199V270.412C164.193 272.428 163.461 274.479 161.563 275.334L162.594 276.705C163.801 276.119 164.592 275.059 165.049 273.746C165.483 274.965 166.215 275.949 167.34 276.494L168.348 275.158C166.561 274.297 165.881 272.357 165.887 270.412ZM168.664 278.885H170.352V273.623H171.875V272.205H170.352V268.127H168.664V278.885Z" fill="#787878"/>
    <path d="M113.706 294.068C114.082 294.063 114.395 293.756 114.4 293.375C114.395 292.994 114.082 292.682 113.706 292.682C113.325 292.682 113.008 292.994 113.013 293.375C113.008 293.756 113.325 294.063 113.706 294.068ZM113.013 289.518C113.008 289.898 113.325 290.206 113.706 290.211C114.082 290.206 114.395 289.898 114.4 289.518C114.395 289.137 114.082 288.824 113.706 288.824C113.325 288.824 113.008 289.137 113.013 289.518ZM124.263 286.09H123.335V292.633H124.263V289.674H125.533V288.902H124.263V286.09ZM117.398 287.857H122.613V287.105H120.474V286.08H119.546V287.105H117.398V287.857ZM117.876 289.928C117.872 290.919 118.736 291.563 120.005 291.568C121.26 291.563 122.125 290.919 122.125 289.928C122.125 288.927 121.26 288.272 120.005 288.277C118.736 288.272 117.872 288.927 117.876 289.928ZM118.716 294.645H124.634V293.893H119.644V292.115H118.716V294.645ZM118.775 289.928C118.765 289.352 119.263 288.995 120.005 288.99C120.748 288.995 121.246 289.352 121.255 289.928C121.246 290.499 120.748 290.851 120.005 290.846C119.263 290.851 118.765 290.499 118.775 289.928ZM133.297 286.969H131.158V286.041H130.23V286.969H128.082V287.711H133.297V286.969ZM128.56 289.693C128.556 290.655 129.425 291.285 130.689 291.285C131.949 291.285 132.808 290.655 132.808 289.693C132.808 288.736 131.949 288.111 130.689 288.102C129.425 288.111 128.556 288.736 128.56 289.693ZM129.166 292.75H134.019V294.83H134.947V291.998H129.166V292.75ZM129.459 289.693C129.449 289.156 129.947 288.819 130.689 288.814C131.432 288.819 131.93 289.156 131.939 289.693C131.93 290.235 131.432 290.562 130.689 290.562C129.947 290.562 129.449 290.235 129.459 289.693ZM134.019 291.549H134.947V289.225H136.217V288.453H134.947V286.08H134.019V291.549ZM143.79 286.08H142.853V294.83H143.79V286.08ZM136.603 292.486L137.091 293.238C140.094 291.798 141.183 289.581 141.183 287.018H137.023V287.76H140.245C140.065 289.801 138.927 291.378 136.603 292.486ZM155.177 290.562H151.642V289.557H150.724V290.562H147.199V291.314H155.177V290.562ZM147.619 289.273L147.912 289.986C149.416 289.845 150.636 289.337 151.183 288.521C151.725 289.337 152.951 289.845 154.464 289.986L154.748 289.273C153.009 289.132 151.803 288.497 151.701 287.652H154.376V286.91H151.642V286.07H150.724V286.91H148V287.652H150.666C150.553 288.497 149.352 289.132 147.619 289.273ZM148.146 293.355C148.146 294.303 149.269 294.815 151.183 294.811C153.087 294.815 154.196 294.303 154.201 293.355C154.196 292.408 153.087 291.891 151.183 291.891C149.269 291.891 148.146 292.408 148.146 293.355ZM149.083 293.355C149.079 292.857 149.831 292.584 151.183 292.584C152.516 292.584 153.273 292.857 153.273 293.355C153.273 293.854 152.516 294.117 151.183 294.107C149.831 294.117 149.079 293.854 149.083 293.355ZM162.936 286.08H162.008V288.307H160.378V289.068H162.008V291.285H162.936V286.08ZM155.641 290.494L156.13 291.236C157.175 290.851 157.941 290.064 158.322 289.088C158.703 289.952 159.425 290.655 160.407 290.992L160.885 290.26C159.562 289.811 158.771 288.731 158.776 287.623V287.438H160.651V286.686H155.934V287.438H157.829V287.633C157.834 288.839 156.999 290.021 155.641 290.494ZM157.048 293.18C157.043 294.22 158.166 294.825 160.007 294.83C161.838 294.825 162.961 294.22 162.966 293.18C162.961 292.14 161.838 291.534 160.007 291.529C158.166 291.534 157.043 292.14 157.048 293.18ZM157.966 293.18C157.961 292.584 158.722 292.247 160.007 292.252C161.281 292.247 162.043 292.584 162.048 293.18C162.043 293.771 161.281 294.107 160.007 294.098C158.722 294.107 157.961 293.771 157.966 293.18ZM171.35 286.08H170.422V294.85H171.35V286.08ZM164.572 287.623H167.726V289.322H164.582V292.75H165.324C166.872 292.745 168.19 292.687 169.738 292.428L169.65 291.666C168.185 291.905 166.95 291.974 165.529 291.979V290.064H168.674V286.871H164.572V287.623Z" fill="#919191"/>
    <path d="M214.375 260.508H314.329L315.392 261.571L314.329 262.634H214.375L213.312 261.571L214.375 260.508Z" fill="#E8BBD6"/>
    <path d="M214.375 260.508L314.328 260.508" stroke="#EA75BB" stroke-width="0.354445"/>
    <path d="M214.375 262.633L314.328 262.633" stroke="#EA75BB" stroke-width="0.354445"/>
    <path d="M216.502 258.381L213.312 261.571L216.502 264.761" stroke="#EA75BB" stroke-width="0.354445" stroke-linecap="round"/>
    <path d="M312.202 258.381L315.392 261.571L312.202 264.761" stroke="#EA75BB" stroke-width="0.354445" stroke-linecap="round"/>
    <path d="M216.46 268.643C214.145 268.637 212.387 269.832 212.393 271.619C212.387 273.254 213.735 274.35 215.628 274.59V276.295H211.561V277.666H221.393V276.295H217.292V274.59C219.19 274.35 220.544 273.254 220.549 271.619C220.544 269.832 218.78 268.637 216.46 268.643ZM214.069 271.619C214.063 270.588 215.036 269.979 216.46 269.979C217.901 269.979 218.874 270.588 218.874 271.619C218.874 272.721 217.901 273.301 216.46 273.307C215.036 273.301 214.063 272.721 214.069 271.619ZM230.259 268.127H228.571V273.893H230.259V271.771H231.653V270.389H230.259V268.127ZM222.079 273.682H223.005C225.431 273.676 226.655 273.623 227.962 273.342L227.786 272.006C226.661 272.252 225.642 272.311 223.767 272.322V270.096H226.884V268.76H222.079V273.682ZM223.122 278.768H230.259V274.385H228.571V275.275H224.798V274.385H223.122V278.768ZM224.798 277.432V276.6H228.571V277.432H224.798ZM233.757 268.807H232.163V274.068H236.476V268.807H234.929V270.283H233.757V268.807ZM233.605 276.4H239.405V278.885H241.093V275.064H233.605V276.4ZM233.757 272.756V271.561H234.929V272.756H233.757ZM237.202 274.572H238.761V272.064H239.487V274.619H241.093V268.139H239.487V270.705H238.761V268.326H237.202V274.572ZM250.99 268.139H249.302V275.979H250.99V268.139ZM241.861 273.213L242.74 274.537C243.988 274.133 244.82 273.301 245.3 272.258C245.769 273.225 246.578 273.975 247.779 274.361L248.634 273.037C246.812 272.475 246.162 271.109 246.173 269.756V268.725H244.415V269.756C244.415 271.139 243.73 272.609 241.861 273.213ZM243.701 278.709H251.259V277.361H245.412V275.205H243.701V278.709ZM261.414 268.127H259.82V278.885H261.414V268.127ZM251.839 275.65L252.847 276.893C253.791 276.312 254.406 275.316 254.769 274.145C255.127 275.217 255.724 276.107 256.656 276.646L257.629 275.416C256.029 274.502 255.56 272.715 255.566 270.951V270.518H257.089V269.17H252.273V270.518H253.937V270.951C253.943 272.732 253.445 274.654 251.839 275.65ZM256.339 273.107H257.629V278.404H259.199V268.279H257.629V271.76H256.339V273.107ZM267.057 274.795C264.713 274.795 263.201 275.545 263.201 276.846C263.201 278.129 264.713 278.896 267.057 278.885C269.418 278.896 270.9 278.129 270.912 276.846C270.9 275.545 269.418 274.795 267.057 274.795ZM262.252 274.221H272.002V272.861H267.443V271.033H265.779V272.861H262.252V274.221ZM263.33 269.908H269.172C269.166 270.594 269.125 271.285 268.896 272.193L270.56 272.346C270.871 271.244 270.871 270.307 270.865 269.463V268.596H263.33V269.908ZM264.889 276.846C264.883 276.307 265.65 276.043 267.057 276.049C268.457 276.043 269.236 276.307 269.236 276.846C269.236 277.379 268.457 277.613 267.057 277.619C265.65 277.613 264.883 277.379 264.889 276.846ZM274.774 276.869H272.922L272.359 280.256H273.731L274.774 276.869ZM282.508 268.643C280.194 268.637 278.436 269.832 278.442 271.619C278.436 273.254 279.784 274.35 281.676 274.59V276.295H277.61V277.666H287.442V276.295H283.34V274.59C285.239 274.35 286.592 273.254 286.598 271.619C286.592 269.832 284.829 268.637 282.508 268.643ZM280.118 271.619C280.112 270.588 281.085 269.979 282.508 269.979C283.95 269.979 284.922 270.588 284.922 271.619C284.922 272.721 283.95 273.301 282.508 273.307C281.085 273.301 280.112 272.721 280.118 271.619ZM296.307 268.127H294.62V273.893H296.307V271.771H297.702V270.389H296.307V268.127ZM288.128 273.682H289.054C291.479 273.676 292.704 273.623 294.011 273.342L293.835 272.006C292.71 272.252 291.69 272.311 289.815 272.322V270.096H292.932V268.76H288.128V273.682ZM289.171 278.768H296.307V274.385H294.62V275.275H290.847V274.385H289.171V278.768ZM290.847 277.432V276.6H294.62V277.432H290.847ZM306.978 268.127H305.302V270.693H303.778V272.053H305.302V274.514H306.978V268.127ZM297.767 273.213L298.646 274.549C299.905 274.127 300.732 273.289 301.2 272.252C301.669 273.166 302.454 273.904 303.626 274.279L304.446 272.955C302.817 272.416 302.126 271.244 302.044 270.084H304.083V268.736H298.247V270.084H300.304C300.222 271.338 299.507 272.645 297.767 273.213ZM299.548 276.811C299.548 278.129 300.966 278.902 303.263 278.908C305.589 278.902 307.007 278.129 307.013 276.811C307.007 275.492 305.589 274.719 303.263 274.713C300.966 274.719 299.548 275.492 299.548 276.811ZM301.224 276.811C301.224 276.242 301.921 275.99 303.263 275.99C304.634 275.99 305.325 276.242 305.337 276.811C305.325 277.367 304.634 277.625 303.263 277.619C301.921 277.625 301.224 277.367 301.224 276.811ZM317.05 268.127H315.374V278.908H317.05V268.127ZM308.566 276.424H309.55C311.554 276.418 313.136 276.359 314.835 276.049L314.695 274.689C313.23 274.936 311.906 275.023 310.312 275.041V273.248H313.699V269.006H308.566V270.354H311.976V271.924H308.566V276.424Z" fill="#787878"/>
    <path d="M183.846 143.531H178.631V148.758H183.846V143.531ZM179.862 153.246H187.268V151.898H181.549V149.719H179.862V153.246ZM180.295 147.445V144.867H182.182V147.445H180.295ZM185.229 150.504H186.917V147.094H188.311V145.711H186.917V142.676H185.229V150.504ZM197.587 142.664H195.911V145.078H194.352V146.449H195.911V148.863H197.587V142.664ZM188.387 147.586L189.255 148.91C190.503 148.523 191.329 147.709 191.798 146.695C192.266 147.615 193.057 148.354 194.235 148.734L195.055 147.41C193.409 146.859 192.723 145.658 192.647 144.516H194.692V143.168H188.856V144.516H190.913C190.825 145.764 190.116 147.047 188.387 147.586ZM190.298 153.305H197.587V149.273H190.298V153.305ZM191.997 151.957V150.598H195.946V151.957H191.997ZM208.421 147.996H204.343V147.059H202.655V147.996H198.612V149.332H208.421V147.996ZM198.976 146.297L199.479 147.562C201.495 147.439 202.819 146.895 203.493 146.086C204.167 146.895 205.491 147.439 207.519 147.562L208.022 146.297C205.702 146.174 204.735 145.547 204.507 144.926H207.483V143.602H204.343V142.723H202.655V143.602H199.526V144.926H202.491C202.251 145.547 201.296 146.174 198.976 146.297ZM199.714 151.582C199.714 152.777 201.12 153.434 203.499 153.422C205.86 153.434 207.249 152.777 207.249 151.582C207.249 150.393 205.86 149.742 203.499 149.742C201.12 149.742 199.714 150.393 199.714 151.582ZM201.437 151.582C201.425 151.154 202.069 150.979 203.499 150.984C204.888 150.979 205.556 151.154 205.562 151.582C205.556 152.016 204.888 152.191 203.499 152.191C202.069 152.191 201.425 152.016 201.437 151.582ZM217.849 142.664H216.173V145.23H214.65V146.59H216.173V149.051H217.849V142.664ZM208.638 147.75L209.517 149.086C210.777 148.664 211.603 147.826 212.072 146.789C212.54 147.703 213.325 148.441 214.497 148.816L215.318 147.492C213.689 146.953 212.997 145.781 212.915 144.621H214.954V143.273H209.118V144.621H211.175C211.093 145.875 210.378 147.182 208.638 147.75ZM210.419 151.348C210.419 152.666 211.837 153.439 214.134 153.445C216.46 153.439 217.878 152.666 217.884 151.348C217.878 150.029 216.46 149.256 214.134 149.25C211.837 149.256 210.419 150.029 210.419 151.348ZM212.095 151.348C212.095 150.779 212.792 150.527 214.134 150.527C215.505 150.527 216.197 150.779 216.208 151.348C216.197 151.904 215.505 152.162 214.134 152.156C212.792 152.162 212.095 151.904 212.095 151.348ZM227.921 142.664H226.246V153.445H227.921V142.664ZM219.437 150.961H220.421C222.425 150.955 224.007 150.896 225.707 150.586L225.566 149.227C224.101 149.473 222.777 149.561 221.183 149.578V147.785H224.57V143.543H219.437V144.891H222.847V146.461H219.437V150.961Z" fill="#787878"/>
    <path d="M154.12 132.918H254.073L255.137 133.981L254.073 135.045H154.12L153.057 133.981L154.12 132.918Z" fill="#57B2C3"/>
    <path d="M154.12 132.918L254.073 132.918" stroke="#0091AC" stroke-width="0.354445"/>
    <path d="M154.12 135.043L254.073 135.043" stroke="#0091AC" stroke-width="0.354445"/>
    <path d="M156.247 130.789L153.057 133.979L156.247 137.169" stroke="#0091AC" stroke-width="0.354445" stroke-linecap="round"/>
    <path d="M251.947 130.789L255.137 133.979L251.947 137.169" stroke="#0091AC" stroke-width="0.354445" stroke-linecap="round"/>
    <path d="M216.46 170.117C214.145 170.111 212.387 171.307 212.393 173.094C212.387 174.729 213.735 175.824 215.628 176.064V177.77H211.561V179.141H221.393V177.77H217.292V176.064C219.19 175.824 220.544 174.729 220.549 173.094C220.544 171.307 218.78 170.111 216.46 170.117ZM214.069 173.094C214.063 172.062 215.036 171.453 216.46 171.453C217.901 171.453 218.874 172.062 218.874 173.094C218.874 174.195 217.901 174.775 216.46 174.781C215.036 174.775 214.063 174.195 214.069 173.094ZM230.259 169.602H228.571V175.367H230.259V173.246H231.653V171.863H230.259V169.602ZM222.079 175.156H223.005C225.431 175.15 226.655 175.098 227.962 174.816L227.786 173.48C226.661 173.727 225.642 173.785 223.767 173.797V171.57H226.884V170.234H222.079V175.156ZM223.122 180.242H230.259V175.859H228.571V176.75H224.798V175.859H223.122V180.242ZM224.798 178.906V178.074H228.571V178.906H224.798ZM233.757 170.281H232.163V175.543H236.476V170.281H234.929V171.758H233.757V170.281ZM233.605 177.875H239.405V180.359H241.093V176.539H233.605V177.875ZM233.757 174.23V173.035H234.929V174.23H233.757ZM237.202 176.047H238.761V173.539H239.487V176.094H241.093V169.613H239.487V172.18H238.761V169.801H237.202V176.047ZM250.99 169.613H249.302V177.453H250.99V169.613ZM241.861 174.688L242.74 176.012C243.988 175.607 244.82 174.775 245.3 173.732C245.769 174.699 246.578 175.449 247.779 175.836L248.634 174.512C246.812 173.949 246.162 172.584 246.173 171.23V170.199H244.415V171.23C244.415 172.613 243.73 174.084 241.861 174.688ZM243.701 180.184H251.259V178.836H245.412V176.68H243.701V180.184ZM261.414 169.602H259.82V180.359H261.414V169.602ZM251.839 177.125L252.847 178.367C253.791 177.787 254.406 176.791 254.769 175.619C255.127 176.691 255.724 177.582 256.656 178.121L257.629 176.891C256.029 175.977 255.56 174.189 255.566 172.426V171.992H257.089V170.645H252.273V171.992H253.937V172.426C253.943 174.207 253.445 176.129 251.839 177.125ZM256.339 174.582H257.629V179.879H259.199V169.754H257.629V173.234H256.339V174.582ZM267.057 176.27C264.713 176.27 263.201 177.02 263.201 178.32C263.201 179.604 264.713 180.371 267.057 180.359C269.418 180.371 270.9 179.604 270.912 178.32C270.9 177.02 269.418 176.27 267.057 176.27ZM262.252 175.695H272.002V174.336H267.443V172.508H265.779V174.336H262.252V175.695ZM263.33 171.383H269.172C269.166 172.068 269.125 172.76 268.896 173.668L270.56 173.82C270.871 172.719 270.871 171.781 270.865 170.938V170.07H263.33V171.383ZM264.889 178.32C264.883 177.781 265.65 177.518 267.057 177.523C268.457 177.518 269.236 177.781 269.236 178.32C269.236 178.854 268.457 179.088 267.057 179.094C265.65 179.088 264.883 178.854 264.889 178.32ZM274.774 178.344H272.922L272.359 181.73H273.731L274.774 178.344ZM282.508 170.117C280.194 170.111 278.436 171.307 278.442 173.094C278.436 174.729 279.784 175.824 281.676 176.064V177.77H277.61V179.141H287.442V177.77H283.34V176.064C285.239 175.824 286.592 174.729 286.598 173.094C286.592 171.307 284.829 170.111 282.508 170.117ZM280.118 173.094C280.112 172.062 281.085 171.453 282.508 171.453C283.95 171.453 284.922 172.062 284.922 173.094C284.922 174.195 283.95 174.775 282.508 174.781C281.085 174.775 280.112 174.195 280.118 173.094ZM296.307 169.602H294.62V175.367H296.307V173.246H297.702V171.863H296.307V169.602ZM288.128 175.156H289.054C291.479 175.15 292.704 175.098 294.011 174.816L293.835 173.48C292.71 173.727 291.69 173.785 289.815 173.797V171.57H292.932V170.234H288.128V175.156ZM289.171 180.242H296.307V175.859H294.62V176.75H290.847V175.859H289.171V180.242ZM290.847 178.906V178.074H294.62V178.906H290.847ZM306.978 169.602H305.302V172.168H303.778V173.527H305.302V175.988H306.978V169.602ZM297.767 174.688L298.646 176.023C299.905 175.602 300.732 174.764 301.2 173.727C301.669 174.641 302.454 175.379 303.626 175.754L304.446 174.43C302.817 173.891 302.126 172.719 302.044 171.559H304.083V170.211H298.247V171.559H300.304C300.222 172.812 299.507 174.119 297.767 174.688ZM299.548 178.285C299.548 179.604 300.966 180.377 303.263 180.383C305.589 180.377 307.007 179.604 307.013 178.285C307.007 176.967 305.589 176.193 303.263 176.188C300.966 176.193 299.548 176.967 299.548 178.285ZM301.224 178.285C301.224 177.717 301.921 177.465 303.263 177.465C304.634 177.465 305.325 177.717 305.337 178.285C305.325 178.842 304.634 179.1 303.263 179.094C301.921 179.1 301.224 178.842 301.224 178.285ZM317.05 169.602H315.374V180.383H317.05V169.602ZM308.566 177.898H309.55C311.554 177.893 313.136 177.834 314.835 177.523L314.695 176.164C313.23 176.41 311.906 176.498 310.312 176.516V174.723H313.699V170.48H308.566V171.828H311.976V173.398H308.566V177.898Z" fill="#787878"/>
    <path d="M214.375 70.1797H314.329L315.392 71.243L314.329 72.3064H214.375L213.312 71.243L214.375 70.1797Z" fill="#7D8EDE"/>
    <path d="M214.375 70.1797L314.328 70.1797" stroke="#4662E9" stroke-width="0.354445"/>
    <path d="M214.375 72.3066L314.328 72.3066" stroke="#4662E9" stroke-width="0.354445"/>
    <path d="M216.502 68.0527L213.312 71.2427L216.502 74.4327" stroke="#4662E9" stroke-width="0.354445" stroke-linecap="round"/>
    <path d="M312.202 68.0527L315.392 71.2427L312.202 74.4327" stroke="#4662E9" stroke-width="0.354445" stroke-linecap="round"/>
    <path d="M216.46 80.4434C214.145 80.4375 212.387 81.6328 212.393 83.4199C212.387 85.0547 213.735 86.1504 215.628 86.3906V88.0957H211.561V89.4668H221.393V88.0957H217.292V86.3906C219.19 86.1504 220.544 85.0547 220.549 83.4199C220.544 81.6328 218.78 80.4375 216.46 80.4434ZM214.069 83.4199C214.063 82.3887 215.036 81.7793 216.46 81.7793C217.901 81.7793 218.874 82.3887 218.874 83.4199C218.874 84.5215 217.901 85.1016 216.46 85.1074C215.036 85.1016 214.063 84.5215 214.069 83.4199ZM230.259 79.9277H228.571V85.6934H230.259V83.5723H231.653V82.1895H230.259V79.9277ZM222.079 85.4824H223.005C225.431 85.4766 226.655 85.4238 227.962 85.1426L227.786 83.8066C226.661 84.0527 225.642 84.1113 223.767 84.123V81.8965H226.884V80.5605H222.079V85.4824ZM223.122 90.5684H230.259V86.1855H228.571V87.0762H224.798V86.1855H223.122V90.5684ZM224.798 89.2324V88.4004H228.571V89.2324H224.798ZM233.757 80.6074H232.163V85.8691H236.476V80.6074H234.929V82.084H233.757V80.6074ZM233.605 88.2012H239.405V90.6855H241.093V86.8652H233.605V88.2012ZM233.757 84.5566V83.3613H234.929V84.5566H233.757ZM237.202 86.373H238.761V83.8652H239.487V86.4199H241.093V79.9395H239.487V82.5059H238.761V80.127H237.202V86.373ZM250.99 79.9395H249.302V87.7793H250.99V79.9395ZM241.861 85.0137L242.74 86.3379C243.988 85.9336 244.82 85.1016 245.3 84.0586C245.769 85.0254 246.578 85.7754 247.779 86.1621L248.634 84.8379C246.812 84.2754 246.162 82.9102 246.173 81.5566V80.5254H244.415V81.5566C244.415 82.9395 243.73 84.4102 241.861 85.0137ZM243.701 90.5098H251.259V89.1621H245.412V87.0059H243.701V90.5098ZM261.414 79.9277H259.82V90.6855H261.414V79.9277ZM251.839 87.4512L252.847 88.6934C253.791 88.1133 254.406 87.1172 254.769 85.9453C255.127 87.0176 255.724 87.9082 256.656 88.4473L257.629 87.2168C256.029 86.3027 255.56 84.5156 255.566 82.752V82.3184H257.089V80.9707H252.273V82.3184H253.937V82.752C253.943 84.5332 253.445 86.4551 251.839 87.4512ZM256.339 84.9082H257.629V90.2051H259.199V80.0801H257.629V83.5605H256.339V84.9082ZM267.057 86.5957C264.713 86.5957 263.201 87.3457 263.201 88.6465C263.201 89.9297 264.713 90.6973 267.057 90.6855C269.418 90.6973 270.9 89.9297 270.912 88.6465C270.9 87.3457 269.418 86.5957 267.057 86.5957ZM262.252 86.0215H272.002V84.6621H267.443V82.834H265.779V84.6621H262.252V86.0215ZM263.33 81.709H269.172C269.166 82.3945 269.125 83.0859 268.896 83.9941L270.56 84.1465C270.871 83.0449 270.871 82.1074 270.865 81.2637V80.3965H263.33V81.709ZM264.889 88.6465C264.883 88.1074 265.65 87.8438 267.057 87.8496C268.457 87.8438 269.236 88.1074 269.236 88.6465C269.236 89.1797 268.457 89.4141 267.057 89.4199C265.65 89.4141 264.883 89.1797 264.889 88.6465ZM274.774 88.6699H272.922L272.359 92.0566H273.731L274.774 88.6699ZM282.508 80.4434C280.194 80.4375 278.436 81.6328 278.442 83.4199C278.436 85.0547 279.784 86.1504 281.676 86.3906V88.0957H277.61V89.4668H287.442V88.0957H283.34V86.3906C285.239 86.1504 286.592 85.0547 286.598 83.4199C286.592 81.6328 284.829 80.4375 282.508 80.4434ZM280.118 83.4199C280.112 82.3887 281.085 81.7793 282.508 81.7793C283.95 81.7793 284.922 82.3887 284.922 83.4199C284.922 84.5215 283.95 85.1016 282.508 85.1074C281.085 85.1016 280.112 84.5215 280.118 83.4199ZM296.307 79.9277H294.62V85.6934H296.307V83.5723H297.702V82.1895H296.307V79.9277ZM288.128 85.4824H289.054C291.479 85.4766 292.704 85.4238 294.011 85.1426L293.835 83.8066C292.71 84.0527 291.69 84.1113 289.815 84.123V81.8965H292.932V80.5605H288.128V85.4824ZM289.171 90.5684H296.307V86.1855H294.62V87.0762H290.847V86.1855H289.171V90.5684ZM290.847 89.2324V88.4004H294.62V89.2324H290.847ZM306.978 79.9277H305.302V82.4941H303.778V83.8535H305.302V86.3145H306.978V79.9277ZM297.767 85.0137L298.646 86.3496C299.905 85.9277 300.732 85.0898 301.2 84.0527C301.669 84.9668 302.454 85.7051 303.626 86.0801L304.446 84.7559C302.817 84.2168 302.126 83.0449 302.044 81.8848H304.083V80.5371H298.247V81.8848H300.304C300.222 83.1387 299.507 84.4453 297.767 85.0137ZM299.548 88.6113C299.548 89.9297 300.966 90.7031 303.263 90.709C305.589 90.7031 307.007 89.9297 307.013 88.6113C307.007 87.293 305.589 86.5195 303.263 86.5137C300.966 86.5195 299.548 87.293 299.548 88.6113ZM301.224 88.6113C301.224 88.043 301.921 87.791 303.263 87.791C304.634 87.791 305.325 88.043 305.337 88.6113C305.325 89.168 304.634 89.4258 303.263 89.4199C301.921 89.4258 301.224 89.168 301.224 88.6113ZM317.05 79.9277H315.374V90.709H317.05V79.9277ZM308.566 88.2246H309.55C311.554 88.2188 313.136 88.1602 314.835 87.8496L314.695 86.4902C313.23 86.7363 311.906 86.8242 310.312 86.8418V85.0488H313.699V80.8066H308.566V82.1543H311.976V83.7246H308.566V88.2246Z" fill="#787878"/>
    <path d="M214.375 159.855H314.329L315.392 160.919L314.329 161.982H214.375L213.312 160.919L214.375 159.855Z" fill="#57B2C3"/>
    <path d="M214.375 159.855L314.328 159.855" stroke="#0091AC" stroke-width="0.354445"/>
    <path d="M214.375 161.98L314.328 161.98" stroke="#0091AC" stroke-width="0.354445"/>
    <path d="M216.502 157.729L213.312 160.919L216.502 164.109" stroke="#0091AC" stroke-width="0.354445" stroke-linecap="round"/>
    <path d="M312.202 157.729L315.392 160.919L312.202 164.109" stroke="#0091AC" stroke-width="0.354445" stroke-linecap="round"/>
    <path d="M18.3795 195.656H15.7311V194.484H14.817V195.656H12.1686V196.406H18.3795V195.656ZM12.7662 198.832C12.7604 199.963 13.7682 200.701 15.274 200.707C16.7682 200.701 17.7701 199.963 17.7819 198.832C17.7701 197.684 16.7682 196.957 15.274 196.945C13.7682 196.957 12.7604 197.684 12.7662 198.832ZM13.4694 202.371H19.3756V204.949H20.2897V201.621H13.4694V202.371ZM13.6451 198.832C13.6393 198.123 14.2897 197.666 15.274 197.66C16.2467 197.666 16.903 198.123 16.9147 198.832C16.903 199.523 16.2467 199.975 15.274 199.969C14.2897 199.975 13.6393 199.523 13.6451 198.832ZM19.3756 201.047H20.2897V198.199H21.86V197.426H20.2897V194.531H19.3756V201.047ZM30.6434 195.586H23.2723V196.348H29.7411V196.746C29.7352 198.047 29.7352 199.418 29.3661 201.258L30.2684 201.363C30.6376 199.424 30.6376 198.082 30.6434 196.746V195.586ZM22.2762 203.473H31.7684V202.711H28.1356V199.277H27.2333V202.711H25.5458V199.277H24.6317V202.711H22.2762V203.473ZM38.8822 197.332V195.434H37.9681V197.332C37.9564 199.307 36.6732 201.299 35.1205 202.008L35.7064 202.781C36.9251 202.166 37.9505 200.848 38.431 199.277C38.929 200.76 39.9544 201.996 41.1439 202.57L41.7064 201.844C40.1712 201.146 38.8763 199.236 38.8822 197.332ZM42.8431 204.973H43.7689V194.531H42.8431V204.973ZM53.9469 194.531H53.0211V197.707H51.2515V198.469H53.0211V200.848H53.9469V194.531ZM45.3219 196.383H51.4039V195.633H48.814V194.438H47.9117V195.633H45.3219V196.383ZM45.943 198.773C45.943 199.898 46.9449 200.637 48.357 200.637C49.775 200.637 50.7711 199.898 50.7828 198.773C50.7711 197.684 49.775 196.922 48.357 196.922C46.9449 196.922 45.943 197.684 45.943 198.773ZM46.8219 198.773C46.8219 198.105 47.4488 197.637 48.357 197.637C49.2652 197.637 49.8922 198.105 49.8922 198.773C49.8922 199.465 49.2652 199.922 48.357 199.934C47.4488 199.922 46.8219 199.465 46.8219 198.773ZM47.1383 204.809H53.9469V201.41H47.1383V204.809ZM48.0523 204.059V202.148H53.0445V204.059H48.0523ZM64.0311 194.531H63.1053V204.973H64.0311V194.531ZM55.828 198.973C55.8338 201.193 56.9354 202.6 58.4881 202.594C60.035 202.6 61.1541 201.193 61.1483 198.973C61.1541 196.758 60.035 195.346 58.4881 195.34C56.9354 195.346 55.8338 196.758 55.828 198.973ZM56.7186 198.973C56.7186 197.279 57.4451 196.166 58.4881 196.16C59.5369 196.166 60.2576 197.279 60.2576 198.973C60.2576 200.666 59.5369 201.779 58.4881 201.773C57.4451 201.779 56.7186 200.666 56.7186 198.973ZM70.4183 200.648H69.5511V204.809H73.1722V200.648H72.3167V201.949H70.4183V200.648ZM68.5081 197.391C68.5023 198.82 69.6273 199.793 71.2151 199.793C72.6273 199.793 73.6995 198.984 73.8812 197.754H76.055V200.051H76.9808V194.531H76.055V196.992H73.8753C73.6761 195.791 72.6155 195 71.2151 195C69.6273 195 68.5023 195.967 68.5081 197.391ZM69.387 197.391C69.387 196.441 70.1429 195.773 71.2151 195.773C72.264 195.773 73.0198 196.441 73.0198 197.391C73.0198 198.346 72.264 199.025 71.2151 199.031C70.1429 199.025 69.387 198.346 69.387 197.391ZM70.4183 204.082V202.652H72.3167V204.082H70.4183ZM73.3128 204.188L73.7933 204.891C74.7132 204.498 75.3519 203.76 75.68 202.91C76.0023 203.771 76.6292 204.51 77.5901 204.891L78.0706 204.188C76.7991 203.719 76.137 202.564 76.1487 201.469V200.578H75.2347V201.469C75.2288 202.523 74.5667 203.666 73.3128 204.188ZM86.9009 197.695H80.6783V194.918H79.7642V198.434H86.9009V197.695ZM78.4634 200.602H88.0025V199.852H78.4634V200.602ZM79.7056 204.691H86.9595V203.93H80.6197V201.668H79.7056V204.691ZM100.87 199.406H91.378V200.168H95.667V201.281C93.6807 201.369 92.5205 202.008 92.5264 203.109C92.5205 204.275 93.8623 204.926 96.124 204.926C98.3565 204.926 99.6983 204.275 99.71 203.109C99.6983 202.008 98.5322 201.369 96.5694 201.281V200.168H100.87V199.406ZM91.917 198.047L92.2451 198.773C93.9619 198.568 95.5498 197.801 96.124 196.646C96.6983 197.801 98.2979 198.568 100.003 198.773L100.343 198.047C98.5088 197.859 96.7862 196.939 96.7217 195.773H100.026V195.023H92.2451V195.773H95.5264C95.4619 196.939 93.7217 197.859 91.917 198.047ZM93.4639 203.109C93.4522 202.4 94.4541 201.996 96.124 201.984C97.7764 201.996 98.7783 202.4 98.7842 203.109C98.7783 203.801 97.7764 204.217 96.124 204.211C94.4541 204.217 93.4522 203.801 93.4639 203.109ZM107.743 195.656H105.095V194.484H104.181V195.656H101.532V196.406H107.743V195.656ZM102.13 198.832C102.124 199.963 103.132 200.701 104.638 200.707C106.132 200.701 107.134 199.963 107.146 198.832C107.134 197.684 106.132 196.957 104.638 196.945C103.132 196.957 102.124 197.684 102.13 198.832ZM102.833 202.371H108.74V204.949H109.654V201.621H102.833V202.371ZM103.009 198.832C103.003 198.123 103.654 197.666 104.638 197.66C105.611 197.666 106.267 198.123 106.279 198.832C106.267 199.523 105.611 199.975 104.638 199.969C103.654 199.975 103.003 199.523 103.009 198.832ZM108.74 201.047H109.654V198.199H111.224V197.426H109.654V194.531H108.74V201.047ZM120.007 195.586H112.636V196.348H119.105V196.746C119.099 198.047 119.099 199.418 118.73 201.258L119.632 201.363C120.001 199.424 120.001 198.082 120.007 196.746V195.586ZM111.64 203.473H121.132V202.711H117.5V199.277H116.597V202.711H114.91V199.277H113.996V202.711H111.64V203.473ZM127.918 195.516H126.852L124.742 196.922V197.988L126.805 196.617H126.852V204H127.918V195.516ZM135.799 195.656H133.151V194.484H132.237V195.656H129.588V196.406H135.799V195.656ZM130.186 198.832C130.18 199.963 131.188 200.701 132.694 200.707C134.188 200.701 135.19 199.963 135.201 198.832C135.19 197.684 134.188 196.957 132.694 196.945C131.188 196.957 130.18 197.684 130.186 198.832ZM130.889 202.371H136.795V204.949H137.709V201.621H130.889V202.371ZM131.065 198.832C131.059 198.123 131.709 197.666 132.694 197.66C133.666 197.666 134.322 198.123 134.334 198.832C134.322 199.523 133.666 199.975 132.694 199.969C131.709 199.975 131.059 199.523 131.065 198.832ZM136.795 201.047H137.709V198.199H139.28V197.426H137.709V194.531H136.795V201.047ZM148.332 194.543H147.407V195.914H144.407V196.652H147.407V197.906H144.407V198.645H147.407V202.254H148.332V194.543ZM140.317 200.707H141.102C142.631 200.695 144.049 200.625 145.743 200.309L145.649 199.547C144.061 199.834 142.678 199.916 141.243 199.922V195.293H140.317V200.707ZM141.618 204.727H148.614V203.953H142.543V201.598H141.618V204.727ZM159.319 200.027H149.827V200.777H159.319V200.027ZM150.882 196.969C150.882 198.264 152.311 199.043 154.573 199.043C156.811 199.043 158.247 198.264 158.253 196.969C158.247 195.662 156.811 194.895 154.573 194.906C152.311 194.895 150.882 195.662 150.882 196.969ZM151.057 204.727H158.264V203.953H151.983V201.691H151.057V204.727ZM151.831 196.969C151.825 196.154 152.891 195.645 154.573 195.645C156.243 195.645 157.309 196.154 157.315 196.969C157.309 197.795 156.243 198.293 154.573 198.293C152.891 198.293 151.825 197.795 151.831 196.969ZM169.034 198.164H170.124C169.808 196.523 168.425 195.398 166.632 195.398C164.452 195.398 162.911 197.074 162.917 199.758C162.911 202.441 164.435 204.117 166.702 204.117C168.724 204.117 170.171 202.764 170.171 200.66V199.746H166.925V200.672H169.14C169.122 202.178 168.132 203.127 166.702 203.133C165.132 203.127 163.943 201.943 163.937 199.758C163.943 197.566 165.132 196.383 166.632 196.383C167.845 196.383 168.671 197.074 169.034 198.164ZM174.372 195.516H173.306L171.197 196.922V197.988L173.259 196.617H173.306V204H174.372V195.516ZM176.394 204H181.902V203.062H177.859V202.992L179.804 200.988C181.304 199.441 181.744 198.703 181.75 197.754C181.744 196.436 180.654 195.398 179.113 195.398C177.578 195.398 176.418 196.406 176.429 197.906H177.425C177.431 196.957 178.064 196.318 179.078 196.312C180.033 196.318 180.759 196.881 180.765 197.754C180.759 198.539 180.279 199.113 179.277 200.18L176.382 203.227L176.394 204ZM186.127 204.117C187.82 204.117 189.086 203.086 189.08 201.691C189.086 200.613 188.418 199.822 187.31 199.652V199.594C188.201 199.342 188.764 198.639 188.752 197.672C188.764 196.459 187.779 195.398 186.162 195.398C184.656 195.398 183.402 196.301 183.35 197.648H184.369C184.416 196.816 185.242 196.318 186.15 196.312C187.117 196.318 187.738 196.881 187.732 197.73C187.738 198.604 187.017 199.184 185.986 199.184H185.295V200.109H185.986C187.305 200.115 188.043 200.766 188.049 201.691C188.043 202.576 187.234 203.18 186.115 203.18C185.101 203.18 184.299 202.676 184.24 201.867H183.174C183.226 203.215 184.439 204.117 186.127 204.117ZM193.141 204.117C195.022 204.117 196.106 202.535 196.106 199.758C196.106 197.004 195.004 195.398 193.141 195.398C191.272 195.398 190.17 197.004 190.176 199.758C190.17 202.535 191.26 204.117 193.141 204.117ZM191.195 199.758C191.201 197.561 191.922 196.318 193.141 196.312C194.36 196.318 195.08 197.561 195.074 199.758C195.08 201.955 194.365 203.18 193.141 203.18C191.91 203.18 191.201 201.955 191.195 199.758ZM203.196 197.73V196.371H205.54V195.609H199.868V196.371H202.294V197.73C202.282 199.506 200.993 201.486 199.493 202.219L200.055 202.945C201.221 202.348 202.264 201 202.745 199.471C203.214 200.883 204.204 202.113 205.376 202.688L205.903 201.961C204.391 201.24 203.184 199.4 203.196 197.73ZM206.817 204.949H207.731V199.535H209.477V198.75H207.731V194.531H206.817V204.949ZM212.847 197.742V197.227H214.804V196.465H212.858V194.918H211.979V196.465H209.999V197.227H211.979V197.742C211.973 199.465 211.136 201.293 209.718 202.113L210.268 202.816C211.311 202.189 212.056 201.018 212.425 199.682C212.806 200.936 213.556 202.014 214.593 202.582L215.12 201.891C213.702 201.135 212.852 199.418 212.847 197.742ZM214.089 199.43H215.729V204.41H216.597V194.789H215.729V198.645H214.089V199.43ZM217.827 204.949H218.706V194.531H217.827V204.949ZM232.242 202.84H227.894V200.297H231.058V195.41H223.827V200.297H226.992V202.84H222.702V203.613H232.242V202.84ZM224.73 199.559V196.148H230.167V199.559H224.73ZM236.244 195.293C234.597 195.299 233.425 196.295 233.431 197.742C233.425 199.195 234.597 200.186 236.244 200.191C237.878 200.186 239.039 199.195 239.045 197.742C239.039 196.295 237.878 195.299 236.244 195.293ZM232.892 201.891L233.021 202.676C234.896 202.676 237.457 202.664 239.841 202.219L239.771 201.539C237.468 201.879 234.814 201.896 232.892 201.891ZM234.334 197.742C234.328 196.775 235.13 196.102 236.244 196.102C237.345 196.102 238.148 196.775 238.142 197.742C238.148 198.715 237.345 199.383 236.244 199.383C235.13 199.383 234.328 198.715 234.334 197.742ZM240.462 204.973H241.377V194.531H240.462V204.973ZM252.457 199.406H242.965V200.168H247.254V201.281C245.267 201.369 244.107 202.008 244.113 203.109C244.107 204.275 245.449 204.926 247.711 204.926C249.943 204.926 251.285 204.275 251.297 203.109C251.285 202.008 250.119 201.369 248.156 201.281V200.168H252.457V199.406ZM243.504 198.047L243.832 198.773C245.549 198.568 247.137 197.801 247.711 196.646C248.285 197.801 249.885 198.568 251.59 198.773L251.93 198.047C250.096 197.859 248.373 196.939 248.308 195.773H251.613V195.023H243.832V195.773H247.113C247.049 196.939 245.308 197.859 243.504 198.047ZM245.051 203.109C245.039 202.4 246.041 201.996 247.711 201.984C249.363 201.996 250.365 202.4 250.371 203.109C250.365 203.801 249.363 204.217 247.711 204.211C246.041 204.217 245.039 203.801 245.051 203.109ZM261.24 194.531H260.315V202.16H261.24V198.48H262.811V197.707H261.24V194.531ZM253.107 200.215L253.506 200.953C256.512 200.016 258.428 198.023 258.428 195.34H253.541V196.113H257.426C257.232 197.953 255.609 199.436 253.107 200.215ZM254.713 204.727H261.721V203.953H255.627V201.387H254.713V204.727ZM266.637 195.117H265.711L262.981 205.277H263.895L266.637 195.117ZM275.608 194.531H274.682V204.949H275.608V194.531ZM267.124 202.242L267.628 202.992C271.12 201.316 272.514 198.662 272.526 195.668H267.604V196.418H271.588C271.383 198.908 269.942 200.906 267.124 202.242ZM285.27 194.531H284.356V199.84H285.27V197.566H286.841V196.793H285.27V194.531ZM277.571 199.289H282.387V195.129H277.571V199.289ZM278.473 198.551V195.879H281.497V198.551H278.473ZM278.626 201.07H284.356V202.172H278.649V204.809H285.657V204.07H279.552V202.875H285.27V200.332H278.626V201.07ZM295.876 195.328H290.345V196.09H291.4V199.553C290.919 199.559 290.468 199.559 290.052 199.559L290.169 200.332C291.863 200.338 294.23 200.303 296.263 199.992L296.216 199.289C295.765 199.348 295.29 199.389 294.81 199.424V196.09H295.876V195.328ZM291.716 203.051C291.71 204.24 293.029 204.926 295.208 204.926C297.388 204.926 298.7 204.24 298.7 203.051C298.7 201.861 297.388 201.182 295.208 201.188C293.029 201.182 291.71 201.861 291.716 203.051ZM292.29 199.535V196.09H293.919V199.477C293.374 199.506 292.823 199.523 292.29 199.535ZM292.63 203.051C292.624 202.336 293.603 201.902 295.208 201.902C296.808 201.902 297.786 202.336 297.786 203.051C297.786 203.777 296.808 204.199 295.208 204.199C293.603 204.199 292.624 203.777 292.63 203.051ZM295.982 199.031H297.74V200.965H298.665V194.531H297.74V196.406H295.982V197.168H297.74V198.27H295.982V199.031ZM308.222 194.531H307.308V204.949H308.222V199.547H309.91V198.773H308.222V194.531ZM300.23 202.242L300.746 202.969C304.138 201.293 305.521 198.604 305.527 195.656H300.71V196.43H304.595C304.384 198.896 302.919 200.906 300.23 202.242ZM319.83 202.887H315.482V200.918H318.869V200.156H312.4V198.457H318.623V195.305H311.463V196.066H317.72V197.707H311.486V200.918H314.58V202.887H310.291V203.66H319.83V202.887ZM42.7242 214.531H41.8453V218.727H40.3102V214.766H39.4664V224.41H40.3102V219.488H41.8453V224.949H42.7242V214.531ZM34.2047 222.371H34.8727C36.4723 222.365 37.5328 222.324 38.7867 222.066L38.7047 221.293C37.5445 221.527 36.5543 221.58 35.1187 221.586V216.57H38.107V215.809H34.2047V222.371ZM46.9959 217.742V217.227H48.953V216.465H47.0077V214.918H46.1287V216.465H44.1483V217.227H46.1287V217.742C46.1229 219.465 45.285 221.293 43.867 222.113L44.4178 222.816C45.4608 222.189 46.2049 221.018 46.5741 219.682C46.9549 220.936 47.7049 222.014 48.742 222.582L49.2694 221.891C47.8514 221.135 47.0018 219.418 46.9959 217.742ZM48.2381 219.43H49.8787V224.41H50.7459V214.789H49.8787V218.645H48.2381V219.43ZM51.9764 224.949H52.8553V214.531H51.9764V224.949ZM55.7911 223.215H54.6544L54.0098 226.402H54.877L55.7911 223.215ZM67.8267 214.543H66.9127V222.348H67.8267V218.75H69.397V217.977H67.8267V214.543ZM59.7056 216.57H65.9166V215.82H63.2681V214.543H62.3541V215.82H59.7056V216.57ZM60.3033 219.09C60.2974 220.262 61.3052 221.018 62.8111 221.012C64.2994 221.018 65.3072 220.262 65.3189 219.09C65.3072 217.906 64.2994 217.145 62.8111 217.145C61.3052 217.145 60.2974 217.906 60.3033 219.09ZM61.1822 219.09C61.1763 218.346 61.8267 217.865 62.8111 217.871C63.7837 217.865 64.44 218.346 64.4517 219.09C64.44 219.822 63.7837 220.297 62.8111 220.285C61.8267 220.297 61.1763 219.822 61.1822 219.09ZM61.3111 224.727H68.3072V223.953H62.2134V221.727H61.3111V224.727ZM82.1123 220.051H72.5733V220.801H76.9561V222.84H77.8701V220.801H82.1123V220.051ZM73.792 224.727H81.0459V223.953H74.7061V221.879H73.792V224.727ZM73.8506 219.031H80.835V214.871H79.9209V216.207H74.7647V214.871H73.8506V219.031ZM74.7647 218.281V216.91H79.9209V218.281H74.7647ZM91.3294 214.531H90.4036V224.949H91.3294V214.531ZM82.845 222.242L83.3489 222.992C86.8411 221.316 88.2356 218.662 88.2473 215.668H83.3255V216.418H87.3098C87.1048 218.908 85.6634 220.906 82.845 222.242ZM104.513 214.531H103.611V218.773H102.111V214.766H101.244V224.41H102.111V219.559H103.611V224.949H104.513V214.531ZM96.1462 222.254H96.7908C97.9392 222.254 99.1345 222.178 100.588 221.914L100.47 221.094C99.2048 221.352 98.0916 221.428 97.0603 221.434V215.809H96.1462V222.254ZM115.242 219.688H112.887V218.217C113.707 217.889 114.17 217.361 114.176 216.664C114.17 215.439 112.764 214.736 110.496 214.73C108.211 214.736 106.805 215.439 106.805 216.664C106.805 217.367 107.273 217.895 108.105 218.217V219.688H105.75V220.449H115.242V219.688ZM106.898 223.086C106.893 224.275 108.234 224.926 110.496 224.926C112.729 224.926 114.07 224.275 114.082 223.086C114.07 221.896 112.729 221.24 110.496 221.246C108.234 221.24 106.893 221.896 106.898 223.086ZM107.754 216.664C107.748 215.914 108.791 215.457 110.496 215.457C112.184 215.457 113.232 215.914 113.238 216.664C113.232 217.426 112.184 217.865 110.496 217.871C108.791 217.865 107.748 217.426 107.754 216.664ZM107.836 223.086C107.824 222.377 108.826 221.961 110.496 221.949C112.148 221.961 113.15 222.377 113.156 223.086C113.15 223.795 112.148 224.217 110.496 224.211C108.826 224.217 107.824 223.795 107.836 223.086ZM109.02 219.688V218.469C109.459 218.545 109.951 218.586 110.496 218.586C111.041 218.586 111.533 218.545 111.973 218.463V219.688H109.02ZM120.627 214.719C118.301 214.719 116.936 215.357 116.936 216.512C116.936 217.695 118.301 218.334 120.627 218.34C122.942 218.334 124.301 217.695 124.307 216.512C124.301 215.357 122.942 214.719 120.627 214.719ZM115.881 219.793H125.373V219.043H115.881V219.793ZM117.03 221.398H123.252V222.348H117.053V224.832H124.471V224.105H117.967V223.027H124.155V220.695H117.03V221.398ZM117.897 216.512C117.885 215.826 118.899 215.416 120.627 215.41C122.356 215.416 123.364 215.826 123.369 216.512C123.364 217.238 122.356 217.637 120.627 217.637C118.899 217.637 117.885 217.238 117.897 216.512ZM138.276 219.934H133.975V218.633H133.073V219.934H128.784V220.695H138.276V219.934ZM129.335 218.434L129.628 219.148C131.35 218.967 132.891 218.346 133.53 217.297C134.163 218.346 135.71 218.967 137.432 219.148L137.714 218.434C135.768 218.252 134.11 217.461 134.034 216.301H137.315V215.551H133.975V214.508H133.073V215.551H129.768V216.301H133.02C132.938 217.461 131.286 218.252 129.335 218.434ZM129.932 223.203C129.926 224.322 131.262 224.926 133.53 224.926C135.786 224.926 137.104 224.322 137.116 223.203C137.104 222.084 135.786 221.48 133.53 221.48C131.262 221.48 129.926 222.084 129.932 223.203ZM130.87 223.203C130.858 222.547 131.842 222.178 133.53 222.172C135.2 222.178 136.184 222.547 136.19 223.203C136.184 223.859 135.2 224.223 133.53 224.211C131.842 224.223 130.858 223.859 130.87 223.203ZM147.552 214.531H146.626V217.25H144.528V218.012H146.626V220.742H147.552V214.531ZM138.962 219.91L139.442 220.648C140.685 220.174 141.651 219.201 142.097 217.982C142.548 219.055 143.456 219.934 144.622 220.355L145.102 219.617C143.579 219.096 142.536 217.801 142.536 216.441V216.066H144.868V215.293H139.255V216.066H141.61V216.453C141.61 217.941 140.509 219.354 138.962 219.91ZM140.602 223.004C140.597 224.234 141.927 224.938 144.095 224.949C146.257 224.938 147.587 224.234 147.587 223.004C147.587 221.779 146.257 221.064 144.095 221.07C141.927 221.064 140.597 221.779 140.602 223.004ZM141.517 223.004C141.511 222.242 142.495 221.785 144.095 221.785C145.688 221.785 146.673 222.242 146.673 223.004C146.673 223.76 145.688 224.217 144.095 224.211C142.495 224.217 141.511 223.76 141.517 223.004ZM157.648 214.531H156.734V224.973H157.648V214.531ZM149.632 216.266H153.558V218.457H149.655V222.441H150.523C152.321 222.441 153.904 222.365 155.82 222.066L155.726 221.293C153.862 221.592 152.321 221.674 150.593 221.668V219.207H154.484V215.504H149.632V216.266ZM167.24 214.531H166.326V224.949H167.24V219.594H168.986V218.832H167.24V214.531ZM159.119 216.969H165.318V216.207H162.716V214.66H161.802V216.207H159.119V216.969ZM159.716 220.227C159.71 221.639 160.789 222.617 162.271 222.617C163.742 222.617 164.814 221.639 164.826 220.227C164.814 218.82 163.742 217.836 162.271 217.836C160.789 217.836 159.71 218.82 159.716 220.227ZM160.595 220.227C160.589 219.283 161.298 218.604 162.271 218.609C163.232 218.604 163.935 219.283 163.947 220.227C163.935 221.176 163.232 221.844 162.271 221.832C161.298 221.844 160.589 221.176 160.595 220.227ZM174.476 215.574H169.73V222.312H174.476V220.672H177.031V224.973H177.945V214.531H177.031V217.039H174.476V215.574ZM170.644 221.574V216.301H173.586V221.574H170.644ZM174.476 219.91V217.801H177.031V219.91H174.476ZM185.586 215.516H184.52L182.41 216.922V217.988L184.473 216.617H184.52V224H185.586V215.516ZM193.467 215.656H190.819V214.484H189.905V215.656H187.256V216.406H193.467V215.656ZM187.854 218.832C187.848 219.963 188.856 220.701 190.362 220.707C191.856 220.701 192.858 219.963 192.87 218.832C192.858 217.684 191.856 216.957 190.362 216.945C188.856 216.957 187.848 217.684 187.854 218.832ZM188.557 222.371H194.463V224.949H195.377V221.621H188.557V222.371ZM188.733 218.832C188.727 218.123 189.377 217.666 190.362 217.66C191.334 217.666 191.991 218.123 192.002 218.832C191.991 219.523 191.334 219.975 190.362 219.969C189.377 219.975 188.727 219.523 188.733 218.832ZM194.463 221.047H195.377V218.199H196.948V217.426H195.377V214.531H194.463V221.047ZM206.001 214.543H205.075V215.914H202.075V216.652H205.075V217.906H202.075V218.645H205.075V222.254H206.001V214.543ZM197.985 220.707H198.77C200.299 220.695 201.717 220.625 203.411 220.309L203.317 219.547C201.729 219.834 200.346 219.916 198.911 219.922V215.293H197.985V220.707ZM199.286 224.727H206.282V223.953H200.212V221.598H199.286V224.727ZM215.493 215.504V214.906H214.544V215.504C214.544 216.998 212.64 218.24 210.759 218.504L211.134 219.254C212.757 218.984 214.357 218.1 215.025 216.811C215.692 218.088 217.298 218.984 218.915 219.254L219.29 218.504C217.409 218.24 215.499 216.975 215.493 215.504ZM210.267 221.176H214.544V224.949H215.446V221.176H219.759V220.402H210.267V221.176ZM226.632 215.656H223.984V214.484H223.07V215.656H220.421V216.406H226.632V215.656ZM221.019 218.832C221.013 219.963 222.021 220.701 223.527 220.707C225.021 220.701 226.023 219.963 226.035 218.832C226.023 217.684 225.021 216.957 223.527 216.945C222.021 216.957 221.013 217.684 221.019 218.832ZM221.722 222.371H227.628V224.949H228.542V221.621H221.722V222.371ZM221.898 218.832C221.892 218.123 222.542 217.666 223.527 217.66C224.499 217.666 225.156 218.123 225.167 218.832C225.156 219.523 224.499 219.975 223.527 219.969C222.542 219.975 221.892 219.523 221.898 218.832ZM227.628 221.047H228.542V218.199H230.113V217.426H228.542V214.531H227.628V221.047ZM233.939 215.293C232.293 215.299 231.121 216.295 231.127 217.742C231.121 219.195 232.293 220.186 233.939 220.191C235.574 220.186 236.734 219.195 236.74 217.742C236.734 216.295 235.574 215.299 233.939 215.293ZM230.587 221.891L230.716 222.676C232.591 222.676 235.152 222.664 237.537 222.219L237.466 221.539C235.164 221.879 232.509 221.896 230.587 221.891ZM232.029 217.742C232.023 216.775 232.826 216.102 233.939 216.102C235.041 216.102 235.843 216.775 235.837 217.742C235.843 218.715 235.041 219.383 233.939 219.383C232.826 219.383 232.023 218.715 232.029 217.742ZM238.158 224.973H239.072V214.531H238.158V224.973ZM252.326 214.531H251.424V218.773H249.924V214.766H249.057V224.41H249.924V219.559H251.424V224.949H252.326V214.531ZM243.959 222.254H244.604C245.752 222.254 246.947 222.178 248.4 221.914L248.283 221.094C247.018 221.352 245.904 221.428 244.873 221.434V215.809H243.959V222.254ZM262.153 214.531H261.25V219.934H262.153V214.531ZM253.633 219.102L254.114 219.828C255.35 219.383 256.328 218.428 256.797 217.215C257.266 218.34 258.233 219.213 259.457 219.629L259.914 218.914C258.367 218.404 257.242 217.104 257.254 215.633V214.836H256.317V215.633C256.317 217.162 255.203 218.557 253.633 219.102ZM255.391 221.199H261.25V222.242H255.414V224.832H262.539V224.082H256.317V222.957H262.164V220.461H255.391V221.199ZM268.44 214.719C266.114 214.719 264.749 215.357 264.749 216.512C264.749 217.695 266.114 218.334 268.44 218.34C270.754 218.334 272.114 217.695 272.12 216.512C272.114 215.357 270.754 214.719 268.44 214.719ZM263.694 219.793H273.186V219.043H263.694V219.793ZM264.842 221.398H271.065V222.348H264.866V224.832H272.284V224.105H265.78V223.027H271.967V220.695H264.842V221.398ZM265.71 216.512C265.698 215.826 266.711 215.416 268.44 215.41C270.169 215.416 271.176 215.826 271.182 216.512C271.176 217.238 270.169 217.637 268.44 217.637C266.711 217.637 265.698 217.238 265.71 216.512ZM284.659 214.531H283.745V224.973H284.659V219.43H286.405V218.656H284.659V214.531ZM277.054 222.359H277.874C279.855 222.359 281.22 222.301 282.855 222.008L282.737 221.211C281.185 221.498 279.855 221.58 277.968 221.586V216.312H281.917V215.551H277.054V222.359ZM290.478 216.254V215.984H292.88V215.234H287.115V215.984H289.552V216.254C289.546 217.684 288.427 218.967 286.857 219.465L287.337 220.191C288.579 219.77 289.564 218.867 290.027 217.713C290.495 218.791 291.474 219.629 292.693 220.016L293.161 219.289C291.609 218.82 290.484 217.613 290.478 216.254ZM288.579 224.809H295.329V220.684H294.415V221.949H289.493V220.684H288.579V224.809ZM289.493 224.059V222.688H294.415V224.059H289.493ZM294.415 220.168H295.329V214.531H294.415V220.168ZM305.449 214.531H304.535V224.949H305.449V214.531ZM297.539 222.266H298.382C300.052 222.266 301.699 222.137 303.55 221.75L303.421 220.965C301.675 221.334 300.035 221.457 298.441 221.469V215.562H297.539V222.266ZM315.052 214.531H314.138V224.973H315.052V219.43H316.799V218.656H315.052V214.531ZM307.447 222.359H308.267C310.248 222.359 311.613 222.301 313.248 222.008L313.131 221.211C311.578 221.498 310.248 221.58 308.361 221.586V216.312H312.31V215.551H307.447V222.359ZM318.35 224.076C318.8 224.07 319.168 223.702 319.162 223.251C319.168 222.807 318.8 222.438 318.35 222.438C317.905 222.438 317.524 222.807 317.537 223.251C317.524 223.702 317.905 224.07 318.35 224.076Z" fill="#C4C4C4"/>
    <path d="M11.1552 336.863H6.81921V334.473H5.91687V336.863H1.61609V337.637H11.1552V336.863ZM2.14343 334.121L2.50671 334.848C4.1825 334.555 5.71179 333.711 6.36804 332.404C7.03601 333.711 8.56531 334.555 10.2294 334.848L10.5809 334.121C8.58289 333.799 6.84265 332.586 6.84265 330.957H10.2411V330.195H6.81921V328.754H5.91687V330.195H2.50671V330.957H5.90515C5.89343 332.586 4.1532 333.799 2.14343 334.121ZM21.2511 333.488H11.7472V334.262H21.2511V333.488ZM12.8956 337.051C12.8898 338.258 14.2433 338.926 16.4933 338.926C18.7257 338.926 20.0675 338.258 20.0792 337.051C20.0675 335.855 18.7257 335.176 16.4933 335.176C14.2433 335.176 12.8898 335.855 12.8956 337.051ZM12.9542 332.492H20.1378V331.742H13.8566V329.727H20.0675V328.953H12.9542V332.492ZM13.8331 337.051C13.8214 336.324 14.8234 335.902 16.4933 335.891C18.1456 335.902 19.1476 336.324 19.1534 337.051C19.1476 337.783 18.1456 338.199 16.4933 338.199C14.8234 338.199 13.8214 337.783 13.8331 337.051ZM31.4056 334.719H21.8666V335.469H26.1556V338.949H27.058V335.469H31.4056V334.719ZM23.0853 333.453H30.1752V328.965H29.2494V330.406H23.9994V328.965H23.0853V333.453ZM23.9994 332.703V331.156H29.2494V332.703H23.9994ZM40.4352 331.695H34.2125V328.918H33.2984V332.434H40.4352V331.695ZM31.9977 334.602H41.5367V333.852H31.9977V334.602ZM33.2398 338.691H40.4937V337.93H34.1539V335.668H33.2398V338.691ZM53.502 328.543H52.5762V333.5H50.4669V334.109H52.5762V334.684H53.502V328.543ZM44.877 332.469L44.9825 333.16C45.8262 333.16 46.7755 333.16 47.7598 333.125V334.719H48.6622V333.09C49.6993 333.043 50.7598 332.955 51.7794 332.809L51.7208 332.211C49.4708 332.457 46.8927 332.48 44.877 332.469ZM45.6856 330.312C45.6856 331.285 46.7052 331.865 48.2755 331.871C49.8282 331.865 50.8536 331.285 50.8653 330.312C50.8536 329.346 49.8282 328.742 48.2755 328.742C46.7052 328.742 45.6856 329.346 45.6856 330.312ZM46.4708 335.727H52.588V336.57H46.5177V338.832H53.8419V338.152H47.42V337.215H53.502V335.059H46.4708V335.727ZM46.5528 330.312C46.5469 329.756 47.2266 329.381 48.2755 329.387C49.3126 329.381 49.9923 329.756 49.9981 330.312C49.9923 330.863 49.3126 331.238 48.2755 331.238C47.2266 331.238 46.5469 330.863 46.5528 330.312ZM59.0042 329.691H55.3714V330.441H58.1136V332.551H55.3948V336.43H56.0628C57.305 336.418 58.4241 336.377 59.8597 336.137L59.7894 335.375C58.471 335.592 57.3987 335.65 56.2855 335.656V333.289H59.0042V329.691ZM59.5902 334.613H60.9847V338.41H61.8636V328.742H60.9847V331.262H59.5902V332.012H60.9847V333.852H59.5902V334.613ZM63.0706 338.949H63.9495V328.531H63.0706V338.949ZM73.5298 329.586H66.1822V330.348H72.6041V330.629C72.5982 331.877 72.5982 333.336 72.2056 335.328L73.1431 335.434C73.5181 333.336 73.5181 331.906 73.5298 330.629V329.586ZM65.1744 337.473H74.6666V336.711H69.8033V332.984H68.9009V336.711H65.1744V337.473ZM78.7977 331.332V329.434H77.8953V331.332C77.8836 333.236 76.6766 335.234 75.1531 335.984L75.7391 336.723C76.9109 336.096 77.8953 334.777 78.3582 333.242C78.8211 334.689 79.782 335.926 80.9305 336.523L81.493 335.785C80.0105 335.059 78.7977 333.166 78.7977 331.332ZM82.4539 338.949H83.368V333.559H85.1141V332.762H83.368V328.531H82.4539V338.949ZM94.9639 333.371H85.4248V334.098H94.9639V333.371ZM86.5733 335.621H92.8545V336.512H86.585V338.809H94.1084V338.141H87.5108V337.145H93.7686V334.93H86.5733V335.621ZM86.6319 329.516H92.8076V330.371H86.667V332.586H93.9209V331.918H87.5811V331.004H93.7334V328.848H86.6319V329.516ZM107.832 334.062H103.531V333.031H106.707V332.293H100.519V331.262H106.367V330.559H100.519V329.586H106.648V328.836H99.5933V333.031H102.617V334.062H98.3277V334.812H107.832V334.062ZM99.4878 337.262C99.4819 338.357 100.777 338.926 103.085 338.926C105.371 338.926 106.66 338.357 106.671 337.262C106.66 336.178 105.371 335.586 103.085 335.598C100.777 335.586 99.4819 336.178 99.4878 337.262ZM100.414 337.262C100.402 336.641 101.363 336.295 103.085 336.289C104.791 336.295 105.74 336.641 105.746 337.262C105.74 337.895 104.791 338.223 103.085 338.211C101.363 338.223 100.402 337.895 100.414 337.262ZM113.674 330.336H111.529V328.848H110.615V330.336H108.447V331.086H113.674V330.336ZM108.822 334.156C108.822 335.557 109.765 336.541 111.06 336.547C112.373 336.541 113.31 335.557 113.322 334.156C113.31 332.773 112.373 331.795 111.06 331.789C109.765 331.795 108.822 332.773 108.822 334.156ZM109.642 334.156C109.642 333.242 110.234 332.574 111.06 332.562C111.892 332.574 112.502 333.242 112.502 334.156C112.502 335.082 111.892 335.744 111.06 335.738C110.234 335.744 109.642 335.082 109.642 334.156ZM114.213 338.434H115.08V333.688H116.463V338.949H117.342V328.531H116.463V332.926H115.08V328.789H114.213V338.434ZM127.608 329.656H124.959V328.484H124.045V329.656H121.397V330.406H127.608V329.656ZM121.994 332.832C121.989 333.963 122.996 334.701 124.502 334.707C125.996 334.701 126.998 333.963 127.01 332.832C126.998 331.684 125.996 330.957 124.502 330.945C122.996 330.957 121.989 331.684 121.994 332.832ZM122.697 336.371H128.604V338.949H129.518V335.621H122.697V336.371ZM122.873 332.832C122.867 332.123 123.518 331.666 124.502 331.66C125.475 331.666 126.131 332.123 126.143 332.832C126.131 333.523 125.475 333.975 124.502 333.969C123.518 333.975 122.867 333.523 122.873 332.832ZM128.604 335.047H129.518V332.199H131.088V331.426H129.518V328.531H128.604V335.047ZM139.872 329.586H132.5V330.348H138.969V330.746C138.963 332.047 138.963 333.418 138.594 335.258L139.497 335.363C139.866 333.424 139.866 332.082 139.872 330.746V329.586ZM131.504 337.473H140.997V336.711H137.364V333.277H136.461V336.711H134.774V333.277H133.86V336.711H131.504V337.473ZM152.552 328.531H151.638V336.078H152.552V332.41H154.134V331.637H152.552V328.531ZM144.899 334.227H145.708C147.899 334.227 149.142 334.156 150.606 333.875L150.489 333.113C149.095 333.395 147.905 333.459 145.813 333.453V330.207H149.54V329.434H144.899V334.227ZM146.036 338.727H153.032V337.953H146.938V335.316H146.036V338.727ZM163.128 328.543H162.202V334.707H160.046V335.375H162.202V336.453H163.128V328.543ZM154.48 333.371L154.609 334.121C155.482 334.121 156.484 334.121 157.538 334.08V336.09H158.464V334.033C159.419 333.975 160.398 333.881 161.323 333.734L161.265 333.066C159.032 333.342 156.419 333.359 154.48 333.371ZM155.323 330.781C155.318 331.895 156.361 332.586 157.902 332.586C159.431 332.586 160.474 331.895 160.48 330.781C160.474 329.686 159.431 328.965 157.902 328.965C156.361 328.965 155.318 329.686 155.323 330.781ZM155.98 338.727H163.386V337.953H156.905V335.68H155.98V338.727ZM156.202 330.781C156.191 330.113 156.882 329.656 157.902 329.668C158.892 329.656 159.595 330.113 159.601 330.781C159.595 331.461 158.892 331.9 157.902 331.906C156.882 331.9 156.191 331.461 156.202 330.781ZM170.517 329.328H164.986V330.09H166.04V333.553C165.56 333.559 165.109 333.559 164.693 333.559L164.81 334.332C166.503 334.338 168.871 334.303 170.904 333.992L170.857 333.289C170.406 333.348 169.931 333.389 169.451 333.424V330.09H170.517V329.328ZM166.357 337.051C166.351 338.24 167.669 338.926 169.849 338.926C172.029 338.926 173.341 338.24 173.341 337.051C173.341 335.861 172.029 335.182 169.849 335.188C167.669 335.182 166.351 335.861 166.357 337.051ZM166.931 333.535V330.09H168.56V333.477C168.015 333.506 167.464 333.523 166.931 333.535ZM167.271 337.051C167.265 336.336 168.244 335.902 169.849 335.902C171.449 335.902 172.427 336.336 172.427 337.051C172.427 337.777 171.449 338.199 169.849 338.199C168.244 338.199 167.265 337.777 167.271 337.051ZM170.622 333.031H172.38V334.965H173.306V328.531H172.38V330.406H170.622V331.168H172.38V332.27H170.622V333.031ZM182.863 328.531H181.949V338.949H182.863V333.547H184.55V332.773H182.863V328.531ZM174.871 336.242L175.386 336.969C178.779 335.293 180.162 332.604 180.168 329.656H175.351V330.43H179.236C179.025 332.896 177.56 334.906 174.871 336.242ZM193.141 329.211H188.254V333.453H193.141V329.211ZM189.004 338.199L189.332 338.914C190.902 338.697 192.367 337.982 192.994 336.998C193.615 337.959 195.045 338.697 196.61 338.914L196.926 338.199C195.139 337.977 193.463 336.963 193.469 335.949H196.563V335.234H193.445V334.215H192.531V335.234H189.438V335.949H192.52C192.52 336.986 190.797 338 189.004 338.199ZM189.156 332.727V329.961H192.238V332.727H189.156ZM195.391 334.52H196.293V328.531H195.391V334.52ZM205.833 329.504V328.906H204.883V329.504C204.883 330.998 202.979 332.24 201.098 332.504L201.473 333.254C203.096 332.984 204.696 332.1 205.364 330.811C206.032 332.088 207.637 332.984 209.255 333.254L209.63 332.504C207.749 332.24 205.839 330.975 205.833 329.504ZM200.606 335.176H204.883V338.949H205.786V335.176H210.098V334.402H200.606V335.176ZM219.585 328.531H218.706V331.379H217.311V328.742H216.444V334.754H217.311V332.141H218.706V335.129H219.585V328.531ZM210.679 330.523H216.022V329.785H213.819V328.613H212.905V329.785H210.679V330.523ZM211.136 332.867C211.13 333.939 212.05 334.637 213.362 334.637C214.681 334.637 215.595 333.939 215.6 332.867C215.595 331.777 214.681 331.08 213.362 331.086C212.05 331.08 211.13 331.777 211.136 332.867ZM211.956 332.867C211.956 332.205 212.53 331.766 213.362 331.766C214.194 331.766 214.768 332.205 214.768 332.867C214.768 333.506 214.194 333.945 213.362 333.945C212.53 333.945 211.956 333.506 211.956 332.867ZM212.647 337.133C212.636 338.275 213.942 338.926 216.14 338.926C218.331 338.926 219.638 338.275 219.643 337.133C219.638 335.961 218.331 335.305 216.14 335.305C213.942 335.305 212.636 335.961 212.647 337.133ZM213.561 337.133C213.55 336.418 214.516 336.02 216.14 336.031C217.757 336.02 218.718 336.418 218.729 337.133C218.718 337.807 217.757 338.217 216.14 338.211C214.516 338.217 213.55 337.807 213.561 337.133ZM226.716 329.328H221.185V330.09H222.239V333.553C221.759 333.559 221.308 333.559 220.892 333.559L221.009 334.332C222.702 334.338 225.069 334.303 227.103 333.992L227.056 333.289C226.605 333.348 226.13 333.389 225.65 333.424V330.09H226.716V329.328ZM222.556 337.051C222.55 338.24 223.868 338.926 226.048 338.926C228.228 338.926 229.54 338.24 229.54 337.051C229.54 335.861 228.228 335.182 226.048 335.188C223.868 335.182 222.55 335.861 222.556 337.051ZM223.13 333.535V330.09H224.759V333.477C224.214 333.506 223.663 333.523 223.13 333.535ZM223.47 337.051C223.464 336.336 224.442 335.902 226.048 335.902C227.648 335.902 228.626 336.336 228.626 337.051C228.626 337.777 227.648 338.199 226.048 338.199C224.442 338.199 223.464 337.777 223.47 337.051ZM226.821 333.031H228.579V334.965H229.505V328.531H228.579V330.406H226.821V331.168H228.579V332.27H226.821V333.031ZM239.062 328.531H238.148V338.949H239.062V333.547H240.749V332.773H239.062V328.531ZM231.07 336.242L231.585 336.969C234.978 335.293 236.361 332.604 236.367 329.656H231.55V330.43H235.435C235.224 332.896 233.759 334.906 231.07 336.242ZM250.06 328.531H249.17V338.949H250.06V328.531ZM241.259 333.031C241.265 335.246 242.144 336.658 243.498 336.652C244.781 336.658 245.654 335.387 245.742 333.359H247.084V338.422H247.962V328.754H247.084V332.598H245.736C245.619 330.635 244.763 329.416 243.498 329.41C242.144 329.416 241.265 330.816 241.259 333.031ZM242.127 333.031C242.115 331.338 242.654 330.277 243.498 330.277C244.347 330.277 244.886 331.338 244.88 333.031C244.886 334.719 244.347 335.785 243.498 335.773C242.654 335.785 242.115 334.719 242.127 333.031ZM262.94 328.531H262.061V332.727H260.525V328.766H259.682V338.41H260.525V333.488H262.061V338.949H262.94V328.531ZM254.42 336.371H255.088C256.688 336.365 257.748 336.324 259.002 336.066L258.92 335.293C257.76 335.527 256.77 335.58 255.334 335.586V330.57H258.322V329.809H254.42V336.371ZM272.754 328.531H271.828V338.973H272.754V328.531ZM264.774 336.453H269.696V329.422H268.793V332.176H265.688V329.422H264.774V336.453ZM265.688 335.68V332.914H268.793V335.68H265.688ZM282.358 328.531H281.444V338.949H282.358V333.594H284.104V332.832H282.358V328.531ZM274.237 330.969H280.436V330.207H277.835V328.66H276.92V330.207H274.237V330.969ZM274.835 334.227C274.829 335.639 275.907 336.617 277.389 336.617C278.86 336.617 279.932 335.639 279.944 334.227C279.932 332.82 278.86 331.836 277.389 331.836C275.907 331.836 274.829 332.82 274.835 334.227ZM275.713 334.227C275.708 333.283 276.417 332.604 277.389 332.609C278.35 332.604 279.053 333.283 279.065 334.227C279.053 335.176 278.35 335.844 277.389 335.832C276.417 335.844 275.708 335.176 275.713 334.227ZM292.782 329.586H285.434V330.348H291.856V330.629C291.85 331.877 291.85 333.336 291.458 335.328L292.395 335.434C292.77 333.336 292.77 331.906 292.782 330.629V329.586ZM284.427 337.473H293.919V336.711H289.055V332.984H288.153V336.711H284.427V337.473ZM296.269 337.215H295.132L294.487 340.402H295.355L296.269 337.215ZM308.75 328.531H307.847V333.934H308.75V328.531ZM300.23 333.102L300.71 333.828C301.947 333.383 302.925 332.428 303.394 331.215C303.863 332.34 304.83 333.213 306.054 333.629L306.511 332.914C304.964 332.404 303.839 331.104 303.851 329.633V328.836H302.914V329.633C302.914 331.162 301.8 332.557 300.23 333.102ZM301.988 335.199H307.847V336.242H302.011V338.832H309.136V338.082H302.914V336.957H308.761V334.461H301.988V335.199ZM318.927 328.543H318.002V331.426H315.857V332.188H318.002V336.184H318.927V328.543ZM310.338 334.098L310.818 334.848C312.054 334.385 313.015 333.43 313.467 332.223C313.918 333.301 314.826 334.174 315.998 334.602L316.478 333.863C314.955 333.342 313.912 332.035 313.912 330.688V330.148H316.244V329.387H310.631V330.148H312.986V330.688C312.986 332.182 311.873 333.559 310.338 334.098ZM312.236 338.727H319.22V337.953H313.162V335.492H312.236V338.727ZM143.862 354.84H139.514V352.297H142.678V347.41H135.448V352.297H138.612V354.84H134.323V355.613H143.862V354.84ZM136.35 351.559V348.148H141.788V351.559H136.35ZM147.864 347.293C146.218 347.299 145.046 348.295 145.052 349.742C145.046 351.195 146.218 352.186 147.864 352.191C149.499 352.186 150.659 351.195 150.665 349.742C150.659 348.295 149.499 347.299 147.864 347.293ZM144.513 353.891L144.642 354.676C146.517 354.676 149.077 354.664 151.462 354.219L151.392 353.539C149.089 353.879 146.435 353.896 144.513 353.891ZM145.954 349.742C145.948 348.775 146.751 348.102 147.864 348.102C148.966 348.102 149.769 348.775 149.763 349.742C149.769 350.715 148.966 351.383 147.864 351.383C146.751 351.383 145.948 350.715 145.954 349.742ZM152.083 356.973H152.997V346.531H152.083V356.973ZM162.941 347.586H155.593V348.348H162.015V348.629C162.009 349.877 162.009 351.336 161.616 353.328L162.554 353.434C162.929 351.336 162.929 349.906 162.941 348.629V347.586ZM154.585 355.473H164.077V354.711H159.214V350.984H158.312V354.711H154.585V355.473ZM168.208 349.332V347.434H167.306V349.332C167.294 351.236 166.087 353.234 164.564 353.984L165.15 354.723C166.322 354.096 167.306 352.777 167.769 351.242C168.232 352.689 169.193 353.926 170.341 354.523L170.904 353.785C169.421 353.059 168.208 351.166 168.208 349.332ZM171.865 356.949H172.779V351.559H174.525V350.762H172.779V346.531H171.865V356.949ZM184.386 354.887H180.039V352.918H183.425V352.156H176.957V350.457H183.179V347.305H176.019V348.066H182.277V349.707H176.043V352.918H179.136V354.887H174.847V355.66H184.386V354.887ZM195.895 346.543H194.981V354.348H195.895V350.75H197.465V349.977H195.895V346.543ZM187.774 348.57H193.985V347.82H191.336V346.543H190.422V347.82H187.774V348.57ZM188.371 351.09C188.365 352.262 189.373 353.018 190.879 353.012C192.367 353.018 193.375 352.262 193.387 351.09C193.375 349.906 192.367 349.145 190.879 349.145C189.373 349.145 188.365 349.906 188.371 351.09ZM189.25 351.09C189.244 350.346 189.895 349.865 190.879 349.871C191.852 349.865 192.508 350.346 192.52 351.09C192.508 351.822 191.852 352.297 190.879 352.285C189.895 352.297 189.244 351.822 189.25 351.09ZM189.379 356.727H196.375V355.953H190.281V353.727H189.379V356.727ZM210.18 352.051H200.641V352.801H205.024V354.84H205.938V352.801H210.18V352.051ZM201.86 356.727H209.114V355.953H202.774V353.879H201.86V356.727ZM201.919 351.031H208.903V346.871H207.989V348.207H202.833V346.871H201.919V351.031ZM202.833 350.281V348.91H207.989V350.281H202.833ZM219.397 346.531H218.472V356.949H219.397V346.531ZM210.913 354.242L211.417 354.992C214.909 353.316 216.304 350.662 216.315 347.668H211.393V348.418H215.378C215.173 350.908 213.731 352.906 210.913 354.242ZM228.913 347.504V346.906H227.964V347.504C227.964 348.998 226.06 350.24 224.179 350.504L224.554 351.254C226.177 350.984 227.777 350.1 228.445 348.811C229.113 350.088 230.718 350.984 232.335 351.254L232.71 350.504C230.829 350.24 228.919 348.975 228.913 347.504ZM223.687 353.176H227.964V356.949H228.867V353.176H233.179V352.402H223.687V353.176ZM236.689 347.023C235.101 347.018 233.976 348.014 233.982 349.426C233.976 350.855 235.101 351.84 236.689 351.84C238.101 351.84 239.173 351.02 239.355 349.789H241.529V352.121H242.455V346.531H241.529V349.027H239.349C239.15 347.832 238.084 347.018 236.689 347.023ZM234.861 349.426C234.861 348.465 235.617 347.797 236.689 347.809C237.738 347.797 238.494 348.465 238.494 349.426C238.494 350.375 237.738 351.061 236.689 351.066C235.617 351.061 234.861 350.375 234.861 349.426ZM235.74 356.809H242.455V352.648H241.529V353.973H236.666V352.648H235.74V356.809ZM236.666 356.059V354.711H241.529V356.059H236.666ZM248.695 346.719C246.369 346.719 245.004 347.357 245.004 348.512C245.004 349.695 246.369 350.334 248.695 350.34C251.01 350.334 252.369 349.695 252.375 348.512C252.369 347.357 251.01 346.719 248.695 346.719ZM243.949 351.793H253.441V351.043H243.949V351.793ZM245.098 353.398H251.32V354.348H245.121V356.832H252.539V356.105H246.035V355.027H252.223V352.695H245.098V353.398ZM245.965 348.512C245.953 347.826 246.967 347.416 248.695 347.41C250.424 347.416 251.431 347.826 251.437 348.512C251.431 349.238 250.424 349.637 248.695 349.637C246.967 349.637 245.953 349.238 245.965 348.512ZM266.344 351.934H262.043V350.633H261.141V351.934H256.852V352.695H266.344V351.934ZM257.403 350.434L257.696 351.148C259.418 350.967 260.959 350.346 261.598 349.297C262.231 350.346 263.778 350.967 265.5 351.148L265.782 350.434C263.836 350.252 262.178 349.461 262.102 348.301H265.383V347.551H262.043V346.508H261.141V347.551H257.836V348.301H261.088C261.006 349.461 259.354 350.252 257.403 350.434ZM258 355.203C257.994 356.322 259.33 356.926 261.598 356.926C263.854 356.926 265.172 356.322 265.184 355.203C265.172 354.084 263.854 353.48 261.598 353.48C259.33 353.48 257.994 354.084 258 355.203ZM258.938 355.203C258.926 354.547 259.91 354.178 261.598 354.172C263.268 354.178 264.252 354.547 264.258 355.203C264.252 355.859 263.268 356.223 261.598 356.211C259.91 356.223 258.926 355.859 258.938 355.203ZM275.62 346.531H274.694V349.25H272.596V350.012H274.694V352.742H275.62V346.531ZM267.03 351.91L267.51 352.648C268.753 352.174 269.719 351.201 270.165 349.982C270.616 351.055 271.524 351.934 272.69 352.355L273.17 351.617C271.647 351.096 270.604 349.801 270.604 348.441V348.066H272.936V347.293H267.323V348.066H269.678V348.453C269.678 349.941 268.577 351.354 267.03 351.91ZM268.67 355.004C268.665 356.234 269.995 356.938 272.163 356.949C274.325 356.938 275.655 356.234 275.655 355.004C275.655 353.779 274.325 353.064 272.163 353.07C269.995 353.064 268.665 353.779 268.67 355.004ZM269.585 355.004C269.579 354.242 270.563 353.785 272.163 353.785C273.756 353.785 274.741 354.242 274.741 355.004C274.741 355.76 273.756 356.217 272.163 356.211C270.563 356.217 269.579 355.76 269.585 355.004ZM285.716 346.531H284.802V356.973H285.716V346.531ZM277.7 348.266H281.626V350.457H277.723V354.441H278.591C280.389 354.441 281.971 354.365 283.888 354.066L283.794 353.293C281.93 353.592 280.389 353.674 278.661 353.668V351.207H282.552V347.504H277.7V348.266ZM295.39 346.531H294.476V352.59H295.39V349.988H296.96V349.203H295.39V346.531ZM287.269 348.371H293.48V347.609H290.831V346.438H289.917V347.609H287.269V348.371ZM287.866 350.68C287.86 351.793 288.862 352.514 290.374 352.508C291.868 352.514 292.87 351.793 292.882 350.68C292.87 349.566 291.868 348.857 290.374 348.852C288.862 348.857 287.86 349.566 287.866 350.68ZM288.745 350.68C288.739 350.006 289.39 349.555 290.374 349.566C291.347 349.555 292.003 350.006 292.015 350.68C292.003 351.359 291.347 351.805 290.374 351.805C289.39 351.805 288.739 351.359 288.745 350.68ZM288.804 356.809H295.39V353.047H294.476V354.16H289.718V353.047H288.804V356.809ZM289.718 356.07V354.887H294.476V356.07H289.718ZM305.966 346.531H305.052V356.949H305.966V346.531ZM298.056 354.266H298.9C300.57 354.266 302.216 354.137 304.068 353.75L303.939 352.965C302.193 353.334 300.552 353.457 298.958 353.469V347.562H298.056V354.266ZM315.57 346.531H314.656V356.973H315.57V351.43H317.316V350.656H315.57V346.531ZM307.964 354.359H308.785C310.765 354.359 312.13 354.301 313.765 354.008L313.648 353.211C312.095 353.498 310.765 353.58 308.878 353.586V348.312H312.828V347.551H307.964V354.359ZM318.74 356.07C319.156 356.064 319.496 355.725 319.49 355.309C319.496 354.898 319.156 354.559 318.74 354.559C318.33 354.559 317.978 354.898 317.99 355.309C317.978 355.725 318.33 356.064 318.74 356.07Z" fill="#C4C4C4"/>
</svg>
