<svg width="73" height="80" viewBox="0 0 73 80" fill="none" xmlns="http://www.w3.org/2000/svg">
<g filter="url(#filter0_d_2344_2790)">
<path fill-rule="evenodd" clip-rule="evenodd" d="M18.3034 32.9259C18.0376 33.2218 17.8906 33.6056 17.8906 34.0034V61.3812C17.8906 62.2719 18.6127 62.9939 19.5034 62.9939H54.1777C55.0684 62.9939 55.7905 62.2719 55.7905 61.3812V18.643C55.7905 17.7523 55.0684 17.0303 54.1777 17.0303H33.2964C32.8386 17.0303 32.4023 17.2249 32.0965 17.5655L18.3034 32.9259Z" fill="#9052CD"/>
<path d="M32.2196 32.1821C32.2198 33.0729 31.4977 33.7951 30.6069 33.7951L17.5018 33.7951L32.2172 17.4341L32.2196 32.1821Z" fill="white"/>
<path d="M29.8193 44.5702C28.9493 44.5702 28.5294 45.2902 28.5294 46.1601C28.5294 47.03 28.9493 47.75 29.8193 47.75H43.0781C43.948 47.75 44.368 47.03 44.368 46.1601C44.368 45.2902 43.948 44.5702 43.0781 44.5702H29.8193ZM36.4187 49.9398C35.1888 49.9398 34.2289 50.8997 34.2289 52.1296C34.2289 53.3595 35.1888 54.3194 36.4187 54.3194C37.6486 54.3194 38.6085 53.3595 38.6085 52.1296C38.6085 50.8997 37.6486 49.9398 36.4187 49.9398ZM36.4187 38.0008C35.1888 38.0008 34.2289 38.9607 34.2289 40.1906C34.2289 41.4205 35.1888 42.3804 36.4187 42.3804C37.6486 42.3804 38.6085 41.4205 38.6085 40.1906C38.6085 38.9607 37.6486 38.0008 36.4187 38.0008Z" fill="white"/>
</g>
<defs>
<filter id="filter0_d_2344_2790" x="0.566022" y="0.0962954" width="72.157" height="79.8318" filterUnits="userSpaceOnUse" color-interpolation-filters="sRGB">
<feFlood flood-opacity="0" result="BackgroundImageFix"/>
<feColorMatrix in="SourceAlpha" type="matrix" values="0 0 0 0 0 0 0 0 0 0 0 0 0 0 0 0 0 0 127 0" result="hardAlpha"/>
<feMorphology radius="4.0319" operator="erode" in="SourceAlpha" result="effect1_dropShadow_2344_2790"/>
<feOffset/>
<feGaussianBlur stdDeviation="10.4829"/>
<feComposite in2="hardAlpha" operator="out"/>
<feColorMatrix type="matrix" values="0 0 0 0 0 0 0 0 0 0 0 0 0 0 0 0 0 0 0.25 0"/>
<feBlend mode="normal" in2="BackgroundImageFix" result="effect1_dropShadow_2344_2790"/>
<feBlend mode="normal" in="SourceGraphic" in2="effect1_dropShadow_2344_2790" result="shape"/>
</filter>
</defs>
</svg>
