<svg width="73" height="80" viewBox="0 0 73 80" fill="none" xmlns="http://www.w3.org/2000/svg">
<g filter="url(#filter0_d_2344_2775)">
<path fill-rule="evenodd" clip-rule="evenodd" d="M17.8112 32.9258C17.5455 33.2218 17.3984 33.6056 17.3984 34.0034V61.3812C17.3984 62.2719 18.1205 62.9939 19.0112 62.9939H53.6855C54.5762 62.9939 55.2983 62.2719 55.2983 61.3812V18.643C55.2983 17.7523 54.5762 17.0303 53.6855 17.0303H32.8042C32.3464 17.0303 31.9102 17.2249 31.6043 17.5655L17.8112 32.9258Z" fill="#4181C4"/>
<path d="M31.7196 32.1821C31.7198 33.0729 30.9977 33.7951 30.1069 33.7951L17.0018 33.7951L31.7172 17.4341L31.7196 32.1821Z" fill="white"/>
<path d="M29.3756 37.9663C28.5232 37.9663 28.1382 38.6538 28.1382 39.4512C28.1382 40.2486 28.5232 40.9361 29.3756 40.9361H31.3004V51.6051C31.3004 52.65 32.1253 53.1175 33.0603 53.1175C33.9952 53.1175 34.7926 52.65 34.7926 51.6051V40.9361H37.2399V49.8178C37.2399 51.8251 38.1748 53.255 40.7321 53.3375C41.6395 53.365 42.6569 53.145 42.9594 52.98C43.4543 52.705 43.7018 52.0451 43.5643 51.2477C43.3993 50.4502 42.9044 50.0103 42.2719 50.1478C42.0245 50.2028 41.777 50.2303 41.612 50.2303C40.7596 50.2303 40.6496 49.7903 40.6496 48.7179V40.9361H42.5744C43.4268 40.9361 43.8118 40.2486 43.8118 39.4512C43.8118 38.6538 43.4268 37.9663 42.5744 37.9663H29.3756Z" fill="white"/>
</g>
<defs>
<filter id="filter0_d_2344_2775" x="0.0660219" y="0.0962954" width="72.1648" height="79.8318" filterUnits="userSpaceOnUse" color-interpolation-filters="sRGB">
<feFlood flood-opacity="0" result="BackgroundImageFix"/>
<feColorMatrix in="SourceAlpha" type="matrix" values="0 0 0 0 0 0 0 0 0 0 0 0 0 0 0 0 0 0 127 0" result="hardAlpha"/>
<feMorphology radius="4.0319" operator="erode" in="SourceAlpha" result="effect1_dropShadow_2344_2775"/>
<feOffset/>
<feGaussianBlur stdDeviation="10.4829"/>
<feComposite in2="hardAlpha" operator="out"/>
<feColorMatrix type="matrix" values="0 0 0 0 0 0 0 0 0 0 0 0 0 0 0 0 0 0 0.25 0"/>
<feBlend mode="normal" in2="BackgroundImageFix" result="effect1_dropShadow_2344_2775"/>
<feBlend mode="normal" in="SourceGraphic" in2="effect1_dropShadow_2344_2775" result="shape"/>
</filter>
</defs>
</svg>
