<svg width="73" height="80" viewBox="0 0 73 80" fill="none" xmlns="http://www.w3.org/2000/svg">
<g filter="url(#filter0_d_2344_2776)">
<path fill-rule="evenodd" clip-rule="evenodd" d="M18.0339 32.9258C17.7681 33.2218 17.6211 33.6056 17.6211 34.0034V61.3812C17.6211 62.2719 18.3431 62.9939 19.2339 62.9939H53.9082C54.7989 62.9939 55.521 62.2719 55.521 61.3812V18.643C55.521 17.7523 54.7989 17.0303 53.9082 17.0303H33.0269C32.5691 17.0303 32.1328 17.2249 31.8269 17.5655L18.0339 32.9258Z" fill="#F28300"/>
<path d="M31.9384 32.1811C31.9385 33.0719 31.2164 33.7941 30.3256 33.7941L17.2206 33.7941L31.936 17.4331L31.9384 32.1811Z" fill="white"/>
<path d="M31.3518 43.499C30.1846 43.499 29.6212 44.4649 29.6212 45.632C29.6212 46.7992 30.1846 47.7651 31.3518 47.7651H42.0573C43.2245 47.7651 43.7879 46.7992 43.7879 45.632C43.7879 44.4649 43.2245 43.499 42.0573 43.499H31.3518Z" fill="white"/>
</g>
<defs>
<filter id="filter0_d_2344_2776" x="0.284772" y="0.0962954" width="72.1687" height="79.8318" filterUnits="userSpaceOnUse" color-interpolation-filters="sRGB">
<feFlood flood-opacity="0" result="BackgroundImageFix"/>
<feColorMatrix in="SourceAlpha" type="matrix" values="0 0 0 0 0 0 0 0 0 0 0 0 0 0 0 0 0 0 127 0" result="hardAlpha"/>
<feMorphology radius="4.0319" operator="erode" in="SourceAlpha" result="effect1_dropShadow_2344_2776"/>
<feOffset/>
<feGaussianBlur stdDeviation="10.4829"/>
<feComposite in2="hardAlpha" operator="out"/>
<feColorMatrix type="matrix" values="0 0 0 0 0 0 0 0 0 0 0 0 0 0 0 0 0 0 0.25 0"/>
<feBlend mode="normal" in2="BackgroundImageFix" result="effect1_dropShadow_2344_2776"/>
<feBlend mode="normal" in="SourceGraphic" in2="effect1_dropShadow_2344_2776" result="shape"/>
</filter>
</defs>
</svg>
