<svg width="868" height="255" viewBox="0 0 868 255" fill="none" xmlns="http://www.w3.org/2000/svg">
    <path d="M0 0H103V123H0V0Z" fill="#F8F8F8"/>
    <path d="M449 0H552V123H449V0Z" fill="#F8F8F8"/>
    <path d="M449 123H552V254H449V123Z" fill="#F8F8F8"/>
    <path d="M0 124H103V253H0V124Z" fill="#F8F8F8"/>
    <path d="M449 1L868 1.00004" stroke="#DCE9F8" stroke-width="1.085"/>
    <path d="M154.62 89.4802H152.99V87.7803H152.017V94.3259H152.99V92.6523H154.62V91.8286H152.99V90.2776H154.62V89.4802ZM150.37 91.04C150.361 89.5065 149.152 88.4375 147.479 88.4463C145.805 88.4375 144.578 89.5065 144.587 91.04C144.578 92.5822 145.805 93.6424 147.479 93.6424C149.152 93.6424 150.361 92.5822 150.37 91.04ZM145.542 91.04C145.533 89.9972 146.357 89.2787 147.479 89.2787C148.6 89.2787 149.415 89.9972 149.424 91.04C149.415 92.0915 148.6 92.8188 147.479 92.81C146.357 92.8188 145.533 92.0915 145.542 91.04ZM152.017 95.6403V98.7948H152.99V94.8429H145.779V95.6403H152.017ZM163.247 90.5405H161.012V91.3554H163.247V94.2295H164.219V87.7803H163.247V90.5405ZM158.445 91.3598C158.922 92.4989 159.882 93.4234 161.126 93.8703L161.634 93.0992C160.022 92.5296 158.918 91.1539 158.918 89.7344V89.305H161.38V88.4901H155.448V89.305H157.936V89.7344C157.936 91.3028 156.762 92.7749 155.132 93.3533L155.641 94.1156C156.951 93.6381 157.967 92.6304 158.445 91.3598ZM164.219 98.6458V94.7728H157.016V98.6458H164.219ZM163.264 95.5527V97.8484H157.989V95.5527H163.264Z" fill="#4F4F4F"/>
    <path d="M155.654 211.614H153.934V209.819H152.907V216.728H153.934V214.961H155.654V214.092H153.934V212.455H155.654V211.614ZM151.168 213.26C151.159 211.641 149.883 210.513 148.117 210.522C146.35 210.513 145.055 211.641 145.065 213.26C145.055 214.887 146.35 216.006 148.117 216.006C149.883 216.006 151.159 214.887 151.168 213.26ZM146.073 213.26C146.064 212.159 146.933 211.401 148.117 211.401C149.3 211.401 150.16 212.159 150.17 213.26C150.16 214.37 149.3 215.137 148.117 215.128C146.933 215.137 146.064 214.37 146.073 213.26ZM152.907 218.115V221.444H153.934V217.273H146.322V218.115H152.907ZM164.758 212.733H162.4V213.593H164.758V216.626H165.785V209.819H164.758V212.733ZM159.69 213.597C160.195 214.8 161.207 215.775 162.52 216.247L163.057 215.433C161.355 214.832 160.19 213.38 160.19 211.882V211.429H162.789V210.569H156.528V211.429H159.154V211.882C159.154 213.537 157.915 215.091 156.195 215.701L156.731 216.506C158.114 216.002 159.186 214.938 159.69 213.597ZM165.785 221.287V217.199H158.183V221.287H165.785ZM164.777 218.023V220.446H159.21V218.023H164.777Z" fill="#4F4F4F"/>
    <g filter="url(#filter0_d_0_1)">
        <path fill-rule="evenodd" clip-rule="evenodd" d="M136.846 171.498C136.571 171.805 136.418 172.204 136.418 172.617V201.033C136.418 201.957 137.167 202.707 138.092 202.707H174.081C175.005 202.707 175.755 201.957 175.755 201.033V156.674C175.755 155.749 175.005 155 174.081 155H152.408C151.933 155 151.48 155.202 151.162 155.556L136.846 171.498Z" fill="#4181C4"/>
        <path d="M151.275 170.725C151.275 171.65 150.525 172.399 149.601 172.399L135.999 172.399L151.272 155.418L151.275 170.725Z" fill="white"/>
        <path d="M148.024 176.516C147.139 176.516 146.739 177.229 146.739 178.057C146.739 178.885 147.139 179.598 148.024 179.598H150.021V190.672C150.021 191.756 150.878 192.242 151.848 192.242C152.818 192.242 153.646 191.756 153.646 190.672V179.598H156.186V188.817C156.186 190.9 157.156 192.384 159.811 192.47C160.753 192.499 161.808 192.27 162.122 192.099C162.636 191.814 162.893 191.129 162.75 190.301C162.579 189.473 162.065 189.017 161.409 189.159C161.152 189.216 160.895 189.245 160.724 189.245C159.839 189.245 159.725 188.788 159.725 187.675V179.598H161.723C162.608 179.598 163.007 178.885 163.007 178.057C163.007 177.229 162.608 176.516 161.723 176.516H148.024Z" fill="white"/>
    </g>
    <path d="M614.363 87.858H612.755V86.1816H611.796V92.6365H612.755V90.9861H614.363V90.1738H612.755V88.6443H614.363V87.858ZM610.172 89.3961C610.163 87.8839 608.97 86.8297 607.32 86.8383C605.67 86.8297 604.46 87.8839 604.468 89.3961C604.46 90.9169 605.67 91.9625 607.32 91.9625C608.97 91.9625 610.163 90.9169 610.172 89.3961ZM605.41 89.3961C605.402 88.3678 606.214 87.6592 607.32 87.6592C608.426 87.6592 609.23 88.3678 609.238 89.3961C609.23 90.433 608.426 91.1502 607.32 91.1416C606.214 91.1502 605.402 90.433 605.41 89.3961ZM611.796 93.9327V97.0435H612.755V93.1464H605.644V93.9327H611.796ZM622.87 88.9035H620.666V89.7072H622.87V92.5415H623.829V86.1816H622.87V88.9035ZM618.134 89.7115C618.605 90.8348 619.551 91.7465 620.779 92.1872L621.28 91.4268C619.69 90.8651 618.601 89.5084 618.601 88.1085V87.6851H621.029V86.8815H615.179V87.6851H617.633V88.1085C617.633 89.6553 616.475 91.107 614.868 91.6774L615.369 92.4291C616.661 91.9582 617.663 90.9645 618.134 89.7115ZM623.829 96.8966V93.0772H616.726V96.8966H623.829ZM622.887 93.8463V96.1103H617.685V93.8463H622.887Z" fill="#4F4F4F"/>
    <g filter="url(#filter1_d_0_1)">
        <path fill-rule="evenodd" clip-rule="evenodd" d="M596.791 49.3247C596.533 49.6117 596.391 49.9839 596.391 50.3697V76.9207C596.391 77.7845 597.091 78.4848 597.955 78.4848H631.582C632.446 78.4848 633.146 77.7845 633.146 76.9207V35.4732C633.146 34.6094 632.446 33.9092 631.582 33.9092H611.331C610.887 33.9092 610.464 34.0979 610.167 34.4282L596.791 49.3247Z" fill="#4181C4"/>
        <path d="M610.274 48.6026C610.274 49.4665 609.574 50.167 608.71 50.167L596 50.167L610.271 34.3001L610.274 48.6026Z" fill="white"/>
        <path d="M608.263 54.18C607.436 54.18 607.063 54.8467 607.063 55.6201C607.063 56.3934 607.436 57.0601 608.263 57.0601H610.129V67.407C610.129 68.4203 610.929 68.8736 611.836 68.8736C612.743 68.8736 613.516 68.4203 613.516 67.407V57.0601H615.889V65.6736C615.889 67.6203 616.796 69.007 619.276 69.087C620.156 69.1137 621.143 68.9003 621.436 68.7403C621.916 68.4736 622.156 67.8336 622.023 67.0603C621.863 66.2869 621.383 65.8603 620.769 65.9936C620.529 66.0469 620.289 66.0736 620.129 66.0736C619.303 66.0736 619.196 65.6469 619.196 64.6069V57.0601H621.063C621.889 57.0601 622.263 56.3934 622.263 55.6201C622.263 54.8467 621.889 54.18 621.063 54.18H608.263Z" fill="white"/>
    </g>
    <g filter="url(#filter2_d_0_1)">
        <path fill-rule="evenodd" clip-rule="evenodd" d="M136.8 50.6326C136.539 50.9236 136.395 51.301 136.395 51.6922V78.6154C136.395 79.4914 137.105 80.2014 137.981 80.2014H172.08C172.956 80.2014 173.666 79.4914 173.666 78.6154V36.586C173.666 35.7101 172.956 35 172.08 35H151.545C151.095 35 150.666 35.1914 150.365 35.5264L136.8 50.6326Z" fill="#4181C4"/>
        <path d="M150.476 49.8994C150.476 50.7754 149.766 51.4856 148.89 51.4856L136.002 51.4856L150.473 35.396L150.476 49.8994Z" fill="white"/>
        <path d="M147.27 56.119C146.432 56.119 146.053 56.7951 146.053 57.5793C146.053 58.3635 146.432 59.0395 147.27 59.0395H149.163V69.5316C149.163 70.5592 149.974 71.0189 150.894 71.0189C151.813 71.0189 152.597 70.5592 152.597 69.5316V59.0395H155.004V67.7739C155.004 69.748 155.924 71.1541 158.438 71.2353C159.331 71.2623 160.331 71.046 160.629 70.8837C161.116 70.6133 161.359 69.9643 161.224 69.1801C161.061 68.3959 160.575 67.9632 159.953 68.0984C159.709 68.1525 159.466 68.1796 159.304 68.1796C158.465 68.1796 158.357 67.7469 158.357 66.6923V59.0395H160.25C161.089 59.0395 161.467 58.3635 161.467 57.5793C161.467 56.7951 161.089 56.119 160.25 56.119H147.27Z" fill="white"/>
    </g>
    <path d="M220.637 216.829C222.848 216.681 224.383 215.534 224.383 213.805C224.383 211.974 222.607 210.772 220.129 210.762C217.669 210.772 215.884 211.974 215.884 213.805C215.884 215.534 217.428 216.677 219.62 216.829V219.271H214.839V220.131H225.483V219.271H220.637V216.829ZM216.873 213.805C216.873 212.492 218.251 211.604 220.129 211.613C222.015 211.604 223.393 212.492 223.393 213.805C223.393 215.146 222.015 216.015 220.129 216.025C218.251 216.015 216.873 215.146 216.873 213.805ZM235.235 212.732V210.004H234.209V216.2H235.235V213.602H236.983V212.732H235.235ZM232.933 214.545C231.379 214.873 230.047 214.943 227.717 214.943V211.622H231.841V210.772H226.699V215.803H227.597C230.038 215.803 231.425 215.729 233.062 215.396L232.933 214.545ZM228.891 218.272V216.829H227.874V221.435H235.235V216.829H234.209V218.272H228.891ZM228.891 220.584V219.104H234.209V220.584H228.891Z" fill="#4F4F4F"/>
    <g filter="url(#filter3_d_0_1)">
        <path fill-rule="evenodd" clip-rule="evenodd" d="M206.843 171.684C206.567 171.991 206.414 172.389 206.414 172.802V201.218C206.414 202.143 207.163 202.892 208.088 202.892H244.077C245.002 202.892 245.751 202.143 245.751 201.218V156.859C245.751 155.935 245.002 155.186 244.077 155.186H222.404C221.929 155.186 221.476 155.388 221.159 155.741L206.843 171.684Z" fill="#F28300"/>
        <path d="M221.275 170.911C221.275 171.835 220.525 172.585 219.601 172.585L205.999 172.585L221.272 155.604L221.275 170.911Z" fill="white"/>
        <path d="M220.329 182.873C219.117 182.873 218.532 183.876 218.532 185.087C218.532 186.299 219.117 187.301 220.329 187.301H231.44C232.652 187.301 233.236 186.299 233.236 185.087C233.236 183.876 232.652 182.873 231.44 182.873H220.329Z" fill="white"/>
    </g>
    <path d="M695.675 92.5588C697.74 92.4205 699.175 91.349 699.175 89.7331C699.175 88.0221 697.516 86.8988 695.2 86.8901C692.901 86.8988 691.234 88.0221 691.234 89.7331C691.234 91.349 692.677 92.4162 694.725 92.5588V94.84H690.257V95.6437H700.203V94.84H695.675V92.5588ZM692.158 89.7331C692.158 88.506 693.446 87.6765 695.2 87.6851C696.963 87.6765 698.25 88.506 698.25 89.7331C698.25 90.9861 696.963 91.7983 695.2 91.807C693.446 91.7983 692.158 90.9861 692.158 89.7331ZM709.315 88.7307V86.1816H708.356V91.9712H709.315V89.543H710.948V88.7307H709.315ZM707.163 90.4244C705.712 90.7311 704.467 90.796 702.29 90.796V87.6938H706.144V86.8988H701.339V91.5996H702.178C704.459 91.5996 705.755 91.5305 707.284 91.2194L707.163 90.4244ZM703.387 93.9068V92.5588H702.437V96.8621H709.315V92.5588H708.356V93.9068H703.387ZM703.387 96.0671V94.6845H708.356V96.0671H703.387Z" fill="#4F4F4F"/>
    <g filter="url(#filter4_d_0_1)">
        <path fill-rule="evenodd" clip-rule="evenodd" d="M682.787 49.3247C682.529 49.6117 682.387 49.9839 682.387 50.3697V76.9207C682.387 77.7845 683.087 78.4848 683.951 78.4848H717.578C718.442 78.4848 719.142 77.7845 719.142 76.9207V35.4732C719.142 34.6094 718.442 33.9092 717.578 33.9092H697.327C696.883 33.9092 696.46 34.0979 696.164 34.4282L682.787 49.3247Z" fill="#F28300"/>
        <path d="M696.274 48.6026C696.274 49.4665 695.574 50.167 694.71 50.167L682 50.167L696.271 34.3001L696.274 48.6026Z" fill="white"/>
        <path d="M695.478 59.9973C694.346 59.9973 693.8 60.934 693.8 62.0659C693.8 63.1978 694.346 64.1346 695.478 64.1346H705.86C706.992 64.1346 707.539 63.1978 707.539 62.0659C707.539 60.934 706.992 59.9973 705.86 59.9973H695.478Z" fill="white"/>
    </g>
    <path d="M288.302 209.819H287.284V216.94H288.302V213.721H289.8V212.852H288.302V209.819ZM282.817 216.098C283.691 215.562 284.182 214.637 284.44 213.675C284.732 214.623 285.277 215.478 286.165 215.978L286.757 215.247C285.407 214.489 284.908 212.963 284.908 211.668V210.531H283.936V211.668C283.936 212.616 283.715 213.989 282.822 214.9C281.92 213.976 281.689 212.57 281.689 211.668V210.531H280.718V211.668C280.709 212.806 280.219 214.461 278.887 215.247L279.46 215.978C280.339 215.451 280.88 214.554 281.181 213.606C281.43 214.577 281.92 215.538 282.817 216.098ZM284.51 217.051C282.105 217.06 280.616 217.864 280.616 219.242C280.616 220.611 282.105 221.416 284.51 221.416C286.924 221.416 288.413 220.611 288.413 219.242C288.413 217.864 286.924 217.06 284.51 217.051ZM284.51 220.602C282.725 220.593 281.652 220.084 281.652 219.242C281.652 218.392 282.725 217.892 284.51 217.892C286.285 217.892 287.368 218.392 287.377 219.242C287.368 220.084 286.285 220.593 284.51 220.602ZM292.643 213.351V211.187H299.57V210.364H291.626V214.184H299.644V213.351H292.643ZM300.893 215.256H290.285V216.107H295.076V217.254C292.87 217.351 291.561 218.096 291.561 219.326C291.561 220.676 293.069 221.416 295.575 221.416C298.072 221.416 299.57 220.676 299.58 219.326C299.57 218.096 298.276 217.356 296.093 217.254V216.107H300.893V215.256ZM298.553 219.326C298.544 220.139 297.425 220.62 295.575 220.611C293.716 220.62 292.597 220.139 292.606 219.326C292.597 218.512 293.716 218.049 295.575 218.049C297.425 218.049 298.544 218.512 298.553 219.326ZM310.145 209.819V221.462H311.172V209.819H310.145ZM304.994 210.716C303.256 210.725 302.026 212.297 302.026 214.766C302.026 217.245 303.256 218.817 304.994 218.817C306.714 218.817 307.963 217.245 307.963 214.766C307.963 212.297 306.714 210.725 304.994 210.716ZM304.994 211.631C306.159 211.64 306.964 212.88 306.964 214.766C306.964 216.662 306.159 217.901 304.994 217.901C303.829 217.901 303.015 216.662 303.015 214.766C303.015 212.88 303.829 211.64 304.994 211.631Z" fill="#4F4F4F"/>
    <g filter="url(#filter5_d_0_1)">
        <path fill-rule="evenodd" clip-rule="evenodd" d="M276.843 171.498C276.567 171.805 276.414 172.204 276.414 172.617V201.033C276.414 201.957 277.163 202.707 278.088 202.707H314.077C315.002 202.707 315.751 201.957 315.751 201.033V156.674C315.751 155.749 315.002 155 314.077 155H292.404C291.929 155 291.476 155.202 291.159 155.556L276.843 171.498Z" fill="#6EB36C"/>
        <path d="M291.275 170.725C291.275 171.65 290.525 172.399 289.601 172.399L275.999 172.399L291.272 155.418L291.275 170.725Z" fill="white"/>
        <path d="M300.734 177.969L296.036 183.027L291.339 177.969C290.715 177.279 289.795 177.443 289.138 178.1C288.481 178.724 288.251 179.611 288.876 180.301L293.704 185.524L288.876 190.714C288.251 191.403 288.481 192.29 289.138 192.914C289.795 193.571 290.682 193.736 291.339 193.046L296.036 188.02L300.734 193.046C301.391 193.736 302.278 193.571 302.934 192.914C303.591 192.29 303.821 191.403 303.197 190.714L298.336 185.524L303.197 180.301C303.821 179.611 303.591 178.724 302.934 178.1C302.278 177.443 301.358 177.279 300.734 177.969Z" fill="white"/>
    </g>
    <path d="M355.054 221.453H356.062V209.828H355.054V221.453ZM347.443 215.525C348.816 215.182 349.866 214.41 350.36 213.388C350.869 214.332 351.9 215.039 353.241 215.367L353.667 214.554C352.011 214.184 350.855 213.185 350.855 212.01V211.964H353.445V211.15H350.855V209.846H349.829V211.15H347.239V211.964H349.829V212.01C349.829 213.25 348.673 214.332 346.999 214.711L347.443 215.525ZM354.194 215.996C351.623 216.329 348.673 216.348 346.444 216.348L346.583 217.217C347.563 217.217 348.682 217.208 349.856 217.162V221.101H350.883V217.111C352.007 217.041 353.158 216.93 354.268 216.745L354.194 215.996ZM368.588 211.613H366.868V209.819H365.842V216.727H366.868V214.96H368.588V214.091H366.868V212.454H368.588V211.613ZM364.103 213.259C364.094 211.64 362.818 210.512 361.051 210.521C359.285 210.512 357.99 211.64 357.999 213.259C357.99 214.886 359.285 216.006 361.051 216.006C362.818 216.006 364.094 214.886 364.103 213.259ZM359.007 213.259C358.998 212.158 359.867 211.4 361.051 211.4C362.235 211.4 363.095 212.158 363.104 213.259C363.095 214.369 362.235 215.136 361.051 215.127C359.867 215.136 358.998 214.369 359.007 213.259ZM365.842 218.114V221.443H366.868V217.273H359.257V218.114H365.842ZM374.364 215.33C376.805 215.34 378.461 214.369 378.461 212.824C378.461 211.27 376.805 210.29 374.364 210.281C371.922 210.29 370.276 211.27 370.276 212.824C370.276 214.369 371.922 215.34 374.364 215.33ZM374.364 211.122C376.176 211.122 377.406 211.788 377.406 212.824C377.406 213.851 376.176 214.507 374.364 214.507C372.551 214.507 371.321 213.851 371.33 212.824C371.321 211.788 372.551 211.122 374.364 211.122ZM369.065 216.44V217.291H371.83V221.443H372.884V217.291H375.871V221.443H376.907V217.291H379.709V216.44H369.065ZM384.245 211.122V209.717H383.228V211.122H380.398V211.955H386.983V211.122H384.245ZM386.973 213.462H388.999V214.877H386.964V215.728H388.999V217.337H390.025V209.819H388.999V212.611H386.973V213.462ZM386.382 214.711C386.372 213.407 385.281 212.556 383.727 212.556C382.155 212.556 381.082 213.407 381.092 214.711C381.082 216.006 382.155 216.856 383.727 216.856C385.281 216.856 386.372 216.006 386.382 214.711ZM382.053 214.711C382.044 213.888 382.71 213.342 383.727 213.333C384.726 213.342 385.411 213.888 385.42 214.711C385.411 215.525 384.726 216.07 383.727 216.07C382.71 216.07 382.044 215.525 382.053 214.711ZM386.197 217.448C383.755 217.448 382.285 218.17 382.285 219.437C382.285 220.685 383.755 221.416 386.197 221.416C388.62 221.416 390.09 220.685 390.09 219.437C390.09 218.17 388.62 217.448 386.197 217.448ZM386.197 220.611C384.43 220.62 383.348 220.176 383.348 219.437C383.348 218.678 384.43 218.253 386.197 218.253C387.935 218.253 389.008 218.678 389.008 219.437C389.008 220.176 387.935 220.62 386.197 220.611Z" fill="#4F4F4F"/>
    <g filter="url(#filter6_d_0_1)">
        <path fill-rule="evenodd" clip-rule="evenodd" d="M349.354 171.498C349.078 171.805 348.926 172.204 348.926 172.617V201.033C348.926 201.957 349.675 202.707 350.6 202.707H386.589C387.513 202.707 388.263 201.957 388.263 201.033V156.674C388.263 155.749 387.513 155 386.589 155H364.916C364.441 155 363.988 155.202 363.67 155.556L349.354 171.498Z" fill="#9052CD"/>
        <path d="M363.786 170.725C363.786 171.65 363.037 172.399 362.112 172.399L348.51 172.399L363.784 155.418L363.786 170.725Z" fill="white"/>
        <path d="M362.017 183.256C361.114 183.256 360.679 184.003 360.679 184.906C360.679 185.809 361.114 186.557 362.017 186.557H375.779C376.682 186.557 377.118 185.809 377.118 184.906C377.118 184.003 376.682 183.256 375.779 183.256H362.017ZM368.867 188.829C367.591 188.829 366.594 189.826 366.594 191.102C366.594 192.379 367.591 193.375 368.867 193.375C370.144 193.375 371.14 192.379 371.14 191.102C371.14 189.826 370.144 188.829 368.867 188.829ZM368.867 176.438C367.591 176.438 366.594 177.434 366.594 178.711C366.594 179.987 367.591 180.983 368.867 180.983C370.144 180.983 371.14 179.987 371.14 178.711C371.14 177.434 370.144 176.438 368.867 176.438Z" fill="white"/>
    </g>
    <path d="M603.967 220.971H604.966V209.457H603.967V220.971ZM596.429 215.099C597.789 214.76 598.829 213.996 599.319 212.984C599.823 213.918 600.844 214.619 602.172 214.944L602.593 214.138C600.954 213.771 599.809 212.782 599.809 211.619V211.573H602.374V210.767H599.809V209.475H598.792V210.767H596.227V211.573H598.792V211.619C598.792 212.846 597.647 213.918 595.989 214.293L596.429 215.099ZM603.115 215.567C600.569 215.896 597.647 215.915 595.44 215.915L595.577 216.776C596.548 216.776 597.656 216.766 598.82 216.721V220.623H599.836V216.67C600.949 216.602 602.09 216.492 603.189 216.308L603.115 215.567ZM617.372 211.225H615.669V209.448H614.652V216.29H615.669V214.541H617.372V213.68H615.669V212.058H617.372V211.225ZM612.93 212.855C612.921 211.252 611.657 210.135 609.907 210.144C608.158 210.135 606.875 211.252 606.884 212.855C606.875 214.467 608.158 215.576 609.907 215.576C611.657 215.576 612.921 214.467 612.93 212.855ZM607.883 212.855C607.874 211.765 608.735 211.014 609.907 211.014C611.08 211.014 611.931 211.765 611.941 212.855C611.931 213.954 611.08 214.715 609.907 214.706C608.735 214.715 607.874 213.954 607.883 212.855ZM614.652 217.664V220.962H615.669V216.831H608.13V217.664H614.652ZM623.092 214.907C625.51 214.916 627.15 213.954 627.15 212.425C627.15 210.886 625.51 209.915 623.092 209.906C620.674 209.915 619.044 210.886 619.044 212.425C619.044 213.954 620.674 214.916 623.092 214.907ZM623.092 210.739C624.888 210.739 626.106 211.399 626.106 212.425C626.106 213.441 624.888 214.092 623.092 214.092C621.297 214.092 620.079 213.441 620.088 212.425C620.079 211.399 621.297 210.739 623.092 210.739ZM617.844 216.006V216.849H620.583V220.962H621.627V216.849H624.585V220.962H625.611V216.849H628.387V216.006H617.844ZM632.879 210.739V209.347H631.872V210.739H629.069V211.564H635.591V210.739H632.879ZM635.581 213.057H637.587V214.458H635.572V215.301H637.587V216.895H638.604V209.448H637.587V212.214H635.581V213.057ZM634.995 214.293C634.986 213.002 633.905 212.159 632.366 212.159C630.809 212.159 629.747 213.002 629.756 214.293C629.747 215.576 630.809 216.418 632.366 216.418C633.905 216.418 634.986 215.576 634.995 214.293ZM630.708 214.293C630.699 213.478 631.359 212.938 632.366 212.929C633.356 212.938 634.033 213.478 634.043 214.293C634.033 215.099 633.356 215.64 632.366 215.64C631.359 215.64 630.699 215.099 630.708 214.293ZM634.812 217.005C632.394 217.005 630.937 217.719 630.937 218.974C630.937 220.21 632.394 220.934 634.812 220.934C637.212 220.934 638.668 220.21 638.668 218.974C638.668 217.719 637.212 217.005 634.812 217.005ZM634.812 220.137C633.062 220.146 631.991 219.707 631.991 218.974C631.991 218.223 633.062 217.801 634.812 217.801C636.534 217.801 637.597 218.223 637.597 218.974C637.597 219.707 636.534 220.146 634.812 220.137Z" fill="#4F4F4F"/>
    <g filter="url(#filter7_d_0_1)">
        <path fill-rule="evenodd" clip-rule="evenodd" d="M598.319 171.34C598.046 171.645 597.895 172.039 597.895 172.448V200.592C597.895 201.508 598.637 202.25 599.552 202.25H635.197C636.113 202.25 636.855 201.508 636.855 200.592V156.658C636.855 155.742 636.113 155 635.197 155H613.731C613.261 155 612.812 155.2 612.498 155.55L598.319 171.34Z" fill="#9052CD"/>
        <path d="M612.613 170.575C612.613 171.491 611.871 172.233 610.955 172.233L597.483 172.233L612.611 155.414L612.613 170.575Z" fill="white"/>
        <path d="M610.275 181.606C609.269 181.606 608.783 182.438 608.783 183.444C608.783 184.45 609.269 185.283 610.275 185.283H625.609C626.615 185.283 627.101 184.45 627.101 183.444C627.101 182.438 626.615 181.606 625.609 181.606H610.275ZM617.907 187.815C616.485 187.815 615.375 188.926 615.375 190.348C615.375 191.77 616.485 192.88 617.907 192.88C619.33 192.88 620.44 191.77 620.44 190.348C620.44 188.926 619.33 187.815 617.907 187.815ZM617.907 174.008C616.485 174.008 615.375 175.118 615.375 176.541C615.375 177.963 616.485 179.073 617.907 179.073C619.33 179.073 620.44 177.963 620.44 176.541C620.44 175.118 619.33 174.008 617.907 174.008Z" fill="white"/>
    </g>
    <path d="M688.958 209.448V215.42H689.957V209.448H688.958ZM684.039 212.406C684.557 213.652 685.629 214.619 686.98 215.081L687.493 214.284C685.78 213.725 684.534 212.287 684.543 210.666V209.778H683.508V210.666C683.508 212.352 682.281 213.89 680.55 214.495L681.081 215.301C682.446 214.806 683.526 213.748 684.039 212.406ZM683.508 218.754H689.975V215.997H682.482V216.812H688.967V217.966H682.519V220.833H690.387V220H683.508V218.754ZM700.192 211.17H697.893V211.994H700.192V213.551H697.893V214.385H700.192V216.528H701.209V209.457H700.192V211.17ZM697.802 214.88C696.451 215.127 695.329 215.173 693.167 215.173V213.387H697.124V210.153H692.132V210.978H696.116V212.599H692.159V215.997H692.974C695.301 215.997 696.473 215.96 697.902 215.722L697.802 214.88ZM700.192 217.985V220.98H701.209V217.151H693.451V217.985H700.192ZM711.866 209.448H710.849V216.354H711.866V213.286H713.597V212.443H711.866V209.448ZM708.724 210.3H703.384V211.142H707.63C707.424 213.144 705.656 214.738 702.881 215.548L703.302 216.373C706.654 215.383 708.724 213.231 708.724 210.3ZM708.23 216.482C705.931 216.482 704.447 217.325 704.456 218.708C704.447 220.101 705.931 220.934 708.23 220.934C710.538 220.934 711.994 220.101 711.994 218.708C711.994 217.325 710.538 216.482 708.23 216.482ZM708.23 220.119C706.535 220.119 705.454 219.569 705.464 218.708C705.454 217.838 706.535 217.298 708.23 217.307C709.915 217.298 711.005 217.838 711.005 218.708C711.005 219.569 709.915 220.119 708.23 220.119ZM722.99 214.348V209.448H721.974V220.962H722.99V215.209H724.831V214.348H722.99ZM718.108 210.858V209.466H717.092V210.858H714.124V211.683H721.067V210.858H718.108ZM718.108 216.583C719.446 216.428 720.334 215.64 720.343 214.495C720.334 213.194 719.217 212.352 717.604 212.352C715.974 212.352 714.875 213.194 714.884 214.495C714.875 215.64 715.75 216.423 717.092 216.583V217.852C715.951 217.884 714.852 217.889 713.913 217.893L714.087 218.754C716.102 218.754 718.823 218.727 721.342 218.296L721.268 217.527C720.265 217.673 719.18 217.76 718.108 217.811V216.583ZM715.837 214.495C715.837 213.689 716.542 213.148 717.604 213.148C718.658 213.148 719.363 213.689 719.363 214.495C719.363 215.292 718.658 215.814 717.604 215.805C716.542 215.814 715.837 215.292 715.837 214.495Z" fill="#4F4F4F"/>
    <g filter="url(#filter8_d_0_1)">
        <path fill-rule="evenodd" clip-rule="evenodd" d="M684.151 171.34C683.878 171.645 683.727 172.039 683.727 172.448V200.592C683.727 201.508 684.469 202.25 685.384 202.25H721.029C721.945 202.25 722.687 201.508 722.687 200.592V156.658C722.687 155.742 721.945 155 721.029 155H699.563C699.093 155 698.644 155.2 698.33 155.55L684.151 171.34Z" fill="#D96150"/>
        <path d="M698.445 170.575C698.445 171.491 697.703 172.233 696.787 172.233L683.315 172.233L698.443 155.414L698.445 170.575Z" fill="white"/>
        <path d="M697.638 176.332C695.95 176.332 695.286 176.913 695.286 178.242C695.286 178.906 695.535 179.459 696.421 180.483L701.457 186.156L696.421 191.857C695.535 192.881 695.286 193.435 695.286 194.099C695.286 195.427 695.95 196.008 697.638 196.008H707.712C708.57 196.008 708.957 195.372 708.957 194.542C708.957 193.739 708.57 193.047 707.712 193.047H699.714L703.671 188.647C704.695 187.485 705.193 186.821 705.193 186.156C705.193 185.492 704.695 184.856 703.671 183.693L699.714 179.293H707.518C708.376 179.293 708.763 178.657 708.763 177.827C708.763 177.024 708.376 176.332 707.518 176.332H697.638Z" fill="white"/>
    </g>
    <path d="M48.0162 59.3114H45.6783V52.3204H43.7975V69.8842H45.6783V60.9524H48.0162V70.7983H49.9644V51.8108H48.0162V59.3114ZM34.4387 54.2311V55.8721H39.9386C39.6314 59.7385 37.863 62.9681 33.6294 65.3658L34.7983 66.782C40.2308 63.7099 41.8868 59.2215 41.9018 54.2311H34.4387ZM65.842 53.834H60.6643V55.3776H65.842V57.1684H60.6643V58.7195H65.842V62.9606H67.8502V51.8108H65.842V53.834ZM62.605 59.9708C60.1173 60.4279 57.8993 60.5553 55.1793 60.5703V52.7175H53.1412V62.2337H54.6024C57.697 62.2337 60.0948 62.1064 62.8298 61.5893L62.605 59.9708ZM67.8502 70.5586V63.7848H55.4416V70.5586H67.8502ZM65.857 65.3883V68.9251H57.4198V65.3883H65.857Z" fill="#4F4F4F"/>
    <path d="M0 123H419" stroke="#DCE9F8" stroke-width="1.085"/>
    <path d="M449 124H868" stroke="#DCE9F8" stroke-width="1.085"/>
    <path d="M499.924 72.7983H501.947V53.8108H499.924V72.7983ZM487.268 55.8565V57.46H494.252C493.855 61.8884 491.397 65.3127 486.347 67.7105L487.411 69.3365C493.93 66.2269 496.29 61.4088 496.305 55.8565H487.268ZM506.098 65.3352C509.275 64.8407 511.913 63.3421 513.149 61.1241C514.386 63.3421 517.031 64.8407 520.208 65.3352L520.965 63.7692C517.061 63.1997 514.266 60.9892 514.176 58.3292H520.245V56.6882H514.138V54.163H512.16V56.6882H506.061V58.3292H512.138C512.033 60.9892 509.23 63.1997 505.319 63.7692L506.098 65.3352ZM514.138 64.6758H512.16V68.812H504.487V70.4755H521.864V68.812H514.138V64.6758Z" fill="#4F4F4F"/>
    <path d="M47.9018 179.826V193.688H49.9174V179.826H47.9018ZM40.2139 186.929C41.0756 188.833 42.7316 190.331 44.9195 191.05L45.9461 189.469C43.0088 188.548 41.1955 186.24 41.1955 183.767V182.95H45.3766V181.324H34.8938V182.95H39.1648V183.767C39.1499 186.375 37.329 188.833 34.3693 189.837L35.4108 191.433C37.6737 190.631 39.3597 188.997 40.2139 186.929ZM39.517 192.384H37.4939V198.409H50.4719V196.76H39.517V192.384ZM62.1235 190.189H67.8632V188.578H56.6535V182.913H67.6983V181.287H54.6454V190.189H60.1303V194.812H52.4873V196.475H69.8638V194.812H62.1235V190.189Z" fill="#4F4F4F"/>
    <path d="M499.902 190.586H501.917V179.826H499.902V190.586ZM492.057 185.625C492.918 187.566 494.574 189.065 496.777 189.784L497.774 188.248C494.889 187.281 493.053 184.959 493.068 182.403V180.553H491.007V182.403C491.007 185.056 489.217 187.574 486.242 188.57L487.253 190.159C489.524 189.357 491.202 187.701 492.057 185.625ZM501.917 198.559V191.605H489.434V198.559H501.917ZM499.939 193.216V196.925H491.42V193.216H499.939ZM519.369 187.769V179.811H517.345V198.798H519.369V189.454H522.216V187.769H519.369ZM511.314 182.066V179.863H509.298V182.066H504.6V183.67H515.989V182.066H511.314ZM511.314 191.65C513.449 191.343 514.873 190.046 514.888 188.203C514.873 186.06 513 184.651 510.317 184.651C507.604 184.651 505.754 186.06 505.769 188.203C505.754 190.039 507.155 191.335 509.298 191.65V193.576C507.485 193.628 505.746 193.636 504.248 193.636L504.555 195.314C507.837 195.314 512.28 195.277 516.401 194.55L516.259 193.059C514.685 193.283 512.992 193.418 511.314 193.501V191.65ZM507.664 188.203C507.664 186.989 508.721 186.21 510.317 186.21C511.898 186.21 512.955 186.989 512.955 188.203C512.955 189.409 511.898 190.159 510.317 190.151C508.721 190.159 507.664 189.409 507.664 188.203Z" fill="#4F4F4F"/>
    <path d="M0 253L419 253" stroke="#DCE9F8" stroke-width="1.085"/>
    <path d="M449 254L868 254" stroke="#DCE9F8" stroke-width="1.085"/>
    <defs>
        <filter id="filter0_d_0_1" x="118.424" y="137.424" width="74.9061" height="82.8582" filterUnits="userSpaceOnUse" color-interpolation-filters="sRGB">
            <feFlood flood-opacity="0" result="BackgroundImageFix"/>
            <feColorMatrix in="SourceAlpha" type="matrix" values="0 0 0 0 0 0 0 0 0 0 0 0 0 0 0 0 0 0 127 0" result="hardAlpha"/>
            <feMorphology radius="4.18478" operator="erode" in="SourceAlpha" result="effect1_dropShadow_0_1"/>
            <feOffset/>
            <feGaussianBlur stdDeviation="10.8804"/>
            <feComposite in2="hardAlpha" operator="out"/>
            <feColorMatrix type="matrix" values="0 0 0 0 0 0 0 0 0 0 0 0 0 0 0 0 0 0 0.25 0"/>
            <feBlend mode="normal" in2="BackgroundImageFix" result="effect1_dropShadow_0_1"/>
            <feBlend mode="normal" in="SourceGraphic" in2="effect1_dropShadow_0_1" result="shape"/>
        </filter>
        <filter id="filter1_d_0_1" x="579.577" y="17.4866" width="69.9897" height="77.4204" filterUnits="userSpaceOnUse" color-interpolation-filters="sRGB">
            <feFlood flood-opacity="0" result="BackgroundImageFix"/>
            <feColorMatrix in="SourceAlpha" type="matrix" values="0 0 0 0 0 0 0 0 0 0 0 0 0 0 0 0 0 0 127 0" result="hardAlpha"/>
            <feMorphology radius="3.91014" operator="erode" in="SourceAlpha" result="effect1_dropShadow_0_1"/>
            <feOffset/>
            <feGaussianBlur stdDeviation="10.1664"/>
            <feComposite in2="hardAlpha" operator="out"/>
            <feColorMatrix type="matrix" values="0 0 0 0 0 0 0 0 0 0 0 0 0 0 0 0 0 0 0.25 0"/>
            <feBlend mode="normal" in2="BackgroundImageFix" result="effect1_dropShadow_0_1"/>
            <feBlend mode="normal" in="SourceGraphic" in2="effect1_dropShadow_0_1" result="shape"/>
        </filter>
        <filter id="filter2_d_0_1" x="119.347" y="18.3468" width="70.9704" height="78.5075" filterUnits="userSpaceOnUse" color-interpolation-filters="sRGB">
            <feFlood flood-opacity="0" result="BackgroundImageFix"/>
            <feColorMatrix in="SourceAlpha" type="matrix" values="0 0 0 0 0 0 0 0 0 0 0 0 0 0 0 0 0 0 127 0" result="hardAlpha"/>
            <feMorphology radius="3.96504" operator="erode" in="SourceAlpha" result="effect1_dropShadow_0_1"/>
            <feOffset/>
            <feGaussianBlur stdDeviation="10.3091"/>
            <feComposite in2="hardAlpha" operator="out"/>
            <feColorMatrix type="matrix" values="0 0 0 0 0 0 0 0 0 0 0 0 0 0 0 0 0 0 0.25 0"/>
            <feBlend mode="normal" in2="BackgroundImageFix" result="effect1_dropShadow_0_1"/>
            <feBlend mode="normal" in="SourceGraphic" in2="effect1_dropShadow_0_1" result="shape"/>
        </filter>
        <filter id="filter3_d_0_1" x="188.424" y="137.609" width="74.9022" height="82.8582" filterUnits="userSpaceOnUse" color-interpolation-filters="sRGB">
            <feFlood flood-opacity="0" result="BackgroundImageFix"/>
            <feColorMatrix in="SourceAlpha" type="matrix" values="0 0 0 0 0 0 0 0 0 0 0 0 0 0 0 0 0 0 127 0" result="hardAlpha"/>
            <feMorphology radius="4.18478" operator="erode" in="SourceAlpha" result="effect1_dropShadow_0_1"/>
            <feOffset/>
            <feGaussianBlur stdDeviation="10.8804"/>
            <feComposite in2="hardAlpha" operator="out"/>
            <feColorMatrix type="matrix" values="0 0 0 0 0 0 0 0 0 0 0 0 0 0 0 0 0 0 0.25 0"/>
            <feBlend mode="normal" in2="BackgroundImageFix" result="effect1_dropShadow_0_1"/>
            <feBlend mode="normal" in="SourceGraphic" in2="effect1_dropShadow_0_1" result="shape"/>
        </filter>
        <filter id="filter4_d_0_1" x="665.577" y="17.4866" width="69.9858" height="77.4204" filterUnits="userSpaceOnUse" color-interpolation-filters="sRGB">
            <feFlood flood-opacity="0" result="BackgroundImageFix"/>
            <feColorMatrix in="SourceAlpha" type="matrix" values="0 0 0 0 0 0 0 0 0 0 0 0 0 0 0 0 0 0 127 0" result="hardAlpha"/>
            <feMorphology radius="3.91014" operator="erode" in="SourceAlpha" result="effect1_dropShadow_0_1"/>
            <feOffset/>
            <feGaussianBlur stdDeviation="10.1664"/>
            <feComposite in2="hardAlpha" operator="out"/>
            <feColorMatrix type="matrix" values="0 0 0 0 0 0 0 0 0 0 0 0 0 0 0 0 0 0 0.25 0"/>
            <feBlend mode="normal" in2="BackgroundImageFix" result="effect1_dropShadow_0_1"/>
            <feBlend mode="normal" in="SourceGraphic" in2="effect1_dropShadow_0_1" result="shape"/>
        </filter>
        <filter id="filter5_d_0_1" x="258.424" y="137.424" width="74.9022" height="82.8582" filterUnits="userSpaceOnUse" color-interpolation-filters="sRGB">
            <feFlood flood-opacity="0" result="BackgroundImageFix"/>
            <feColorMatrix in="SourceAlpha" type="matrix" values="0 0 0 0 0 0 0 0 0 0 0 0 0 0 0 0 0 0 127 0" result="hardAlpha"/>
            <feMorphology radius="4.18478" operator="erode" in="SourceAlpha" result="effect1_dropShadow_0_1"/>
            <feOffset/>
            <feGaussianBlur stdDeviation="10.8804"/>
            <feComposite in2="hardAlpha" operator="out"/>
            <feColorMatrix type="matrix" values="0 0 0 0 0 0 0 0 0 0 0 0 0 0 0 0 0 0 0.25 0"/>
            <feBlend mode="normal" in2="BackgroundImageFix" result="effect1_dropShadow_0_1"/>
            <feBlend mode="normal" in="SourceGraphic" in2="effect1_dropShadow_0_1" result="shape"/>
        </filter>
        <filter id="filter6_d_0_1" x="330.936" y="137.424" width="74.9022" height="82.8582" filterUnits="userSpaceOnUse" color-interpolation-filters="sRGB">
            <feFlood flood-opacity="0" result="BackgroundImageFix"/>
            <feColorMatrix in="SourceAlpha" type="matrix" values="0 0 0 0 0 0 0 0 0 0 0 0 0 0 0 0 0 0 127 0" result="hardAlpha"/>
            <feMorphology radius="4.18478" operator="erode" in="SourceAlpha" result="effect1_dropShadow_0_1"/>
            <feOffset/>
            <feGaussianBlur stdDeviation="10.8804"/>
            <feComposite in2="hardAlpha" operator="out"/>
            <feColorMatrix type="matrix" values="0 0 0 0 0 0 0 0 0 0 0 0 0 0 0 0 0 0 0.25 0"/>
            <feBlend mode="normal" in2="BackgroundImageFix" result="effect1_dropShadow_0_1"/>
            <feBlend mode="normal" in="SourceGraphic" in2="effect1_dropShadow_0_1" result="shape"/>
        </filter>
        <filter id="filter7_d_0_1" x="580.076" y="137.592" width="74.1869" height="82.0658" filterUnits="userSpaceOnUse" color-interpolation-filters="sRGB">
            <feFlood flood-opacity="0" result="BackgroundImageFix"/>
            <feColorMatrix in="SourceAlpha" type="matrix" values="0 0 0 0 0 0 0 0 0 0 0 0 0 0 0 0 0 0 127 0" result="hardAlpha"/>
            <feMorphology radius="4.14474" operator="erode" in="SourceAlpha" result="effect1_dropShadow_0_1"/>
            <feOffset/>
            <feGaussianBlur stdDeviation="10.7763"/>
            <feComposite in2="hardAlpha" operator="out"/>
            <feColorMatrix type="matrix" values="0 0 0 0 0 0 0 0 0 0 0 0 0 0 0 0 0 0 0.25 0"/>
            <feBlend mode="normal" in2="BackgroundImageFix" result="effect1_dropShadow_0_1"/>
            <feBlend mode="normal" in="SourceGraphic" in2="effect1_dropShadow_0_1" result="shape"/>
        </filter>
        <filter id="filter8_d_0_1" x="665.909" y="137.592" width="74.1869" height="82.0658" filterUnits="userSpaceOnUse" color-interpolation-filters="sRGB">
            <feFlood flood-opacity="0" result="BackgroundImageFix"/>
            <feColorMatrix in="SourceAlpha" type="matrix" values="0 0 0 0 0 0 0 0 0 0 0 0 0 0 0 0 0 0 127 0" result="hardAlpha"/>
            <feMorphology radius="4.14474" operator="erode" in="SourceAlpha" result="effect1_dropShadow_0_1"/>
            <feOffset/>
            <feGaussianBlur stdDeviation="10.7763"/>
            <feComposite in2="hardAlpha" operator="out"/>
            <feColorMatrix type="matrix" values="0 0 0 0 0 0 0 0 0 0 0 0 0 0 0 0 0 0 0.25 0"/>
            <feBlend mode="normal" in2="BackgroundImageFix" result="effect1_dropShadow_0_1"/>
            <feBlend mode="normal" in="SourceGraphic" in2="effect1_dropShadow_0_1" result="shape"/>
        </filter>
    </defs>
</svg>
