<svg width="423" height="125" viewBox="0 0 423 125" fill="none" xmlns="http://www.w3.org/2000/svg">
    <path d="M2 1H105V124H2V1Z" fill="#F8F8F8"/>
    <path d="M0 1L423 1.00004" stroke="#DCE9F8" stroke-width="1.085"/>
    <path d="M43.3405 63.8856H49.0202V54.1071H47.0196V57.3816H37.6982V54.1071H35.6825V63.8856H41.3473V67.782H33.7044V69.4455H51.0808V67.782H43.3405V63.8856ZM47.0196 59.0001V62.2521H37.6982V59.0001H47.0196ZM66.9435 52.8108H64.9279V64.0805H66.9435V59.2474H69.6935V57.5914H66.9435V52.8108ZM61.7208 54.1671H52.849V55.8081H59.5478C59.1807 58.8802 56.4457 61.353 52.0023 62.6118L52.819 64.2378C58.3864 62.6268 61.7283 59.0751 61.7208 54.1671ZM60.8741 64.2903C57.0676 64.2903 54.5649 65.7214 54.5799 68.0293C54.5649 70.3672 57.0676 71.7759 60.8741 71.7759C64.7031 71.7759 67.1533 70.3672 67.1533 68.0293C67.1533 65.7214 64.7031 64.2903 60.8741 64.2903ZM60.8741 70.1798C58.2215 70.1873 56.5581 69.3631 56.5731 68.0293C56.5581 66.6881 58.2215 65.8788 60.8741 65.8938C63.5117 65.8788 65.1826 66.6881 65.1826 68.0293C65.1826 69.3631 63.5117 70.1873 60.8741 70.1798Z" fill="#4F4F4F"/>
    <path d="M151.935 87.1312H150.278V85.4026H149.289V92.0586H150.278V90.3567H151.935V89.5191H150.278V87.942H151.935V87.1312ZM147.614 88.7172C147.605 87.1579 146.375 86.0709 144.673 86.0798C142.971 86.0709 141.724 87.1579 141.733 88.7172C141.724 90.2854 142.971 91.3636 144.673 91.3636C146.375 91.3636 147.605 90.2854 147.614 88.7172ZM142.704 88.7172C142.695 87.6569 143.533 86.9262 144.673 86.9262C145.814 86.9262 146.643 87.6569 146.651 88.7172C146.643 89.7864 145.814 90.526 144.673 90.5171C143.533 90.526 142.695 89.7864 142.704 88.7172ZM149.289 93.3951V96.6028H150.278V92.5843H142.945V93.3951H149.289ZM160.707 88.2093H158.435V89.038H160.707V91.9606H161.696V85.4026H160.707V88.2093ZM155.824 89.0424C156.31 90.2008 157.286 91.1408 158.551 91.5952L159.068 90.8111C157.428 90.232 156.306 88.833 156.306 87.3896V86.953H158.809V86.1243H152.777V86.953H155.308V87.3896C155.308 88.9845 154.114 90.4814 152.456 91.0695L152.973 91.8447C154.305 91.3591 155.339 90.3344 155.824 89.0424ZM161.696 96.4513V92.513H154.372V96.4513H161.696ZM160.725 93.306V95.6405H155.361V93.306H160.725Z" fill="#4F4F4F"/>
    <g filter="url(#filter0_d_2_5)">
        <path fill-rule="evenodd" clip-rule="evenodd" d="M133.81 47.8959C133.544 48.1918 133.397 48.5756 133.397 48.9734V76.3509C133.397 77.2416 134.119 77.9637 135.009 77.9637H169.684C170.575 77.9637 171.297 77.2416 171.297 76.3509V33.6128C171.297 32.7221 170.575 32 169.684 32H148.803C148.345 32 147.909 32.1946 147.603 32.5352L133.81 47.8959Z" fill="#4181C4"/>
        <path d="M147.718 47.1518C147.718 48.0426 146.996 48.7648 146.105 48.7648L133 48.7648L147.716 32.4038L147.718 47.1518Z" fill="white"/>
        <path d="M145.374 52.9361C144.521 52.9361 144.136 53.6235 144.136 54.4209C144.136 55.2184 144.521 55.9058 145.374 55.9058H147.299V66.5749C147.299 67.6198 148.124 68.0872 149.059 68.0872C149.993 68.0872 150.791 67.6198 150.791 66.5749V55.9058H153.238V64.7875C153.238 66.7948 154.173 68.2247 156.73 68.3072C157.638 68.3347 158.655 68.1147 158.958 67.9497C159.453 67.6748 159.7 67.0148 159.563 66.2174C159.398 65.42 158.903 64.98 158.27 65.1175C158.023 65.1725 157.775 65.2 157.61 65.2C156.758 65.2 156.648 64.76 156.648 63.6876V55.9058H158.573C159.425 55.9058 159.81 55.2184 159.81 54.4209C159.81 53.6235 159.425 52.9361 158.573 52.9361H145.374Z" fill="white"/>
    </g>
    <path d="M220.403 92.0096C222.532 91.8671 224.011 90.7622 224.011 89.096C224.011 87.3317 222.301 86.1734 219.913 86.1645C217.543 86.1734 215.823 87.3317 215.823 89.096C215.823 90.7622 217.311 91.8626 219.423 92.0096V94.3619H214.816V95.1906H225.072V94.3619H220.403V92.0096ZM216.776 89.096C216.776 87.8307 218.104 86.9753 219.913 86.9842C221.73 86.9753 223.058 87.8307 223.058 89.096C223.058 90.388 221.73 91.2255 219.913 91.2344C218.104 91.2255 216.776 90.388 216.776 89.096ZM234.467 88.0624V85.4338H233.478V91.4037H234.467V88.8999H236.152V88.0624H234.467ZM232.249 89.8088C230.752 90.1251 229.469 90.1919 227.223 90.1919V86.9931H231.197V86.1734H226.243V91.0206H227.108C229.46 91.0206 230.796 90.9493 232.374 90.6285L232.249 89.8088ZM228.355 93.3996V92.0096H227.375V96.4469H234.467V92.0096H233.478V93.3996H228.355ZM228.355 95.6272V94.2016H233.478V95.6272H228.355Z" fill="#4F4F4F"/>
    <g filter="url(#filter1_d_2_5)">
        <path fill-rule="evenodd" clip-rule="evenodd" d="M207.11 47.9263C206.845 48.2222 206.698 48.606 206.698 49.0038V76.3813C206.698 77.272 207.42 77.9941 208.31 77.9941H242.985C243.875 77.9941 244.597 77.272 244.597 76.3813V33.6432C244.597 32.7525 243.875 32.0304 242.985 32.0304H222.104C221.646 32.0304 221.209 32.225 220.904 32.5656L207.11 47.9263Z" fill="#F28300"/>
        <path d="M221.015 47.1812C221.015 48.072 220.293 48.7942 219.402 48.7942L206.297 48.7942L221.012 32.4332L221.015 47.1812Z" fill="white"/>
        <path d="M220.428 58.499C219.261 58.499 218.698 59.4649 218.698 60.632C218.698 61.7992 219.261 62.7651 220.428 62.7651H231.134C232.301 62.7651 232.864 61.7992 232.864 60.632C232.864 59.4649 232.301 58.499 231.134 58.499H220.428Z" fill="white"/>
    </g>
    <path d="M291.45 85.4026H290.47V92.2635H291.45V89.1627H292.893V88.3252H291.45V85.4026ZM286.166 91.4527C287.008 90.9359 287.48 90.0448 287.73 89.1182C288.011 90.0315 288.536 90.8557 289.392 91.3368L289.962 90.6329C288.661 89.9023 288.18 88.4321 288.18 87.1846V86.0887H287.244V87.1846C287.244 88.0979 287.03 89.4211 286.171 90.2988C285.302 89.4078 285.079 88.0534 285.079 87.1846V86.0887H284.143V87.1846C284.135 88.2806 283.662 89.8755 282.379 90.6329L282.932 91.3368C283.778 90.8289 284.299 89.9647 284.589 89.0513C284.83 89.9869 285.302 90.9136 286.166 91.4527ZM287.797 92.3704C285.48 92.3793 284.045 93.1545 284.045 94.4822C284.045 95.8009 285.48 96.5761 287.797 96.5761C290.122 96.5761 291.557 95.8009 291.557 94.4822C291.557 93.1545 290.122 92.3793 287.797 92.3704ZM287.797 95.792C286.077 95.7831 285.043 95.293 285.043 94.4822C285.043 93.6624 286.077 93.1813 287.797 93.1813C289.507 93.1813 290.55 93.6624 290.559 94.4822C290.55 95.293 289.507 95.7831 287.797 95.792ZM295.633 88.8063V86.7213H302.307V85.9283H294.653V89.6082H302.378V88.8063H295.633ZM303.581 90.6418H293.361V91.4616H297.977V92.5665C295.851 92.66 294.591 93.3773 294.591 94.5624C294.591 95.8633 296.043 96.5761 298.458 96.5761C300.863 96.5761 302.307 95.8633 302.316 94.5624C302.307 93.3773 301.06 92.6645 298.957 92.5665V91.4616H303.581V90.6418ZM301.327 94.5624C301.318 95.3465 300.24 95.8098 298.458 95.8009C296.667 95.8098 295.589 95.3465 295.598 94.5624C295.589 93.7782 296.667 93.3327 298.458 93.3327C300.24 93.3327 301.318 93.7782 301.327 94.5624ZM312.496 85.4026V96.6206H313.485V85.4026H312.496ZM307.533 86.2669C305.858 86.2758 304.672 87.7905 304.672 90.1696C304.672 92.5575 305.858 94.0723 307.533 94.0723C309.19 94.0723 310.393 92.5575 310.393 90.1696C310.393 87.7905 309.19 86.2758 307.533 86.2669ZM307.533 87.149C308.655 87.1579 309.431 88.3519 309.431 90.1696C309.431 91.9962 308.655 93.1902 307.533 93.1902C306.41 93.1902 305.626 91.9962 305.626 90.1696C305.626 88.3519 306.41 87.1579 307.533 87.149Z" fill="#4F4F4F"/>
    <g filter="url(#filter2_d_2_5)">
        <path fill-rule="evenodd" clip-rule="evenodd" d="M280.407 47.8959C280.141 48.1918 279.994 48.5756 279.994 48.9734V76.3509C279.994 77.2416 280.716 77.9637 281.607 77.9637H316.281C317.172 77.9637 317.894 77.2416 317.894 76.3509V33.6128C317.894 32.7221 317.172 32 316.281 32H295.4C294.943 32 294.506 32.1946 294.2 32.5352L280.407 47.8959Z" fill="#6EB36C"/>
        <path d="M294.316 47.1518C294.316 48.0426 293.594 48.7648 292.703 48.7648L279.598 48.7648L294.313 32.4038L294.316 47.1518Z" fill="white"/>
        <path d="M303.787 54.5182L299.262 59.392L294.736 54.5182C294.135 53.8536 293.248 54.0118 292.615 54.6448C291.982 55.2461 291.761 56.1006 292.362 56.7652L297.015 61.7972L292.362 66.7976C291.761 67.4622 291.982 68.3167 292.615 68.918C293.248 69.551 294.103 69.7092 294.736 69.0446L299.262 64.2025L303.787 69.0446C304.42 69.7092 305.275 69.551 305.908 68.918C306.541 68.3167 306.762 67.4622 306.161 66.7976L301.477 61.7972L306.161 56.7652C306.762 56.1006 306.541 55.2461 305.908 54.6448C305.275 54.0118 304.388 53.8536 303.787 54.5182Z" fill="white"/>
    </g>
    <path d="M361.618 96.6117H362.589V85.4115H361.618V96.6117ZM354.285 90.9002C355.608 90.5705 356.619 89.8265 357.096 88.842C357.586 89.7508 358.579 90.4324 359.871 90.7488L360.281 89.9647C358.686 89.6082 357.572 88.6459 357.572 87.5143V87.4698H360.067V86.6857H357.572V85.4293H356.583V86.6857H354.089V87.4698H356.583V87.5143C356.583 88.7083 355.47 89.7508 353.857 90.1161L354.285 90.9002ZM360.789 91.3547C358.312 91.6754 355.47 91.6932 353.322 91.6932L353.456 92.5308C354.4 92.5308 355.479 92.5219 356.61 92.4773V96.2731H357.599V92.4283C358.682 92.3615 359.791 92.2546 360.86 92.0764L360.789 91.3547ZM374.658 87.1312H373V85.4026H372.011V92.0586H373V90.3567H374.658V89.5191H373V87.942H374.658V87.1312ZM370.336 88.7172C370.327 87.1579 369.098 86.0709 367.396 86.0798C365.694 86.0709 364.447 87.1579 364.455 88.7172C364.447 90.2854 365.694 91.3636 367.396 91.3636C369.098 91.3636 370.327 90.2854 370.336 88.7172ZM365.427 88.7172C365.418 87.6569 366.255 86.9262 367.396 86.9262C368.536 86.9262 369.365 87.6569 369.374 88.7172C369.365 89.7864 368.536 90.526 367.396 90.5171C366.255 90.526 365.418 89.7864 365.427 88.7172ZM372.011 93.3951V96.6028H373V92.5843H365.667V93.3951H372.011ZM380.222 90.7131C382.574 90.722 384.169 89.7864 384.169 88.2984C384.169 86.8015 382.574 85.857 380.222 85.8481C377.87 85.857 376.284 86.8015 376.284 88.2984C376.284 89.7864 377.87 90.722 380.222 90.7131ZM380.222 86.6589C381.969 86.6589 383.154 87.3005 383.154 88.2984C383.154 89.2875 381.969 89.9201 380.222 89.9201C378.476 89.9201 377.291 89.2875 377.3 88.2984C377.291 87.3005 378.476 86.6589 380.222 86.6589ZM375.116 91.7823V92.6021H377.781V96.6028H378.796V92.6021H381.674V96.6028H382.672V92.6021H385.372V91.7823H375.116ZM389.743 86.6589V85.3046H388.762V86.6589H386.036V87.4609H392.38V86.6589H389.743ZM392.371 88.9132H394.322V90.2765H392.362V91.0963H394.322V92.6466H395.312V85.4026H394.322V88.0935H392.371V88.9132ZM391.801 90.1161C391.792 88.8598 390.741 88.04 389.244 88.04C387.729 88.04 386.695 88.8598 386.704 90.1161C386.695 91.3636 387.729 92.1833 389.244 92.1833C390.741 92.1833 391.792 91.3636 391.801 90.1161ZM387.631 90.1161C387.622 89.3231 388.263 88.7974 389.244 88.7885C390.206 88.7974 390.865 89.3231 390.874 90.1161C390.865 90.9002 390.206 91.4259 389.244 91.4259C388.263 91.4259 387.622 90.9002 387.631 90.1161ZM391.623 92.7536C389.27 92.7536 387.854 93.4486 387.854 94.6693C387.854 95.8722 389.27 96.5761 391.623 96.5761C393.957 96.5761 395.374 95.8722 395.374 94.6693C395.374 93.4486 393.957 92.7536 391.623 92.7536ZM391.623 95.8009C389.921 95.8098 388.878 95.3821 388.878 94.6693C388.878 93.9386 389.921 93.5288 391.623 93.5288C393.298 93.5288 394.331 93.9386 394.331 94.6693C394.331 95.3821 393.298 95.8098 391.623 95.8009Z" fill="#4F4F4F"/>
    <g filter="url(#filter3_d_2_5)">
        <path fill-rule="evenodd" clip-rule="evenodd" d="M356.124 47.8959C355.858 48.1918 355.711 48.5756 355.711 48.9734V76.3509C355.711 77.2416 356.433 77.9637 357.324 77.9637H391.998C392.889 77.9637 393.611 77.2416 393.611 76.3509V33.6128C393.611 32.7221 392.889 32 391.998 32H371.117C370.659 32 370.223 32.1946 369.917 32.5352L356.124 47.8959Z" fill="#9052CD"/>
        <path d="M370.04 47.1518C370.04 48.0426 369.318 48.7648 368.427 48.7648L355.322 48.7648L370.038 32.4038L370.04 47.1518Z" fill="white"/>
        <path d="M367.64 59.54C366.77 59.54 366.35 60.2599 366.35 61.1298C366.35 61.9997 366.77 62.7197 367.64 62.7197H380.898C381.768 62.7197 382.188 61.9997 382.188 61.1298C382.188 60.2599 381.768 59.54 380.898 59.54H367.64ZM374.239 64.9095C373.009 64.9095 372.049 65.8694 372.049 67.0993C372.049 68.3292 373.009 69.2891 374.239 69.2891C375.469 69.2891 376.429 68.3292 376.429 67.0993C376.429 65.8694 375.469 64.9095 374.239 64.9095ZM374.239 52.9705C373.009 52.9705 372.049 53.9305 372.049 55.1603C372.049 56.3902 373.009 57.3502 374.239 57.3502C375.469 57.3502 376.429 56.3902 376.429 55.1603C376.429 53.9305 375.469 52.9705 374.239 52.9705Z" fill="white"/>
    </g>
    <path d="M4 124H423" stroke="#DCE9F8" stroke-width="1.085"/>
    <defs>
        <filter id="filter0_d_2_5" x="116.066" y="15.066" width="72.1646" height="79.8316" filterUnits="userSpaceOnUse" color-interpolation-filters="sRGB">
            <feFlood flood-opacity="0" result="BackgroundImageFix"/>
            <feColorMatrix in="SourceAlpha" type="matrix" values="0 0 0 0 0 0 0 0 0 0 0 0 0 0 0 0 0 0 127 0" result="hardAlpha"/>
            <feMorphology radius="4.0319" operator="erode" in="SourceAlpha" result="effect1_dropShadow_2_5"/>
            <feOffset/>
            <feGaussianBlur stdDeviation="10.4829"/>
            <feComposite in2="hardAlpha" operator="out"/>
            <feColorMatrix type="matrix" values="0 0 0 0 0 0 0 0 0 0 0 0 0 0 0 0 0 0 0.25 0"/>
            <feBlend mode="normal" in2="BackgroundImageFix" result="effect1_dropShadow_2_5"/>
            <feBlend mode="normal" in="SourceGraphic" in2="effect1_dropShadow_2_5" result="shape"/>
        </filter>
        <filter id="filter1_d_2_5" x="189.363" y="15.0964" width="72.1685" height="79.8316" filterUnits="userSpaceOnUse" color-interpolation-filters="sRGB">
            <feFlood flood-opacity="0" result="BackgroundImageFix"/>
            <feColorMatrix in="SourceAlpha" type="matrix" values="0 0 0 0 0 0 0 0 0 0 0 0 0 0 0 0 0 0 127 0" result="hardAlpha"/>
            <feMorphology radius="4.0319" operator="erode" in="SourceAlpha" result="effect1_dropShadow_2_5"/>
            <feOffset/>
            <feGaussianBlur stdDeviation="10.4829"/>
            <feComposite in2="hardAlpha" operator="out"/>
            <feColorMatrix type="matrix" values="0 0 0 0 0 0 0 0 0 0 0 0 0 0 0 0 0 0 0.25 0"/>
            <feBlend mode="normal" in2="BackgroundImageFix" result="effect1_dropShadow_2_5"/>
            <feBlend mode="normal" in="SourceGraphic" in2="effect1_dropShadow_2_5" result="shape"/>
        </filter>
        <filter id="filter2_d_2_5" x="262.664" y="15.066" width="72.1646" height="79.8316" filterUnits="userSpaceOnUse" color-interpolation-filters="sRGB">
            <feFlood flood-opacity="0" result="BackgroundImageFix"/>
            <feColorMatrix in="SourceAlpha" type="matrix" values="0 0 0 0 0 0 0 0 0 0 0 0 0 0 0 0 0 0 127 0" result="hardAlpha"/>
            <feMorphology radius="4.0319" operator="erode" in="SourceAlpha" result="effect1_dropShadow_2_5"/>
            <feOffset/>
            <feGaussianBlur stdDeviation="10.4829"/>
            <feComposite in2="hardAlpha" operator="out"/>
            <feColorMatrix type="matrix" values="0 0 0 0 0 0 0 0 0 0 0 0 0 0 0 0 0 0 0.25 0"/>
            <feBlend mode="normal" in2="BackgroundImageFix" result="effect1_dropShadow_2_5"/>
            <feBlend mode="normal" in="SourceGraphic" in2="effect1_dropShadow_2_5" result="shape"/>
        </filter>
        <filter id="filter3_d_2_5" x="338.388" y="15.066" width="72.1568" height="79.8316" filterUnits="userSpaceOnUse" color-interpolation-filters="sRGB">
            <feFlood flood-opacity="0" result="BackgroundImageFix"/>
            <feColorMatrix in="SourceAlpha" type="matrix" values="0 0 0 0 0 0 0 0 0 0 0 0 0 0 0 0 0 0 127 0" result="hardAlpha"/>
            <feMorphology radius="4.0319" operator="erode" in="SourceAlpha" result="effect1_dropShadow_2_5"/>
            <feOffset/>
            <feGaussianBlur stdDeviation="10.4829"/>
            <feComposite in2="hardAlpha" operator="out"/>
            <feColorMatrix type="matrix" values="0 0 0 0 0 0 0 0 0 0 0 0 0 0 0 0 0 0 0.25 0"/>
            <feBlend mode="normal" in2="BackgroundImageFix" result="effect1_dropShadow_2_5"/>
            <feBlend mode="normal" in="SourceGraphic" in2="effect1_dropShadow_2_5" result="shape"/>
        </filter>
    </defs>
</svg>
