<svg width="419" height="125" viewBox="0 0 419 125" fill="none" xmlns="http://www.w3.org/2000/svg">
    <path d="M0 1H106V124H0V1Z" fill="#F8F8F8"/>
    <path d="M40.4957 61.2515V53.8108H38.4801V72.7983H40.4957V62.9524H43.5379V61.2515H40.4957ZM35.3105 68.0327V55.6916H26.4237V68.0327H35.3105ZM33.3023 57.2876V66.4067H28.3944V57.2876H33.3023ZM46.1753 54.8224V62.3005H59.1833V54.8224H46.1753ZM48.1534 60.727V56.4484H57.1901V60.727H48.1534ZM43.9948 64.7133V66.3393H51.6452V72.7834H53.6234V66.3393H61.3713V64.7133H43.9948ZM76.1025 72.8358H78.0956V53.8108H76.1025V72.8358ZM65.4847 62.4654H72.2885V55.5193H63.3942V57.1677H70.2504V60.8469H63.4167V68.28H65.0427C68.3846 68.28 71.2469 68.1526 74.6113 67.5981L74.424 65.9347C71.2469 66.4592 68.5569 66.6016 65.4847 66.6165V62.4654Z" fill="#4F4F4F"/>
    <path d="M144.744 93.7265H145.718V82.4993H144.744V93.7265ZM137.393 88.0013C138.72 87.6708 139.733 86.925 140.211 85.9381C140.703 86.8491 141.698 87.5324 142.994 87.8494L143.404 87.0635C141.806 86.7062 140.689 85.7416 140.689 84.6072V84.5626H143.19V83.7766H140.689V82.5172H139.698V83.7766H137.197V84.5626H139.698V84.6072C139.698 85.8041 138.581 86.8491 136.965 87.2153L137.393 88.0013ZM143.913 88.4568C141.43 88.7783 138.581 88.7962 136.429 88.7962L136.563 89.6358C137.509 89.6358 138.59 89.6269 139.725 89.5822V93.3871H140.716V89.5331C141.801 89.4661 142.913 89.3589 143.985 89.1803L143.913 88.4568ZM157.816 84.2232H156.154V82.4904H155.163V89.1624H156.154V87.4564H157.816V86.6169H156.154V85.036H157.816V84.2232ZM153.484 85.813C153.475 84.25 152.242 83.1603 150.536 83.1692C148.83 83.1603 147.58 84.25 147.589 85.813C147.58 87.385 148.83 88.4657 150.536 88.4657C152.242 88.4657 153.475 87.385 153.484 85.813ZM148.562 85.813C148.553 84.7501 149.393 84.0177 150.536 84.0177C151.679 84.0177 152.51 84.7501 152.519 85.813C152.51 86.8848 151.679 87.6261 150.536 87.6172C149.393 87.6261 148.553 86.8848 148.562 85.813ZM155.163 90.5022V93.7176H156.154V89.6894H148.803V90.5022H155.163ZM163.393 87.8137C165.751 87.8226 167.35 86.8848 167.35 85.3932C167.35 83.8927 165.751 82.9459 163.393 82.937C161.035 82.9459 159.445 83.8927 159.445 85.3932C159.445 86.8848 161.035 87.8226 163.393 87.8137ZM163.393 83.7498C165.144 83.7498 166.332 84.3929 166.332 85.3932C166.332 86.3846 165.144 87.0188 163.393 87.0188C161.643 87.0188 160.455 86.3846 160.464 85.3932C160.455 84.3929 161.643 83.7498 163.393 83.7498ZM158.275 88.8855V89.7072H160.946V93.7176H161.964V89.7072H164.849V93.7176H165.85V89.7072H168.556V88.8855H158.275ZM172.937 83.7498V82.3922H171.954V83.7498H169.221V84.5536H175.58V83.7498H172.937ZM175.572 86.0095H177.528V87.3761H175.563V88.1978H177.528V89.7519H178.519V82.4904H177.528V85.1878H175.572V86.0095ZM175 87.2153C174.991 85.9559 173.937 85.1342 172.437 85.1342C170.918 85.1342 169.882 85.9559 169.891 87.2153C169.882 88.4657 170.918 89.2874 172.437 89.2874C173.937 89.2874 174.991 88.4657 175 87.2153ZM170.82 87.2153C170.811 86.4204 171.454 85.8934 172.437 85.8845C173.401 85.8934 174.062 86.4204 174.071 87.2153C174.062 88.0013 173.401 88.5283 172.437 88.5283C171.454 88.5283 170.811 88.0013 170.82 87.2153ZM174.821 89.8591C172.463 89.8591 171.043 90.5558 171.043 91.7794C171.043 92.9852 172.463 93.6908 174.821 93.6908C177.161 93.6908 178.582 92.9852 178.582 91.7794C178.582 90.5558 177.161 89.8591 174.821 89.8591ZM174.821 92.9137C173.115 92.9227 172.07 92.4939 172.07 91.7794C172.07 91.047 173.115 90.6361 174.821 90.6361C176.5 90.6361 177.537 91.047 177.537 91.7794C177.537 92.4939 176.5 92.9227 174.821 92.9137Z" fill="#4F4F4F"/>
    <g filter="url(#filter0_d_2_5)">
        <path fill-rule="evenodd" clip-rule="evenodd" d="M139.234 44.9365C138.968 45.2332 138.82 45.6179 138.82 46.0167V73.4576C138.82 74.3504 139.544 75.0742 140.437 75.0742H175.195C176.088 75.0742 176.811 74.3504 176.811 73.4576V30.6166C176.811 29.7238 176.088 29 175.195 29H154.266C153.807 29 153.369 29.1951 153.063 29.5365L139.234 44.9365Z" fill="#9052CD"/>
        <path d="M153.177 44.1863C153.177 45.0792 152.453 45.8032 151.56 45.8032L138.423 45.8032L153.174 29.4029L153.177 44.1863Z" fill="white"/>
        <path d="M151.153 55.9381C150.172 55.9381 149.699 56.7499 149.699 57.731C149.699 58.712 150.172 59.5238 151.153 59.5238H166.105C167.086 59.5238 167.56 58.712 167.56 57.731C167.56 56.7499 167.086 55.9381 166.105 55.9381H151.153ZM158.595 61.9933C157.209 61.9933 156.126 63.0758 156.126 64.4628C156.126 65.8497 157.209 66.9322 158.595 66.9322C159.982 66.9322 161.065 65.8497 161.065 64.4628C161.065 63.0758 159.982 61.9933 158.595 61.9933ZM158.595 48.5297C157.209 48.5297 156.126 49.6122 156.126 50.9991C156.126 52.3861 157.209 53.4686 158.595 53.4686C159.982 53.4686 161.065 52.3861 161.065 50.9991C161.065 49.6122 159.982 48.5297 158.595 48.5297Z" fill="white"/>
    </g>
    <path d="M239.735 82.4904V88.3139H240.709V82.4904H239.735ZM234.939 85.3754C235.444 86.5901 236.489 87.5324 237.806 87.9834L238.306 87.2064C236.636 86.6615 235.421 85.2592 235.43 83.6783V82.812H234.421V83.6783C234.421 85.3218 233.224 86.8223 231.536 87.4118L232.054 88.1978C233.385 87.7155 234.439 86.6839 234.939 85.3754ZM234.421 91.565H240.727V88.8766H233.42V89.6715H239.744V90.7969H233.456V93.5925H241.129V92.7797H234.421V91.565ZM250.69 84.1696H248.448V84.9734H250.69V86.4918H248.448V87.3046H250.69V89.3946H251.681V82.4993H250.69V84.1696ZM248.359 87.7869C247.041 88.0281 245.947 88.0727 243.839 88.0727V86.3311H247.698V83.1782H242.83V83.982H246.715V85.5629H242.857V88.8766H243.652C245.92 88.8766 247.064 88.8409 248.457 88.6086L248.359 87.7869ZM250.69 90.8148V93.7354H251.681V90.002H244.116V90.8148H250.69ZM262.073 82.4904H261.082V89.2249H262.073V86.2328H263.761V85.4111H262.073V82.4904ZM259.01 83.3211H253.802V84.1428H257.942C257.741 86.0944 256.017 87.6485 253.311 88.4389L253.722 89.2428C256.991 88.2782 259.01 86.1792 259.01 83.3211ZM258.527 89.35C256.285 89.35 254.838 90.1717 254.847 91.5204C254.838 92.878 256.285 93.6908 258.527 93.6908C260.778 93.6908 262.198 92.878 262.198 91.5204C262.198 90.1717 260.778 89.35 258.527 89.35ZM258.527 92.8959C256.875 92.8959 255.821 92.36 255.83 91.5204C255.821 90.6719 256.875 90.1449 258.527 90.1538C260.171 90.1449 261.234 90.6719 261.234 91.5204C261.234 92.36 260.171 92.8959 258.527 92.8959ZM272.921 87.2689V82.4904H271.929V93.7176H272.921V88.1085H274.716V87.2689H272.921ZM268.16 83.8659V82.5083H267.169V83.8659H264.275V84.6698H271.045V83.8659H268.16ZM268.16 89.4482C269.464 89.2964 270.33 88.5283 270.339 87.4118C270.33 86.1435 269.241 85.3218 267.669 85.3218C266.079 85.3218 265.007 86.1435 265.016 87.4118C265.007 88.5283 265.86 89.2919 267.169 89.4482V90.6853C266.057 90.7165 264.985 90.721 264.069 90.7255L264.239 91.565C266.204 91.565 268.857 91.5382 271.313 91.1184L271.241 90.3682C270.263 90.5111 269.205 90.5959 268.16 90.6451V89.4482ZM265.945 87.4118C265.945 86.6258 266.633 86.0988 267.669 86.0988C268.696 86.0988 269.384 86.6258 269.384 87.4118C269.384 88.1888 268.696 88.698 267.669 88.689C266.633 88.698 265.945 88.1888 265.945 87.4118Z" fill="#4F4F4F"/>
    <g filter="url(#filter1_d_2_5)">
        <path fill-rule="evenodd" clip-rule="evenodd" d="M235.043 44.9365C234.776 45.2332 234.629 45.6179 234.629 46.0167V73.4576C234.629 74.3504 235.353 75.0742 236.246 75.0742H271.003C271.896 75.0742 272.62 74.3504 272.62 73.4576V30.6166C272.62 29.7238 271.896 29 271.003 29H250.074C249.615 29 249.178 29.1951 248.871 29.5365L235.043 44.9365Z" fill="#D96150"/>
        <path d="M248.981 44.1863C248.981 45.0792 248.258 45.8032 247.365 45.8032L234.228 45.8032L248.979 29.4029L248.981 44.1863Z" fill="white"/>
        <path d="M248.37 50.597C246.724 50.597 246.076 51.1637 246.076 52.459C246.076 53.1067 246.319 53.6464 247.183 54.6448L252.094 60.1768L247.183 65.7358C246.319 66.7343 246.076 67.274 246.076 67.9217C246.076 69.217 246.724 69.7837 248.37 69.7837H258.193C259.029 69.7837 259.407 69.163 259.407 68.3534C259.407 67.5709 259.029 66.8962 258.193 66.8962H250.394L254.253 62.6055C255.251 61.4721 255.737 60.8245 255.737 60.1768C255.737 59.5292 255.251 58.9085 254.253 57.7751L250.394 53.4844H258.004C258.84 53.4844 259.218 52.8638 259.218 52.0542C259.218 51.2716 258.84 50.597 258.004 50.597H248.37Z" fill="white"/>
    </g>
    <path d="M0 124H419" stroke="#DCE9F8" stroke-width="1.085"/>
    <path d="M0 1L419 1.00004" stroke="#DCE9F8" stroke-width="1.085"/>
    <defs>
        <filter id="filter0_d_2_5" x="121.449" y="12.0253" width="72.3374" height="80.0237" filterUnits="userSpaceOnUse" color-interpolation-filters="sRGB">
            <feFlood flood-opacity="0" result="BackgroundImageFix"/>
            <feColorMatrix in="SourceAlpha" type="matrix" values="0 0 0 0 0 0 0 0 0 0 0 0 0 0 0 0 0 0 127 0" result="hardAlpha"/>
            <feMorphology radius="4.0416" operator="erode" in="SourceAlpha" result="effect1_dropShadow_2_5"/>
            <feOffset/>
            <feGaussianBlur stdDeviation="10.5082"/>
            <feComposite in2="hardAlpha" operator="out"/>
            <feColorMatrix type="matrix" values="0 0 0 0 0 0 0 0 0 0 0 0 0 0 0 0 0 0 0.25 0"/>
            <feBlend mode="normal" in2="BackgroundImageFix" result="effect1_dropShadow_2_5"/>
            <feBlend mode="normal" in="SourceGraphic" in2="effect1_dropShadow_2_5" result="shape"/>
        </filter>
        <filter id="filter1_d_2_5" x="217.253" y="12.0253" width="72.3413" height="80.0237" filterUnits="userSpaceOnUse" color-interpolation-filters="sRGB">
            <feFlood flood-opacity="0" result="BackgroundImageFix"/>
            <feColorMatrix in="SourceAlpha" type="matrix" values="0 0 0 0 0 0 0 0 0 0 0 0 0 0 0 0 0 0 127 0" result="hardAlpha"/>
            <feMorphology radius="4.0416" operator="erode" in="SourceAlpha" result="effect1_dropShadow_2_5"/>
            <feOffset/>
            <feGaussianBlur stdDeviation="10.5082"/>
            <feComposite in2="hardAlpha" operator="out"/>
            <feColorMatrix type="matrix" values="0 0 0 0 0 0 0 0 0 0 0 0 0 0 0 0 0 0 0.25 0"/>
            <feBlend mode="normal" in2="BackgroundImageFix" result="effect1_dropShadow_2_5"/>
            <feBlend mode="normal" in="SourceGraphic" in2="effect1_dropShadow_2_5" result="shape"/>
        </filter>
    </defs>
</svg>
