<svg width="1082" height="362" viewBox="0 0 1082 362" fill="none" xmlns="http://www.w3.org/2000/svg">
    <path d="M616.281 1H771.436V73.695H616.281V1Z" fill="#1D68C0"/>
    <path d="M771.434 1H926.589V73.695H771.434V1Z" fill="#1C4D86"/>
    <path d="M926 1H1070.3C1076.3 1 1081.15 5.85771 1081.15 11.85V73.695H926V1Z" fill="#032B5A"/>
    <path d="M152.984 11.85C152.984 5.85771 157.842 1 163.834 1H305.969V73.695H152.984V11.85Z" fill="#E2EFFF"/>
    <path d="M0 83.4603C0 77.4681 4.85771 72.6104 10.85 72.6104H152.985V145.305H0V83.4603Z" fill="#F8F8F8"/>
    <path d="M0 145.305H152.985V218H0V145.305Z" fill="#EEEEEE"/>
    <path d="M0 217H152.985V289.695H0V217Z" fill="#F8F8F8"/>
    <path d="M0 288.695H152.985V361.39H10.85C4.85772 361.39 0 356.533 0 350.54V288.695Z" fill="#EEEEEE"/>
    <path d="M305.969 1H461.124V73.695H305.969V1Z" fill="#A2CDFF"/>
    <path d="M461.125 1H616.28V73.695H461.125V1Z" fill="#398DEF"/>
    <path d="M221.009 41.1104C224.515 40.7657 226.981 38.855 226.981 35.9702C226.981 32.868 223.946 30.8149 219.84 30.8074C215.756 30.8149 212.721 32.868 212.729 35.9702C212.721 38.8475 215.186 40.7657 218.671 41.1104V44.6247H211.125V46.5579H228.637V44.6247H221.009V41.1104ZM215.037 35.9702C215.037 33.977 217.03 32.7032 219.84 32.7107C222.672 32.7032 224.665 33.977 224.665 35.9702C224.665 38.0532 222.672 39.2821 219.84 39.2896C217.03 39.2821 215.037 38.0532 215.037 35.9702ZM244.559 33.992V29.7359H242.191V39.964H244.559V35.9402H247.234V33.992H244.559ZM240.453 36.9143C238.183 37.4013 236.189 37.5137 232.593 37.5287V32.8231H238.76V30.9273H230.247V39.4545H231.806C235.98 39.447 238.213 39.3421 240.715 38.8175L240.453 36.9143ZM234.481 42.9013V40.9231H232.136V48.611H244.559V40.9231H242.191V42.9013H234.481ZM234.481 46.7153V44.7596H242.191V46.7153H234.481Z" fill="#8D8D8D"/>
    <path d="M380.155 37.1391H378.095V30.2454H375.899V47.9891H378.095V39.0498H380.155V48.8733H382.426V29.7359H380.155V37.1391ZM366.713 32.1337V34.0444H371.973C371.636 37.8734 369.905 40.9006 365.829 43.2385L367.192 44.8795C372.625 41.7698 374.258 37.3189 374.273 32.1337H366.713ZM397.989 31.6317H393.036V33.4225H397.989V34.9811H393.036V36.7719H397.989V40.9531H400.342V29.7359H397.989V31.6317ZM394.842 37.8659C392.459 38.2705 390.316 38.3979 387.798 38.4204V30.6051H385.415V40.3536H386.914C389.941 40.3611 392.369 40.2337 395.096 39.7317L394.842 37.8659ZM400.342 48.6485V41.7548H387.708V48.6485H400.342ZM398.004 43.6206V46.7452H390.031V43.6206H398.004Z" fill="white"/>
    <path d="M538.161 32.4035H535.569V29.7359H533.201V41.0505H535.569V38.4804H538.161V36.5172H535.569V34.3142H538.161V32.4035ZM530.998 35.4307C530.983 32.7331 528.787 30.8149 525.835 30.8224C522.875 30.8149 520.65 32.7331 520.665 35.4307C520.65 38.1581 522.875 40.0614 525.835 40.0614C528.787 40.0614 530.983 38.1581 530.998 35.4307ZM522.98 35.4307C522.965 33.8271 524.187 32.8381 525.835 32.8306C527.469 32.8381 528.69 33.8271 528.697 35.4307C528.69 37.0642 527.469 38.0682 525.835 38.0607C524.187 38.0682 522.965 37.0642 522.98 35.4307ZM533.201 43.778V48.8733H535.569V41.8597H522.8V43.778H533.201ZM552.465 34.2767H549.153V36.2099H552.465V40.8557H554.818V29.7359H552.465V34.2767ZM544.642 36.4272C545.482 38.2406 546.995 39.7017 549.138 40.4286L550.315 38.5703C547.355 37.5587 545.811 35.1834 545.811 32.883V32.7107H549.775V30.7999H539.42V32.7107H543.414V32.868C543.414 35.4007 541.78 37.9334 538.73 38.9449L539.944 40.8032C542.207 40.0389 543.803 38.4354 544.642 36.4272ZM554.818 48.6485V41.6874H542.072V48.6485H554.818ZM552.51 43.5532V46.7452H544.425V43.5532H552.51Z" fill="white"/>
    <path d="M681.419 29.7359H679.073V41.2603H681.419V36.4198H683.554V34.4641H681.419V29.7359ZM672.097 40.2262C673.453 39.387 674.255 38.0158 674.712 36.4872C675.199 37.9633 676.038 39.2372 677.387 40.0164L678.706 38.3605C676.473 37.0267 675.799 34.5315 675.799 32.2236V30.8674H673.581V32.2236C673.581 33.8871 673.326 35.9327 672.112 37.4463C670.883 35.9327 670.606 33.8646 670.613 32.2236V30.8674H668.396V32.2236C668.381 34.3816 667.729 37.0192 665.518 38.3605L666.8 40.0164C668.148 39.2072 668.987 37.8884 669.482 36.3973C669.924 37.9483 670.718 39.3645 672.097 40.2262ZM674.982 41.4551C670.951 41.4626 668.418 42.8338 668.418 45.1567C668.418 47.4945 670.951 48.8508 674.982 48.8433C679.066 48.8508 681.591 47.4945 681.598 45.1567C681.591 42.8338 679.066 41.4626 674.982 41.4551ZM674.982 47.0075C672.284 47 670.786 46.3481 670.793 45.1567C670.786 43.9803 672.284 43.3359 674.982 43.3434C677.679 43.3359 679.186 43.9803 679.201 45.1567C679.186 46.3481 677.679 47 674.982 47.0075ZM688.619 35.1834V32.4484H699.492V30.5976H686.281V37.0417H699.597V35.1834H688.619ZM701.612 38.4804H684.131V40.3986H691.669V41.9197C688.207 42.137 686.161 43.3584 686.161 45.3515C686.161 47.6144 688.672 48.8508 692.83 48.8433C696.974 48.8508 699.462 47.6144 699.469 45.3515C699.462 43.3733 697.446 42.1445 694.029 41.9197V40.3986H701.612V38.4804ZM697.116 45.3515C697.101 46.468 695.58 47.0749 692.83 47.0599C690.05 47.0749 688.544 46.468 688.559 45.3515C688.544 44.25 690.05 43.6955 692.83 43.6955C695.58 43.6955 697.101 44.25 697.116 45.3515ZM716.014 29.7359V48.9182H718.389V29.7359H716.014ZM708.071 31.1221C705.164 31.1296 703.058 33.7522 703.066 37.8884C703.058 42.0546 705.164 44.6771 708.071 44.6696C710.941 44.6771 713.054 42.0546 713.054 37.8884C713.054 33.7522 710.941 31.1296 708.071 31.1221ZM708.071 33.2502C709.675 33.2502 710.776 34.9661 710.776 37.8884C710.776 40.8332 709.675 42.5416 708.071 42.5416C706.438 42.5416 705.336 40.8332 705.336 37.8884C705.336 34.9661 706.438 33.2502 708.071 33.2502Z" fill="white"/>
    <path d="M844.446 48.8733H846.784V29.7509H844.446V48.8733ZM832.494 39.357C834.75 38.87 836.331 37.7385 837.17 36.2399C838.017 37.6037 839.568 38.6377 841.756 39.0873L842.693 37.2665C839.875 36.7195 838.347 35.2433 838.309 33.5799H842.265V31.7516H838.309V29.7809H835.956V31.7516H831.985V33.5799H835.941C835.904 35.3482 834.383 36.9518 831.513 37.5212L832.494 39.357ZM843.21 39.8066C839.111 40.3311 834.353 40.3536 830.779 40.3536L831.071 42.2868C832.539 42.2868 834.21 42.2794 835.964 42.2119V48.2963H838.324V42.0845C840.003 41.9721 841.711 41.7923 843.374 41.5151L843.21 39.8066ZM866.79 32.4035H864.198V29.7359H861.83V41.0505H864.198V38.4804H866.79V36.5172H864.198V34.3142H866.79V32.4035ZM859.627 35.4307C859.612 32.7331 857.416 30.8149 854.464 30.8224C851.504 30.8149 849.279 32.7331 849.294 35.4307C849.279 38.1581 851.504 40.0614 854.464 40.0614C857.416 40.0614 859.612 38.1581 859.627 35.4307ZM851.609 35.4307C851.594 33.8271 852.816 32.8381 854.464 32.8306C856.098 32.8381 857.319 33.8271 857.326 35.4307C857.319 37.0642 856.098 38.0682 854.464 38.0607C852.816 38.0682 851.594 37.0642 851.609 35.4307ZM861.83 43.778V48.8733H864.198V41.8597H851.429V43.778H861.83Z" fill="white"/>
    <path d="M999.915 29.7359V39.5069H1002.25V29.7359H999.915ZM992.28 35.2059C993.149 37.0267 994.737 38.4504 996.963 39.1323L998.124 37.3039C995.082 36.3973 993.463 34.1194 993.478 31.6691V30.2005H991.043V31.6691C991.043 34.1868 989.41 36.6445 986.315 37.6261L987.499 39.4769C989.784 38.7501 991.41 37.184 992.28 35.2059ZM991.912 45.359H1002.28V40.3836H989.56V42.2194H999.93V43.6056H989.619V48.7159H1002.85V46.8426H991.912V45.359ZM1018.34 32.4709H1014.95V34.3442H1018.34V36.4947H1014.95V38.3829H1018.34V41.53H1020.69V29.7509H1018.34V32.4709ZM1014.64 38.5253C1012.59 38.9075 1010.83 38.9899 1007.75 38.9974V36.6445H1013.79V30.8674H1005.39V32.7331H1011.45V34.8837H1005.42V40.8856H1006.84C1010.59 40.8781 1012.58 40.8182 1014.86 40.4286L1014.64 38.5253ZM1018.34 44.3325V48.8883H1020.69V42.4367H1007.6V44.3325H1018.34Z" fill="white"/>
    <path d="M73.3225 109.326H70.9847V102.335H69.1039V119.899H70.9847V110.967H73.3225V120.813H75.2707V101.825H73.3225V109.326ZM59.745 104.246V105.887H65.245C64.9377 109.753 63.1694 112.983 58.9358 115.38L60.1047 116.797C65.5372 113.725 67.1932 109.236 67.2082 104.246H59.745ZM91.1484 103.849H85.9706V105.392H91.1484V107.183H85.9706V108.734H91.1484V112.975H93.1565V101.825H91.1484V103.849ZM87.9113 109.985C85.4236 110.443 83.2057 110.57 80.4857 110.585V102.732H78.4476V112.248H79.9087C83.0034 112.248 85.4012 112.121 88.1361 111.604L87.9113 109.985ZM93.1565 120.573V113.799H80.748V120.573H93.1565ZM91.1634 115.403V118.94H82.7261V115.403H91.1634Z" fill="#4F4F4F"/>
    <path d="M240.011 184.327C240.011 179.472 237.149 176.444 233.223 176.444C229.281 176.444 226.434 179.472 226.434 184.327C226.434 189.183 229.281 192.21 233.223 192.21C237.149 192.21 240.011 189.183 240.011 184.327ZM238.153 184.327C238.153 188.283 235.995 190.426 233.223 190.426C230.45 190.426 228.292 188.283 228.292 184.327C228.292 180.371 230.45 178.228 233.223 178.228C235.995 178.228 238.153 180.371 238.153 184.327Z" fill="#858585"/>
    <path d="M388.671 112.552C388.671 107.696 385.809 104.669 381.883 104.669C377.941 104.669 375.094 107.696 375.094 112.552C375.094 117.407 377.941 120.434 381.883 120.434C385.809 120.434 388.671 117.407 388.671 112.552ZM386.813 112.552C386.813 116.508 384.655 118.651 381.883 118.651C379.11 118.651 376.952 116.508 376.952 112.552C376.952 108.595 379.11 106.452 381.883 106.452C384.655 106.452 386.813 108.595 386.813 112.552Z" fill="#858585"/>
    <path d="M388.671 184.327C388.671 179.472 385.809 176.444 381.883 176.444C377.941 176.444 375.094 179.472 375.094 184.327C375.094 189.183 377.941 192.21 381.883 192.21C385.809 192.21 388.671 189.183 388.671 184.327ZM386.813 184.327C386.813 188.283 384.655 190.426 381.883 190.426C379.11 190.426 376.952 188.283 376.952 184.327C376.952 180.371 379.11 178.228 381.883 178.228C384.655 178.228 386.813 180.371 386.813 184.327Z" fill="#858585"/>
    <path d="M388.671 256.327C388.671 251.472 385.809 248.444 381.883 248.444C377.941 248.444 375.094 251.472 375.094 256.327C375.094 261.183 377.941 264.21 381.883 264.21C385.809 264.21 388.671 261.183 388.671 256.327ZM386.813 256.327C386.813 260.283 384.655 262.426 381.883 262.426C379.11 262.426 376.952 260.283 376.952 256.327C376.952 252.371 379.11 250.228 381.883 250.228C384.655 250.228 386.813 252.371 386.813 256.327Z" fill="#858585"/>
    <path d="M388.671 328.327C388.671 323.472 385.809 320.444 381.883 320.444C377.941 320.444 375.094 323.472 375.094 328.327C375.094 333.183 377.941 336.21 381.883 336.21C385.809 336.21 388.671 333.183 388.671 328.327ZM386.813 328.327C386.813 332.283 384.655 334.426 381.883 334.426C379.11 334.426 376.952 332.283 376.952 328.327C376.952 324.371 379.11 322.228 381.883 322.228C384.655 322.228 386.813 324.371 386.813 328.327Z" fill="#858585"/>
    <path d="M699.308 256.327C699.308 251.472 696.446 248.444 692.519 248.444C688.578 248.444 685.731 251.472 685.731 256.327C685.731 261.183 688.578 264.21 692.519 264.21C696.446 264.21 699.308 261.183 699.308 256.327ZM697.45 256.327C697.45 260.283 695.292 262.426 692.519 262.426C689.747 262.426 687.589 260.283 687.589 256.327C687.589 252.371 689.747 250.228 692.519 250.228C695.292 250.228 697.45 252.371 697.45 256.327Z" fill="#858585"/>
    <path d="M858.671 256.327C858.671 251.472 855.809 248.444 851.883 248.444C847.941 248.444 845.094 251.472 845.094 256.327C845.094 261.183 847.941 264.21 851.883 264.21C855.809 264.21 858.671 261.183 858.671 256.327ZM856.813 256.327C856.813 260.283 854.655 262.426 851.883 262.426C849.11 262.426 846.952 260.283 846.952 256.327C846.952 252.371 849.11 250.228 851.883 250.228C854.655 250.228 856.813 252.371 856.813 256.327Z" fill="#858585"/>
    <path d="M546.32 184.327C546.32 179.472 543.458 176.444 539.531 176.444C535.59 176.444 532.742 179.472 532.742 184.327C532.742 189.183 535.59 192.21 539.531 192.21C543.458 192.21 546.32 189.183 546.32 184.327ZM544.462 184.327C544.462 188.283 542.304 190.426 539.531 190.426C536.759 190.426 534.601 188.283 534.601 184.327C534.601 180.371 536.759 178.228 539.531 178.228C542.304 178.228 544.462 180.371 544.462 184.327Z" fill="#858585"/>
    <path d="M858.671 328.327C858.671 323.472 855.809 320.444 851.883 320.444C847.941 320.444 845.094 323.472 845.094 328.327C845.094 333.183 847.941 336.21 851.883 336.21C855.809 336.21 858.671 333.183 858.671 328.327ZM856.813 328.327C856.813 332.283 854.655 334.426 851.883 334.426C849.11 334.426 846.952 332.283 846.952 328.327C846.952 324.371 849.11 322.228 851.883 322.228C854.655 322.228 856.813 324.371 856.813 328.327Z" fill="#858585"/>
    <path d="M1013.67 331.327C1013.67 326.472 1010.81 323.444 1006.88 323.444C1002.94 323.444 1000.09 326.472 1000.09 331.327C1000.09 336.183 1002.94 339.21 1006.88 339.21C1010.81 339.21 1013.67 336.183 1013.67 331.327ZM1011.81 331.327C1011.81 335.283 1009.66 337.426 1006.88 337.426C1004.11 337.426 1001.95 335.283 1001.95 331.327C1001.95 327.371 1004.11 325.228 1006.88 325.228C1009.66 325.228 1011.81 327.371 1011.81 331.327Z" fill="#858585"/>
    <path d="M240.011 256.327C240.011 251.472 237.149 248.444 233.223 248.444C229.281 248.444 226.434 251.472 226.434 256.327C226.434 261.183 229.281 264.21 233.223 264.21C237.149 264.21 240.011 261.183 240.011 256.327ZM238.153 256.327C238.153 260.283 235.995 262.426 233.223 262.426C230.45 262.426 228.292 260.283 228.292 256.327C228.292 252.371 230.45 250.228 233.223 250.228C235.995 250.228 238.153 252.371 238.153 256.327Z" fill="#858585"/>
    <path d="M0 145L1082 145" stroke="#DCE9F8" stroke-width="1.085"/>
    <path d="M72.0024 192.548H74.0255V173.561H72.0024V192.548ZM59.3466 175.606V177.21H66.3301C65.933 181.638 63.4753 185.063 58.4249 187.461L59.4889 189.087C66.0079 185.977 68.3683 181.159 68.3832 175.606H59.3466ZM78.1765 185.085C81.3536 184.591 83.9911 183.092 85.2275 180.874C86.4639 183.092 89.1089 184.591 92.286 185.085L93.0428 183.519C89.1389 182.95 86.344 180.739 86.254 178.079H92.3235V176.438H86.2166V173.913H84.2384V176.438H78.139V178.079H84.2159C84.111 180.739 81.3086 182.95 77.3972 183.519L78.1765 185.085ZM86.2166 184.426H84.2384V188.562H76.5655V190.225H93.942V188.562H86.2166V184.426Z" fill="#4F4F4F"/>
    <path d="M71.9799 245.271V259.133H73.9956V245.271H71.9799ZM64.292 252.375C65.1537 254.278 66.8097 255.776 68.9977 256.496L70.0242 254.915C67.0869 253.993 65.2736 251.685 65.2736 249.213V248.396H69.4547V246.77H58.9719V248.396H63.243V249.213C63.228 251.82 61.4072 254.278 58.4474 255.282L59.4889 256.878C61.7518 256.076 63.4378 254.443 64.292 252.375ZM63.5951 257.83H61.572V263.854H74.5501V262.206H63.5951V257.83ZM86.2016 255.634H91.9413V254.023H80.7316V248.358H91.7765V246.732H78.7235V255.634H84.2084V260.257H76.5655V261.921H93.942V260.257H86.2016V255.634Z" fill="#4F4F4F"/>
    <path d="M71.9799 327.727H73.9956V316.966H71.9799V327.727ZM64.1347 322.766C64.9964 324.707 66.6523 326.205 68.8553 326.925L69.8519 325.389C66.967 324.422 65.1312 322.099 65.1462 319.544V317.693H63.0856V319.544C63.0856 322.197 61.2948 324.714 58.32 325.711L59.3316 327.299C61.602 326.498 63.2804 324.842 64.1347 322.766ZM73.9956 335.699V328.746H61.5121V335.699H73.9956ZM72.0174 330.357V334.066H63.4977V330.357H72.0174ZM91.4468 324.909V316.951H89.4236V335.939H91.4468V326.595H94.2941V324.909H91.4468ZM83.3917 319.207V317.004H81.376V319.207H76.6779V320.81H88.0674V319.207H83.3917ZM83.3917 328.791C85.5272 328.483 86.9509 327.187 86.9659 325.344C86.9509 323.201 85.0776 321.792 82.3951 321.792C79.6826 321.792 77.8318 323.201 77.8468 325.344C77.8318 327.18 79.233 328.476 81.376 328.791V330.716C79.5627 330.769 77.8243 330.776 76.3257 330.776L76.6329 332.455C79.9149 332.455 84.3583 332.417 88.4795 331.69L88.3371 330.199C86.7636 330.424 85.0701 330.559 83.3917 330.641V328.791ZM79.7425 325.344C79.7425 324.13 80.7991 323.351 82.3951 323.351C83.9761 323.351 85.0327 324.13 85.0327 325.344C85.0327 326.55 83.9761 327.299 82.3951 327.292C80.7991 327.299 79.7425 326.55 79.7425 325.344Z" fill="#4F4F4F"/>
    <path d="M179 217L1082 217" stroke="#DCE9F8" stroke-width="1.085"/>
    <path d="M179 289L1082 289" stroke="#DCE9F8" stroke-width="1.085"/>
    <path d="M179 360L1082 360" stroke="#DCE9F8" stroke-width="1.085"/>
    <path d="M154.07 73.6953L926.59 73.6954" stroke="#DCE9F8" stroke-width="1.085"/>
    <path d="M153 74L153 361" stroke="#DCE9F8" stroke-width="1.085"/>
    <path d="M306 1L306 361" stroke="#DCE9F8" stroke-width="1.085"/>
    <path d="M461 1L461 361" stroke="#DCE9F8" stroke-width="1.085"/>
    <path d="M616 1L616 361" stroke="#DCE9F8" stroke-width="1.085"/>
    <path d="M771 1L771 361" stroke="#DCE9F8" stroke-width="1.085"/>
    <path d="M926 0L926 360" stroke="#DCE9F8" stroke-width="1.085"/>
</svg>
