<svg width="927" height="217" viewBox="0 0 927 217" fill="none" xmlns="http://www.w3.org/2000/svg">
    <path d="M616.281 0H771.436V72.695H616.281V0Z" fill="#1D68C0"/>
    <path d="M771.434 0H915.739C921.731 0 926.589 4.85771 926.589 10.85V72.695H771.434V0Z" fill="#1A569D"/>
    <path d="M771.434 0H915.739C921.731 0 926.589 4.85771 926.589 10.85V72.695H771.434V0Z" fill="black" fill-opacity="0.2"/>
    <path d="M152.984 10.85C152.984 4.85771 157.842 0 163.834 0H305.969V72.695H152.984V10.85Z" fill="#E2EFFF"/>
    <path d="M0 82.4603C0 76.4681 4.85771 71.6104 10.85 71.6104H152.985V144.305H0V82.4603Z" fill="#F8F8F8"/>
    <path d="M0 144.305H152.985V217H10.85C4.85772 217 0 212.142 0 206.15V144.305Z" fill="#EEEEEE"/>
    <path d="M305.969 0H461.124V72.695H305.969V0Z" fill="#A2CDFF"/>
    <path d="M461.125 0H616.28V72.695H461.125V0Z" fill="#398DEF"/>
    <path d="M221.009 39.5557C224.515 39.2111 226.981 37.3003 226.981 34.4155C226.981 31.3133 223.946 29.2602 219.84 29.2527C215.756 29.2602 212.721 31.3133 212.729 34.4155C212.721 37.2928 215.186 39.2111 218.671 39.5557V43.07H211.125V45.0032H228.637V43.07H221.009V39.5557ZM215.037 34.4155C215.037 32.4223 217.03 31.1485 219.84 31.156C222.672 31.1485 224.665 32.4223 224.665 34.4155C224.665 36.4986 222.672 37.7274 219.84 37.7349C217.03 37.7274 215.037 36.4986 215.037 34.4155ZM244.559 32.4373V28.1812H242.191V38.4093H244.559V34.3855H247.234V32.4373H244.559ZM240.453 35.3596C238.183 35.8467 236.189 35.9591 232.593 35.974V31.2684H238.76V29.3726H230.247V37.8998H231.806C235.98 37.8923 238.213 37.7874 240.715 37.2629L240.453 35.3596ZM234.481 41.3466V39.3684H232.136V47.0563H244.559V39.3684H242.191V41.3466H234.481ZM234.481 45.1606V43.2049H242.191V45.1606H234.481Z" fill="#8D8D8D"/>
    <path d="M380.155 35.5844H378.095V28.6908H375.899V46.4344H378.095V37.4951H380.155V47.3186H382.426V28.1812H380.155V35.5844ZM366.713 30.579V32.4898H371.973C371.636 36.3187 369.905 39.3459 365.829 41.6838L367.192 43.3248C372.625 40.2151 374.258 35.7642 374.273 30.579H366.713ZM397.989 30.077H393.036V31.8678H397.989V33.4264H393.036V35.2172H397.989V39.3984H400.342V28.1812H397.989V30.077ZM394.842 36.3112C392.459 36.7159 390.316 36.8432 387.798 36.8657V29.0504H385.415V38.7989H386.914C389.941 38.8064 392.369 38.679 395.096 38.177L394.842 36.3112ZM400.342 47.0938V40.2001H387.708V47.0938H400.342ZM398.004 42.0659V45.1905H390.031V42.0659H398.004Z" fill="white"/>
    <path d="M526.903 28.1812H524.558V39.7056H526.903V34.8651H529.038V32.9094H526.903V28.1812ZM517.581 38.6716C518.938 37.8323 519.74 36.4611 520.197 34.9325C520.684 36.4086 521.523 37.6825 522.872 38.4617L524.19 36.8058C521.957 35.472 521.283 32.9768 521.283 30.6689V29.3127H519.065V30.6689C519.065 32.3324 518.81 34.378 517.596 35.8916C516.368 34.378 516.09 32.3099 516.098 30.6689V29.3127H513.88V30.6689C513.865 32.8269 513.213 35.4645 511.003 36.8058L512.284 38.4617C513.633 37.6525 514.472 36.3337 514.966 34.8426C515.408 36.3937 516.203 37.8098 517.581 38.6716ZM520.466 39.9004C516.435 39.9079 513.902 41.2792 513.902 43.602C513.902 45.9399 516.435 47.2961 520.466 47.2886C524.55 47.2961 527.075 45.9399 527.083 43.602C527.075 41.2792 524.55 39.9079 520.466 39.9004ZM520.466 45.4528C517.769 45.4453 516.27 44.7934 516.278 43.602C516.27 42.4256 517.769 41.7812 520.466 41.7887C523.164 41.7812 524.67 42.4256 524.685 43.602C524.67 44.7934 523.164 45.4453 520.466 45.4528ZM534.104 33.6287V30.8937H544.976V29.0429H531.766V35.487H545.081V33.6287H534.104ZM547.097 36.9257H529.615V38.8439H537.153V40.365C533.691 40.5823 531.646 41.8037 531.646 43.7968C531.646 46.0597 534.156 47.2961 538.315 47.2886C542.458 47.2961 544.946 46.0597 544.954 43.7968C544.946 41.8187 542.93 40.5898 539.514 40.365V38.8439H547.097V36.9257ZM542.601 43.7968C542.586 44.9133 541.065 45.5202 538.315 45.5053C535.535 45.5202 534.029 44.9133 534.044 43.7968C534.029 42.6953 535.535 42.1409 538.315 42.1409C541.065 42.1409 542.586 42.6953 542.601 43.7968ZM561.498 28.1812V47.3635H563.873V28.1812H561.498ZM553.555 29.5674C550.648 29.5749 548.543 32.1975 548.55 36.3337C548.543 40.4999 550.648 43.1225 553.555 43.115C556.425 43.1225 558.538 40.4999 558.538 36.3337C558.538 32.1975 556.425 29.5749 553.555 29.5674ZM553.555 31.6955C555.159 31.6955 556.26 33.4114 556.26 36.3337C556.26 39.2785 555.159 40.9869 553.555 40.9869C551.922 40.9869 550.82 39.2785 550.82 36.3337C550.82 33.4114 551.922 31.6955 553.555 31.6955Z" fill="white"/>
    <path d="M688.653 47.3186H690.991V28.1962H688.653V47.3186ZM676.702 37.8024C678.957 37.3153 680.538 36.1838 681.377 34.6852C682.224 36.049 683.775 37.083 685.963 37.5326L686.9 35.7118C684.082 35.1648 682.554 33.6886 682.516 32.0252H686.473V30.1969H682.516V28.2262H680.163V30.1969H676.192V32.0252H680.148C680.111 33.7936 678.59 35.3971 675.72 35.9665L676.702 37.8024ZM687.417 38.2519C683.318 38.7765 678.56 38.7989 674.986 38.7989L675.278 40.7322C676.746 40.7322 678.417 40.7247 680.171 40.6572V46.7416H682.531V40.5298C684.21 40.4174 685.918 40.2376 687.581 39.9604L687.417 38.2519ZM710.997 30.8488H708.405V28.1812H706.037V39.4958H708.405V36.9257H710.997V34.9625H708.405V32.7595H710.997V30.8488ZM703.834 33.876C703.819 31.1785 701.623 29.2602 698.671 29.2677C695.711 29.2602 693.486 31.1785 693.501 33.876C693.486 36.6035 695.711 38.5067 698.671 38.5067C701.623 38.5067 703.819 36.6035 703.834 33.876ZM695.816 33.876C695.801 32.2725 697.023 31.2834 698.671 31.2759C700.305 31.2834 701.526 32.2725 701.533 33.876C701.526 35.5095 700.305 36.5135 698.671 36.5061C697.023 36.5135 695.801 35.5095 695.816 33.876ZM706.037 42.2233V47.3186H708.405V40.305H695.636V42.2233H706.037Z" fill="white"/>
    <path d="M844.349 28.1812V37.9522H846.679V28.1812H844.349ZM836.713 33.6512C837.582 35.472 839.171 36.8957 841.396 37.5776L842.558 35.7492C839.516 34.8426 837.897 32.5647 837.912 30.1144V28.6458H835.477V30.1144C835.477 32.6321 833.843 35.0899 830.749 36.0715L831.933 37.9222C834.218 37.1954 835.844 35.6294 836.713 33.6512ZM836.346 43.8043H846.709V38.8289H833.993V40.6647H844.364V42.0509H834.053V47.1612H847.286V45.288H836.346V43.8043ZM862.774 30.9162H859.387V32.7895H862.774V34.94H859.387V36.8283H862.774V39.9754H865.127V28.1962H862.774V30.9162ZM859.072 36.9706C857.027 37.3528 855.266 37.4352 852.186 37.4427V35.0899H858.226V29.3127H849.826V31.1785H855.88V33.329H849.856V39.3309H851.272C855.026 39.3235 857.012 39.2635 859.29 38.8739L859.072 36.9706ZM862.774 42.7778V47.3336H865.127V40.882H852.029V42.7778H862.774Z" fill="white"/>
    <path d="M72.1842 111.9H77.864V102.122H75.8633V105.396H66.5419V102.122H64.5263V111.9H70.1911V115.797H62.5481V117.46H79.9246V115.797H72.1842V111.9ZM75.8633 107.015V110.267H66.5419V107.015H75.8633ZM95.7872 100.825H93.7716V112.095H95.7872V107.262H98.5372V105.606H95.7872V100.825ZM90.5646 102.182H81.6927V103.823H88.3916C88.0244 106.895 85.2894 109.368 80.846 110.626L81.6628 112.252C87.2301 110.641 90.5721 107.09 90.5646 102.182ZM89.7178 112.305C85.9113 112.305 83.4087 113.736 83.4236 116.044C83.4087 118.382 85.9113 119.791 89.7178 119.791C93.5468 119.791 95.9971 118.382 95.9971 116.044C95.9971 113.736 93.5468 112.305 89.7178 112.305ZM89.7178 118.194C87.0653 118.202 85.4018 117.378 85.4168 116.044C85.4018 114.703 87.0653 113.893 89.7178 113.908C92.3554 113.893 94.0264 114.703 94.0264 116.044C94.0264 117.378 92.3554 118.202 89.7178 118.194Z" fill="#4F4F4F"/>
    <path d="M236.011 111.552C236.011 106.696 233.149 103.669 229.223 103.669C225.281 103.669 222.434 106.696 222.434 111.552C222.434 116.407 225.281 119.434 229.223 119.434C233.149 119.434 236.011 116.407 236.011 111.552ZM234.153 111.552C234.153 115.508 231.995 117.651 229.223 117.651C226.45 117.651 224.292 115.508 224.292 111.552C224.292 107.595 226.45 105.452 229.223 105.452C231.995 105.452 234.153 107.595 234.153 111.552Z" fill="#858585"/>
    <path d="M391.168 111.552C391.168 106.696 388.305 103.669 384.379 103.669C380.437 103.669 377.59 106.696 377.59 111.552C377.59 116.407 380.437 119.434 384.379 119.434C388.305 119.434 391.168 116.407 391.168 111.552ZM389.309 111.552C389.309 115.508 387.151 117.651 384.379 117.651C381.606 117.651 379.448 115.508 379.448 111.552C379.448 107.595 381.606 105.452 384.379 105.452C387.151 105.452 389.309 107.595 389.309 111.552Z" fill="#858585"/>
    <path d="M699.308 180.992C699.308 176.137 696.446 173.109 692.519 173.109C688.578 173.109 685.731 176.137 685.731 180.992C685.731 185.848 688.578 188.875 692.519 188.875C696.446 188.875 699.308 185.848 699.308 180.992ZM697.45 180.992C697.45 184.948 695.292 187.091 692.519 187.091C689.747 187.091 687.589 184.948 687.589 180.992C687.589 177.036 689.747 174.893 692.519 174.893C695.292 174.893 697.45 177.036 697.45 180.992Z" fill="#858585"/>
    <path d="M858.8 180.992C858.8 176.137 855.938 173.109 852.012 173.109C848.07 173.109 845.223 176.137 845.223 180.992C845.223 185.848 848.07 188.875 852.012 188.875C855.938 188.875 858.8 185.848 858.8 180.992ZM856.942 180.992C856.942 184.948 854.784 187.091 852.012 187.091C849.239 187.091 847.081 184.948 847.081 180.992C847.081 177.036 849.239 174.893 852.012 174.893C854.784 174.893 856.942 177.036 856.942 180.992Z" fill="#858585"/>
    <path d="M546.32 111.552C546.32 106.696 543.458 103.669 539.531 103.669C535.59 103.669 532.742 106.696 532.742 111.552C532.742 116.407 535.59 119.434 539.531 119.434C543.458 119.434 546.32 116.407 546.32 111.552ZM544.462 111.552C544.462 115.508 542.304 117.651 539.531 117.651C536.759 117.651 534.601 115.508 534.601 111.552C534.601 107.595 536.759 105.452 539.531 105.452C542.304 105.452 544.462 107.595 544.462 111.552Z" fill="#858585"/>
    <path d="M699.308 111.552C699.308 106.696 696.446 103.669 692.519 103.669C688.578 103.669 685.731 106.696 685.731 111.552C685.731 116.407 688.578 119.434 692.519 119.434C696.446 119.434 699.308 116.407 699.308 111.552ZM697.45 111.552C697.45 115.508 695.292 117.651 692.519 117.651C689.747 117.651 687.589 115.508 687.589 111.552C687.589 107.595 689.747 105.452 692.519 105.452C695.292 105.452 697.45 107.595 697.45 111.552Z" fill="#858585"/>
    <path d="M236.011 180.992C236.011 176.137 233.149 173.109 229.223 173.109C225.281 173.109 222.434 176.137 222.434 180.992C222.434 185.848 225.281 188.875 229.223 188.875C233.149 188.875 236.011 185.848 236.011 180.992ZM234.153 180.992C234.153 184.948 231.995 187.091 229.223 187.091C226.45 187.091 224.292 184.948 224.292 180.992C224.292 177.036 226.45 174.893 229.223 174.893C231.995 174.893 234.153 177.036 234.153 180.992Z" fill="#858585"/>
    <path d="M0 144.305L926.59 144.305" stroke="#DCE9F8" stroke-width="1.085"/>
    <path d="M67.5738 180.001V172.561H65.5582V191.548H67.5738V181.702H70.616V180.001H67.5738ZM62.3886 186.783V174.442H53.5018V186.783H62.3886ZM60.3805 176.038V185.157H55.4725V176.038H60.3805ZM73.2534 173.572V181.051H86.2614V173.572H73.2534ZM75.2316 179.477V175.198H84.2682V179.477H75.2316ZM71.0729 183.463V185.089H78.7233V191.533H80.7015V185.089H88.4494V183.463H71.0729ZM103.181 191.586H105.174V172.561H103.181V191.586ZM92.5629 181.215H99.3666V174.269H90.4723V175.918H97.3285V179.597H90.4948V187.03H92.1208C95.4627 187.03 98.3251 186.903 101.689 186.348L101.502 184.685C98.3251 185.209 95.635 185.352 92.5629 185.367V181.215Z" fill="#4F4F4F"/>
    <path d="M152.984 215.915L926.589 215.915" stroke="#DCE9F8" stroke-width="1.085"/>
    <path d="M154.07 72.6953L926.59 72.6954" stroke="#DCE9F8" stroke-width="1.085"/>
    <path d="M152.984 72.6953L152.984 215.915" stroke="#DCE9F8" stroke-width="1.085"/>
    <path d="M305.969 0L305.969 215.915" stroke="#DCE9F8" stroke-width="1.085"/>
    <path d="M461.125 0L461.125 215.915" stroke="#DCE9F8" stroke-width="1.085"/>
    <path d="M616.281 0L616.281 215.915" stroke="#DCE9F8" stroke-width="1.085"/>
    <path d="M771.434 0L771.434 215.915" stroke="#DCE9F8" stroke-width="1.085"/>
</svg>
