<svg width="866" height="642" viewBox="0 0 866 642" fill="none" xmlns="http://www.w3.org/2000/svg">
<path d="M353.214 310.898V308.112H350.448V310.898H344.005V313.115H359.626V310.898H353.214ZM364.599 315.363V308.236H361.812V324.655H364.599V317.663H368.401V315.363H364.599ZM358.186 319.093C358.176 316.213 355.607 314.338 351.826 314.317C348.024 314.338 345.424 316.213 345.434 319.093C345.424 321.962 348.024 323.847 351.826 323.847C355.607 323.847 358.176 321.962 358.186 319.093ZM348.117 319.093C348.097 317.466 349.588 316.461 351.826 316.441C354.043 316.461 355.535 317.466 355.555 319.093C355.535 320.709 354.043 321.682 351.826 321.682C349.588 321.682 348.097 320.709 348.117 319.093ZM361.812 328.25V334.486H364.599V325.992H347.247V328.25H361.812ZM389.036 317.383V324.417H391.667V308.257H389.036V315.094H385.969V308.744H383.38V323.578H385.969V317.383H389.036ZM382.572 320.325C379.153 319.051 377.319 316.151 377.319 313.281V309.873H374.626V313.281C374.626 316.202 372.73 319.528 369.188 321.081L370.7 323.236C373.248 322.148 375.04 320.025 376.004 317.59C376.947 319.745 378.656 321.537 381.09 322.47L382.572 320.325ZM382.903 324.925C377.402 324.925 373.973 326.686 373.994 329.69C373.973 332.673 377.402 334.445 382.903 334.445C388.362 334.445 391.812 332.673 391.812 329.69C391.812 326.686 388.362 324.925 382.903 324.925ZM382.903 332.3C379.07 332.321 376.739 331.358 376.76 329.69C376.739 328.012 379.07 327.038 382.903 327.038C386.694 327.038 389.025 328.012 389.036 329.69C389.025 331.358 386.694 332.321 382.903 332.3ZM396.846 319.01C401.404 318.502 405.144 316.575 406.573 313.799C408.013 316.586 411.774 318.502 416.332 319.01L417.336 316.814C412.509 316.337 408.811 314.203 408.469 311.655H416.404V309.427H396.815V311.655H404.709C404.336 314.193 400.606 316.337 395.883 316.814L396.846 319.01ZM418.559 320.398H394.629V322.666H405.196V325.173C400.327 325.432 397.457 327.059 397.457 329.804C397.457 332.777 400.865 334.445 406.563 334.445C412.219 334.445 415.617 332.777 415.638 329.804C415.617 327.059 412.768 325.432 407.951 325.173V322.666H418.559V320.398ZM412.861 329.804C412.841 331.399 410.53 332.321 406.563 332.3C402.554 332.321 400.265 331.399 400.285 329.804C400.265 328.188 402.554 327.287 406.563 327.266C410.53 327.287 412.841 328.188 412.861 329.804ZM438.945 323.133H441.732V308.257H438.945V323.133ZM428.099 316.275C429.291 318.958 431.58 321.03 434.625 322.024L436.003 319.901C432.015 318.564 429.477 315.353 429.498 311.82V309.262H426.649V311.82C426.649 315.488 424.173 318.968 420.061 320.346L421.459 322.542C424.598 321.434 426.918 319.144 428.099 316.275ZM441.732 334.155V324.541H424.474V334.155H441.732ZM438.997 326.769V331.896H427.219V326.769H438.997ZM461.249 310.898V308.112H458.483V310.898H452.04V313.115H467.662V310.898H461.249ZM472.634 315.363V308.236H469.847V324.655H472.634V317.663H476.436V315.363H472.634ZM466.222 319.093C466.211 316.213 463.642 314.338 459.861 314.317C456.059 314.338 453.459 316.213 453.47 319.093C453.459 321.962 456.059 323.847 459.861 323.847C463.642 323.847 466.211 321.962 466.222 319.093ZM456.153 319.093C456.132 317.466 457.624 316.461 459.861 316.441C462.078 316.461 463.57 317.466 463.59 319.093C463.57 320.709 462.078 321.682 459.861 321.682C457.624 321.682 456.132 320.709 456.153 319.093ZM469.847 328.25V334.486H472.634V325.992H455.282V328.25H469.847ZM489.312 313.001C490.99 315.798 494.699 317.808 498.946 318.409L499.951 316.223C494.916 315.591 490.731 312.67 490.731 309.635V308.516H487.872V309.635C487.872 312.763 483.707 315.55 478.621 316.223L479.657 318.409C483.884 317.808 487.613 315.809 489.312 313.001ZM477.337 322.314H501.266V320.035H477.337V322.314ZM483.045 326.769V323.982H480.299V334.155H498.169V323.982H495.382V326.769H483.045ZM483.045 331.927V328.923H495.382V331.927H483.045Z" fill="#666666"/>
<g filter="url(#filter0_d_3307_2251)">
<path d="M235.739 227.396L471.892 123.01C399.335 -22.1043 272.817 -9.32692 218.627 15.201C118.69 60.3781 99.4096 143.545 102.262 179.481V355.74C126.904 284.552 201.514 240.516 235.739 227.396Z" fill="#5E585A"/>
<path d="M506.056 133.739L610.443 369.892C755.557 297.335 742.779 170.817 718.251 116.627C673.074 16.6897 589.908 -2.59038 553.971 0.261705L377.712 0.261697C448.9 24.9037 492.937 99.5144 506.056 133.739Z" fill="#0068B7"/>
<path d="M599.974 405.767L363.822 510.154C436.379 655.268 562.897 642.49 617.087 617.963C717.024 572.785 736.304 489.619 733.452 453.682L733.452 277.423C708.81 348.611 634.199 392.648 599.974 405.767Z" fill="#F3F3F3"/>
<path d="M329.396 499.424L225.01 263.271C79.8957 335.828 92.6731 462.347 117.201 516.537C162.378 616.474 245.545 635.754 281.481 632.902L457.74 632.902C386.552 608.26 342.516 533.649 329.396 499.424Z" fill="#9CAFB3"/>
</g>
<path d="M445 529V556" stroke="#ADADAD" stroke-width="2" stroke-miterlimit="10"/>
<path d="M439.586 539C440.367 539 441 538.367 441 537.586V516C441 514.343 439.657 513 438 513H419C417.343 513 416 514.343 416 516V531C416 532.657 417.343 534 419 534H434L438.586 538.586C438.851 538.851 439.211 539 439.586 539Z" stroke="#ADADAD" stroke-width="2" stroke-miterlimit="10"/>
<path d="M425 525C425.552 525 426 524.553 426 524C426 523.448 425.552 523 425 523C424.448 523 424 523.448 424 524C424 524.553 424.448 525 425 525Z" stroke="#ADADAD" stroke-width="2" stroke-miterlimit="10"/>
<path d="M432 525C432.552 525 433 524.553 433 524C433 523.448 432.552 523 432 523C431.448 523 431 523.448 431 524C431 524.553 431.448 525 432 525Z" stroke="#ADADAD" stroke-width="2" stroke-miterlimit="10"/>
<path d="M441.003 527.651C442.252 527.957 443.58 528.391 445 529C448.951 527.307 452.19 527.001 455 527C462.016 526.997 465.54 531 472 531L467 557C461.066 557 459 555 453 555C450.916 555 448.358 555.225 445 556C441.642 555.225 439.084 555 437 555C431 555 428.934 557 423 557L418.59 533.971" stroke="#ADADAD" stroke-width="2" stroke-miterlimit="10"/>
<path d="M462.168 534.41C463.037 534.72 463.918 535.008 464.8 535.235" stroke="#ADADAD" stroke-width="2" stroke-miterlimit="10"/>
<path d="M449.218 533.279C450.774 532.437 452.217 532 454 532C455.698 532 457.711 532.734 459.865 533.551" stroke="#ADADAD" stroke-width="2" stroke-miterlimit="10"/>
<path d="M449.218 538.279C450.774 537.437 452.217 537 454 537C455.698 537 457.711 537.734 459.865 538.551" stroke="#ADADAD" stroke-width="2" stroke-miterlimit="10"/>
<path d="M465.539 544C463.471 542.733 460.746 542.17 458 541.998L457 550C459.389 550.361 461.722 551.174 464 552.146L465.539 544Z" stroke="#ADADAD" stroke-width="2" stroke-miterlimit="10"/>
<path d="M449.218 544.279C450.774 543.437 452.217 543 454 543" stroke="#ADADAD" stroke-width="2" stroke-miterlimit="10"/>
<path d="M449.218 549.279C450.774 548.437 452.217 548 454 548" stroke="#ADADAD" stroke-width="2" stroke-miterlimit="10"/>
<path d="M437 549C432.184 549 429.903 550.288 426.121 550.797" stroke="#ADADAD" stroke-width="2" stroke-miterlimit="10"/>
<path d="M441.866 549.392C440.858 549.236 439.936 549.135 439.086 549.075" stroke="#ADADAD" stroke-width="2" stroke-miterlimit="10"/>
<path d="M441.811 544.383C439.942 544.097 438.369 544 437 544C432.186 544 429.904 545.288 426.124 545.797" stroke="#ADADAD" stroke-width="2" stroke-miterlimit="10"/>
<path d="M465.058 556.924L464.216 558.177C463.456 559.316 462.178 560 460.808 560H429.192C427.823 560 426.544 559.316 425.784 558.176L424.953 556.923" stroke="#ADADAD" stroke-width="2" stroke-miterlimit="10"/>
<path d="M452.695 511.171L450.591 515.872" stroke="#ADADAD" stroke-width="2" stroke-miterlimit="10"/>
<path d="M454.458 507.229L453.705 508.912" stroke="#ADADAD" stroke-width="2" stroke-miterlimit="10"/>
<path d="M458.597 515.333L455.383 518.8" stroke="#ADADAD" stroke-width="2" stroke-miterlimit="10"/>
<path d="M461.516 512.186L460.084 513.73" stroke="#ADADAD" stroke-width="2" stroke-miterlimit="10"/>
<path d="M462.921 520.715L458.154 523.375" stroke="#ADADAD" stroke-width="2" stroke-miterlimit="10"/>
<path d="M466.811 518.544L465.185 519.452" stroke="#ADADAD" stroke-width="2" stroke-miterlimit="10"/>
<path d="M643.46 276H660.5C661.881 276 663 274.881 663 273.5C663 272.119 661.881 271 660.5 271H634L631.5 273.5L634 276H639" stroke="#6CC0FF" stroke-width="2" stroke-miterlimit="10"/>
<path d="M657.484 292C658.997 288.312 660.041 285.083 660 281V276" stroke="#6CC0FF" stroke-width="2" stroke-miterlimit="10"/>
<path d="M649 269V271" stroke="#6CC0FF" stroke-width="2" stroke-miterlimit="10"/>
<path d="M649 276L649.001 281.178C649.001 281.68 648.596 282 648.18 282C647.938 282 647.685 281.897 647.512 281.656L642.631 274.842C642.196 274.23 641.425 273.873 640.587 274.041C639.847 274.189 639.228 274.784 639.056 275.519C638.93 276.06 639.023 276.575 639.265 276.995L644.233 285.638C645.26 287.424 647.708 290.562 649.27 292" stroke="#6CC0FF" stroke-width="2" stroke-miterlimit="10"/>
<path d="M640.636 271L646.979 265.832C647.639 265.294 648.465 265 649.317 265C649.768 265 650.216 265.084 650.637 265.245L656.865 267.628C657.805 267.988 658.575 268.689 659.021 269.591L659.719 271" stroke="#6CC0FF" stroke-width="2" stroke-miterlimit="10"/>
<path d="M615.189 256.263L641.153 250.938L644.706 267.684" stroke="#6CC0FF" stroke-width="2" stroke-miterlimit="10"/>
<path d="M645.825 254.152L647.231 260.785" stroke="#6CC0FF" stroke-width="2" stroke-miterlimit="10"/>
<path d="M644.763 249.139L645.34 251.86" stroke="#6CC0FF" stroke-width="2" stroke-miterlimit="10"/>
<path d="M614.112 293.82L606.719 258L612.835 256.746" stroke="#6CC0FF" stroke-width="2" stroke-miterlimit="10"/>
<path d="M618.979 270.125L618.099 265.82C617.986 265.265 617.449 264.907 616.899 265.021L613.812 265.661C613.261 265.775 612.907 266.319 613.021 266.875L613.901 271.18C614.014 271.735 614.551 272.093 615.101 271.979L618.188 271.339C618.738 271.225 619.092 270.681 618.979 270.125Z" stroke="#6CC0FF" stroke-width="2" stroke-miterlimit="10"/>
<path d="M609.353 289.848L607.968 283.201" stroke="#6CC0FF" stroke-width="2" stroke-miterlimit="10"/>
<path d="M612.247 303.742L609.837 292.17" stroke="#6CC0FF" stroke-width="2" stroke-miterlimit="10"/>
<path d="M644 296.976L616 302.966L614.593 296.149" stroke="#6CC0FF" stroke-width="2" stroke-miterlimit="10"/>
<path d="M622.282 268.153L637.753 264.796" stroke="#6CC0FF" stroke-width="2" stroke-miterlimit="10"/>
<path d="M644 300V294C644 292.895 644.895 292 646 292H660C661.105 292 662 292.895 662 294V300" stroke="#6CC0FF" stroke-width="2" stroke-miterlimit="10"/>
<path d="M649 295H647V297H649V295Z" fill="#6CC0FF"/>
<path d="M626.282 283.153L636.768 280.734" stroke="#6CC0FF" stroke-width="2" stroke-miterlimit="10"/>
<path d="M616.478 283.518L620 285.375L623.171 280.106" stroke="#6CC0FF" stroke-width="2" stroke-miterlimit="10"/>
<path d="M634 294H632V296H634V294Z" fill="#6CC0FF"/>
<path d="M639 293H637V295H639V293Z" fill="#6CC0FF"/>
<path d="M629 295H627V297H629V295Z" fill="#6CC0FF"/>
<path d="M406 105C409.866 105 413 101.418 413 97C413 92.5817 409.866 89 406 89C402.134 89 399 92.5817 399 97C399 101.418 402.134 105 406 105Z" stroke="#BCBCBC" stroke-width="2" stroke-miterlimit="10"/>
<path d="M396 124V114C396 111.239 398.239 109 401 109H411C413.761 109 416 111.239 416 114V124" stroke="#BCBCBC" stroke-width="2" stroke-miterlimit="10"/>
<path d="M364 99V97C364 95.343 365.343 94 367 94H373C374.657 94 376 95.343 376 97V99" stroke="#BCBCBC" stroke-width="2" stroke-miterlimit="10"/>
<path d="M370 90C372.209 90 374 87.9853 374 85.5C374 83.0147 372.209 81 370 81C367.791 81 366 83.0147 366 85.5C366 87.9853 367.791 90 370 90Z" stroke="#BCBCBC" stroke-width="2" stroke-miterlimit="10"/>
<path d="M402.71 75H405C406.657 75 408 76.343 408 78V86" stroke="#BCBCBC" stroke-width="2" stroke-miterlimit="10"/>
<path d="M393 111H363C361.343 111 360 109.657 360 108V78C360 76.343 361.343 75 363 75H380" stroke="#BCBCBC" stroke-width="2" stroke-miterlimit="10"/>
<path d="M385 106H383V108H385V106Z" fill="#BCBCBC"/>
<path d="M389 106H387V108H389V106Z" fill="#BCBCBC"/>
<path d="M381 106H379V108H381V106Z" fill="#BCBCBC"/>
<path d="M380.708 111L377.292 118" stroke="#BCBCBC" stroke-width="2" stroke-miterlimit="10"/>
<path d="M387.292 111L390.708 118" stroke="#BCBCBC" stroke-width="2" stroke-miterlimit="10"/>
<path d="M393 118H374" stroke="#BCBCBC" stroke-width="2" stroke-miterlimit="10"/>
<path d="M372 118H370" stroke="#BCBCBC" stroke-width="2" stroke-miterlimit="10"/>
<path d="M360 103H397" stroke="#BCBCBC" stroke-width="2" stroke-miterlimit="10"/>
<path d="M394 78H385.422L380 80.75V68C380 67.448 380.448 67 381 67H394C394.552 67 395 67.448 395 68V77C395 77.552 394.552 78 394 78Z" stroke="#BCBCBC" stroke-width="2" stroke-miterlimit="10"/>
<path d="M388 78V81C388 81.552 388.448 82 389 82H397.578L403 84.75V72C403 71.448 402.552 71 402 71H394.996" stroke="#BCBCBC" stroke-width="2" stroke-miterlimit="10"/>
<path d="M186 333C188.761 333 191 330.538 191 327.5C191 324.462 188.761 322 186 322C183.239 322 181 324.462 181 327.5C181 330.538 183.239 333 186 333Z" stroke="#2D5760" stroke-width="2" stroke-miterlimit="10"/>
<path d="M186 374V354" stroke="#2D5760" stroke-width="2" stroke-miterlimit="10"/>
<path d="M181 345V370L179.897 370.368C178.764 370.745 178 371.806 178 373C178 373.552 178.448 374 179 374H193C193.552 374 194 373.552 194 373C194 371.806 193.236 370.745 192.103 370.368L191 370V353" stroke="#2D5760" stroke-width="2" stroke-miterlimit="10"/>
<path d="M194 326H225C226.105 326 227 326.895 227 328V356C227 357.105 226.105 358 225 358H202" stroke="#2D5760" stroke-width="2" stroke-miterlimit="10"/>
<path d="M194 358H196" stroke="#2D5760" stroke-width="2" stroke-miterlimit="10"/>
<path d="M198 358H200" stroke="#2D5760" stroke-width="2" stroke-miterlimit="10"/>
<path d="M205 322H215" stroke="#2D5760" stroke-width="2" stroke-miterlimit="10"/>
<path d="M217 322H220" stroke="#2D5760" stroke-width="2" stroke-miterlimit="10"/>
<path d="M207 358V375" stroke="#2D5760" stroke-width="2" stroke-miterlimit="10"/>
<path d="M198.556 374.708L207 361.824L215.444 374.708" stroke="#2D5760" stroke-width="2" stroke-miterlimit="10"/>
<path d="M198 353C199.657 353 201 351.657 201 350C201 348.343 199.657 347 198 347C196.343 347 195 348.343 195 350C195 351.657 196.343 353 198 353Z" stroke="#2D5760" stroke-width="2" stroke-miterlimit="10"/>
<path d="M212 349C213.657 349 215 347.657 215 346C215 344.343 213.657 343 212 343C210.343 343 209 344.343 209 346C209 347.657 210.343 349 212 349Z" stroke="#2D5760" stroke-width="2" stroke-miterlimit="10"/>
<path d="M219 337C220.657 337 222 335.657 222 334C222 332.343 220.657 331 219 331C217.343 331 216 332.343 216 334C216 335.657 217.343 337 219 337Z" stroke="#2D5760" stroke-width="2" stroke-miterlimit="10"/>
<path d="M200.884 349.176L209.116 346.824" stroke="#2D5760" stroke-width="2" stroke-miterlimit="10"/>
<path d="M213.511 343.409L217.489 336.59" stroke="#2D5760" stroke-width="2" stroke-miterlimit="10"/>
<path d="M191 354V341H202C203.105 341 204 340.105 204 339C204 337.895 203.105 337 202 337H183C179.686 337 177 339.686 177 343V354.5C177 355.881 178.119 357 179.5 357H181" stroke="#2D5760" stroke-width="2" stroke-miterlimit="10"/>
<path d="M128.441 256.338C134.567 256.338 138.29 251.803 138.29 243.747C138.29 235.742 134.55 231.156 128.441 231.156C122.331 231.156 118.591 235.742 118.591 243.747C118.591 251.769 122.297 256.338 128.441 256.338ZM123.803 243.747C123.803 238.145 125.614 235.336 128.441 235.319C131.267 235.336 133.095 238.145 133.078 243.747C133.095 249.4 131.284 252.141 128.441 252.141C125.597 252.141 123.77 249.4 123.803 243.747ZM151.678 231.494H146.871L140.813 235.353V239.855L146.431 236.334H146.567V256H151.678V231.494Z" fill="white"/>
<path d="M489.441 47.3385C495.567 47.3385 499.29 42.8029 499.29 34.7471C499.29 26.7421 495.55 22.1557 489.441 22.1557C483.331 22.1557 479.591 26.7421 479.591 34.7471C479.591 42.769 483.297 47.3385 489.441 47.3385ZM484.803 34.7471C484.803 29.1453 486.614 26.3359 489.441 26.319C492.267 26.3359 494.095 29.1453 494.078 34.7471C494.095 40.3997 492.284 43.1414 489.441 43.1414C486.597 43.1414 484.77 40.3997 484.803 34.7471ZM502.117 47H519.65V42.8029H509.191V42.6675L512.915 39.0458C517.958 34.4763 519.312 32.1916 519.312 29.3992C519.312 25.1513 515.826 22.1557 510.579 22.1557C505.417 22.1557 501.863 25.219 501.88 30.0084H506.72C506.704 27.656 508.21 26.2006 510.511 26.2175C512.762 26.2006 514.404 27.5545 514.404 29.7376C514.404 31.6839 513.168 33.0378 510.884 35.221L502.083 43.3106L502.117 47Z" fill="white"/>
<path d="M686.441 401.338C692.567 401.338 696.29 396.803 696.29 388.747C696.29 380.742 692.55 376.156 686.441 376.156C680.331 376.156 676.591 380.742 676.591 388.747C676.591 396.769 680.297 401.338 686.441 401.338ZM681.803 388.747C681.803 383.145 683.614 380.336 686.441 380.319C689.267 380.336 691.095 383.145 691.078 388.747C691.095 394.4 689.284 397.141 686.441 397.141C683.597 397.141 681.77 394.4 681.803 388.747ZM708.188 401.338C713.723 401.338 717.7 398.326 717.666 394.129C717.7 391.066 715.72 388.883 712.115 388.442V388.239C714.856 387.749 716.769 385.802 716.752 383.061C716.769 379.185 713.367 376.156 708.256 376.156C703.23 376.156 699.439 379.084 699.354 383.298H704.228C704.313 381.419 706.09 380.201 708.256 380.217C710.422 380.201 711.861 381.487 711.844 383.365C711.861 385.295 710.168 386.615 707.748 386.615H705.481V390.372H707.748C710.625 390.389 712.402 391.793 712.386 393.79C712.402 395.771 710.659 397.124 708.222 397.141C705.853 397.124 704.076 395.923 703.991 394.095H698.846C698.948 398.377 702.807 401.338 708.188 401.338Z" fill="#616161"/>
<path d="M327.441 612.338C333.567 612.338 337.29 607.803 337.29 599.747C337.29 591.742 333.55 587.156 327.441 587.156C321.331 587.156 317.591 591.742 317.591 599.747C317.591 607.769 321.297 612.338 327.441 612.338ZM322.803 599.747C322.803 594.145 324.614 591.336 327.441 591.319C330.267 591.336 332.095 594.145 332.078 599.747C332.095 605.4 330.284 608.141 327.441 608.141C324.597 608.141 322.77 605.4 322.803 599.747ZM339.711 607.667H351.625V612H356.466V607.667H359.58V603.572H356.466V587.494H350.068L339.711 603.64V607.667ZM344.856 603.572V603.369L351.456 593.079H351.693V603.572H344.856Z" fill="white"/>
<path d="M253.47 64.2148C256.683 64.2051 258.675 62.0078 258.685 58.7266C258.675 55.4551 256.683 53.2578 253.47 53.2578C250.267 53.2578 248.265 55.4551 248.275 58.7266C248.265 62.0078 250.267 64.2051 253.47 64.2148ZM251.205 58.7266C251.205 56.8613 251.976 55.4648 253.49 55.4648C254.964 55.4648 255.746 56.8613 255.736 58.7266C255.746 60.582 254.964 61.959 253.49 61.9688C251.976 61.959 251.205 60.582 251.205 58.7266ZM262.992 57.8672C262.992 56.4707 263.822 55.6602 265.023 55.6602C266.225 55.6602 266.928 56.4414 266.938 57.75V64H269.809V57.2422C269.818 54.7715 268.373 53.2578 266.156 53.2578C264.584 53.2578 263.451 54.0293 262.973 55.25H262.855V53.3945H260.102V64H262.992V57.8672ZM278.237 57.0273H271.791V59.332H278.237V57.0273ZM285.005 64.2148C288.218 64.2051 290.21 62.0078 290.22 58.7266C290.21 55.4551 288.218 53.2578 285.005 53.2578C281.802 53.2578 279.8 55.4551 279.809 58.7266C279.8 62.0078 281.802 64.2051 285.005 64.2148ZM282.739 58.7266C282.739 56.8613 283.511 55.4648 285.024 55.4648C286.499 55.4648 287.28 56.8613 287.27 58.7266C287.28 60.582 286.499 61.959 285.024 61.9688C283.511 61.959 282.739 60.582 282.739 58.7266ZM297.28 53.3945H295.171V52.75C295.171 51.8613 295.669 51.5098 296.597 51.5C296.753 51.5098 297.056 51.5195 297.476 51.5586V49.3711C296.968 49.2539 296.411 49.1953 295.757 49.1953C293.628 49.1953 292.28 50.3574 292.28 52.5938V53.3945H290.777V55.5625H292.28V64H295.171V55.5625H297.28V53.3945ZM304.224 53.3945H302.115V52.75C302.115 51.8613 302.613 51.5098 303.541 51.5C303.697 51.5098 304 51.5195 304.42 51.5586V49.3711C303.912 49.2539 303.355 49.1953 302.701 49.1953C300.572 49.1953 299.224 50.3574 299.224 52.5938V53.3945H297.72V55.5625H299.224V64H302.115V55.5625H304.224V53.3945ZM229.848 78.3672V77.0781H227.191V78.3672C227.172 80.9453 224.857 83.7383 220.902 84.4414L221.977 86.5117C225.053 85.8867 227.357 84.1289 228.529 81.873C229.682 84.1484 231.977 85.8965 235.082 86.5117L236.176 84.4414C232.152 83.7578 229.838 80.9746 229.848 78.3672ZM220.492 91.6094H236.762V89.5586H220.492V91.6094ZM246.479 77.7031H237.944V89.4609H246.479V77.7031ZM240.405 87.4883V79.6562H243.998V87.4883H240.405ZM248.901 93.7969H251.401V84.793H254.018V82.7227H251.401V76.0234H248.901V93.7969ZM268.755 85.2031H258.716V83.1719H268.208V81.2188H258.716V79.3438H268.618V77.332H256.177V87.1758H268.755V85.2031ZM254.262 91.7266H270.532V89.6953H254.262V91.7266ZM290.337 76.0234H287.857V82.4297H284.986V84.4609H287.857V93.8359H290.337V76.0234ZM275.943 79.5195H281.568V82.1953H275.982V89.6953H277.447C280.425 89.7051 282.837 89.6074 285.474 89.168L285.279 87.1367C282.984 87.5371 280.914 87.625 278.462 87.6445V84.168H283.99V77.5078H275.943V79.5195ZM307.066 76.0234H304.586V86.3359H307.066V76.0234ZM293.258 85.3203H294.801C297.672 85.3301 300.494 85.1445 303.434 84.5195L303.141 82.5078C300.611 83.0352 298.209 83.2305 295.758 83.2793V77.1367H293.258V85.3203ZM294.898 90.2031C294.889 92.4395 297.271 93.8066 301.031 93.7969C304.781 93.8066 307.135 92.4395 307.145 90.2031C307.135 87.9082 304.781 86.5508 301.031 86.5508C297.271 86.5508 294.889 87.9082 294.898 90.2031ZM297.379 90.2031C297.379 89.0898 298.658 88.5625 301.031 88.5625C303.385 88.5625 304.635 89.0898 304.645 90.2031C304.635 91.2578 303.385 91.8242 301.031 91.8242C298.658 91.8242 297.379 91.2578 297.379 90.2031Z" fill="white"/>
<path d="M568.656 93.6328H566.176V96.4258C564.516 96.4746 562.943 96.4844 561.605 96.4844L561.898 98.4961C565.004 98.4863 569.223 98.4473 573.168 97.6953L572.973 95.8789C571.586 96.084 570.121 96.2207 568.656 96.3086V93.6328ZM561.957 92.3047L563.129 94.1797C565.229 93.6426 566.645 92.4414 567.416 90.8887C568.227 92.3633 569.662 93.5156 571.742 94.043L572.875 92.1094C570.189 91.4551 568.861 89.8438 568.695 88.125H572.328V86.1133H568.656V84.1797H566.176V86.1133H562.523V88.125H566.117C565.951 89.9316 564.643 91.5918 561.957 92.3047ZM573.988 101.836H576.469V84.0234H573.988V101.836ZM584.897 86.8164V84.9609H582.397V86.582C582.377 89.0332 581.108 91.3965 578.139 92.3828L579.487 94.3359C581.518 93.6523 582.895 92.2461 583.666 90.459C584.428 92.0117 585.746 93.2227 587.631 93.8477L588.959 91.9141C586.147 91.0449 584.887 88.9746 584.897 86.8164ZM580.6 98.3594C580.59 100.537 582.944 101.807 586.694 101.797C590.375 101.807 592.68 100.537 592.69 98.3594C592.68 96.2012 590.375 94.9219 586.694 94.9219C582.944 94.9219 580.59 96.2012 580.6 98.3594ZM583.1 98.3594C583.08 97.3926 584.36 96.875 586.694 96.875C588.998 96.875 590.229 97.3926 590.229 98.3594C590.229 99.3652 588.998 99.8438 586.694 99.8438C584.36 99.8438 583.08 99.3652 583.1 98.3594ZM590.014 94.5703H592.514V90.2539H594.916V88.1836H592.514V84.0234H590.014V94.5703ZM601.059 85.2148C598.257 85.2051 596.108 87.0215 596.118 89.5703C596.108 92.1289 598.257 93.9355 601.059 93.9453C603.882 93.9355 605.971 92.1289 605.981 89.5703C605.971 87.0215 603.882 85.2051 601.059 85.2148ZM595.376 96.1719L595.669 98.2031C598.774 98.2031 602.993 98.1738 606.938 97.4023L606.743 95.6055C602.944 96.1426 598.55 96.1816 595.376 96.1719ZM598.598 89.5703C598.589 88.1836 599.653 87.3633 601.059 87.3633C602.475 87.3633 603.55 88.1836 603.559 89.5703C603.55 90.9766 602.475 91.7871 601.059 91.7773C599.653 91.7871 598.589 90.9766 598.598 89.5703ZM607.759 101.836H610.239V84.0234H607.759V101.836ZM572.074 113.605H568.051V111.926H565.57V113.605H561.527V115.578H572.074V113.605ZM562.387 119.426C562.387 121.379 564.223 122.697 566.801 122.707C569.389 122.697 571.176 121.379 571.176 119.426C571.176 117.473 569.389 116.154 566.801 116.145C564.223 116.154 562.387 117.473 562.387 119.426ZM563.656 125.91H573.129V129.797H575.629V123.918H563.656V125.91ZM564.828 119.426C564.818 118.508 565.609 118.02 566.801 118.02C568.002 118.02 568.812 118.508 568.812 119.426C568.812 120.334 568.002 120.803 566.801 120.793C565.609 120.803 564.818 120.334 564.828 119.426ZM573.129 123.176H575.629V118.664H578.031V116.633H575.629V112.023H573.129V123.176ZM582.768 122.688H580.307V129.602H592.573V122.688H590.092V124.191H582.768V122.688ZM578.413 121.789H594.623V119.777H578.413V121.789ZM579.213 117.043L580.112 118.996C583.139 118.605 585.366 117.336 586.518 115.617C587.661 117.336 589.887 118.605 592.944 118.996L593.823 117.043C589.848 116.594 587.807 114.582 587.807 112.805V112.199H585.248V112.805C585.229 114.631 583.178 116.564 579.213 117.043ZM582.768 127.648V126.086H590.092V127.648H582.768ZM608.882 113.371H600.698V115.383H606.255C606.196 115.891 606.099 116.389 605.943 116.848L599.8 117.062L600.152 119.035L604.966 118.645C603.98 119.875 602.349 120.891 599.8 121.711L600.757 123.625C606.753 121.711 608.882 118.342 608.882 113.371ZM602.788 129.484H614.937V127.492H605.308V123.879H602.788V129.484ZM608.784 119.426H612.007V125.148H614.487V112.043H612.007V117.414H608.784V119.426ZM631.666 112.043H629.302V125.305H631.666V112.043ZM617.095 122.805H618.306C620.992 122.814 622.691 122.746 624.732 122.395L624.478 120.441C622.828 120.734 621.412 120.793 619.478 120.803V119.016H623.209V117.121H619.478V115.363H623.873V113.391H617.095V122.805ZM619.752 129.484H632.115V127.492H622.252V123.879H619.752V129.484ZM623.97 118.84H625.767V124.895H628.13V112.355H625.767V116.867H623.97V118.84ZM649.547 125.715H633.277V127.727H649.547V125.715ZM633.844 121.379L634.781 123.371C637.926 122.893 640.201 121.457 641.383 119.523C642.564 121.457 644.84 122.893 648.004 123.371L648.961 121.379C644.928 120.832 642.887 118.664 642.691 116.516H648.121V114.504H642.633V112.297H640.152V114.504H634.684V116.516H640.113C639.898 118.664 637.867 120.832 633.844 121.379Z" fill="white"/>
<path d="M202.824 431.023H200.422V437.762H198.801V431.492H196.477V448.016H198.801V439.754H200.422V448.797H202.824V431.023ZM187.277 443.426L188.723 445.145C193.732 442.234 195.217 438.172 195.227 433.211H188.176V435.203H192.795C192.463 438.689 190.9 441.297 187.277 443.426ZM219.358 431.023H216.877V433.289H213.596V431.785H211.135V433.855H207.639V431.785H205.139V439.656H213.596V438.387H216.877V440.164H219.358V431.023ZM207.522 442.742H216.877V443.758H207.541V448.602H219.885V446.648H210.041V445.574H219.358V440.828H207.522V442.742ZM207.639 437.703V435.75H211.135V437.703H207.639ZM213.596 436.512V435.145H216.877V436.512H213.596ZM234.534 432.176H225.999V439.969H234.534V432.176ZM227.054 446.824L227.952 448.719C230.794 448.357 232.786 447.244 233.802 445.721C234.827 447.244 236.839 448.377 239.691 448.758L240.57 446.863C237.415 446.443 235.648 445.125 235.238 443.797H239.788V441.824H227.816V443.797H232.386C231.986 445.164 230.247 446.434 227.054 446.824ZM228.46 437.996V434.148H232.073V437.996H228.46ZM237.073 440.984H239.573V436.922H241.976V434.891H239.573V431.023H237.073V440.984ZM258.568 439.559H242.357V441.531H249.212V442.898H244.232V448.602H256.634V442.898H251.673V441.531H258.568V439.559ZM243.041 437.059L243.763 438.895C247.045 438.67 249.32 437.771 250.443 436.375C251.556 437.771 253.832 438.67 257.123 438.895L257.845 437.059C254.017 436.834 252.201 435.721 251.879 434.5H257.005V432.547H251.673V431.023H249.212V432.547H243.92V434.5H248.998C248.675 435.721 246.898 436.834 243.041 437.059ZM246.693 446.609V444.871H254.193V446.609H246.693ZM269.164 432.664H265.59V430.867H263.109V432.664H259.281V434.637H269.164V432.664ZM260.16 438.562C260.141 440.555 261.869 441.873 264.32 441.863C266.762 441.873 268.52 440.555 268.539 438.562C268.52 436.59 266.762 435.232 264.32 435.223C261.869 435.232 260.141 436.59 260.16 438.562ZM262.055 445.691C262.045 447.625 264.389 448.807 268.188 448.797C271.967 448.807 274.311 447.625 274.32 445.691C274.311 443.719 271.967 442.557 268.188 442.566C264.389 442.557 262.045 443.719 262.055 445.691ZM262.484 438.562C262.475 437.615 263.197 437.088 264.32 437.078C265.434 437.088 266.215 437.615 266.215 438.562C266.215 439.52 265.434 440.027 264.32 440.027C263.197 440.027 262.475 439.52 262.484 438.562ZM264.672 445.691C264.672 444.842 265.912 444.461 268.188 444.441C270.414 444.461 271.645 444.842 271.645 445.691C271.645 446.502 270.414 446.922 268.188 446.922C265.912 446.922 264.672 446.502 264.672 445.691ZM269.32 440.477H271.742V442.352H274.223V431.023H271.742V434.93H269.359V436.922H271.742V438.484H269.32V440.477ZM198.039 460.605H194.016V458.926H191.535V460.605H187.492V462.578H198.039V460.605ZM188.352 466.426C188.352 468.379 190.188 469.697 192.766 469.707C195.354 469.697 197.141 468.379 197.141 466.426C197.141 464.473 195.354 463.154 192.766 463.145C190.188 463.154 188.352 464.473 188.352 466.426ZM189.621 472.91H199.094V476.797H201.594V470.918H189.621V472.91ZM190.793 466.426C190.783 465.508 191.574 465.02 192.766 465.02C193.967 465.02 194.777 465.508 194.777 466.426C194.777 467.334 193.967 467.803 192.766 467.793C191.574 467.803 190.783 467.334 190.793 466.426ZM199.094 470.176H201.594V465.664H203.996V463.633H201.594V459.023H199.094V470.176ZM208.733 469.688H206.272V476.602H218.538V469.688H216.057V471.191H208.733V469.688ZM204.377 468.789H220.588V466.777H204.377V468.789ZM205.178 464.043L206.077 465.996C209.104 465.605 211.33 464.336 212.483 462.617C213.625 464.336 215.852 465.605 218.909 465.996L219.788 464.043C215.813 463.594 213.772 461.582 213.772 459.805V459.199H211.213V459.805C211.194 461.631 209.143 463.564 205.178 464.043ZM208.733 474.648V473.086H216.057V474.648H208.733ZM232.386 463.047V460.391H229.866V463.047C229.857 466.494 228.343 469.902 225.238 471.211L226.741 473.281C228.909 472.295 230.364 470.361 231.165 467.959C231.976 470.156 233.382 471.934 235.413 472.852L236.878 470.859C233.861 469.58 232.376 466.309 232.386 463.047ZM237.835 476.836H240.355V459.023H237.835V476.836ZM251.712 461.367V460.078H249.056V461.367C249.037 463.945 246.722 466.738 242.767 467.441L243.841 469.512C246.918 468.887 249.222 467.129 250.394 464.873C251.546 467.148 253.841 468.896 256.947 469.512L258.041 467.441C254.017 466.758 251.703 463.975 251.712 461.367ZM242.357 474.609H258.627V472.559H242.357V474.609ZM266.723 460.078H259.945V468.926H261.156C263.842 468.936 265.541 468.867 267.582 468.516L267.328 466.582C265.678 466.846 264.262 466.934 262.328 466.963V465.41H266.059V463.496H262.328V462.09H266.723V460.078ZM262.387 476.602H274.516V470.332H262.387V476.602ZM264.867 474.609V472.285H272.055V474.609H264.867ZM266.82 465.293H268.617V469.512H270.98V459.297H268.617V463.301H266.82V465.293ZM272.152 469.629H274.516V459.023H272.152V469.629Z" fill="white"/>
<path d="M532.656 481.633H530.176V484.426C528.516 484.475 526.943 484.484 525.605 484.484L525.898 486.496C529.004 486.486 533.223 486.447 537.168 485.695L536.973 483.879C535.586 484.084 534.121 484.221 532.656 484.309V481.633ZM525.957 480.305L527.129 482.18C529.229 481.643 530.645 480.441 531.416 478.889C532.227 480.363 533.662 481.516 535.742 482.043L536.875 480.109C534.189 479.455 532.861 477.844 532.695 476.125H536.328V474.113H532.656V472.18H530.176V474.113H526.523V476.125H530.117C529.951 477.932 528.643 479.592 525.957 480.305ZM537.988 489.836H540.469V472.023H537.988V489.836ZM552.666 473.02H543.018V474.992H546.592C546.573 477.199 545.245 479.553 542.315 480.48L543.584 482.453C545.684 481.779 547.1 480.354 547.891 478.586C548.663 480.178 550.02 481.467 551.983 482.082L553.213 480.168C550.411 479.24 549.141 477.082 549.131 474.992H552.666V473.02ZM545.186 485.383H554.913V489.797H557.393V483.391H545.186V485.383ZM552.159 478.332H554.913V482.609H557.393V472.023H554.913V476.301H552.159V478.332ZM573.516 472.023H570.997V489.797H573.516V481.32H575.841V479.25H573.516V472.023ZM559.083 484.777L559.415 486.809C562.413 486.818 566.495 486.789 570.274 486.086L570.118 484.27C568.8 484.455 567.384 484.572 565.977 484.65V483.215C567.852 482.854 569.102 481.643 569.122 479.992C569.102 478.01 567.286 476.652 564.747 476.652C562.159 476.652 560.362 478.01 560.372 479.992C560.362 481.643 561.593 482.844 563.477 483.215V484.738C561.895 484.777 560.382 484.777 559.083 484.777ZM559.434 475.949H569.981V473.996H565.977V472.121H563.477V473.996H559.434V475.949ZM562.735 479.992C562.725 479.074 563.526 478.557 564.747 478.547C565.929 478.557 566.72 479.074 566.72 479.992C566.72 480.93 565.929 481.438 564.747 481.438C563.526 481.438 562.725 480.93 562.735 479.992ZM586.554 477.473H580.265V475.09H586.398V473.098H577.765V479.465H580.87V481.34C579.259 481.379 577.687 481.398 576.261 481.398L576.593 483.371C579.884 483.371 583.898 483.273 587.667 482.746L587.491 480.969C586.173 481.105 584.777 481.193 583.37 481.262V479.465H586.554V477.473ZM579.015 489.484H591.593V487.492H581.534V484.387H579.015V489.484ZM588.585 485.402H591.124V472.004H588.585V485.402ZM612.023 473.566H598.879V475.539H609.523C609.514 477.6 609.494 480.012 608.918 483.273L611.359 483.488C612.014 479.904 612.014 477.473 612.023 475.305V473.566ZM597.277 487.629H613.488V485.598H607.629V480.012H605.168V485.598H603.215V480.012H600.734V485.598H597.277V487.629ZM629.67 472.023H627.287V478.859H625.784V472.277H623.42V483.85C620.745 482.463 619.827 479.514 619.827 476.418V475.852H622.541V473.859H614.397V475.852H617.405V476.418C617.395 479.816 616.496 482.961 613.791 484.484L615.334 486.398C617.034 485.383 618.079 483.684 618.664 481.604C619.299 483.41 620.364 484.885 622.014 485.754L623.42 483.889V488.977H625.784V480.891H627.287V489.797H629.67V472.023ZM645.364 473.059H632.903V475.051H642.884C642.874 476.584 642.835 478.332 642.376 480.617H631.048V482.629H637.825V489.816H640.325V482.629H647.259V480.617H644.905C645.354 478.127 645.354 476.32 645.364 474.66V473.059ZM654.652 474.445V472.941H652.132V474.562C652.122 477.043 650.814 479.426 647.777 480.402L649.085 482.395C651.224 481.672 652.659 480.217 653.441 478.361C654.193 479.963 655.491 481.184 657.405 481.848L658.714 479.895C655.863 479.016 654.642 476.818 654.652 474.445ZM650.726 486.359C650.726 488.557 653.05 489.807 656.839 489.797C660.638 489.807 662.962 488.557 662.972 486.359C662.962 484.172 660.638 482.893 656.839 482.902C653.05 482.893 650.726 484.172 650.726 486.359ZM653.206 486.359C653.206 485.344 654.486 484.836 656.839 484.836C659.202 484.836 660.482 485.344 660.491 486.359C660.482 487.346 659.202 487.863 656.839 487.863C654.486 487.863 653.206 487.346 653.206 486.359ZM657.093 477.316H660.433V482.434H662.913V472.023H660.433V475.285H657.093V477.316Z" fill="#616161"/>
<path d="M190.413 119.129H183.979V117.494C186.941 117.336 188.804 116.211 188.813 114.365C188.804 112.44 186.651 111.28 183.293 111.271C179.901 111.28 177.756 112.44 177.756 114.365C177.756 116.211 179.611 117.336 182.608 117.494V119.129H176.174V120.271H190.413V119.129ZM178.02 126.09H188.83V124.93H179.409V121.537H178.02V126.09ZM179.18 114.365C179.171 113.17 180.771 112.396 183.293 112.396C185.798 112.396 187.398 113.17 187.407 114.365C187.398 115.64 185.798 116.369 183.293 116.369C180.771 116.369 179.171 115.64 179.18 114.365ZM197.181 120.57C197.805 120.562 198.315 120.052 198.306 119.428C198.315 118.812 197.805 118.303 197.181 118.303C196.566 118.303 196.038 118.812 196.056 119.428C196.038 120.052 196.566 120.562 197.181 120.57ZM206.858 111.816C203.544 111.834 201.145 113.451 201.145 115.912C201.145 118.232 203.219 119.771 206.172 119.981V123.26H199.739V124.42H214.047V123.26H207.526V119.981C210.497 119.779 212.571 118.241 212.571 115.912C212.571 113.451 210.18 111.834 206.858 111.816ZM202.481 115.912C202.472 114.146 204.327 112.95 206.858 112.959C209.389 112.95 211.235 114.146 211.235 115.912C211.235 117.714 209.389 118.883 206.858 118.9C204.327 118.883 202.472 117.714 202.481 115.912ZM229.244 123.242H214.935V124.42H229.244V123.242ZM216.201 113.521H218.68V118.988H216.236V120.113H227.838V118.988H225.394V113.521H227.873V112.379H216.201V113.521ZM220.051 118.988V113.521H224.041V118.988H220.051ZM242.226 110.797H240.855V126.459H242.226V118.18H244.845V117.02H242.226V110.797ZM230.747 113.398H236.478V116.703H230.782V122.68H232.03C235.045 122.662 237.128 122.548 239.589 122.1L239.448 120.957C237.084 121.396 235.054 121.511 232.154 121.502V117.846H237.849V112.256H230.747V113.398ZM258.231 110.814H256.86V122.24H258.231V110.814ZM245.698 115.736C245.689 118.013 247.456 119.595 249.794 119.586C252.131 119.595 253.88 118.013 253.889 115.736C253.88 113.486 252.131 111.913 249.794 111.904C247.456 111.913 245.689 113.486 245.698 115.736ZM247.051 115.736C247.034 114.207 248.211 113.117 249.794 113.117C251.349 113.117 252.536 114.207 252.536 115.736C252.536 117.292 251.349 118.373 249.794 118.373C248.211 118.373 247.034 117.292 247.051 115.736ZM248.141 126.09H258.723V124.93H249.512V121.08H248.141V126.09ZM273.92 110.797H272.584V126.424H273.92V110.797ZM260.719 117.547C260.727 120.869 262.046 122.987 264.076 122.979C266.001 122.987 267.31 121.08 267.442 118.039H269.455V125.633H270.773V111.131H269.455V116.896H267.434C267.258 113.952 265.975 112.124 264.076 112.115C262.046 112.124 260.727 114.225 260.719 117.547ZM262.019 117.547C262.002 115.007 262.81 113.416 264.076 113.416C265.351 113.416 266.159 115.007 266.15 117.547C266.159 120.078 265.351 121.678 264.076 121.66C262.81 121.678 262.002 120.078 262.019 117.547ZM281.224 114.998V112.15H279.818V114.998C279.809 117.881 277.998 120.887 275.704 122.012L276.601 123.119C278.376 122.179 279.844 120.175 280.538 117.837C281.233 120.061 282.7 121.924 284.476 122.838L285.302 121.713C283.034 120.676 281.215 117.828 281.224 114.998ZM283.597 117.266H287.306V126.459H288.677V110.797H287.306V116.141H283.597V117.266ZM296.034 111.939C293.564 111.948 291.806 113.442 291.815 115.613C291.806 117.793 293.564 119.278 296.034 119.287C298.486 119.278 300.226 117.793 300.235 115.613C300.226 113.442 298.486 111.948 296.034 111.939ZM291.007 121.836L291.2 123.014C294.012 123.014 297.853 122.996 301.43 122.328L301.325 121.309C297.871 121.818 293.889 121.845 291.007 121.836ZM293.169 115.613C293.16 114.163 294.364 113.152 296.034 113.152C297.686 113.152 298.89 114.163 298.882 115.613C298.89 117.072 297.686 118.074 296.034 118.074C294.364 118.074 293.16 117.072 293.169 115.613ZM302.362 126.459H303.733V110.797H302.362V126.459ZM143.715 138.922H142.344V146.621H149.692V138.922H148.321V141.541H143.715V138.922ZM143.715 145.514V142.631H148.321V145.514H143.715ZM144.225 153.09H154.789V151.93H145.614V148.186H144.225V153.09ZM153.049 149.346H154.42V137.814H153.049V149.346ZM170.953 145.9H156.697V147.043H170.953V145.9ZM158.455 153.213H169.213V148.467H158.455V153.213ZM158.595 144.494H169.265V143.387H159.984V141.84H168.756V140.768H159.984V139.326H169.177V138.219H158.595V144.494ZM159.826 152.088V149.574H167.859V152.088H159.826ZM179.18 146.973H177.879V153.213H183.311V146.973H182.028V148.924H179.18V146.973ZM176.315 142.086C176.306 144.23 177.994 145.689 180.375 145.689C182.494 145.689 184.102 144.477 184.374 142.631H187.635V146.076H189.024V137.797H187.635V141.488H184.366C184.067 139.687 182.476 138.5 180.375 138.5C177.994 138.5 176.306 139.95 176.315 142.086ZM177.633 142.086C177.633 140.662 178.767 139.66 180.375 139.66C181.949 139.66 183.082 140.662 183.082 142.086C183.082 143.519 181.949 144.538 180.375 144.547C178.767 144.538 177.633 143.519 177.633 142.086ZM179.18 152.123V149.979H182.028V152.123H179.18ZM183.522 152.281L184.243 153.336C185.622 152.747 186.58 151.64 187.073 150.365C187.556 151.657 188.496 152.765 189.938 153.336L190.659 152.281C188.751 151.578 187.758 149.847 187.776 148.203V146.867H186.405V148.203C186.396 149.785 185.403 151.499 183.522 152.281ZM203.904 142.543H194.57V138.377H193.199V143.65H203.904V142.543ZM191.248 146.902H205.556V145.777H191.248V146.902ZM193.111 153.037H203.992V151.895H194.482V148.502H193.111V153.037ZM215.383 138.535C213.098 138.535 211.507 139.766 211.516 141.629C211.507 143.272 212.799 144.441 214.733 144.652V146.234C213.239 146.287 211.815 146.296 210.602 146.287L210.778 147.43C213.476 147.438 217.22 147.386 220.534 146.797L220.428 145.76C219.066 145.962 217.581 146.094 216.122 146.173V144.644C218.002 144.406 219.259 143.246 219.268 141.629C219.259 139.766 217.668 138.535 215.383 138.535ZM212.817 141.629C212.799 140.416 213.863 139.607 215.383 139.607C216.913 139.607 217.958 140.416 217.967 141.629C217.958 142.815 216.913 143.624 215.383 143.633C213.863 143.624 212.799 142.815 212.817 141.629ZM212.887 153.072H223.381V151.912H214.276V148.73H212.887V153.072ZM221.43 149.768H222.819V144.283H225.157V143.105H222.819V137.814H221.43V149.768ZM238.771 137.814H237.383V142.139H234.166V143.281H237.383V149.275H238.771V137.814ZM225.887 146.146L226.607 147.271C228.462 146.577 229.903 145.145 230.58 143.334C231.257 144.951 232.619 146.261 234.377 146.902L235.098 145.795C232.812 145.013 231.248 143.053 231.248 141.031V140.223H234.746V139.08H226.326V140.223H229.859V141.031C229.859 143.272 228.189 145.338 225.887 146.146ZM228.734 153.09H239.211V151.93H230.123V148.238H228.734V153.09ZM258.126 137.814H256.737V140.258H252.676C251.947 139.353 250.804 138.808 249.477 138.799C247.139 138.808 245.408 140.425 245.417 142.719C245.408 145.004 247.139 146.621 249.477 146.621C250.813 146.621 251.973 146.067 252.694 145.145H256.737V149.363H258.126V137.814ZM246.735 142.719C246.735 141.163 247.878 140.038 249.477 140.029C251.015 140.038 252.184 141.163 252.184 142.719C252.184 144.283 251.015 145.399 249.477 145.391C247.878 145.399 246.735 144.283 246.735 142.719ZM248.088 153.09H258.565V151.93H249.477V148.15H248.088V153.09ZM253.3 141.4H256.737V144.002H253.309C253.441 143.606 253.52 143.176 253.52 142.719C253.52 142.244 253.441 141.805 253.3 141.4ZM273.744 137.797H272.426V153.424H273.744V137.797ZM260.35 149.047L261.193 150.049C264.146 148.282 265.86 145.944 266.616 143.299H269.262V146.076H266.361V147.219H269.262V152.633H270.58V138.219H269.262V142.156H266.889C267.029 141.392 267.1 140.601 267.1 139.801H261.053V140.943H265.728C265.456 144.213 263.751 147.034 260.35 149.047ZM284.915 139.484H280.943V137.727H279.572V139.484H275.599V140.609H284.915V139.484ZM276.495 144.248C276.487 145.944 277.998 147.052 280.257 147.061C282.498 147.052 284.001 145.944 284.019 144.248C284.001 142.525 282.498 141.436 280.257 141.418C277.998 141.436 276.487 142.525 276.495 144.248ZM277.55 149.557H286.409V153.424H287.781V148.432H277.55V149.557ZM277.814 144.248C277.805 143.185 278.781 142.499 280.257 142.49C281.716 142.499 282.7 143.185 282.718 144.248C282.7 145.285 281.716 145.962 280.257 145.953C278.781 145.962 277.805 145.285 277.814 144.248ZM286.409 147.57H287.781V143.299H290.136V142.139H287.781V137.797H286.409V147.57ZM293.942 147.184H292.571V153.213H303.135V147.184H301.747V149.012H293.942V147.184ZM290.76 146.076H304.999V144.934H290.76V146.076ZM291.569 142.719L292.096 143.826C294.505 143.466 296.895 142.244 297.888 140.486C298.881 142.235 301.263 143.466 303.68 143.826L304.19 142.719C301.439 142.367 298.591 140.636 298.6 138.711V137.973H297.176V138.711C297.176 140.697 294.355 142.341 291.569 142.719ZM293.942 152.105V150.102H301.747V152.105H293.942Z" fill="white"/>
<path d="M573.727 143.711H572.355V159.373H573.727V151.059H576.346V149.898H573.727V143.711ZM562.318 155.453H563.549C566.52 155.453 568.567 155.365 571.02 154.926L570.844 153.73C568.515 154.161 566.52 154.284 563.689 154.293V146.383H569.613V145.24H562.318V155.453ZM591.367 146.084H589.046V143.711H587.675V152.992H589.046V150.566H591.367V149.406H589.046V147.227H591.367V146.084ZM577.128 148.334C577.119 150.505 578.86 151.999 581.224 152.008C583.606 151.999 585.32 150.505 585.337 148.334C585.32 146.154 583.606 144.651 581.224 144.66C578.86 144.651 577.119 146.154 577.128 148.334ZM578.482 148.334C578.473 146.866 579.642 145.82 581.224 145.838C582.824 145.82 583.975 146.866 583.984 148.334C583.975 149.811 582.824 150.83 581.224 150.848C579.642 150.83 578.473 149.811 578.482 148.334ZM578.851 156.402C578.86 158.222 580.846 159.303 584.036 159.303C587.227 159.303 589.187 158.222 589.187 156.402C589.187 154.548 587.227 153.476 584.036 153.467C580.846 153.476 578.86 154.548 578.851 156.402ZM580.24 156.402C580.222 155.269 581.681 154.592 584.036 154.592C586.401 154.592 587.842 155.269 587.851 156.402C587.842 157.527 586.401 158.187 584.036 158.195C581.681 158.187 580.222 157.527 580.24 156.402ZM604.12 143.711H602.749V159.338H604.12V151.305H606.739V150.162H604.12V143.711ZM591.938 147.367H601.237V146.225H597.335V143.904H595.964V146.225H591.938V147.367ZM592.835 152.254C592.826 154.372 594.443 155.84 596.667 155.84C598.873 155.84 600.481 154.372 600.499 152.254C600.481 150.145 598.873 148.668 596.667 148.668C594.443 148.668 592.826 150.145 592.835 152.254ZM594.153 152.254C594.144 150.839 595.208 149.819 596.667 149.828C598.108 149.819 599.163 150.839 599.18 152.254C599.163 153.678 598.108 154.68 596.667 154.662C595.208 154.68 594.144 153.678 594.153 152.254ZM619.756 145.293H608.734V146.436H618.367V146.857C618.358 148.729 618.358 150.918 617.77 153.906L619.176 154.064C619.738 150.918 619.738 148.773 619.756 146.857V145.293ZM607.223 157.123H621.461V155.98H614.166V150.391H612.813V155.98H607.223V157.123ZM631.147 148.527V147.754H634.083V146.611H631.165V144.291H629.846V146.611H626.876V147.754H629.846V148.527C629.838 151.111 628.581 153.854 626.454 155.084L627.28 156.139C628.845 155.198 629.961 153.44 630.514 151.437C631.086 153.317 632.211 154.935 633.766 155.787L634.557 154.75C632.43 153.616 631.156 151.041 631.147 148.527ZM633.011 151.059H635.471V158.529H636.772V144.098H635.471V149.881H633.011V151.059ZM638.618 159.338H639.936V143.711H638.618V159.338ZM655.151 143.711H653.832V159.338H655.151V143.711ZM641.756 154.961L642.6 155.963C645.553 154.196 647.267 151.858 648.023 149.213H650.668V151.99H647.768V153.133H650.668V158.547H651.986V144.133H650.668V148.07H648.295C648.436 147.306 648.506 146.515 648.506 145.715H642.459V146.857H647.135C646.862 150.127 645.157 152.948 641.756 154.961ZM662.402 146.594V145.926H665.9V144.801H657.48V145.926H661.013V146.611C661.013 148.817 659.343 150.9 657.041 151.727L657.761 152.816C659.616 152.131 661.066 150.689 661.743 148.896C662.411 150.505 663.773 151.814 665.531 152.447L666.251 151.357C663.966 150.566 662.402 148.624 662.402 146.594ZM659.414 155.049H668.537V159.338H669.925V153.906H659.414V155.049ZM665.408 148.967H668.537V153.08H669.925V143.711H668.537V147.807H665.408V148.967ZM685.069 143.729H683.698V155.154H685.069V143.729ZM672.536 148.65C672.527 150.927 674.294 152.509 676.632 152.5C678.97 152.509 680.719 150.927 680.727 148.65C680.719 146.4 678.97 144.827 676.632 144.818C674.294 144.827 672.527 146.4 672.536 148.65ZM673.89 148.65C673.872 147.121 675.05 146.031 676.632 146.031C678.187 146.031 679.374 147.121 679.374 148.65C679.374 150.206 678.187 151.287 676.632 151.287C675.05 151.287 673.872 150.206 673.89 148.65ZM674.979 159.004H685.561V157.844H676.35V153.994H674.979V159.004ZM569.473 172.17V171.273H568.049V172.17C568.049 174.411 565.192 176.274 562.371 176.67L562.934 177.795C565.368 177.391 567.768 176.063 568.77 174.13C569.771 176.046 572.18 177.391 574.605 177.795L575.168 176.67C572.347 176.274 569.481 174.376 569.473 172.17ZM561.633 180.678H568.049V186.338H569.402V180.678H575.871V179.518H561.633V180.678ZM584.845 172.662V172.627H589.802V171.502H578.13V172.627H583.052V172.662C583.061 174.587 580.459 176.151 577.708 176.529L578.218 177.619C580.749 177.25 583.096 175.993 583.949 174.165C584.792 175.993 587.157 177.25 589.679 177.619L590.224 176.529C587.455 176.151 584.836 174.587 584.845 172.662ZM576.812 179.904H583.386V183.104H584.757V179.904H591.12V178.762H576.812V179.904ZM578.64 186.004H589.521V184.844H580.029V181.539H578.64V186.004ZM604.964 170.711H603.593V172.961H599.901V171.449H598.548V173.699H594.188V171.449H592.817V178.252H599.901V176.881H603.593V178.885H604.964V170.711ZM594.188 177.127V174.789H598.548V177.127H594.188ZM594.839 180.748H603.593V182.26H594.874V186.127H605.561V185.02H596.245V183.314H604.964V179.641H594.839V180.748ZM599.901 175.791V174.033H603.593V175.791H599.901ZM620.732 172.398H616.759V170.641H615.388V172.398H611.415V173.523H620.732V172.398ZM612.312 177.162C612.303 178.858 613.815 179.966 616.074 179.975C618.315 179.966 619.818 178.858 619.835 177.162C619.818 175.439 618.315 174.35 616.074 174.332C613.815 174.35 612.303 175.439 612.312 177.162ZM613.367 182.471H622.226V186.338H623.597V181.346H613.367V182.471ZM613.63 177.162C613.622 176.099 614.597 175.413 616.074 175.404C617.533 175.413 618.517 176.099 618.535 177.162C618.517 178.199 617.533 178.876 616.074 178.867C614.597 178.876 613.622 178.199 613.63 177.162ZM622.226 180.484H623.597V176.213H625.953V175.053H623.597V170.711H622.226V180.484ZM629.759 180.098H628.387V186.127H638.952V180.098H637.563V181.926H629.759V180.098ZM626.577 178.99H640.815V177.848H626.577V178.99ZM627.386 175.633L627.913 176.74C630.321 176.38 632.712 175.158 633.705 173.4C634.698 175.149 637.08 176.38 639.497 176.74L640.007 175.633C637.256 175.281 634.408 173.55 634.417 171.625V170.887H632.993V171.625C632.993 173.611 630.172 175.255 627.386 175.633ZM629.759 185.02V183.016H637.563V185.02H629.759ZM658.394 171.484H647.636V172.609H657.041V172.785C657.041 173.277 657.032 173.787 657.014 174.332L647.25 174.648L647.443 175.826L656.953 175.378C656.9 176.116 656.794 176.934 656.601 177.848L657.972 177.971C658.403 175.826 658.403 174.235 658.394 172.785V171.484ZM645.949 180.15H660.169V179.025H653.138V176.723H651.75V179.025H645.949V180.15ZM647.759 186.092H658.763V184.967H649.148V181.486H647.759V186.092ZM674.399 170.729H673.081V182.436H674.399V170.729ZM661.866 179.834H662.85C665.382 179.834 666.858 179.755 668.669 179.395L668.528 178.27C666.849 178.621 665.452 178.674 663.184 178.691V176.406H667.175V175.316H663.184V173.154H667.825V172.012H661.866V179.834ZM664.204 186.004H674.874V184.844H665.61V181.135H664.204V186.004ZM667.913 176.283H670.022V182.031H671.358V171.045H670.022V175.176H667.913V176.283ZM690.633 183.174H676.324V184.334H690.633V183.174ZM677.203 179.43L677.748 180.555C680.218 180.045 682.477 178.7 683.452 176.661C684.437 178.7 686.687 180.045 689.156 180.555L689.719 179.43C686.739 178.894 684.156 176.96 684.164 174.367H689.262V173.242H684.129V171.098H682.776V173.242H677.66V174.367H682.758C682.749 176.96 680.156 178.894 677.203 179.43Z" fill="white"/>
<path d="M170.291 490.797H168.902V494.875H165.756V496.018H168.902V500.113H170.291V490.797ZM157.406 498.865L158.127 499.973C159.99 499.261 161.44 497.802 162.108 495.974C162.785 497.582 164.147 498.9 165.896 499.533L166.617 498.426C164.332 497.644 162.767 495.701 162.767 493.662V493.1H166.265V491.939H157.845V493.1H161.379V493.68C161.379 495.912 159.726 498.03 157.406 498.865ZM159.867 503.506C159.858 505.352 161.853 506.406 165.105 506.424C168.348 506.406 170.344 505.352 170.344 503.506C170.344 501.669 168.348 500.597 165.105 500.605C161.853 500.597 159.858 501.669 159.867 503.506ZM161.238 503.506C161.229 502.363 162.706 501.678 165.105 501.678C167.496 501.678 168.972 502.363 168.972 503.506C168.972 504.64 167.496 505.325 165.105 505.316C162.706 505.325 161.229 504.64 161.238 503.506ZM184.732 490.814H183.343V501.291H184.732V496.703H187.069V495.543H184.732V490.814ZM172.462 499.691L172.62 500.816C175.371 500.825 179.107 500.799 182.499 500.201L182.376 499.199C181.005 499.401 179.528 499.524 178.069 499.595V498.496C179.88 498.32 181.023 497.485 181.04 496.193C181.023 494.77 179.581 493.891 177.366 493.891C175.169 493.891 173.701 494.77 173.71 496.193C173.701 497.494 174.879 498.329 176.698 498.496V499.647C175.169 499.691 173.71 499.691 172.462 499.691ZM172.849 493.293H181.901V492.238H178.069V490.674H176.698V492.238H172.849V493.293ZM174.378 503.172H183.343V506.424H184.732V502.064H174.378V503.172ZM175.028 496.193C175.02 495.367 175.925 494.857 177.366 494.875C178.808 494.857 179.722 495.367 179.722 496.193C179.722 497.011 178.808 497.564 177.366 497.547C175.925 497.564 175.02 497.011 175.028 496.193ZM199.946 490.814H198.575V502.521H199.946V497.125H202.301V495.965H199.946V490.814ZM187.764 493.855H197.081V492.73H193.108V490.814H191.737V492.73H187.764V493.855ZM188.661 497.635C188.652 499.393 190.164 500.526 192.422 500.518C194.655 500.526 196.166 499.393 196.184 497.635C196.166 495.859 194.655 494.717 192.422 494.717C190.164 494.717 188.652 495.859 188.661 497.635ZM189.979 497.635C189.97 496.519 190.946 495.798 192.422 495.807C193.881 495.798 194.866 496.519 194.883 497.635C194.866 498.733 193.881 499.445 192.422 499.428C190.946 499.445 189.97 498.733 189.979 497.635ZM190.172 506.09H200.666V504.93H191.526V501.59H190.172V506.09ZM216.435 492.484H212.462V490.727H211.091V492.484H207.118V493.609H216.435V492.484ZM208.015 497.248C208.006 498.944 209.518 500.052 211.777 500.061C214.018 500.052 215.521 498.944 215.538 497.248C215.521 495.525 214.018 494.436 211.777 494.418C209.518 494.436 208.006 495.525 208.015 497.248ZM209.07 502.557H217.929V506.424H219.3V501.432H209.07V502.557ZM209.333 497.248C209.324 496.185 210.3 495.499 211.777 495.49C213.236 495.499 214.22 496.185 214.238 497.248C214.22 498.285 213.236 498.962 211.777 498.953C210.3 498.962 209.324 498.285 209.333 497.248ZM217.929 500.57H219.3V496.299H221.655V495.139H219.3V490.797H217.929V500.57ZM225.461 500.184H224.09V506.213H234.655V500.184H233.266V502.012H225.461V500.184ZM222.28 499.076H236.518V497.934H222.28V499.076ZM223.088 495.719L223.616 496.826C226.024 496.466 228.415 495.244 229.408 493.486C230.401 495.235 232.783 496.466 235.2 496.826L235.71 495.719C232.959 495.367 230.111 493.636 230.12 491.711V490.973H228.696V491.711C228.696 493.697 225.875 495.341 223.088 495.719ZM225.461 505.105V503.102H233.266V505.105H225.461ZM243.101 494.154V493.24H246.705V492.115H238.057V493.24H241.713V494.154C241.704 496.369 240.052 498.399 237.705 499.217L238.426 500.324C240.289 499.639 241.757 498.232 242.434 496.457C243.145 498.101 244.587 499.384 246.406 500.008L247.109 498.9C244.771 498.162 243.11 496.264 243.101 494.154ZM240.289 506.09H250.871V504.93H241.66V501.186H240.289V506.09ZM249.008 502.275H250.379V490.814H249.008V502.275ZM264.89 490.797H263.519V502.117H264.89V496.615H267.263V495.455H264.89V490.797ZM253.411 499.34H254.624C257.911 499.34 259.775 499.234 261.972 498.812L261.796 497.67C259.704 498.092 257.92 498.188 254.783 498.18V493.311H260.372V492.15H253.411V499.34ZM255.116 506.09H265.611V504.93H256.47V500.975H255.116V506.09ZM270.436 503.822H268.731L267.764 508.604H269.065L270.436 503.822ZM169.316 518.869H162.091V525.549H169.316V518.869ZM163.005 532.299L163.532 533.354C165.809 532.984 167.874 531.868 168.753 530.295C169.658 531.859 171.724 532.993 174.009 533.371L174.519 532.299C171.97 531.895 169.632 530.436 169.483 528.766H173.921V527.641H163.62V528.766H168.041C167.883 530.471 165.589 531.895 163.005 532.299ZM163.444 524.424V519.994H167.98V524.424H163.444ZM172.269 526.727H173.64V522.719H175.995V521.559H173.64V517.797H172.269V526.727ZM190.858 525.531H176.62V526.656H183.053V528.379H178.36V533.213H189.118V528.379H184.407V526.656H190.858V525.531ZM177.446 523.562L177.868 524.6C180.46 524.336 182.781 523.431 183.739 521.875C184.688 523.431 187.008 524.336 189.61 524.6L190.014 523.562C187.087 523.299 184.591 522.121 184.495 520.381H189.416V519.273H184.407V517.709H183.053V519.273H178.096V520.381H182.983C182.869 522.121 180.39 523.299 177.446 523.562ZM179.731 532.088V529.486H187.764V532.088H179.731ZM201.168 519.484H197.195V517.727H195.824V519.484H191.851V520.609H201.168V519.484ZM192.748 524.248C192.739 525.944 194.251 527.052 196.51 527.061C198.751 527.052 200.254 525.944 200.271 524.248C200.254 522.525 198.751 521.436 196.51 521.418C194.251 521.436 192.739 522.525 192.748 524.248ZM193.803 529.557H202.662V533.424H204.033V528.432H193.803V529.557ZM194.066 524.248C194.057 523.185 195.033 522.499 196.51 522.49C197.969 522.499 198.953 523.185 198.971 524.248C198.953 525.285 197.969 525.962 196.51 525.953C195.033 525.962 194.057 525.285 194.066 524.248ZM202.662 527.57H204.033V523.299H206.389V522.139H204.033V517.797H202.662V527.57ZM210.195 527.184H208.823V533.213H219.388V527.184H217.999V529.012H210.195V527.184ZM207.013 526.076H221.251V524.934H207.013V526.076ZM207.821 522.719L208.349 523.826C210.757 523.466 213.148 522.244 214.141 520.486C215.134 522.235 217.516 523.466 219.933 523.826L220.443 522.719C217.692 522.367 214.844 520.636 214.853 518.711V517.973H213.429V518.711C213.429 520.697 210.608 522.341 207.821 522.719ZM210.195 532.105V530.102H217.999V532.105H210.195ZM234.154 522.578H232.801V524.635H226.367V525.76H240.605V524.635H234.154V522.578ZM227.158 522.35L227.65 523.404C230.102 523.07 232.493 522.007 233.477 520.293C234.462 522.007 236.844 523.07 239.305 523.404L239.797 522.35C236.949 522.033 234.172 520.539 234.172 518.518V517.92H232.783V518.518C232.783 520.539 230.015 522.033 227.158 522.35ZM228.09 528.133H237.424V529.574H228.125V533.248H239.252V532.158H229.496V530.611H238.777V527.061H228.09V528.133ZM254.115 518.43H243.269V519.555H252.708V521.4H243.304V525.654H254.449V524.512H244.693V522.49H254.115V518.43ZM241.546 528.414H247.98V533.459H249.351V528.414H255.855V527.307H241.546V528.414ZM262.104 520.697V518.693H260.751V520.697C260.742 523.149 259.125 525.391 256.796 526.287L257.551 527.395C259.371 526.639 260.777 525.118 261.445 523.202C262.104 524.978 263.449 526.401 265.163 527.113L265.936 526.041C263.677 525.153 262.104 522.991 262.104 520.697ZM259.608 533.09H270.067V531.93H260.997V528.273H259.608V533.09ZM265.11 524.477H268.327V529.486H269.715V517.814H268.327V520.135H265.11V521.277H268.327V523.352H265.11V524.477Z" fill="white"/>
<path d="M534.984 504.484H531.012V502.727H529.641V504.484H525.668V505.609H534.984V504.484ZM526.564 509.248C526.556 510.944 528.067 512.052 530.326 512.061C532.567 512.052 534.07 510.944 534.088 509.248C534.07 507.525 532.567 506.436 530.326 506.418C528.067 506.436 526.556 507.525 526.564 509.248ZM527.619 514.557H536.479V518.424H537.85V513.432H527.619V514.557ZM527.883 509.248C527.874 508.185 528.85 507.499 530.326 507.49C531.785 507.499 532.77 508.185 532.787 509.248C532.77 510.285 531.785 510.962 530.326 510.953C528.85 510.962 527.874 510.285 527.883 509.248ZM536.479 512.57H537.85V508.299H540.205V507.139H537.85V502.797H536.479V512.57ZM544.011 512.184H542.64V518.213H553.204V512.184H551.816V514.012H544.011V512.184ZM540.829 511.076H555.068V509.934H540.829V511.076ZM541.638 507.719L542.165 508.826C544.574 508.466 546.964 507.244 547.957 505.486C548.951 507.235 551.332 508.466 553.749 508.826L554.259 507.719C551.508 507.367 548.661 505.636 548.669 503.711V502.973H547.245V503.711C547.245 505.697 544.424 507.341 541.638 507.719ZM544.011 517.105V515.102H551.816V517.105H544.011ZM568.129 504.432H561.045V505.574H566.767C566.696 506.541 566.538 507.464 566.248 508.343L560.254 508.738L560.5 509.934L565.826 509.433C564.851 511.542 563.075 513.344 560.201 514.785L560.992 515.84C566.512 513.071 568.111 508.94 568.129 504.432ZM568.076 510.232H571.75V518.424H573.121V502.797H571.75V509.09H568.076V510.232ZM588.283 502.797H586.912V518.459H588.283V502.797ZM576.259 505.398H582.148V508.686H576.294V514.662H577.595C580.293 514.662 582.666 514.548 585.54 514.1L585.4 512.939C582.605 513.388 580.293 513.511 577.701 513.502V509.811H583.537V504.256H576.259V505.398ZM603.005 503.482H592.387V504.59H601.634V504.66C601.634 505.108 601.642 505.574 601.616 506.075L592.018 506.365L592.194 507.508L601.554 507.077C601.493 507.666 601.396 508.316 601.247 509.037H590.595V510.162H594.409V511.85H592.264V512.922H601.757V514.434H592.3V518.213H603.673V517.105H593.671V515.471H603.128V511.85H600.983V510.162H604.815V509.037H602.627C603.005 507.227 603.005 505.829 603.005 504.66V503.482ZM595.78 511.85V510.162H599.612V511.85H595.78ZM618.729 512.869H608.445V518.213H618.729V512.869ZM606.406 504.748H612.031V506.857H606.442V511.34H607.619C610.326 511.357 612.339 511.278 614.791 510.9L614.668 509.74C612.321 510.118 610.388 510.206 607.813 510.197V507.93H613.367V503.605H606.406V504.748ZM609.817 517.088V513.941H617.358V517.088H609.817ZM614.369 507.473H617.34V511.99H618.729V502.814H617.34V506.33H614.369V507.473ZM634.365 502.797H633.029V518.424H634.365V502.797ZM621.164 509.547C621.172 512.869 622.491 514.987 624.521 514.979C626.446 514.987 627.755 513.08 627.887 510.039H629.9V517.633H631.218V503.131H629.9V508.896H627.878C627.703 505.952 626.419 504.124 624.521 504.115C622.491 504.124 621.172 506.225 621.164 509.547ZM622.464 509.547C622.447 507.007 623.255 505.416 624.521 505.416C625.795 505.416 626.604 507.007 626.595 509.547C626.604 512.078 625.795 513.678 624.521 513.66C623.255 513.678 622.447 512.078 622.464 509.547ZM531.557 538.041H530.203V540.977C528.577 541.029 527.03 541.038 525.721 541.047L525.914 542.189C528.727 542.198 532.567 542.172 536.145 541.521L536.039 540.502C534.598 540.722 533.068 540.845 531.557 540.924V538.041ZM526.195 537.496L526.863 538.551C528.744 537.979 530.203 536.731 530.88 535.062C531.583 536.644 533.06 537.848 534.932 538.41L535.582 537.32C533.271 536.661 531.601 535.009 531.557 532.996H535.23V531.854H531.557V529.92H530.203V531.854H526.582V532.996H530.168C530.133 535.097 528.507 536.811 526.195 537.496ZM537.076 545.459H538.447V529.797H537.076V545.459ZM546.261 532.68V532.012H549.759V530.887H541.339V532.012H544.872V532.697C544.872 534.903 543.203 536.986 540.9 537.812L541.62 538.902C543.475 538.217 544.925 536.775 545.602 534.982C546.27 536.591 547.632 537.9 549.39 538.533L550.111 537.443C547.826 536.652 546.261 534.71 546.261 532.68ZM543.273 541.135H552.396V545.424H553.785V539.992H543.273V541.135ZM549.267 535.053H552.396V539.166H553.785V529.797H552.396V533.893H549.267V535.053ZM568.155 529.797H566.766V545.424H568.155V537.619H570.651V536.459H568.155V529.797ZM555.833 541.258L556.061 542.436C558.803 542.436 562.495 542.4 565.905 541.82L565.817 540.766C564.455 540.959 562.978 541.082 561.528 541.152V539.482C563.339 539.271 564.543 538.208 564.551 536.652C564.543 534.886 563.022 533.743 560.843 533.752C558.628 533.743 557.134 534.886 557.151 536.652C557.134 538.199 558.32 539.271 560.139 539.482V541.205C558.593 541.249 557.107 541.258 555.833 541.258ZM556.114 532.838H565.536V531.713H561.528V529.832H560.139V531.713H556.114V532.838ZM558.434 536.652C558.443 535.562 559.392 534.824 560.843 534.824C562.266 534.824 563.224 535.562 563.233 536.652C563.224 537.733 562.266 538.445 560.843 538.428C559.392 538.445 558.443 537.733 558.434 536.652ZM580.311 534.93H574.106V531.959H580.188V530.816H572.717V536.055H575.775V538.296C574.202 538.349 572.664 538.366 571.293 538.375L571.504 539.5C574.44 539.5 578.157 539.403 581.524 538.938L581.418 537.918C580.065 538.067 578.606 538.173 577.147 538.234V536.055H580.311V534.93ZM573.965 545.09H584.617V543.93H575.336V540.695H573.965V545.09ZM582.719 541.504H584.107V529.814H582.719V541.504ZM599.929 531.484H595.956V529.727H594.585V531.484H590.612V532.609H599.929V531.484ZM591.509 536.248C591.5 537.944 593.012 539.052 595.27 539.061C597.512 539.052 599.014 537.944 599.032 536.248C599.014 534.525 597.512 533.436 595.27 533.418C593.012 533.436 591.5 534.525 591.509 536.248ZM592.563 541.557H601.423V545.424H602.794V540.432H592.563V541.557ZM592.827 536.248C592.818 535.185 593.794 534.499 595.27 534.49C596.729 534.499 597.714 535.185 597.731 536.248C597.714 537.285 596.729 537.962 595.27 537.953C593.794 537.962 592.818 537.285 592.827 536.248ZM601.423 539.57H602.794V535.299H605.149V534.139H602.794V529.797H601.423V539.57ZM618.658 529.814H617.27V539.061H614.035V540.062H617.27V541.68H618.658V529.814ZM605.686 537.057L605.879 538.182C607.189 538.182 608.692 538.182 610.274 538.12V541.135H611.662V538.05C613.095 537.962 614.563 537.821 615.951 537.602L615.863 536.6C612.515 537.013 608.595 537.039 605.686 537.057ZM606.951 533.172C606.943 534.842 608.507 535.879 610.819 535.879C613.112 535.879 614.677 534.842 614.686 533.172C614.677 531.528 613.112 530.447 610.819 530.447C608.507 530.447 606.943 531.528 606.951 533.172ZM607.936 545.09H619.045V543.93H609.324V540.52H607.936V545.09ZM608.27 533.172C608.252 532.17 609.289 531.484 610.819 531.502C612.304 531.484 613.359 532.17 613.367 533.172C613.359 534.191 612.304 534.851 610.819 534.859C609.289 534.851 608.252 534.191 608.27 533.172ZM633.02 530.869H625.796V537.549H633.02V530.869ZM626.71 544.299L627.237 545.354C629.514 544.984 631.579 543.868 632.458 542.295C633.363 543.859 635.429 544.993 637.714 545.371L638.224 544.299C635.675 543.895 633.337 542.436 633.187 540.766H637.626V539.641H627.325V540.766H631.746C631.588 542.471 629.294 543.895 626.71 544.299ZM627.149 536.424V531.994H631.684V536.424H627.149ZM635.974 538.727H637.345V534.719H639.7V533.559H637.345V529.797H635.974V538.727ZM654.563 537.531H640.324V538.656H646.758V540.379H642.065V545.213H652.823V540.379H648.112V538.656H654.563V537.531ZM641.151 535.562L641.573 536.6C644.165 536.336 646.486 535.431 647.444 533.875C648.393 535.431 650.713 536.336 653.315 536.6L653.719 535.562C650.792 535.299 648.296 534.121 648.199 532.381H653.121V531.273H648.112V529.709H646.758V531.273H641.801V532.381H646.688C646.573 534.121 644.095 535.299 641.151 535.562ZM643.436 544.088V541.486H651.469V544.088H643.436ZM534.984 558.484H531.012V556.727H529.641V558.484H525.668V559.609H534.984V558.484ZM526.564 563.248C526.556 564.944 528.067 566.052 530.326 566.061C532.567 566.052 534.07 564.944 534.088 563.248C534.07 561.525 532.567 560.436 530.326 560.418C528.067 560.436 526.556 561.525 526.564 563.248ZM527.619 568.557H536.479V572.424H537.85V567.432H527.619V568.557ZM527.883 563.248C527.874 562.185 528.85 561.499 530.326 561.49C531.785 561.499 532.77 562.185 532.787 563.248C532.77 564.285 531.785 564.962 530.326 564.953C528.85 564.962 527.874 564.285 527.883 563.248ZM536.479 566.57H537.85V562.299H540.205V561.139H537.85V556.797H536.479V566.57ZM544.011 566.184H542.64V572.213H553.204V566.184H551.816V568.012H544.011V566.184ZM540.829 565.076H555.068V563.934H540.829V565.076ZM541.638 561.719L542.165 562.826C544.574 562.466 546.964 561.244 547.957 559.486C548.951 561.235 551.332 562.466 553.749 562.826L554.259 561.719C551.508 561.367 548.661 559.636 548.669 557.711V556.973H547.245V557.711C547.245 559.697 544.424 561.341 541.638 561.719ZM544.011 571.105V569.102H551.816V571.105H544.011ZM561.528 560.998V558.15H560.122V560.998C560.113 563.881 558.302 566.887 556.009 568.012L556.905 569.119C558.68 568.179 560.148 566.175 560.843 563.837C561.537 566.061 563.005 567.924 564.78 568.838L565.606 567.713C563.339 566.676 561.519 563.828 561.528 560.998ZM563.901 563.266H567.61V572.459H568.981V556.797H567.61V562.141H563.901V563.266Z" fill="#949494"/>
<defs>
<filter id="filter0_d_3307_2251" x="98" y="0" width="639.714" height="641.164" filterUnits="userSpaceOnUse" color-interpolation-filters="sRGB">
<feFlood flood-opacity="0" result="BackgroundImageFix"/>
<feColorMatrix in="SourceAlpha" type="matrix" values="0 0 0 0 0 0 0 0 0 0 0 0 0 0 0 0 0 0 127 0" result="hardAlpha"/>
<feOffset dy="4"/>
<feGaussianBlur stdDeviation="2"/>
<feComposite in2="hardAlpha" operator="out"/>
<feColorMatrix type="matrix" values="0 0 0 0 0 0 0 0 0 0 0 0 0 0 0 0 0 0 0.25 0"/>
<feBlend mode="normal" in2="BackgroundImageFix" result="effect1_dropShadow_3307_2251"/>
<feBlend mode="normal" in="SourceGraphic" in2="effect1_dropShadow_3307_2251" result="shape"/>
</filter>
</defs>
</svg>
