<svg width="320" height="599" viewBox="0 0 320 599" fill="none" xmlns="http://www.w3.org/2000/svg">
    <rect width="320" height="143" rx="20" fill="#5E585A"/>
    <rect y="152" width="320" height="143" rx="20" fill="#0068B7"/>
    <rect y="304" width="320" height="143" rx="20" fill="#F3F3F3"/>
    <rect y="456" width="320" height="143" rx="20" fill="#9CAFB3"/>
    <path d="M61.8796 112.233C64.6083 112.233 66.8204 109.705 66.8204 106.587C66.8204 103.468 64.6083 100.94 61.8796 100.94C59.1509 100.94 56.9388 103.468 56.9388 106.587C56.9388 109.705 59.1509 112.233 61.8796 112.233Z" stroke="#BCBCBC" stroke-width="1.41165" stroke-miterlimit="10"/>
    <path d="M54.8214 125.644V118.586C54.8214 116.637 56.4017 115.056 58.3505 115.056H65.4087C67.3575 115.056 68.9379 116.637 68.9379 118.586V125.644" stroke="#BCBCBC" stroke-width="1.41165" stroke-miterlimit="10"/>
    <path d="M32.2349 107.998V106.586C32.2349 105.417 33.1828 104.469 34.3524 104.469H38.5874C39.7569 104.469 40.7048 105.417 40.7048 106.586V107.998" stroke="#BCBCBC" stroke-width="1.41165" stroke-miterlimit="10"/>
    <path d="M36.4699 101.646C38.0292 101.646 39.2932 100.224 39.2932 98.4694C39.2932 96.7153 38.0292 95.2932 36.4699 95.2932C34.9106 95.2932 33.6466 96.7153 33.6466 98.4694C33.6466 100.224 34.9106 101.646 36.4699 101.646Z" stroke="#BCBCBC" stroke-width="1.41165" stroke-miterlimit="10"/>
    <path d="M59.5574 91.0583H61.1738C62.3433 91.0583 63.2913 92.0063 63.2913 93.1758V98.8224" stroke="#BCBCBC" stroke-width="1.41165" stroke-miterlimit="10"/>
    <path d="M52.7039 116.468H31.5291C30.3595 116.468 29.4116 115.52 29.4116 114.351V93.1758C29.4116 92.0063 30.3595 91.0583 31.5291 91.0583H43.5281" stroke="#BCBCBC" stroke-width="1.41165" stroke-miterlimit="10"/>
    <path d="M47.0573 112.939H45.6456V114.351H47.0573V112.939Z" fill="#BCBCBC"/>
    <path d="M49.8806 112.939H48.4689V114.351H49.8806V112.939Z" fill="#BCBCBC"/>
    <path d="M44.234 112.939H42.8223V114.351H44.234V112.939Z" fill="#BCBCBC"/>
    <path d="M44.0279 116.468L41.6168 121.409" stroke="#BCBCBC" stroke-width="1.41165" stroke-miterlimit="10"/>
    <path d="M48.675 116.468L51.0861 121.409" stroke="#BCBCBC" stroke-width="1.41165" stroke-miterlimit="10"/>
    <path d="M52.7038 121.409H39.2932" stroke="#BCBCBC" stroke-width="1.41165" stroke-miterlimit="10"/>
    <path d="M37.8815 121.409H36.4698" stroke="#BCBCBC" stroke-width="1.41165" stroke-miterlimit="10"/>
    <path d="M29.4116 110.822H55.5272" stroke="#BCBCBC" stroke-width="1.41165" stroke-miterlimit="10"/>
    <path d="M53.4097 93.1759H47.3551L43.5281 95.117V86.1177C43.5281 85.7281 43.8443 85.4119 44.234 85.4119H53.4097C53.7993 85.4119 54.1155 85.7281 54.1155 86.1177V92.4701C54.1155 92.8597 53.7993 93.1759 53.4097 93.1759Z" stroke="#BCBCBC" stroke-width="1.41165" stroke-miterlimit="10"/>
    <path d="M49.1747 93.1759V95.2934C49.1747 95.683 49.491 95.9992 49.8806 95.9992H55.9351L59.7621 97.9402V88.9409C59.7621 88.5513 59.4459 88.2351 59.0563 88.2351H54.1127" stroke="#BCBCBC" stroke-width="1.41165" stroke-miterlimit="10"/>
    <path d="M35.4463 44.2441C39.3647 44.2441 41.623 40.9482 41.623 35.1621C41.623 29.4248 39.3281 26.0801 35.4463 26.0801C31.5522 26.0801 29.2573 29.4248 29.2695 35.1621C29.2573 40.9482 31.5278 44.2441 35.4463 44.2441ZM31.3936 35.1621C31.4058 30.5845 32.9072 27.9966 35.4463 27.9844C37.9854 27.9966 39.4868 30.5845 39.4746 35.1621C39.4868 39.7397 37.9976 42.291 35.4463 42.291C32.8828 42.291 31.4058 39.7397 31.3936 35.1621ZM50.3027 26.3242H48.0811L43.6865 29.2539V31.4756L47.9834 28.6191H48.0811V44H50.3027V26.3242Z" fill="white"/>
    <path d="M109.719 36.1719C112.289 36.1641 113.883 34.4062 113.891 31.7812C113.883 29.1641 112.289 27.4062 109.719 27.4062C107.156 27.4062 105.555 29.1641 105.562 31.7812C105.555 34.4062 107.156 36.1641 109.719 36.1719ZM107.906 31.7812C107.906 30.2891 108.523 29.1719 109.734 29.1719C110.914 29.1719 111.539 30.2891 111.531 31.7812C111.539 33.2656 110.914 34.3672 109.734 34.375C108.523 34.3672 107.906 33.2656 107.906 31.7812ZM117.336 31.0938C117.336 29.9766 118 29.3281 118.961 29.3281C119.922 29.3281 120.485 29.9531 120.493 31V36H122.789V30.5938C122.797 28.6172 121.641 27.4062 119.868 27.4062C118.61 27.4062 117.703 28.0234 117.321 29H117.227V27.5156H115.024V36H117.336V31.0938ZM129.532 30.4219H124.376V32.2656H129.532V30.4219ZM134.946 36.1719C137.517 36.1641 139.11 34.4062 139.118 31.7812C139.11 29.1641 137.517 27.4062 134.946 27.4062C132.384 27.4062 130.782 29.1641 130.79 31.7812C130.782 34.4062 132.384 36.1641 134.946 36.1719ZM133.134 31.7812C133.134 30.2891 133.751 29.1719 134.962 29.1719C136.142 29.1719 136.767 30.2891 136.759 31.7812C136.767 33.2656 136.142 34.3672 134.962 34.375C133.751 34.3672 133.134 33.2656 133.134 31.7812ZM144.767 27.5156H143.079V27C143.079 26.2891 143.478 26.0078 144.22 26C144.345 26.0078 144.587 26.0156 144.923 26.0469V24.2969C144.517 24.2031 144.072 24.1562 143.548 24.1562C141.845 24.1562 140.767 25.0859 140.767 26.875V27.5156H139.564V29.25H140.767V36H143.079V29.25H144.767V27.5156ZM150.322 27.5156H148.634V27C148.634 26.2891 149.033 26.0078 149.775 26C149.9 26.0078 150.142 26.0156 150.478 26.0469V24.2969C150.072 24.2031 149.627 24.1562 149.103 24.1562C147.4 24.1562 146.322 25.0859 146.322 26.875V27.5156H145.119V29.25H146.322V36H148.634V29.25H150.322V27.5156ZM112.906 47.0938V46.0625H110.781V47.0938C110.766 49.1562 108.914 51.3906 105.75 51.9531L106.609 53.6094C109.07 53.1094 110.914 51.7031 111.852 49.8984C112.773 51.7188 114.609 53.1172 117.094 53.6094L117.969 51.9531C114.75 51.4062 112.898 49.1797 112.906 47.0938ZM105.422 57.6875H118.438V56.0469H105.422V57.6875ZM126.211 46.5625H119.383V55.9688H126.211V46.5625ZM121.352 54.3906V48.125H124.227V54.3906H121.352ZM128.149 59.4375H130.149V52.2344H132.243V50.5781H130.149V45.2188H128.149V59.4375ZM144.032 52.5625H136.001V50.9375H143.594V49.375H136.001V47.875H143.923V46.2656H133.969V54.1406H144.032V52.5625ZM132.438 57.7812H145.454V56.1562H132.438V57.7812ZM161.298 45.2188H159.314V50.3438H157.017V51.9688H159.314V59.4688H161.298V45.2188ZM149.783 48.0156H154.283V50.1562H149.814V56.1562H150.986C153.368 56.1641 155.298 56.0859 157.408 55.7344L157.251 54.1094C155.415 54.4297 153.759 54.5 151.798 54.5156V51.7344H156.22V46.4062H149.783V48.0156ZM174.681 45.2188H172.697V53.4688H174.681V45.2188ZM163.634 52.6562H164.869C167.166 52.6641 169.423 52.5156 171.775 52.0156L171.541 50.4062C169.517 50.8281 167.595 50.9844 165.634 51.0234V46.1094H163.634V52.6562ZM164.947 56.5625C164.939 58.3516 166.845 59.4453 169.853 59.4375C172.853 59.4453 174.736 58.3516 174.744 56.5625C174.736 54.7266 172.853 53.6406 169.853 53.6406C166.845 53.6406 164.939 54.7266 164.947 56.5625ZM166.931 56.5625C166.931 55.6719 167.955 55.25 169.853 55.25C171.736 55.25 172.736 55.6719 172.744 56.5625C172.736 57.4062 171.736 57.8594 169.853 57.8594C167.955 57.8594 166.931 57.4062 166.931 56.5625Z" fill="white"/>
    <path d="M117.393 92.1074H112.031V90.7451C114.5 90.6133 116.052 89.6758 116.06 88.1377C116.052 86.5337 114.258 85.5669 111.46 85.5596C108.633 85.5669 106.846 86.5337 106.846 88.1377C106.846 89.6758 108.391 90.6133 110.889 90.7451V92.1074H105.527V93.0596H117.393V92.1074ZM107.065 97.9082H116.074V96.9414H108.223V94.1143H107.065V97.9082ZM108.032 88.1377C108.025 87.1416 109.358 86.4971 111.46 86.4971C113.547 86.4971 114.88 87.1416 114.888 88.1377C114.88 89.1997 113.547 89.8076 111.46 89.8076C109.358 89.8076 108.025 89.1997 108.032 88.1377ZM123.033 93.3086C123.553 93.3013 123.978 92.8765 123.97 92.3564C123.978 91.8438 123.553 91.4189 123.033 91.4189C122.52 91.4189 122.081 91.8438 122.095 92.3564C122.081 92.8765 122.52 93.3013 123.033 93.3086ZM131.097 86.0137C128.336 86.0283 126.336 87.376 126.336 89.4268C126.336 91.3604 128.065 92.6421 130.526 92.8179V95.5498H125.164V96.5166H137.088V95.5498H131.654V92.8179C134.129 92.6494 135.858 91.3677 135.858 89.4268C135.858 87.376 133.866 86.0283 131.097 86.0137ZM127.45 89.4268C127.442 87.9546 128.988 86.9585 131.097 86.9658C133.206 86.9585 134.745 87.9546 134.745 89.4268C134.745 90.9282 133.206 91.9023 131.097 91.917C128.988 91.9023 127.442 90.9282 127.45 89.4268ZM149.752 95.5352H137.828V96.5166H149.752V95.5352ZM138.883 87.4346H140.948V91.9902H138.912V92.9277H148.58V91.9902H146.544V87.4346H148.61V86.4824H138.883V87.4346ZM142.091 91.9902V87.4346H145.416V91.9902H142.091ZM160.57 85.1641H159.428V98.2158H160.57V91.3164H162.753V90.3496H160.57V85.1641ZM151.005 87.332H155.78V90.0859H151.034V95.0664H152.074C154.586 95.0518 156.322 94.9565 158.373 94.583L158.256 93.6309C156.286 93.9971 154.594 94.0923 152.177 94.085V91.0381H156.923V86.3799H151.005V87.332ZM173.908 85.1787H172.765V94.7002H173.908V85.1787ZM163.464 89.2803C163.456 91.1772 164.929 92.4956 166.877 92.4883C168.825 92.4956 170.283 91.1772 170.29 89.2803C170.283 87.4053 168.825 86.0942 166.877 86.0869C164.929 86.0942 163.456 87.4053 163.464 89.2803ZM164.592 89.2803C164.577 88.0059 165.558 87.0977 166.877 87.0977C168.173 87.0977 169.162 88.0059 169.162 89.2803C169.162 90.5767 168.173 91.4775 166.877 91.4775C165.558 91.4775 164.577 90.5767 164.592 89.2803ZM165.5 97.9082H174.318V96.9414H166.642V93.7334H165.5V97.9082ZM186.982 85.1641H185.869V98.1865H186.982V85.1641ZM175.981 90.7891C175.988 93.5576 177.087 95.3228 178.779 95.3154C180.383 95.3228 181.474 93.7334 181.584 91.1992H183.261V97.5273H184.36V85.4424H183.261V90.2471H181.577C181.43 87.7935 180.361 86.27 178.779 86.2627C177.087 86.27 175.988 88.0205 175.981 90.7891ZM177.065 90.7891C177.05 88.6724 177.724 87.3467 178.779 87.3467C179.841 87.3467 180.515 88.6724 180.507 90.7891C180.515 92.8984 179.841 94.2314 178.779 94.2168C177.724 94.2314 177.05 92.8984 177.065 90.7891ZM193.069 88.665V86.292H191.897V88.665C191.89 91.0674 190.381 93.5723 188.469 94.5098L189.216 95.4326C190.696 94.6489 191.919 92.979 192.497 91.0308C193.076 92.8838 194.299 94.4365 195.779 95.1982L196.467 94.2607C194.578 93.3965 193.061 91.0234 193.069 88.665ZM195.046 90.5547H198.137V98.2158H199.28V85.1641H198.137V89.6172H195.046V90.5547ZM205.41 86.1162C203.352 86.1235 201.887 87.3687 201.895 89.1777C201.887 90.9941 203.352 92.2319 205.41 92.2393C207.454 92.2319 208.904 90.9941 208.911 89.1777C208.904 87.3687 207.454 86.1235 205.41 86.1162ZM201.221 94.3633L201.382 95.3447C203.726 95.3447 206.926 95.3301 209.907 94.7734L209.82 93.9238C206.941 94.3486 203.623 94.3706 201.221 94.3633ZM203.023 89.1777C203.015 87.9692 204.019 87.127 205.41 87.127C206.787 87.127 207.791 87.9692 207.783 89.1777C207.791 90.3936 206.787 91.2285 205.41 91.2285C204.019 91.2285 203.015 90.3936 203.023 89.1777ZM210.684 98.2158H211.826V85.1641H210.684V98.2158ZM107.358 109.102H106.216V115.518H112.339V109.102H111.196V111.284H107.358V109.102ZM107.358 114.595V112.192H111.196V114.595H107.358ZM107.783 120.908H116.587V119.941H108.94V116.821H107.783V120.908ZM115.137 117.788H116.279V108.179H115.137V117.788ZM130.056 114.917H118.177V115.869H130.056V114.917ZM119.641 121.011H128.606V117.056H119.641V121.011ZM119.759 113.745H128.65V112.822H120.916V111.533H128.225V110.64H120.916V109.438H128.577V108.516H119.759V113.745ZM120.784 120.073V117.979H127.478V120.073H120.784ZM136.913 115.811H135.829V121.011H140.355V115.811H139.286V117.437H136.913V115.811ZM134.525 111.738C134.517 113.525 135.924 114.741 137.909 114.741C139.674 114.741 141.014 113.73 141.241 112.192H143.958V115.063H145.116V108.164H143.958V111.24H141.234C140.985 109.739 139.659 108.75 137.909 108.75C135.924 108.75 134.517 109.958 134.525 111.738ZM135.623 111.738C135.623 110.552 136.568 109.717 137.909 109.717C139.22 109.717 140.164 110.552 140.164 111.738C140.164 112.932 139.22 113.782 137.909 113.789C136.568 113.782 135.623 112.932 135.623 111.738ZM136.913 120.103V118.315H139.286V120.103H136.913ZM140.531 120.234L141.131 121.113C142.281 120.623 143.079 119.7 143.49 118.638C143.892 119.714 144.676 120.637 145.877 121.113L146.478 120.234C144.889 119.648 144.061 118.206 144.076 116.836V115.723H142.933V116.836C142.926 118.154 142.098 119.583 140.531 120.234ZM157.516 112.119H149.737V108.647H148.595V113.042H157.516V112.119ZM146.969 115.752H158.893V114.814H146.969V115.752ZM148.522 120.864H157.589V119.912H149.664V117.085H148.522V120.864ZM167.082 108.779C165.178 108.779 163.852 109.805 163.859 111.357C163.852 112.727 164.929 113.701 166.54 113.877V115.195C165.295 115.239 164.108 115.247 163.097 115.239L163.244 116.191C165.492 116.199 168.613 116.155 171.374 115.664L171.286 114.8C170.151 114.968 168.913 115.078 167.697 115.144V113.87C169.264 113.672 170.312 112.705 170.319 111.357C170.312 109.805 168.986 108.779 167.082 108.779ZM164.943 111.357C164.929 110.347 165.815 109.673 167.082 109.673C168.356 109.673 169.228 110.347 169.235 111.357C169.228 112.346 168.356 113.02 167.082 113.027C165.815 113.02 164.929 112.346 164.943 111.357ZM165.002 120.894H173.747V119.927H166.159V117.275H165.002V120.894ZM172.121 118.14H173.278V113.569H175.226V112.588H173.278V108.179H172.121V118.14ZM186.572 108.179H185.415V111.782H182.734V112.734H185.415V117.729H186.572V108.179ZM175.835 115.122L176.435 116.06C177.981 115.481 179.182 114.287 179.746 112.778C180.31 114.126 181.445 115.217 182.91 115.752L183.51 114.829C181.606 114.177 180.302 112.544 180.302 110.859V110.186H183.217V109.233H176.201V110.186H179.145V110.859C179.145 112.727 177.754 114.448 175.835 115.122ZM178.208 120.908H186.938V119.941H179.365V116.865H178.208V120.908ZM202.7 108.179H201.543V110.215H198.159C197.551 109.46 196.599 109.006 195.493 108.999C193.545 109.006 192.102 110.354 192.11 112.266C192.102 114.17 193.545 115.518 195.493 115.518C196.607 115.518 197.573 115.056 198.174 114.287H201.543V117.803H202.7V108.179ZM193.208 112.266C193.208 110.969 194.16 110.032 195.493 110.024C196.775 110.032 197.749 110.969 197.749 112.266C197.749 113.569 196.775 114.5 195.493 114.492C194.16 114.5 193.208 113.569 193.208 112.266ZM194.336 120.908H203.067V119.941H195.493V116.792H194.336V120.908ZM198.679 111.167H201.543V113.335H198.687C198.797 113.005 198.863 112.646 198.863 112.266C198.863 111.87 198.797 111.504 198.679 111.167ZM215.716 108.164H214.617V121.187H215.716V108.164ZM204.554 117.539L205.257 118.374C207.718 116.902 209.146 114.954 209.776 112.749H211.98V115.063H209.563V116.016H211.98V120.527H213.079V108.516H211.98V111.797H210.003C210.12 111.16 210.179 110.5 210.179 109.834H205.14V110.786H209.036C208.809 113.511 207.388 115.862 204.554 117.539ZM225.025 109.57H221.715V108.105H220.572V109.57H217.262V110.508H225.025V109.57ZM218.009 113.54C218.001 114.954 219.261 115.876 221.143 115.884C223.011 115.876 224.263 114.954 224.278 113.54C224.263 112.104 223.011 111.196 221.143 111.182C219.261 111.196 218.001 112.104 218.009 113.54ZM218.887 117.964H226.27V121.187H227.413V117.026H218.887V117.964ZM219.107 113.54C219.1 112.654 219.913 112.083 221.143 112.075C222.359 112.083 223.179 112.654 223.194 113.54C223.179 114.404 222.359 114.968 221.143 114.961C219.913 114.968 219.1 114.404 219.107 113.54ZM226.27 116.309H227.413V112.749H229.376V111.782H227.413V108.164H226.27V116.309ZM232.547 115.986H231.405V121.011H240.209V115.986H239.051V117.51H232.547V115.986ZM229.896 115.063H241.761V114.111H229.896V115.063ZM230.57 112.266L231.009 113.188C233.016 112.888 235.008 111.87 235.836 110.405C236.664 111.863 238.649 112.888 240.663 113.188L241.088 112.266C238.795 111.973 236.422 110.53 236.429 108.926V108.311H235.243V108.926C235.243 110.581 232.892 111.951 230.57 112.266ZM232.547 120.088V118.418H239.051V120.088H232.547Z" fill="white"/>
    <g clip-path="url(#clip0_2_5)">
        <path d="M56.8519 252.175H68.8792C69.8539 252.175 70.6437 251.385 70.6437 250.41C70.6437 249.436 69.8539 248.646 68.8792 248.646H50.1748L48.4102 250.41L50.1748 252.175H53.7039" stroke="#6CC0FF" stroke-width="1.41165" stroke-miterlimit="10"/>
        <path d="M66.7504 263.468C67.8183 260.865 68.5552 258.586 68.5262 255.704V252.175" stroke="#6CC0FF" stroke-width="1.41165" stroke-miterlimit="10"/>
        <path d="M60.7621 247.234V248.646" stroke="#6CC0FF" stroke-width="1.41165" stroke-miterlimit="10"/>
        <path d="M60.7621 252.175L60.7628 255.83C60.7628 256.184 60.4769 256.41 60.1833 256.41C60.0125 256.41 59.8339 256.337 59.7118 256.167L56.2667 251.358C55.9597 250.926 55.4155 250.674 54.824 250.792C54.3017 250.897 53.8648 251.317 53.7434 251.835C53.6544 252.217 53.7201 252.581 53.8909 252.877L57.3974 258.978C58.1223 260.238 59.8502 262.453 60.9527 263.468" stroke="#6CC0FF" stroke-width="1.41165" stroke-miterlimit="10"/>
        <path d="M54.8586 248.646L59.3356 244.998C59.8015 244.618 60.3845 244.411 60.9859 244.411C61.3042 244.411 61.6204 244.47 61.9175 244.584L66.3134 246.266C66.9769 246.52 67.5204 247.014 67.8352 247.651L68.3278 248.646" stroke="#6CC0FF" stroke-width="1.41165" stroke-miterlimit="10"/>
        <path d="M36.8975 238.244L55.2235 234.485L57.7313 246.305" stroke="#6CC0FF" stroke-width="1.41165" stroke-miterlimit="10"/>
        <path d="M58.5211 236.754L59.5135 241.436" stroke="#6CC0FF" stroke-width="1.41165" stroke-miterlimit="10"/>
        <path d="M57.7715 233.216L58.1788 235.136" stroke="#6CC0FF" stroke-width="1.41165" stroke-miterlimit="10"/>
        <path d="M36.1373 264.752L30.9191 239.47L35.236 238.585" stroke="#6CC0FF" stroke-width="1.41165" stroke-miterlimit="10"/>
        <path d="M39.5725 248.028L38.9514 244.99C38.8717 244.598 38.4926 244.345 38.1044 244.426L35.9255 244.877C35.5366 244.958 35.2868 245.342 35.3672 245.734L35.9884 248.773C36.0681 249.164 36.4472 249.417 36.8354 249.337L39.0142 248.885C39.4024 248.805 39.6523 248.421 39.5725 248.028Z" stroke="#6CC0FF" stroke-width="1.41165" stroke-miterlimit="10"/>
        <path d="M32.7783 261.949L31.8007 257.257" stroke="#6CC0FF" stroke-width="1.41165" stroke-miterlimit="10"/>
        <path d="M34.8209 271.756L33.1199 263.588" stroke="#6CC0FF" stroke-width="1.41165" stroke-miterlimit="10"/>
        <path d="M57.233 266.98L37.4699 271.208L36.4768 266.396" stroke="#6CC0FF" stroke-width="1.41165" stroke-miterlimit="10"/>
        <path d="M41.9039 246.636L52.8237 244.267" stroke="#6CC0FF" stroke-width="1.41165" stroke-miterlimit="10"/>
        <path d="M57.233 269.115V264.88C57.233 264.1 57.8647 263.468 58.6447 263.468H68.5262C69.3062 263.468 69.9379 264.1 69.9379 264.88V269.115" stroke="#6CC0FF" stroke-width="1.41165" stroke-miterlimit="10"/>
        <path d="M60.7621 265.585H59.3505V266.997H60.7621V265.585Z" fill="#6CC0FF"/>
        <path d="M44.7272 257.224L52.1285 255.516" stroke="#6CC0FF" stroke-width="1.41165" stroke-miterlimit="10"/>
        <path d="M37.8073 257.481L40.2932 258.792L42.5313 255.073" stroke="#6CC0FF" stroke-width="1.41165" stroke-miterlimit="10"/>
        <path d="M50.1748 264.88H48.7631V266.291H50.1748V264.88Z" fill="#6CC0FF"/>
        <path d="M53.7039 264.174H52.2922V265.585H53.7039V264.174Z" fill="#6CC0FF"/>
        <path d="M46.6456 265.585H45.2339V266.997H46.6456V265.585Z" fill="#6CC0FF"/>
    </g>
    <path d="M35.4463 196.244C39.3647 196.244 41.623 192.948 41.623 187.162C41.623 181.425 39.3281 178.08 35.4463 178.08C31.5522 178.08 29.2573 181.425 29.2695 187.162C29.2573 192.948 31.5278 196.244 35.4463 196.244ZM31.3936 187.162C31.4058 182.584 32.9072 179.997 35.4463 179.984C37.9854 179.997 39.4868 182.584 39.4746 187.162C39.4868 191.74 37.9976 194.291 35.4463 194.291C32.8828 194.291 31.4058 191.74 31.3936 187.162ZM44.0527 196H55.5273V194.047H47.1045V193.9L51.1572 189.726C54.2822 186.503 55.1978 184.965 55.21 182.987C55.1978 180.241 52.9272 178.08 49.7168 178.08C46.5186 178.08 44.1016 180.18 44.126 183.305H46.2012C46.2134 181.327 47.5317 179.997 49.6436 179.984C51.6333 179.997 53.147 181.168 53.1592 182.987C53.147 184.623 52.146 185.819 50.0586 188.041L44.0283 194.389L44.0527 196Z" fill="white"/>
    <path d="M111.125 182.906H109.141V185.141C107.812 185.18 106.555 185.188 105.484 185.188L105.719 186.797C108.203 186.789 111.578 186.758 114.734 186.156L114.578 184.703C113.469 184.867 112.297 184.977 111.125 185.047V182.906ZM105.766 181.844L106.703 183.344C108.383 182.914 109.516 181.953 110.133 180.711C110.781 181.891 111.93 182.812 113.594 183.234L114.5 181.688C112.352 181.164 111.289 179.875 111.156 178.5H114.062V176.891H111.125V175.344H109.141V176.891H106.219V178.5H109.094C108.961 179.945 107.914 181.273 105.766 181.844ZM115.391 189.469H117.375V175.219H115.391V189.469ZM124.118 177.453V175.969H122.118V177.266C122.102 179.227 121.086 181.117 118.711 181.906L119.789 183.469C121.414 182.922 122.516 181.797 123.133 180.367C123.743 181.609 124.797 182.578 126.305 183.078L127.368 181.531C125.118 180.836 124.11 179.18 124.118 177.453ZM120.68 186.688C120.672 188.43 122.555 189.445 125.555 189.438C128.5 189.445 130.344 188.43 130.352 186.688C130.344 184.961 128.5 183.938 125.555 183.938C122.555 183.938 120.672 184.961 120.68 186.688ZM122.68 186.688C122.664 185.914 123.688 185.5 125.555 185.5C127.399 185.5 128.383 185.914 128.383 186.688C128.383 187.492 127.399 187.875 125.555 187.875C123.688 187.875 122.664 187.492 122.68 186.688ZM128.211 183.656H130.211V180.203H132.133V178.547H130.211V175.219H128.211V183.656ZM137.048 176.172C134.805 176.164 133.087 177.617 133.094 179.656C133.087 181.703 134.805 183.148 137.048 183.156C139.305 183.148 140.977 181.703 140.985 179.656C140.977 177.617 139.305 176.164 137.048 176.172ZM132.501 184.938L132.735 186.562C135.219 186.562 138.594 186.539 141.751 185.922L141.594 184.484C138.555 184.914 135.04 184.945 132.501 184.938ZM135.079 179.656C135.071 178.547 135.923 177.891 137.048 177.891C138.18 177.891 139.04 178.547 139.048 179.656C139.04 180.781 138.18 181.43 137.048 181.422C135.923 181.43 135.071 180.781 135.079 179.656ZM142.407 189.469H144.391V175.219H142.407V189.469ZM113.859 198.484H110.641V197.141H108.656V198.484H105.422V200.062H113.859V198.484ZM106.109 203.141C106.109 204.703 107.578 205.758 109.641 205.766C111.711 205.758 113.141 204.703 113.141 203.141C113.141 201.578 111.711 200.523 109.641 200.516C107.578 200.523 106.109 201.578 106.109 203.141ZM107.125 208.328H114.703V211.438H116.703V206.734H107.125V208.328ZM108.062 203.141C108.055 202.406 108.688 202.016 109.641 202.016C110.602 202.016 111.25 202.406 111.25 203.141C111.25 203.867 110.602 204.242 109.641 204.234C108.688 204.242 108.055 203.867 108.062 203.141ZM114.703 206.141H116.703V202.531H118.625V200.906H116.703V197.219H114.703V206.141ZM122.414 205.75H120.446V211.281H130.258V205.75H128.274V206.953H122.414V205.75ZM118.93 205.031H131.899V203.422H118.93V205.031ZM119.571 201.234L120.289 202.797C122.711 202.484 124.493 201.469 125.414 200.094C126.328 201.469 128.11 202.484 130.555 202.797L131.258 201.234C128.078 200.875 126.446 199.266 126.446 197.844V197.359H124.399V197.844C124.383 199.305 122.743 200.852 119.571 201.234ZM122.414 209.719V208.469H128.274V209.719H122.414ZM143.306 198.297H136.759V199.906H141.204C141.157 200.312 141.079 200.711 140.954 201.078L136.04 201.25L136.321 202.828L140.173 202.516C139.384 203.5 138.079 204.312 136.04 204.969L136.806 206.5C141.603 204.969 143.306 202.273 143.306 198.297ZM138.431 211.188H148.149V209.594H140.446V206.703H138.431V211.188ZM143.228 203.141H145.806V207.719H147.79V197.234H145.806V201.531H143.228V203.141ZM161.533 197.234H159.642V207.844H161.533V197.234ZM149.876 205.844H150.845C152.993 205.852 154.353 205.797 155.986 205.516L155.783 203.953C154.462 204.188 153.329 204.234 151.783 204.242V202.812H154.767V201.297H151.783V199.891H155.298V198.312H149.876V205.844ZM152.001 211.188H161.892V209.594H154.001V206.703H152.001V211.188ZM155.376 202.672H156.814V207.516H158.704V197.484H156.814V201.094H155.376V202.672ZM175.838 208.172H162.822V209.781H175.838V208.172ZM163.275 204.703L164.025 206.297C166.541 205.914 168.361 204.766 169.306 203.219C170.252 204.766 172.072 205.914 174.603 206.297L175.369 204.703C172.142 204.266 170.509 202.531 170.353 200.812H174.697V199.203H170.306V197.438H168.322V199.203H163.947V200.812H168.291C168.119 202.531 166.494 204.266 163.275 204.703Z" fill="white"/>
    <path d="M115.605 228.164H114.463V241.216H115.605V234.287H117.788V233.32H115.605V228.164ZM106.099 237.949H107.124C109.6 237.949 111.306 237.876 113.35 237.51L113.203 236.514C111.262 236.873 109.6 236.975 107.241 236.982V230.391H112.178V229.438H106.099V237.949ZM130.305 230.142H128.372V228.164H127.229V235.898H128.372V233.877H130.305V232.91H128.372V231.094H130.305V230.142ZM118.44 232.017C118.433 233.826 119.883 235.071 121.853 235.078C123.838 235.071 125.266 233.826 125.281 232.017C125.266 230.2 123.838 228.948 121.853 228.955C119.883 228.948 118.433 230.2 118.44 232.017ZM119.568 232.017C119.561 230.793 120.535 229.922 121.853 229.937C123.186 229.922 124.146 230.793 124.153 232.017C124.146 233.247 123.186 234.097 121.853 234.111C120.535 234.097 119.561 233.247 119.568 232.017ZM119.876 238.74C119.883 240.256 121.538 241.157 124.197 241.157C126.856 241.157 128.489 240.256 128.489 238.74C128.489 237.195 126.856 236.301 124.197 236.294C121.538 236.301 119.883 237.195 119.876 238.74ZM121.033 238.74C121.018 237.795 122.234 237.231 124.197 237.231C126.167 237.231 127.368 237.795 127.376 238.74C127.368 239.678 126.167 240.227 124.197 240.234C122.234 240.227 121.018 239.678 121.033 238.74ZM140.933 228.164H139.791V241.187H140.933V234.492H143.116V233.54H140.933V228.164ZM130.782 231.211H138.531V230.259H135.279V228.325H134.136V230.259H130.782V231.211ZM131.529 235.283C131.522 237.048 132.869 238.271 134.722 238.271C136.561 238.271 137.901 237.048 137.916 235.283C137.901 233.525 136.561 232.295 134.722 232.295C132.869 232.295 131.522 233.525 131.529 235.283ZM132.628 235.283C132.62 234.104 133.506 233.254 134.722 233.262C135.923 233.254 136.802 234.104 136.817 235.283C136.802 236.47 135.923 237.305 134.722 237.29C133.506 237.305 132.62 236.47 132.628 235.283ZM153.963 229.482H144.779V230.435H152.806V230.786C152.799 232.346 152.799 234.17 152.308 236.66L153.48 236.792C153.949 234.17 153.949 232.383 153.963 230.786V229.482ZM143.519 239.341H155.384V238.389H149.305V233.73H148.177V238.389H143.519V239.341ZM163.456 232.178V231.533H165.902V230.581H163.471V228.647H162.372V230.581H159.896V231.533H162.372V232.178C162.365 234.331 161.317 236.616 159.545 237.642L160.233 238.521C161.537 237.737 162.467 236.272 162.929 234.602C163.405 236.169 164.342 237.517 165.639 238.228L166.298 237.363C164.525 236.418 163.463 234.272 163.456 232.178ZM165.009 234.287H167.06V240.513H168.144V228.486H167.06V233.306H165.009V234.287ZM169.682 241.187H170.78V228.164H169.682V241.187ZM183.459 228.164H182.36V241.187H183.459V228.164ZM172.297 237.539L173 238.374C175.461 236.902 176.889 234.954 177.519 232.749H179.723V235.063H177.306V236.016H179.723V240.527H180.822V228.516H179.723V231.797H177.746C177.863 231.16 177.922 230.5 177.922 229.834H172.883V230.786H176.779C176.552 233.511 175.131 235.862 172.297 237.539ZM189.502 230.566V230.01H192.417V229.072H185.4V230.01H188.344V230.581C188.344 232.419 186.953 234.155 185.034 234.844L185.634 235.752C187.18 235.181 188.388 233.979 188.952 232.485C189.509 233.826 190.644 234.917 192.109 235.444L192.71 234.536C190.805 233.877 189.502 232.258 189.502 230.566ZM187.011 237.612H194.614V241.187H195.771V236.66H187.011V237.612ZM192.006 232.544H194.614V235.972H195.771V228.164H194.614V231.577H192.006V232.544ZM208.391 228.179H207.248V237.7H208.391V228.179ZM197.947 232.28C197.939 234.177 199.412 235.496 201.36 235.488C203.308 235.496 204.766 234.177 204.773 232.28C204.766 230.405 203.308 229.094 201.36 229.087C199.412 229.094 197.939 230.405 197.947 232.28ZM199.075 232.28C199.06 231.006 200.041 230.098 201.36 230.098C202.656 230.098 203.645 231.006 203.645 232.28C203.645 233.577 202.656 234.478 201.36 234.478C200.041 234.478 199.06 233.577 199.075 232.28ZM199.983 240.908H208.801V239.941H201.125V236.733H199.983V240.908ZM112.061 252.38V251.633H110.874V252.38C110.874 254.248 108.494 255.8 106.143 256.13L106.611 257.067C108.64 256.73 110.64 255.625 111.475 254.013C112.31 255.61 114.316 256.73 116.338 257.067L116.807 256.13C114.456 255.8 112.068 254.218 112.061 252.38ZM105.527 259.47H110.874V264.187H112.002V259.47H117.393V258.503H105.527V259.47ZM124.871 252.79V252.761H129.002V251.823H119.275V252.761H123.377V252.79C123.384 254.394 121.216 255.698 118.924 256.013L119.348 256.921C121.458 256.613 123.413 255.566 124.124 254.042C124.827 255.566 126.797 256.613 128.899 256.921L129.353 256.013C127.046 255.698 124.864 254.394 124.871 252.79ZM118.177 258.825H123.655V261.491H124.798V258.825H130.1V257.873H118.177V258.825ZM119.7 263.908H128.767V262.941H120.857V260.188H119.7V263.908ZM141.636 251.164H140.494V253.039H137.418V251.779H136.29V253.654H132.657V251.779H131.514V257.448H137.418V256.306H140.494V257.976H141.636V251.164ZM132.657 256.511V254.562H136.29V256.511H132.657ZM133.199 259.528H140.494V260.788H133.228V264.011H142.134V263.088H134.371V261.667H141.636V258.605H133.199V259.528ZM137.418 255.397V253.933H140.494V255.397H137.418ZM154.777 252.57H151.466V251.105H150.323V252.57H147.013V253.508H154.777V252.57ZM147.76 256.54C147.753 257.954 149.012 258.876 150.895 258.884C152.762 258.876 154.015 257.954 154.029 256.54C154.015 255.104 152.762 254.196 150.895 254.182C149.012 254.196 147.753 255.104 147.76 256.54ZM148.639 260.964H156.022V264.187H157.164V260.026H148.639V260.964ZM148.859 256.54C148.851 255.654 149.664 255.083 150.895 255.075C152.111 255.083 152.931 255.654 152.946 256.54C152.931 257.404 152.111 257.968 150.895 257.961C149.664 257.968 148.851 257.404 148.859 256.54ZM156.022 259.309H157.164V255.749H159.127V254.782H157.164V251.164H156.022V259.309ZM162.299 258.986H161.156V264.011H169.96V258.986H168.803V260.51H162.299V258.986ZM159.647 258.063H171.513V257.111H159.647V258.063ZM160.321 255.266L160.761 256.188C162.768 255.888 164.76 254.87 165.587 253.405C166.415 254.863 168.4 255.888 170.414 256.188L170.839 255.266C168.546 254.973 166.173 253.53 166.181 251.926V251.311H164.994V251.926C164.994 253.581 162.643 254.951 160.321 255.266ZM162.299 263.088V261.418H168.803V263.088H162.299ZM186.162 251.809H177.197V252.746H185.034V252.893C185.034 253.303 185.026 253.728 185.012 254.182L176.875 254.445L177.036 255.427L184.961 255.053C184.917 255.668 184.829 256.35 184.668 257.111L185.81 257.214C186.169 255.427 186.169 254.101 186.162 252.893V251.809ZM175.791 259.03H187.641V258.093H181.782V256.174H180.625V258.093H175.791V259.03ZM177.299 263.981H186.469V263.044H178.457V260.144H177.299V263.981ZM199.499 251.179H198.401V260.935H199.499V251.179ZM189.055 258.767H189.875C191.985 258.767 193.215 258.701 194.724 258.4L194.607 257.463C193.208 257.756 192.043 257.8 190.154 257.814V255.91H193.479V255.002H190.154V253.2H194.021V252.248H189.055V258.767ZM191.003 263.908H199.895V262.941H192.175V259.851H191.003V263.908ZM194.094 255.808H195.852V260.598H196.965V251.442H195.852V254.885H194.094V255.808ZM213.028 261.55H201.104V262.517H213.028V261.55ZM201.836 258.43L202.29 259.367C204.348 258.942 206.231 257.822 207.044 256.123C207.864 257.822 209.739 258.942 211.797 259.367L212.266 258.43C209.783 257.983 207.63 256.372 207.637 254.211H211.885V253.273H207.608V251.486H206.48V253.273H202.217V254.211H206.465C206.458 256.372 204.297 257.983 201.836 258.43Z" fill="white"/>
    <path d="M51.8806 401.94V420.997" stroke="#ADADAD" stroke-width="1.41165" stroke-miterlimit="10"/>
    <path d="M48.0592 408.998C48.6105 408.998 49.0573 408.551 49.0573 408V392.764C49.0573 391.594 48.1093 390.646 46.9398 390.646H33.5291C32.3595 390.646 31.4116 391.594 31.4116 392.764V403.351C31.4116 404.521 32.3595 405.469 33.5291 405.469H44.1165L47.3534 408.706C47.5404 408.893 47.7945 408.998 48.0592 408.998Z" stroke="#ADADAD" stroke-width="1.41165" stroke-miterlimit="10"/>
    <path d="M37.7641 399.117C38.1539 399.117 38.4699 398.801 38.4699 398.411C38.4699 398.021 38.1539 397.705 37.7641 397.705C37.3742 397.705 37.0582 398.021 37.0582 398.411C37.0582 398.801 37.3742 399.117 37.7641 399.117Z" stroke="#ADADAD" stroke-width="1.41165" stroke-miterlimit="10"/>
    <path d="M42.7048 399.117C43.0947 399.117 43.4107 398.801 43.4107 398.411C43.4107 398.021 43.0947 397.705 42.7048 397.705C42.315 397.705 41.999 398.021 41.999 398.411C41.999 398.801 42.315 399.117 42.7048 399.117Z" stroke="#ADADAD" stroke-width="1.41165" stroke-miterlimit="10"/>
    <path d="M49.0593 400.988C49.9409 401.204 50.8783 401.51 51.8805 401.94C54.6692 400.745 56.9554 400.529 58.9388 400.528C63.8909 400.526 66.3782 403.351 70.9378 403.351L67.4087 421.703C63.2203 421.703 61.7621 420.291 57.5271 420.291C56.0562 420.291 54.2507 420.45 51.8805 420.997C49.5104 420.45 47.7049 420.291 46.2339 420.291C41.999 420.291 40.5407 421.703 36.3524 421.703L33.2397 405.448" stroke="#ADADAD" stroke-width="1.41165" stroke-miterlimit="10"/>
    <path d="M63.9982 405.758C64.6115 405.977 65.2334 406.18 65.8559 406.341" stroke="#ADADAD" stroke-width="1.41165" stroke-miterlimit="10"/>
    <path d="M54.8577 404.96C55.956 404.366 56.9745 404.057 58.233 404.057C59.4315 404.057 60.8523 404.575 62.3727 405.152" stroke="#ADADAD" stroke-width="1.41165" stroke-miterlimit="10"/>
    <path d="M54.8577 408.489C55.956 407.895 56.9745 407.586 58.233 407.586C59.4315 407.586 60.8523 408.105 62.3727 408.681" stroke="#ADADAD" stroke-width="1.41165" stroke-miterlimit="10"/>
    <path d="M66.3775 412.527C64.9179 411.633 62.9945 411.235 61.0563 411.114L60.3505 416.762C62.0367 417.017 63.6834 417.591 65.2912 418.277L66.3775 412.527Z" stroke="#ADADAD" stroke-width="1.41165" stroke-miterlimit="10"/>
    <path d="M54.8577 412.724C55.956 412.13 56.9745 411.821 58.233 411.821" stroke="#ADADAD" stroke-width="1.41165" stroke-miterlimit="10"/>
    <path d="M54.8577 416.253C55.956 415.659 56.9745 415.35 58.233 415.35" stroke="#ADADAD" stroke-width="1.41165" stroke-miterlimit="10"/>
    <path d="M46.234 416.056C42.8347 416.056 41.2247 416.966 38.5553 417.325" stroke="#ADADAD" stroke-width="1.41165" stroke-miterlimit="10"/>
    <path d="M49.6685 416.333C48.957 416.223 48.3063 416.151 47.7063 416.109" stroke="#ADADAD" stroke-width="1.41165" stroke-miterlimit="10"/>
    <path d="M49.6297 412.797C48.3105 412.596 47.2002 412.527 46.2339 412.527C42.8361 412.527 41.2254 413.436 38.5574 413.795" stroke="#ADADAD" stroke-width="1.41165" stroke-miterlimit="10"/>
    <path d="M66.038 421.649L65.4437 422.534C64.9073 423.338 64.0052 423.821 63.0383 423.821H40.7229C39.7566 423.821 38.8539 423.338 38.3174 422.533L37.7309 421.649" stroke="#ADADAD" stroke-width="1.41165" stroke-miterlimit="10"/>
    <path d="M57.3119 389.355L55.8268 392.674" stroke="#ADADAD" stroke-width="1.41165" stroke-miterlimit="10"/>
    <path d="M58.5563 386.573L58.0248 387.761" stroke="#ADADAD" stroke-width="1.41165" stroke-miterlimit="10"/>
    <path d="M61.4776 392.293L59.2091 394.74" stroke="#ADADAD" stroke-width="1.41165" stroke-miterlimit="10"/>
    <path d="M63.538 390.072L62.5272 391.162" stroke="#ADADAD" stroke-width="1.41165" stroke-miterlimit="10"/>
    <path d="M64.5296 396.092L61.165 397.97" stroke="#ADADAD" stroke-width="1.41165" stroke-miterlimit="10"/>
    <path d="M67.2753 394.56L66.1276 395.2" stroke="#ADADAD" stroke-width="1.41165" stroke-miterlimit="10"/>
    <path d="M35.4463 354.244C39.3647 354.244 41.623 350.948 41.623 345.162C41.623 339.425 39.3281 336.08 35.4463 336.08C31.5522 336.08 29.2573 339.425 29.2695 345.162C29.2573 350.948 31.5278 354.244 35.4463 354.244ZM31.3936 345.162C31.4058 340.584 32.9072 337.997 35.4463 337.984C37.9854 337.997 39.4868 340.584 39.4746 345.162C39.4868 349.74 37.9976 352.291 35.4463 352.291C32.8828 352.291 31.4058 349.74 31.3936 345.162ZM50.1562 354.244C53.6841 354.244 56.3208 352.096 56.3086 349.19C56.3208 346.944 54.9292 345.296 52.6221 344.942V344.82C54.4775 344.295 55.6494 342.831 55.625 340.816C55.6494 338.29 53.5986 336.08 50.2295 336.08C47.0923 336.08 44.48 337.96 44.3701 340.768H46.4941C46.5918 339.034 48.313 337.997 50.2051 337.984C52.2192 337.997 53.5132 339.168 53.501 340.938C53.5132 342.757 52.0117 343.966 49.8633 343.966H48.4229V345.895H49.8633C52.6099 345.907 54.1479 347.262 54.1602 349.19C54.1479 351.034 52.4634 352.291 50.1318 352.291C48.02 352.291 46.3477 351.241 46.2256 349.557H44.0039C44.1138 352.364 46.6406 354.244 50.1562 354.244Z" fill="#616161"/>
    <path d="M111.125 345.906H109.141V348.141C107.812 348.18 106.555 348.188 105.484 348.188L105.719 349.797C108.203 349.789 111.578 349.758 114.734 349.156L114.578 347.703C113.469 347.867 112.297 347.977 111.125 348.047V345.906ZM105.766 344.844L106.703 346.344C108.383 345.914 109.516 344.953 110.133 343.711C110.781 344.891 111.93 345.812 113.594 346.234L114.5 344.688C112.352 344.164 111.289 342.875 111.156 341.5H114.062V339.891H111.125V338.344H109.141V339.891H106.219V341.5H109.094C108.961 342.945 107.914 344.273 105.766 344.844ZM115.391 352.469H117.375V338.219H115.391V352.469ZM127.133 339.016H119.414V340.594H122.274C122.258 342.359 121.196 344.242 118.852 344.984L119.868 346.562C121.547 346.023 122.68 344.883 123.313 343.469C123.93 344.742 125.016 345.773 126.586 346.266L127.571 344.734C125.328 343.992 124.313 342.266 124.305 340.594H127.133V339.016ZM121.149 348.906H128.93V352.438H130.914V347.312H121.149V348.906ZM126.727 343.266H128.93V346.688H130.914V338.219H128.93V341.641H126.727V343.266ZM143.813 338.219H141.798V352.438H143.813V345.656H145.673V344H143.813V338.219ZM132.266 348.422L132.532 350.047C134.93 350.055 138.196 350.031 141.219 349.469L141.094 348.016C140.04 348.164 138.907 348.258 137.782 348.32V347.172C139.282 346.883 140.282 345.914 140.298 344.594C140.282 343.008 138.829 341.922 136.798 341.922C134.727 341.922 133.29 343.008 133.298 344.594C133.29 345.914 134.274 346.875 135.782 347.172V348.391C134.516 348.422 133.305 348.422 132.266 348.422ZM132.548 341.359H140.985V339.797H137.782V338.297H135.782V339.797H132.548V341.359ZM135.188 344.594C135.18 343.859 135.821 343.445 136.798 343.438C137.743 343.445 138.376 343.859 138.376 344.594C138.376 345.344 137.743 345.75 136.798 345.75C135.821 345.75 135.18 345.344 135.188 344.594ZM154.243 342.578H149.212V340.672H154.118V339.078H147.212V344.172H149.696V345.672C148.407 345.703 147.149 345.719 146.009 345.719L146.274 347.297C148.907 347.297 152.118 347.219 155.134 346.797L154.993 345.375C153.938 345.484 152.821 345.555 151.696 345.609V344.172H154.243V342.578ZM148.212 352.188H158.274V350.594H150.228V348.109H148.212V352.188ZM155.868 348.922H157.899V338.203H155.868V348.922ZM174.619 339.453H164.103V341.031H172.619C172.611 342.68 172.595 344.609 172.134 347.219L174.088 347.391C174.611 344.523 174.611 342.578 174.619 340.844V339.453ZM162.822 350.703H175.791V349.078H171.103V344.609H169.134V349.078H167.572V344.609H165.588V349.078H162.822V350.703ZM188.736 338.219H186.83V343.688H185.627V338.422H183.736V347.68C181.596 346.57 180.861 344.211 180.861 341.734V341.281H183.033V339.688H176.518V341.281H178.924V341.734C178.916 344.453 178.197 346.969 176.033 348.188L177.268 349.719C178.627 348.906 179.463 347.547 179.932 345.883C180.439 347.328 181.291 348.508 182.611 349.203L183.736 347.711V351.781H185.627V345.312H186.83V352.438H188.736V338.219ZM201.291 339.047H191.323V340.641H199.307C199.299 341.867 199.268 343.266 198.901 345.094H189.838V346.703H195.26V352.453H197.26V346.703H202.807V345.094H200.924C201.283 343.102 201.283 341.656 201.291 340.328V339.047ZM208.721 340.156V338.953H206.706V340.25C206.698 342.234 205.651 344.141 203.221 344.922L204.268 346.516C205.979 345.938 207.128 344.773 207.753 343.289C208.354 344.57 209.393 345.547 210.924 346.078L211.971 344.516C209.69 343.812 208.713 342.055 208.721 340.156ZM205.581 349.688C205.581 351.445 207.44 352.445 210.471 352.438C213.51 352.445 215.37 351.445 215.378 349.688C215.37 347.938 213.51 346.914 210.471 346.922C207.44 346.914 205.581 347.938 205.581 349.688ZM207.565 349.688C207.565 348.875 208.588 348.469 210.471 348.469C212.362 348.469 213.385 348.875 213.393 349.688C213.385 350.477 212.362 350.891 210.471 350.891C208.588 350.891 207.565 350.477 207.565 349.688ZM210.674 342.453H213.346V346.547H215.331V338.219H213.346V340.828H210.674V342.453Z" fill="#616161"/>
    <path d="M112.766 371.266H109.676V369.898H108.609V371.266H105.52V372.141H112.766V371.266ZM106.217 374.971C106.21 376.29 107.386 377.151 109.143 377.158C110.886 377.151 112.055 376.29 112.068 374.971C112.055 373.631 110.886 372.783 109.143 372.77C107.386 372.783 106.21 373.631 106.217 374.971ZM107.037 379.1H113.928V382.107H114.994V378.225H107.037V379.1ZM107.242 374.971C107.235 374.144 107.994 373.61 109.143 373.604C110.277 373.61 111.043 374.144 111.057 374.971C111.043 375.777 110.277 376.304 109.143 376.297C107.994 376.304 107.235 375.777 107.242 374.971ZM113.928 377.555H114.994V374.232H116.826V373.33H114.994V369.953H113.928V377.555ZM119.786 377.254H118.72V381.943H126.937V377.254H125.857V378.676H119.786V377.254ZM117.312 376.393H128.386V375.504H117.312V376.393ZM117.941 373.781L118.351 374.643C120.224 374.362 122.083 373.412 122.856 372.045C123.628 373.405 125.481 374.362 127.361 374.643L127.757 373.781C125.617 373.508 123.403 372.161 123.409 370.664V370.09H122.302V370.664C122.302 372.209 120.108 373.487 117.941 373.781ZM119.786 381.082V379.523H125.857V381.082H119.786ZM138.545 371.225H133.035V372.113H137.485C137.431 372.865 137.307 373.583 137.082 374.267L132.42 374.574L132.611 375.504L136.754 375.114C135.995 376.755 134.614 378.156 132.379 379.277L132.994 380.098C137.287 377.944 138.531 374.731 138.545 371.225ZM138.504 375.736H141.361V382.107H142.428V369.953H141.361V374.848H138.504V375.736ZM154.22 369.953H153.153V382.135H154.22V369.953ZM144.868 371.977H149.448V374.533H144.896V379.182H145.907C148.006 379.182 149.852 379.093 152.087 378.744L151.978 377.842C149.804 378.19 148.006 378.286 145.989 378.279V375.408H150.528V371.088H144.868V371.977ZM165.67 370.486H157.412V371.348H164.604V371.402C164.604 371.751 164.611 372.113 164.59 372.503L157.125 372.729L157.262 373.617L164.542 373.282C164.495 373.74 164.419 374.246 164.303 374.807H156.018V375.682H158.985V376.994H157.317V377.828H164.7V379.004H157.344V381.943H166.19V381.082H158.411V379.811H165.766V376.994H164.098V375.682H167.079V374.807H165.376C165.67 373.398 165.67 372.312 165.67 371.402V370.486ZM160.051 376.994V375.682H163.032V376.994H160.051ZM177.9 377.787H169.902V381.943H177.9V377.787ZM168.316 371.471H172.691V373.111H168.343V376.598H169.259C171.365 376.611 172.93 376.55 174.838 376.256L174.742 375.354C172.917 375.647 171.413 375.716 169.41 375.709V373.945H173.73V370.582H168.316V371.471ZM170.968 381.068V378.621H176.834V381.068H170.968ZM174.509 373.59H176.82V377.104H177.9V369.967H176.82V372.701H174.509V373.59ZM190.061 369.953H189.022V382.107H190.061V369.953ZM179.794 375.203C179.801 377.787 180.826 379.435 182.405 379.428C183.902 379.435 184.921 377.951 185.023 375.586H186.589V381.492H187.614V370.213H186.589V374.697H185.017C184.88 372.407 183.882 370.985 182.405 370.979C180.826 370.985 179.801 372.619 179.794 375.203ZM180.806 375.203C180.792 373.228 181.421 371.99 182.405 371.99C183.396 371.99 184.025 373.228 184.019 375.203C184.025 377.172 183.396 378.416 182.405 378.402C181.421 378.416 180.792 377.172 180.806 375.203ZM110.1 397.365H109.047V399.648C107.782 399.689 106.579 399.696 105.561 399.703L105.711 400.592C107.898 400.599 110.886 400.578 113.668 400.072L113.586 399.279C112.465 399.45 111.275 399.546 110.1 399.607V397.365ZM105.93 396.941L106.449 397.762C107.912 397.317 109.047 396.347 109.573 395.048C110.12 396.278 111.269 397.215 112.725 397.652L113.23 396.805C111.433 396.292 110.134 395.007 110.1 393.441H112.957V392.553H110.1V391.049H109.047V392.553H106.23V393.441H109.02C108.992 395.075 107.728 396.408 105.93 396.941ZM114.393 403.135H115.459V390.953H114.393V403.135ZM121.536 393.195V392.676H124.257V391.801H117.708V392.676H120.456V393.209C120.456 394.925 119.158 396.545 117.366 397.188L117.927 398.035C119.369 397.502 120.497 396.381 121.024 394.986C121.543 396.237 122.603 397.256 123.97 397.748L124.531 396.9C122.753 396.285 121.536 394.774 121.536 393.195ZM119.212 399.771H126.308V403.107H127.388V398.883H119.212V399.771ZM123.874 395.041H126.308V398.24H127.388V390.953H126.308V394.139H123.874V395.041ZM138.565 390.953H137.485V403.107H138.565V397.037H140.506V396.135H138.565V390.953ZM128.981 399.867L129.159 400.783C131.292 400.783 134.163 400.756 136.815 400.305L136.747 399.484C135.687 399.635 134.539 399.73 133.411 399.785V398.486C134.819 398.322 135.755 397.495 135.762 396.285C135.755 394.911 134.573 394.022 132.878 394.029C131.155 394.022 129.993 394.911 130.006 396.285C129.993 397.488 130.916 398.322 132.331 398.486V399.826C131.128 399.86 129.972 399.867 128.981 399.867ZM129.2 393.318H136.528V392.443H133.411V390.98H132.331V392.443H129.2V393.318ZM131.004 396.285C131.011 395.438 131.75 394.863 132.878 394.863C133.985 394.863 134.73 395.438 134.737 396.285C134.73 397.126 133.985 397.68 132.878 397.666C131.75 397.68 131.011 397.126 131.004 396.285ZM148.019 394.945H143.193V392.635H147.924V391.746H142.113V395.82H144.492V397.563C143.268 397.604 142.072 397.618 141.006 397.625L141.17 398.5C143.453 398.5 146.345 398.425 148.963 398.062L148.881 397.27C147.828 397.386 146.693 397.468 145.558 397.516V395.82H148.019V394.945ZM143.084 402.848H151.369V401.945H144.15V399.43H143.084V402.848ZM149.892 400.059H150.972V390.967H149.892V400.059ZM163.278 392.266H160.188V390.898H159.121V392.266H156.032V393.141H163.278V392.266ZM156.729 395.971C156.722 397.29 157.898 398.151 159.655 398.158C161.398 398.151 162.567 397.29 162.58 395.971C162.567 394.631 161.398 393.783 159.655 393.77C157.898 393.783 156.722 394.631 156.729 395.971ZM157.549 400.1H164.44V403.107H165.506V399.225H157.549V400.1ZM157.754 395.971C157.747 395.144 158.506 394.61 159.655 394.604C160.789 394.61 161.555 395.144 161.569 395.971C161.555 396.777 160.789 397.304 159.655 397.297C158.506 397.304 157.747 396.777 157.754 395.971ZM164.44 398.555H165.506V395.232H167.338V394.33H165.506V390.953H164.44V398.555ZM177.845 390.967H176.765V398.158H174.25V398.938H176.765V400.195H177.845V390.967ZM167.756 396.6L167.906 397.475C168.924 397.475 170.093 397.475 171.324 397.427V399.771H172.404V397.372C173.518 397.304 174.66 397.194 175.74 397.023L175.672 396.244C173.067 396.565 170.018 396.586 167.756 396.6ZM168.74 393.578C168.733 394.877 169.95 395.684 171.748 395.684C173.532 395.684 174.749 394.877 174.756 393.578C174.749 392.3 173.532 391.459 171.748 391.459C169.95 391.459 168.733 392.3 168.74 393.578ZM169.506 402.848H178.146V401.945H170.586V399.293H169.506V402.848ZM169.765 393.578C169.752 392.799 170.558 392.266 171.748 392.279C172.903 392.266 173.723 392.799 173.73 393.578C173.723 394.371 172.903 394.884 171.748 394.891C170.558 394.884 169.752 394.371 169.765 393.578ZM189.016 391.787H183.397V396.982H189.016V391.787ZM184.108 402.232L184.518 403.053C186.288 402.766 187.895 401.897 188.578 400.674C189.282 401.891 190.889 402.772 192.666 403.066L193.063 402.232C191.08 401.918 189.262 400.783 189.146 399.484H192.598V398.609H184.586V399.484H188.025C187.902 400.811 186.117 401.918 184.108 402.232ZM184.449 396.107V392.662H187.977V396.107H184.449ZM191.313 397.898H192.379V394.781H194.211V393.879H192.379V390.953H191.313V397.898ZM205.771 396.969H194.697V397.844H199.701V399.184H196.05V402.943H204.418V399.184H200.753V397.844H205.771V396.969ZM195.339 395.438L195.668 396.244C197.684 396.039 199.489 395.335 200.234 394.125C200.972 395.335 202.777 396.039 204.8 396.244L205.115 395.438C202.838 395.232 200.897 394.316 200.822 392.963H204.65V392.102H200.753V390.885H199.701V392.102H195.845V392.963H199.646C199.557 394.316 197.629 395.232 195.339 395.438ZM197.117 402.068V400.045H203.365V402.068H197.117ZM112.766 413.266H109.676V411.898H108.609V413.266H105.52V414.141H112.766V413.266ZM106.217 416.971C106.21 418.29 107.386 419.151 109.143 419.158C110.886 419.151 112.055 418.29 112.068 416.971C112.055 415.631 110.886 414.783 109.143 414.77C107.386 414.783 106.21 415.631 106.217 416.971ZM107.037 421.1H113.928V424.107H114.994V420.225H107.037V421.1ZM107.242 416.971C107.235 416.144 107.994 415.61 109.143 415.604C110.277 415.61 111.043 416.144 111.057 416.971C111.043 417.777 110.277 418.304 109.143 418.297C107.994 418.304 107.235 417.777 107.242 416.971ZM113.928 419.555H114.994V416.232H116.826V415.33H114.994V411.953H113.928V419.555ZM119.786 419.254H118.72V423.943H126.937V419.254H125.857V420.676H119.786V419.254ZM117.312 418.393H128.386V417.504H117.312V418.393ZM117.941 415.781L118.351 416.643C120.224 416.362 122.083 415.412 122.856 414.045C123.628 415.405 125.481 416.362 127.361 416.643L127.757 415.781C125.617 415.508 123.403 414.161 123.409 412.664V412.09H122.302V412.664C122.302 414.209 120.108 415.487 117.941 415.781ZM119.786 423.082V421.523H125.857V423.082H119.786ZM133.411 415.221V413.006H132.317V415.221C132.31 417.463 130.902 419.801 129.118 420.676L129.815 421.537C131.196 420.806 132.337 419.247 132.878 417.429C133.418 419.158 134.559 420.607 135.94 421.318L136.583 420.443C134.819 419.637 133.404 417.422 133.411 415.221ZM135.256 416.984H138.141V424.135H139.208V411.953H138.141V416.109H135.256V416.984Z" fill="#949494"/>
    <path d="M35.3524 546.764C37.3015 546.764 38.8816 545.026 38.8816 542.882C38.8816 540.738 37.3015 539 35.3524 539C33.4033 539 31.8233 540.738 31.8233 542.882C31.8233 545.026 33.4033 546.764 35.3524 546.764Z" stroke="#2D5760" stroke-width="1.41165" stroke-miterlimit="10"/>
    <path d="M35.3524 575.703V561.586" stroke="#2D5760" stroke-width="1.41165" stroke-miterlimit="10"/>
    <path d="M31.8233 555.234V572.88L31.0448 573.139C30.2451 573.405 29.7058 574.154 29.7058 574.997C29.7058 575.387 30.022 575.703 30.4116 575.703H40.2932C40.6828 575.703 40.999 575.387 40.999 574.997C40.999 574.154 40.4598 573.405 39.6601 573.139L38.8815 572.88V560.88" stroke="#2D5760" stroke-width="1.41165" stroke-miterlimit="10"/>
    <path d="M40.999 541.823H62.8796C63.6595 541.823 64.2913 542.455 64.2913 543.235V562.998C64.2913 563.778 63.6595 564.41 62.8796 564.41H46.6456" stroke="#2D5760" stroke-width="1.41165" stroke-miterlimit="10"/>
    <path d="M40.999 564.41H42.4107" stroke="#2D5760" stroke-width="1.41165" stroke-miterlimit="10"/>
    <path d="M43.8223 564.41H45.234" stroke="#2D5760" stroke-width="1.41165" stroke-miterlimit="10"/>
    <path d="M48.7631 539H55.8214" stroke="#2D5760" stroke-width="1.41165" stroke-miterlimit="10"/>
    <path d="M57.233 539H59.3505" stroke="#2D5760" stroke-width="1.41165" stroke-miterlimit="10"/>
    <path d="M50.1747 564.41V576.409" stroke="#2D5760" stroke-width="1.41165" stroke-miterlimit="10"/>
    <path d="M44.2148 576.203L50.1748 567.109L56.1348 576.203" stroke="#2D5760" stroke-width="1.41165" stroke-miterlimit="10"/>
    <path d="M43.8223 560.88C44.9918 560.88 45.9398 559.932 45.9398 558.763C45.9398 557.594 44.9918 556.646 43.8223 556.646C42.6529 556.646 41.7048 557.594 41.7048 558.763C41.7048 559.932 42.6529 560.88 43.8223 560.88Z" stroke="#2D5760" stroke-width="1.41165" stroke-miterlimit="10"/>
    <path d="M53.7039 558.057C54.8734 558.057 55.8214 557.109 55.8214 555.94C55.8214 554.77 54.8734 553.822 53.7039 553.822C52.5345 553.822 51.5864 554.77 51.5864 555.94C51.5864 557.109 52.5345 558.057 53.7039 558.057Z" stroke="#2D5760" stroke-width="1.41165" stroke-miterlimit="10"/>
    <path d="M58.6446 549.587C59.8141 549.587 60.7621 548.639 60.7621 547.47C60.7621 546.301 59.8141 545.353 58.6446 545.353C57.4752 545.353 56.5272 546.301 56.5272 547.47C56.5272 548.639 57.4752 549.587 58.6446 549.587Z" stroke="#2D5760" stroke-width="1.41165" stroke-miterlimit="10"/>
    <path d="M45.8579 558.182L51.6683 556.521" stroke="#2D5760" stroke-width="1.41165" stroke-miterlimit="10"/>
    <path d="M54.7704 554.111L57.5782 549.298" stroke="#2D5760" stroke-width="1.41165" stroke-miterlimit="10"/>
    <path d="M38.8816 561.586V552.411H46.6456C47.4256 552.411 48.0573 551.779 48.0573 550.999C48.0573 550.219 47.4256 549.587 46.6456 549.587H33.235C30.8958 549.587 29 551.483 29 553.822V561.939C29 562.914 29.7898 563.704 30.7646 563.704H31.8233" stroke="#2D5760" stroke-width="1.41165" stroke-miterlimit="10"/>
    <path d="M35.4463 506.244C39.3647 506.244 41.623 502.948 41.623 497.162C41.623 491.425 39.3281 488.08 35.4463 488.08C31.5522 488.08 29.2573 491.425 29.2695 497.162C29.2573 502.948 31.5278 506.244 35.4463 506.244ZM31.3936 497.162C31.4058 492.584 32.9072 489.997 35.4463 489.984C37.9854 489.997 39.4868 492.584 39.4746 497.162C39.4868 501.74 37.9976 504.291 35.4463 504.291C32.8828 504.291 31.4058 501.74 31.3936 497.162ZM43.6133 502.387H52.1826V506H54.2822V502.387H56.748V500.458H54.2822V488.324H51.5723L43.6133 500.58V502.387ZM45.9814 500.458V500.312L51.9629 491.107H52.1826V500.458H45.9814Z" fill="white"/>
    <path d="M116.895 489.018H115.093V494.071H113.877V489.369H112.134V501.762H113.877V495.565H115.093V502.348H116.895V489.018ZM105.234 498.319L106.318 499.608C110.076 497.426 111.189 494.379 111.196 490.658H105.908V492.152H109.373C109.124 494.767 107.952 496.723 105.234 498.319ZM129.295 489.018H127.434V490.717H124.973V489.589H123.128V491.142H120.506V489.589H118.631V495.492H124.973V494.54H127.434V495.873H129.295V489.018ZM120.418 497.807H127.434V498.568H120.432V502.201H129.69V500.736H122.307V499.931H129.295V496.371H120.418V497.807ZM120.506 494.027V492.562H123.128V494.027H120.506ZM124.973 493.134V492.108H127.434V493.134H124.973ZM140.677 489.882H134.276V495.727H140.677V489.882ZM135.067 500.868L135.741 502.289C137.872 502.018 139.366 501.183 140.128 500.041C140.897 501.183 142.406 502.033 144.544 502.318L145.204 500.897C142.838 500.583 141.512 499.594 141.204 498.598H144.618V497.118H135.638V498.598H139.066C138.766 499.623 137.462 500.575 135.067 500.868ZM136.121 494.247V491.361H138.831V494.247H136.121ZM142.581 496.488H144.456V493.441H146.258V491.918H144.456V489.018H142.581V496.488ZM158.702 495.419H146.544V496.898H151.686V497.924H147.95V502.201H157.252V497.924H153.531V496.898H158.702V495.419ZM147.057 493.544L147.599 494.921C150.06 494.752 151.766 494.079 152.609 493.031C153.444 494.079 155.15 494.752 157.618 494.921L158.16 493.544C155.289 493.375 153.927 492.541 153.685 491.625H157.53V490.16H153.531V489.018H151.686V490.16H147.716V491.625H151.525C151.283 492.541 149.95 493.375 147.057 493.544ZM149.796 500.707V499.403H155.421V500.707H149.796ZM166.649 490.248H163.969V488.9H162.108V490.248H159.237V491.728H166.649V490.248ZM159.896 494.672C159.882 496.166 161.178 497.155 163.017 497.147C164.848 497.155 166.166 496.166 166.181 494.672C166.166 493.192 164.848 492.174 163.017 492.167C161.178 492.174 159.882 493.192 159.896 494.672ZM161.317 500.019C161.31 501.469 163.068 502.355 165.917 502.348C168.751 502.355 170.509 501.469 170.517 500.019C170.509 498.539 168.751 497.667 165.917 497.675C163.068 497.667 161.31 498.539 161.317 500.019ZM161.64 494.672C161.632 493.961 162.174 493.566 163.017 493.559C163.852 493.566 164.438 493.961 164.438 494.672C164.438 495.39 163.852 495.771 163.017 495.771C162.174 495.771 161.632 495.39 161.64 494.672ZM163.28 500.019C163.28 499.381 164.21 499.096 165.917 499.081C167.587 499.096 168.51 499.381 168.51 500.019C168.51 500.626 167.587 500.941 165.917 500.941C164.21 500.941 163.28 500.626 163.28 500.019ZM166.767 496.107H168.583V497.514H170.443V489.018H168.583V491.947H166.796V493.441H168.583V494.613H166.767V496.107ZM113.306 511.204H110.288V509.944H108.428V511.204H105.396V512.684H113.306V511.204ZM106.04 515.569C106.04 517.034 107.417 518.023 109.351 518.03C111.292 518.023 112.632 517.034 112.632 515.569C112.632 514.104 111.292 513.116 109.351 513.108C107.417 513.116 106.04 514.104 106.04 515.569ZM106.992 520.433H114.097V523.348H115.972V518.938H106.992V520.433ZM107.871 515.569C107.864 514.881 108.457 514.515 109.351 514.515C110.251 514.515 110.859 514.881 110.859 515.569C110.859 516.25 110.251 516.602 109.351 516.595C108.457 516.602 107.864 516.25 107.871 515.569ZM114.097 518.382H115.972V514.998H117.773V513.475H115.972V510.018H114.097V518.382ZM121.326 518.016H119.48V523.201H128.679V518.016H126.819V519.144H121.326V518.016ZM118.059 517.342H130.218V515.833H118.059V517.342ZM118.66 513.782L119.334 515.247C121.604 514.954 123.274 514.002 124.138 512.713C124.995 514.002 126.665 514.954 128.958 515.247L129.617 513.782C126.636 513.445 125.105 511.937 125.105 510.604V510.149H123.186V510.604C123.172 511.973 121.634 513.423 118.66 513.782ZM121.326 521.736V520.564H126.819V521.736H121.326ZM139.066 513.035V511.043H137.176V513.035C137.169 515.621 136.034 518.177 133.704 519.158L134.832 520.711C136.458 519.971 137.55 518.521 138.15 516.719C138.758 518.367 139.813 519.7 141.336 520.389L142.435 518.895C140.172 517.935 139.058 515.481 139.066 513.035ZM143.153 523.377H145.042V510.018H143.153V523.377ZM153.561 511.775V510.809H151.569V511.775C151.554 513.709 149.818 515.804 146.852 516.331L147.657 517.884C149.965 517.415 151.693 516.097 152.572 514.405C153.436 516.111 155.157 517.422 157.487 517.884L158.307 516.331C155.289 515.818 153.553 513.731 153.561 511.775ZM146.544 521.707H158.746V520.169H146.544V521.707ZM164.818 510.809H159.735V517.444H160.644C162.658 517.452 163.932 517.4 165.463 517.137L165.272 515.687C164.035 515.884 162.973 515.95 161.522 515.972V514.808H164.32V513.372H161.522V512.317H164.818V510.809ZM161.566 523.201H170.663V518.499H161.566V523.201ZM163.427 521.707V519.964H168.817V521.707H163.427ZM164.892 514.72H166.239V517.884H168.012V510.223H166.239V513.226H164.892V514.72ZM168.891 517.972H170.663V510.018H168.891V517.972Z" fill="white"/>
    <path d="M115.568 537.953H114.488V541.125H112.041V542.014H114.488V545.199H115.568V537.953ZM105.547 544.229L106.107 545.09C107.557 544.536 108.685 543.401 109.204 541.979C109.73 543.23 110.79 544.256 112.15 544.748L112.711 543.887C110.934 543.278 109.717 541.768 109.717 540.182V539.744H112.438V538.842H105.889V539.744H108.637V540.195C108.637 541.932 107.352 543.579 105.547 544.229ZM107.461 547.838C107.454 549.273 109.006 550.094 111.535 550.107C114.058 550.094 115.609 549.273 115.609 547.838C115.609 546.409 114.058 545.575 111.535 545.582C109.006 545.575 107.454 546.409 107.461 547.838ZM108.527 547.838C108.521 546.949 109.669 546.416 111.535 546.416C113.395 546.416 114.543 546.949 114.543 547.838C114.543 548.72 113.395 549.253 111.535 549.246C109.669 549.253 108.521 548.72 108.527 547.838ZM126.8 537.967H125.72V546.115H126.8V542.547H128.618V541.645H126.8V537.967ZM117.257 544.871L117.38 545.746C119.52 545.753 122.425 545.732 125.064 545.268L124.968 544.488C123.902 544.646 122.753 544.741 121.618 544.796V543.941C123.027 543.805 123.915 543.155 123.929 542.15C123.915 541.043 122.794 540.359 121.072 540.359C119.363 540.359 118.221 541.043 118.228 542.15C118.221 543.162 119.137 543.812 120.552 543.941V544.837C119.363 544.871 118.228 544.871 117.257 544.871ZM117.558 539.895H124.599V539.074H121.618V537.857H120.552V539.074H117.558V539.895ZM118.747 547.578H125.72V550.107H126.8V546.717H118.747V547.578ZM119.253 542.15C119.246 541.508 119.95 541.111 121.072 541.125C122.193 541.111 122.904 541.508 122.904 542.15C122.904 542.786 122.193 543.217 121.072 543.203C119.95 543.217 119.246 542.786 119.253 542.15ZM138.633 537.967H137.567V547.072H138.633V542.875H140.465V541.973H138.633V537.967ZM129.159 540.332H136.405V539.457H133.315V537.967H132.249V539.457H129.159V540.332ZM129.856 543.271C129.849 544.639 131.025 545.521 132.782 545.514C134.518 545.521 135.694 544.639 135.708 543.271C135.694 541.891 134.518 541.002 132.782 541.002C131.025 541.002 129.849 541.891 129.856 543.271ZM130.881 543.271C130.875 542.403 131.633 541.843 132.782 541.85C133.917 541.843 134.682 542.403 134.696 543.271C134.682 544.126 133.917 544.68 132.782 544.666C131.633 544.68 130.875 544.126 130.881 543.271ZM131.032 549.848H139.194V548.945H132.085V546.348H131.032V549.848ZM151.458 539.266H148.368V537.898H147.302V539.266H144.212V540.141H151.458V539.266ZM144.909 542.971C144.902 544.29 146.078 545.151 147.835 545.158C149.578 545.151 150.747 544.29 150.761 542.971C150.747 541.631 149.578 540.783 147.835 540.77C146.078 540.783 144.902 541.631 144.909 542.971ZM145.73 547.1H152.62V550.107H153.687V546.225H145.73V547.1ZM145.935 542.971C145.928 542.144 146.687 541.61 147.835 541.604C148.97 541.61 149.735 542.144 149.749 542.971C149.735 543.777 148.97 544.304 147.835 544.297C146.687 544.304 145.928 543.777 145.935 542.971ZM152.62 545.555H153.687V542.232H155.519V541.33H153.687V537.953H152.62V545.555ZM158.479 545.254H157.412V549.943H165.629V545.254H164.549V546.676H158.479V545.254ZM156.004 544.393H167.079V543.504H156.004V544.393ZM156.633 541.781L157.043 542.643C158.916 542.362 160.776 541.412 161.548 540.045C162.321 541.405 164.173 542.362 166.053 542.643L166.45 541.781C164.31 541.508 162.095 540.161 162.102 538.664V538.09H160.995V538.664C160.995 540.209 158.8 541.487 156.633 541.781ZM158.479 549.082V547.523H164.549V549.082H158.479ZM172.199 540.564V539.854H175.002V538.979H168.275V539.854H171.119V540.564C171.112 542.287 169.827 543.866 168.002 544.502L168.562 545.363C170.011 544.83 171.153 543.736 171.679 542.355C172.233 543.634 173.354 544.632 174.769 545.117L175.316 544.256C173.498 543.682 172.206 542.205 172.199 540.564ZM170.011 549.848H178.242V548.945H171.078V546.033H170.011V549.848ZM176.793 546.881H177.859V537.967H176.793V546.881ZM189.145 537.953H188.079V546.758H189.145V542.479H190.991V541.576H189.145V537.953ZM180.218 544.598H181.161C183.718 544.598 185.167 544.516 186.876 544.188L186.739 543.299C185.112 543.627 183.725 543.702 181.284 543.695V539.908H185.632V539.006H180.218V544.598ZM181.544 549.848H189.706V548.945H182.597V545.869H181.544V549.848ZM193.459 548.084H192.133L191.381 551.803H192.393L193.459 548.084ZM111.631 559.787H106.012V564.982H111.631V559.787ZM106.723 570.232L107.133 571.053C108.903 570.766 110.51 569.897 111.193 568.674C111.897 569.891 113.504 570.772 115.281 571.066L115.678 570.232C113.695 569.918 111.877 568.783 111.761 567.484H115.213V566.609H107.201V567.484H110.64C110.517 568.811 108.732 569.918 106.723 570.232ZM107.064 564.107V560.662H110.592V564.107H107.064ZM113.928 565.898H114.994V562.781H116.826V561.879H114.994V558.953H113.928V565.898ZM128.386 564.969H117.312V565.844H122.316V567.184H118.665V570.943H127.033V567.184H123.368V565.844H128.386V564.969ZM117.954 563.438L118.283 564.244C120.299 564.039 122.104 563.335 122.849 562.125C123.587 563.335 125.392 564.039 127.415 564.244L127.73 563.438C125.453 563.232 123.512 562.316 123.437 560.963H127.265V560.102H123.368V558.885H122.316V560.102H118.46V560.963H122.261C122.172 562.316 120.244 563.232 117.954 563.438ZM119.732 570.068V568.045H125.98V570.068H119.732ZM136.405 560.266H133.315V558.898H132.249V560.266H129.159V561.141H136.405V560.266ZM129.856 563.971C129.849 565.29 131.025 566.151 132.782 566.158C134.525 566.151 135.694 565.29 135.708 563.971C135.694 562.631 134.525 561.783 132.782 561.77C131.025 561.783 129.849 562.631 129.856 563.971ZM130.676 568.1H137.567V571.107H138.633V567.225H130.676V568.1ZM130.881 563.971C130.875 563.144 131.633 562.61 132.782 562.604C133.917 562.61 134.682 563.144 134.696 563.971C134.682 564.777 133.917 565.304 132.782 565.297C131.633 565.304 130.875 564.777 130.881 563.971ZM137.567 566.555H138.633V563.232H140.465V562.33H138.633V558.953H137.567V566.555ZM143.426 566.254H142.359V570.943H150.576V566.254H149.496V567.676H143.426V566.254ZM140.951 565.393H152.025V564.504H140.951V565.393ZM141.58 562.781L141.99 563.643C143.863 563.362 145.722 562.412 146.495 561.045C147.267 562.405 149.12 563.362 151 563.643L151.396 562.781C149.257 562.508 147.042 561.161 147.049 559.664V559.09H145.941V559.664C145.941 561.209 143.747 562.487 141.58 562.781ZM143.426 570.082V568.523H149.496V570.082H143.426ZM162.061 562.672H161.008V564.271H156.004V565.146H167.079V564.271H162.061V562.672ZM156.62 562.494L157.002 563.314C158.91 563.055 160.769 562.228 161.535 560.895C162.3 562.228 164.153 563.055 166.067 563.314L166.45 562.494C164.235 562.248 162.075 561.086 162.075 559.514V559.049H160.995V559.514C160.995 561.086 158.841 562.248 156.62 562.494ZM157.344 566.992H164.604V568.113H157.371V570.971H166.026V570.123H158.438V568.92H165.657V566.158H157.344V566.992ZM177.586 559.445H169.15V560.32H176.492V561.756H169.177V565.064H177.845V564.176H170.257V562.604H177.586V559.445ZM167.81 567.211H172.814V571.135H173.881V567.211H178.939V566.35H167.81V567.211ZM183.8 561.209V559.65H182.747V561.209C182.74 563.116 181.482 564.859 179.671 565.557L180.259 566.418C181.674 565.83 182.768 564.647 183.287 563.157C183.8 564.538 184.846 565.646 186.179 566.199L186.78 565.365C185.023 564.675 183.8 562.993 183.8 561.209ZM181.858 570.848H189.993V569.945H182.938V567.102H181.858V570.848ZM186.138 564.148H188.64V568.045H189.72V558.967H188.64V560.771H186.138V561.66H188.64V563.273H186.138V564.148Z" fill="white"/>
    <defs>
        <clipPath id="clip0_2_5">
            <rect width="42.3495" height="42.3495" fill="white" transform="translate(29 231)"/>
        </clipPath>
    </defs>
</svg>
